G04 #@! TF.FileFunction,Soldermask,Top*
%FSLAX46Y46*%
G04 Gerber Fmt 4.6, Leading zero omitted, Abs format (unit mm)*
G04 Created by KiCad (PCBNEW 4.0.6) date Mon Aug  6 11:43:49 2018*
%MOMM*%
%LPD*%
G01*
G04 APERTURE LIST*
%ADD10C,0.100000*%
%ADD11C,2.100000*%
%ADD12O,1.650000X1.750000*%
%ADD13O,1.800000X1.950000*%
%ADD14C,2.200000*%
%ADD15C,2.900000*%
%ADD16R,2.200000X2.200000*%
%ADD17R,2.100000X2.100000*%
%ADD18O,2.100000X2.100000*%
%ADD19R,1.900000X2.900000*%
%ADD20R,2.400000X1.900000*%
%ADD21R,2.900000X1.900000*%
%ADD22C,4.400000*%
G04 APERTURE END LIST*
D10*
D11*
X85110000Y-28895000D03*
X87650000Y-28895000D03*
X90190000Y-28895000D03*
X92730000Y-28895000D03*
X95270000Y-28895000D03*
X97810000Y-28895000D03*
X100350000Y-28895000D03*
X102890000Y-28895000D03*
D12*
X143000000Y-30350000D03*
X148000000Y-30350000D03*
D13*
X142000000Y-27650000D03*
X149000000Y-27650000D03*
D14*
X53500000Y-28000000D03*
X43500000Y-28000000D03*
D15*
X56000000Y-33000000D03*
D14*
X51000000Y-28000000D03*
X46000000Y-28000000D03*
D16*
X41000000Y-38000000D03*
D14*
X48500000Y-38000000D03*
X56000000Y-38000000D03*
X43500000Y-40500000D03*
X53500000Y-40500000D03*
D15*
X41000000Y-33000000D03*
D17*
X158000000Y-105520000D03*
D18*
X160540000Y-105520000D03*
X158000000Y-108060000D03*
X160540000Y-108060000D03*
X158000000Y-110600000D03*
X160540000Y-110600000D03*
X158000000Y-113140000D03*
X160540000Y-113140000D03*
X158000000Y-115680000D03*
X160540000Y-115680000D03*
X158000000Y-118220000D03*
X160540000Y-118220000D03*
X158000000Y-120760000D03*
X160540000Y-120760000D03*
X158000000Y-123300000D03*
X160540000Y-123300000D03*
X158000000Y-125840000D03*
X160540000Y-125840000D03*
X158000000Y-128380000D03*
X160540000Y-128380000D03*
X158000000Y-130920000D03*
X160540000Y-130920000D03*
X158000000Y-133460000D03*
X160540000Y-133460000D03*
X158000000Y-136000000D03*
X160540000Y-136000000D03*
X158000000Y-138540000D03*
X160540000Y-138540000D03*
X158000000Y-141080000D03*
X160540000Y-141080000D03*
X158000000Y-143620000D03*
X160540000Y-143620000D03*
X158000000Y-146160000D03*
X160540000Y-146160000D03*
X158000000Y-148700000D03*
X160540000Y-148700000D03*
X158000000Y-151240000D03*
X160540000Y-151240000D03*
X158000000Y-153780000D03*
X160540000Y-153780000D03*
D19*
X132400000Y-36000000D03*
D20*
X125500000Y-37000000D03*
X134500000Y-38300000D03*
D21*
X132200000Y-29000000D03*
D14*
X51500000Y-179000000D03*
X54000000Y-179000000D03*
X56500000Y-179000000D03*
D22*
X49600000Y-172000000D03*
X58400000Y-172000000D03*
D14*
X67520000Y-179000000D03*
X70020000Y-179000000D03*
X72520000Y-179000000D03*
D22*
X65620000Y-172000000D03*
X74420000Y-172000000D03*
D14*
X83540000Y-179000000D03*
X86040000Y-179000000D03*
X88540000Y-179000000D03*
D22*
X81640000Y-172000000D03*
X90440000Y-172000000D03*
D14*
X99560000Y-179000000D03*
X102060000Y-179000000D03*
X104560000Y-179000000D03*
D22*
X97660000Y-172000000D03*
X106460000Y-172000000D03*
D14*
X115580000Y-179000000D03*
X118080000Y-179000000D03*
X120580000Y-179000000D03*
D22*
X113680000Y-172000000D03*
X122480000Y-172000000D03*
D14*
X131600000Y-179000000D03*
X134100000Y-179000000D03*
X136600000Y-179000000D03*
D22*
X129700000Y-172000000D03*
X138500000Y-172000000D03*
D14*
X30500000Y-47000000D03*
X25500000Y-47000000D03*
X30500000Y-32500000D03*
X28000000Y-32500000D03*
X25500000Y-32500000D03*
D22*
X33700000Y-40000000D03*
X22300000Y-40000000D03*
D14*
X162500000Y-47000000D03*
X157500000Y-47000000D03*
X162500000Y-32500000D03*
X160000000Y-32500000D03*
X157500000Y-32500000D03*
D22*
X165700000Y-40000000D03*
X154300000Y-40000000D03*
D14*
X30500000Y-179000000D03*
X25500000Y-179000000D03*
X30500000Y-164500000D03*
X28000000Y-164500000D03*
X25500000Y-164500000D03*
D22*
X33700000Y-172000000D03*
X22300000Y-172000000D03*
D14*
X162500000Y-179000000D03*
X157500000Y-179000000D03*
X162500000Y-164500000D03*
X160000000Y-164500000D03*
X157500000Y-164500000D03*
D22*
X165700000Y-172000000D03*
X154300000Y-172000000D03*
M02*
