G04 #@! TF.FileFunction,Soldermask,Bot*
%FSLAX46Y46*%
G04 Gerber Fmt 4.6, Leading zero omitted, Abs format (unit mm)*
G04 Created by KiCad (PCBNEW 4.0.6) date Mon Aug  6 11:43:49 2018*
%MOMM*%
%LPD*%
G01*
G04 APERTURE LIST*
%ADD10C,0.100000*%
%ADD11R,4.400000X2.400000*%
%ADD12C,2.100000*%
%ADD13R,2.400000X2.000000*%
%ADD14R,1.050000X3.460000*%
%ADD15R,0.800000X1.750000*%
%ADD16O,1.650000X1.750000*%
%ADD17O,1.800000X1.950000*%
%ADD18C,2.200000*%
%ADD19C,2.900000*%
%ADD20R,2.200000X2.200000*%
%ADD21R,2.100000X2.100000*%
%ADD22O,2.100000X2.100000*%
%ADD23R,2.000000X2.400000*%
%ADD24R,2.100000X2.400000*%
%ADD25R,2.400000X2.100000*%
%ADD26R,1.900000X2.900000*%
%ADD27R,2.400000X1.900000*%
%ADD28R,2.900000X1.900000*%
%ADD29C,4.400000*%
%ADD30R,3.460000X1.050000*%
%ADD31R,3.650000X0.850000*%
%ADD32R,1.924000X3.432000*%
%ADD33R,0.800000X2.700000*%
%ADD34R,1.000000X2.800000*%
%ADD35R,2.800000X1.000000*%
G04 APERTURE END LIST*
D10*
D11*
X108500000Y-57000000D03*
D12*
X85110000Y-28895000D03*
X87650000Y-28895000D03*
X90190000Y-28895000D03*
X92730000Y-28895000D03*
X95270000Y-28895000D03*
X97810000Y-28895000D03*
X100350000Y-28895000D03*
X102890000Y-28895000D03*
D11*
X79500000Y-57000000D03*
D13*
X62000000Y-43000000D03*
X66000000Y-43000000D03*
D14*
X166050000Y-47400000D03*
X167000000Y-47400000D03*
X167950000Y-47400000D03*
X167950000Y-51600000D03*
X166050000Y-51600000D03*
D15*
X144200000Y-30350000D03*
X144850000Y-30350000D03*
X145500000Y-30350000D03*
X146150000Y-30350000D03*
X146800000Y-30350000D03*
D16*
X143000000Y-30350000D03*
X148000000Y-30350000D03*
D17*
X142000000Y-27650000D03*
X149000000Y-27650000D03*
D18*
X53500000Y-28000000D03*
X43500000Y-28000000D03*
D19*
X56000000Y-33000000D03*
D18*
X51000000Y-28000000D03*
X46000000Y-28000000D03*
D20*
X41000000Y-38000000D03*
D18*
X48500000Y-38000000D03*
X56000000Y-38000000D03*
X43500000Y-40500000D03*
X53500000Y-40500000D03*
D19*
X41000000Y-33000000D03*
D21*
X158000000Y-105520000D03*
D22*
X160540000Y-105520000D03*
X158000000Y-108060000D03*
X160540000Y-108060000D03*
X158000000Y-110600000D03*
X160540000Y-110600000D03*
X158000000Y-113140000D03*
X160540000Y-113140000D03*
X158000000Y-115680000D03*
X160540000Y-115680000D03*
X158000000Y-118220000D03*
X160540000Y-118220000D03*
X158000000Y-120760000D03*
X160540000Y-120760000D03*
X158000000Y-123300000D03*
X160540000Y-123300000D03*
X158000000Y-125840000D03*
X160540000Y-125840000D03*
X158000000Y-128380000D03*
X160540000Y-128380000D03*
X158000000Y-130920000D03*
X160540000Y-130920000D03*
X158000000Y-133460000D03*
X160540000Y-133460000D03*
X158000000Y-136000000D03*
X160540000Y-136000000D03*
X158000000Y-138540000D03*
X160540000Y-138540000D03*
X158000000Y-141080000D03*
X160540000Y-141080000D03*
X158000000Y-143620000D03*
X160540000Y-143620000D03*
X158000000Y-146160000D03*
X160540000Y-146160000D03*
X158000000Y-148700000D03*
X160540000Y-148700000D03*
X158000000Y-151240000D03*
X160540000Y-151240000D03*
X158000000Y-153780000D03*
X160540000Y-153780000D03*
D13*
X138000000Y-43000000D03*
X142000000Y-43000000D03*
X128000000Y-43000000D03*
X124000000Y-43000000D03*
D23*
X27500000Y-124000000D03*
X27500000Y-120000000D03*
X25500000Y-154000000D03*
X25500000Y-150000000D03*
X25500000Y-93000000D03*
X25500000Y-89000000D03*
D13*
X24000000Y-103000000D03*
X28000000Y-103000000D03*
X40000000Y-121500000D03*
X36000000Y-121500000D03*
D23*
X32500000Y-124000000D03*
X32500000Y-120000000D03*
X150000000Y-81000000D03*
X150000000Y-85000000D03*
X156000000Y-81000000D03*
X156000000Y-85000000D03*
D13*
X146000000Y-64000000D03*
X142000000Y-64000000D03*
X163000000Y-59500000D03*
X167000000Y-59500000D03*
D23*
X30000000Y-124000000D03*
X30000000Y-120000000D03*
D13*
X167000000Y-44500000D03*
X171000000Y-44500000D03*
D23*
X171000000Y-51500000D03*
X171000000Y-47500000D03*
D13*
X163000000Y-54500000D03*
X167000000Y-54500000D03*
X146000000Y-77000000D03*
X142000000Y-77000000D03*
D23*
X142000000Y-70000000D03*
X142000000Y-74000000D03*
D13*
X146000000Y-67000000D03*
X142000000Y-67000000D03*
D23*
X157000000Y-93000000D03*
X157000000Y-97000000D03*
D13*
X150000000Y-97000000D03*
X154000000Y-97000000D03*
D23*
X147000000Y-93000000D03*
X147000000Y-97000000D03*
D13*
X149000000Y-61000000D03*
X153000000Y-61000000D03*
D23*
X156000000Y-58000000D03*
X156000000Y-54000000D03*
D13*
X40000000Y-124000000D03*
X36000000Y-124000000D03*
X24000000Y-100500000D03*
X28000000Y-100500000D03*
D23*
X147000000Y-81000000D03*
X147000000Y-85000000D03*
D13*
X146000000Y-61000000D03*
X142000000Y-61000000D03*
X163000000Y-57000000D03*
X167000000Y-57000000D03*
D24*
X70500000Y-43000000D03*
X70500000Y-39000000D03*
X128000000Y-50000000D03*
X128000000Y-46000000D03*
X138000000Y-50000000D03*
X138000000Y-46000000D03*
X171000000Y-81000000D03*
X171000000Y-85000000D03*
X168000000Y-81000000D03*
X168000000Y-85000000D03*
X165000000Y-81000000D03*
X165000000Y-85000000D03*
D25*
X61000000Y-58000000D03*
X65000000Y-58000000D03*
D24*
X159000000Y-85000000D03*
X159000000Y-81000000D03*
X162000000Y-81000000D03*
X162000000Y-85000000D03*
D25*
X50000000Y-153000000D03*
X54000000Y-153000000D03*
X58000000Y-153000000D03*
X62000000Y-153000000D03*
X66000000Y-153000000D03*
X70000000Y-153000000D03*
X74000000Y-153000000D03*
X78000000Y-153000000D03*
X82000000Y-153000000D03*
X86000000Y-153000000D03*
X90000000Y-153000000D03*
X94000000Y-153000000D03*
X98000000Y-153000000D03*
X102000000Y-153000000D03*
X106000000Y-153000000D03*
X110000000Y-153000000D03*
X114000000Y-153000000D03*
X118000000Y-153000000D03*
X122000000Y-153000000D03*
X126000000Y-153000000D03*
X130000000Y-153000000D03*
X134000000Y-153000000D03*
D24*
X47000000Y-70000000D03*
X47000000Y-66000000D03*
X47000000Y-78000000D03*
X47000000Y-74000000D03*
X47000000Y-86000000D03*
X47000000Y-82000000D03*
X47000000Y-94000000D03*
X47000000Y-90000000D03*
X47000000Y-102000000D03*
X47000000Y-98000000D03*
X47000000Y-110000000D03*
X47000000Y-106000000D03*
X47000000Y-118000000D03*
X47000000Y-114000000D03*
X47000000Y-126000000D03*
X47000000Y-122000000D03*
X47000000Y-134000000D03*
X47000000Y-130000000D03*
X47000000Y-142000000D03*
X47000000Y-138000000D03*
X47000000Y-150000000D03*
X47000000Y-146000000D03*
X40000000Y-119000000D03*
X40000000Y-115000000D03*
D26*
X132400000Y-36000000D03*
D27*
X125500000Y-37000000D03*
X134500000Y-38300000D03*
D28*
X132200000Y-29000000D03*
D18*
X51500000Y-179000000D03*
X54000000Y-179000000D03*
X56500000Y-179000000D03*
D29*
X49600000Y-172000000D03*
X58400000Y-172000000D03*
D18*
X67520000Y-179000000D03*
X70020000Y-179000000D03*
X72520000Y-179000000D03*
D29*
X65620000Y-172000000D03*
X74420000Y-172000000D03*
D18*
X83540000Y-179000000D03*
X86040000Y-179000000D03*
X88540000Y-179000000D03*
D29*
X81640000Y-172000000D03*
X90440000Y-172000000D03*
D18*
X99560000Y-179000000D03*
X102060000Y-179000000D03*
X104560000Y-179000000D03*
D29*
X97660000Y-172000000D03*
X106460000Y-172000000D03*
D18*
X115580000Y-179000000D03*
X118080000Y-179000000D03*
X120580000Y-179000000D03*
D29*
X113680000Y-172000000D03*
X122480000Y-172000000D03*
D18*
X131600000Y-179000000D03*
X134100000Y-179000000D03*
X136600000Y-179000000D03*
D29*
X129700000Y-172000000D03*
X138500000Y-172000000D03*
D23*
X153000000Y-81000000D03*
X153000000Y-85000000D03*
D14*
X146950000Y-74100000D03*
X146000000Y-74100000D03*
X145050000Y-74100000D03*
X145050000Y-69900000D03*
X146950000Y-69900000D03*
D30*
X154100000Y-92050000D03*
X154100000Y-93000000D03*
X154100000Y-93950000D03*
X149900000Y-93950000D03*
X149900000Y-92050000D03*
D31*
X37850000Y-144075000D03*
X37850000Y-144725000D03*
X37850000Y-145375000D03*
X37850000Y-146025000D03*
X37850000Y-146675000D03*
X37850000Y-147325000D03*
X37850000Y-147975000D03*
X37850000Y-148625000D03*
X37850000Y-149275000D03*
X37850000Y-149925000D03*
X30150000Y-149925000D03*
X30150000Y-149275000D03*
X30150000Y-148625000D03*
X30150000Y-147975000D03*
X30150000Y-147325000D03*
X30150000Y-146675000D03*
X30150000Y-146025000D03*
X30150000Y-145375000D03*
X30150000Y-144725000D03*
X30150000Y-144075000D03*
X37850000Y-83075000D03*
X37850000Y-83725000D03*
X37850000Y-84375000D03*
X37850000Y-85025000D03*
X37850000Y-85675000D03*
X37850000Y-86325000D03*
X37850000Y-86975000D03*
X37850000Y-87625000D03*
X37850000Y-88275000D03*
X37850000Y-88925000D03*
X30150000Y-88925000D03*
X30150000Y-88275000D03*
X30150000Y-87625000D03*
X30150000Y-86975000D03*
X30150000Y-86325000D03*
X30150000Y-85675000D03*
X30150000Y-85025000D03*
X30150000Y-84375000D03*
X30150000Y-83725000D03*
X30150000Y-83075000D03*
D32*
X60190000Y-46190000D03*
X62730000Y-46190000D03*
X65270000Y-46190000D03*
X67810000Y-46190000D03*
X67810000Y-54810000D03*
X65270000Y-54810000D03*
X62730000Y-54810000D03*
X60190000Y-54810000D03*
D33*
X156775000Y-64550000D03*
X157425000Y-64550000D03*
X158075000Y-64550000D03*
X158725000Y-64550000D03*
X159375000Y-64550000D03*
X160025000Y-64550000D03*
X160675000Y-64550000D03*
X161325000Y-64550000D03*
X161975000Y-64550000D03*
X162625000Y-64550000D03*
X163275000Y-64550000D03*
X163925000Y-64550000D03*
X164575000Y-64550000D03*
X165225000Y-64550000D03*
X165225000Y-71450000D03*
X164575000Y-71450000D03*
X163925000Y-71450000D03*
X163275000Y-71450000D03*
X162625000Y-71450000D03*
X161975000Y-71450000D03*
X161325000Y-71450000D03*
X160675000Y-71450000D03*
X160025000Y-71450000D03*
X159375000Y-71450000D03*
X158725000Y-71450000D03*
X158075000Y-71450000D03*
X157425000Y-71450000D03*
X156775000Y-71450000D03*
D34*
X35300000Y-115350000D03*
X34500000Y-115350000D03*
X33700000Y-115350000D03*
X32900000Y-115350000D03*
X32100000Y-115350000D03*
X31300000Y-115350000D03*
X30500000Y-115350000D03*
X29700000Y-115350000D03*
D35*
X27650000Y-113300000D03*
X27650000Y-112500000D03*
X27650000Y-111700000D03*
X27650000Y-110900000D03*
X27650000Y-110100000D03*
X27650000Y-109300000D03*
X27650000Y-108500000D03*
X27650000Y-107700000D03*
D34*
X29700000Y-105650000D03*
X30500000Y-105650000D03*
X31300000Y-105650000D03*
X32100000Y-105650000D03*
X32900000Y-105650000D03*
X33700000Y-105650000D03*
X34500000Y-105650000D03*
X35300000Y-105650000D03*
D35*
X37350000Y-107700000D03*
X37350000Y-108500000D03*
X37350000Y-109300000D03*
X37350000Y-110100000D03*
X37350000Y-110900000D03*
X37350000Y-111700000D03*
X37350000Y-112500000D03*
X37350000Y-113300000D03*
D18*
X30500000Y-47000000D03*
X25500000Y-47000000D03*
X30500000Y-32500000D03*
X28000000Y-32500000D03*
X25500000Y-32500000D03*
D29*
X33700000Y-40000000D03*
X22300000Y-40000000D03*
D18*
X162500000Y-47000000D03*
X157500000Y-47000000D03*
X162500000Y-32500000D03*
X160000000Y-32500000D03*
X157500000Y-32500000D03*
D29*
X165700000Y-40000000D03*
X154300000Y-40000000D03*
D18*
X30500000Y-179000000D03*
X25500000Y-179000000D03*
X30500000Y-164500000D03*
X28000000Y-164500000D03*
X25500000Y-164500000D03*
D29*
X33700000Y-172000000D03*
X22300000Y-172000000D03*
D18*
X162500000Y-179000000D03*
X157500000Y-179000000D03*
X162500000Y-164500000D03*
X160000000Y-164500000D03*
X157500000Y-164500000D03*
D29*
X165700000Y-172000000D03*
X154300000Y-172000000D03*
M02*
