M48
INCH,TZ
T1C0.079
T2C0.087
%
G90
G05
T2
X19528Y-67717
X22992Y-67717
X25835Y-67717
X29299Y-67717
X32142Y-67717
X35606Y-67717
X38449Y-67717
X41913Y-67717
X44756Y-67717
X48220Y-67717
X51063Y-67717
X54528Y-67717
T1
X8780Y-15591G85X8780Y-15906
G05
X8780Y-67559G85X8780Y-67874
G05
X13268Y-15591G85X13268Y-15906
G05
X13268Y-67559G85X13268Y-67874
G05
X60748Y-15591G85X60748Y-15906
G05
X60748Y-67559G85X60748Y-67874
G05
X65236Y-15591G85X65236Y-15906
G05
X65236Y-67559G85X65236Y-67874
G05
T0
M30
