G04 #@! TF.FileFunction,Legend,Bot*
%FSLAX46Y46*%
G04 Gerber Fmt 4.6, Leading zero omitted, Abs format (unit mm)*
G04 Created by KiCad (PCBNEW 4.0.6) date Mon Aug  6 11:43:49 2018*
%MOMM*%
%LPD*%
G01*
G04 APERTURE LIST*
%ADD10C,0.100000*%
%ADD11C,0.200000*%
%ADD12C,0.150000*%
%ADD13C,0.120000*%
G04 APERTURE END LIST*
D10*
D11*
X19500000Y-49000000D02*
X19500000Y-80000000D01*
X43000000Y-49000000D02*
X43000000Y-80000000D01*
X32500000Y-49000000D02*
X32500000Y-80000000D01*
X19500000Y-49000000D02*
X32500000Y-49000000D01*
X32500000Y-80000000D02*
X19500000Y-80000000D01*
D12*
X31809524Y-50022619D02*
X31761905Y-49975000D01*
X31666667Y-49927381D01*
X31428571Y-49927381D01*
X31333333Y-49975000D01*
X31285714Y-50022619D01*
X31238095Y-50117857D01*
X31238095Y-50213095D01*
X31285714Y-50355952D01*
X31857143Y-50927381D01*
X31238095Y-50927381D01*
X30809524Y-50832143D02*
X30761905Y-50879762D01*
X30809524Y-50927381D01*
X30857143Y-50879762D01*
X30809524Y-50832143D01*
X30809524Y-50927381D01*
X30380953Y-50022619D02*
X30333334Y-49975000D01*
X30238096Y-49927381D01*
X30000000Y-49927381D01*
X29904762Y-49975000D01*
X29857143Y-50022619D01*
X29809524Y-50117857D01*
X29809524Y-50213095D01*
X29857143Y-50355952D01*
X30428572Y-50927381D01*
X29809524Y-50927381D01*
X29380953Y-50260714D02*
X29380953Y-50927381D01*
X29380953Y-50355952D02*
X29333334Y-50308333D01*
X29238096Y-50260714D01*
X29095238Y-50260714D01*
X29000000Y-50308333D01*
X28952381Y-50403571D01*
X28952381Y-50927381D01*
X28142857Y-50403571D02*
X28476191Y-50403571D01*
X28476191Y-50927381D02*
X28476191Y-49927381D01*
X28000000Y-49927381D01*
X31238095Y-52577381D02*
X31809524Y-52577381D01*
X31523810Y-52577381D02*
X31523810Y-51577381D01*
X31619048Y-51720238D01*
X31714286Y-51815476D01*
X31809524Y-51863095D01*
X30619048Y-51577381D02*
X30523809Y-51577381D01*
X30428571Y-51625000D01*
X30380952Y-51672619D01*
X30333333Y-51767857D01*
X30285714Y-51958333D01*
X30285714Y-52196429D01*
X30333333Y-52386905D01*
X30380952Y-52482143D01*
X30428571Y-52529762D01*
X30523809Y-52577381D01*
X30619048Y-52577381D01*
X30714286Y-52529762D01*
X30761905Y-52482143D01*
X30809524Y-52386905D01*
X30857143Y-52196429D01*
X30857143Y-51958333D01*
X30809524Y-51767857D01*
X30761905Y-51672619D01*
X30714286Y-51625000D01*
X30619048Y-51577381D01*
X29857143Y-51910714D02*
X29857143Y-52577381D01*
X29857143Y-52005952D02*
X29809524Y-51958333D01*
X29714286Y-51910714D01*
X29571428Y-51910714D01*
X29476190Y-51958333D01*
X29428571Y-52053571D01*
X29428571Y-52577381D01*
X28619047Y-52053571D02*
X28952381Y-52053571D01*
X28952381Y-52577381D02*
X28952381Y-51577381D01*
X28476190Y-51577381D01*
X31571429Y-53227381D02*
X31476190Y-53227381D01*
X31380952Y-53275000D01*
X31333333Y-53322619D01*
X31285714Y-53417857D01*
X31238095Y-53608333D01*
X31238095Y-53846429D01*
X31285714Y-54036905D01*
X31333333Y-54132143D01*
X31380952Y-54179762D01*
X31476190Y-54227381D01*
X31571429Y-54227381D01*
X31666667Y-54179762D01*
X31714286Y-54132143D01*
X31761905Y-54036905D01*
X31809524Y-53846429D01*
X31809524Y-53608333D01*
X31761905Y-53417857D01*
X31714286Y-53322619D01*
X31666667Y-53275000D01*
X31571429Y-53227381D01*
X30809524Y-54132143D02*
X30761905Y-54179762D01*
X30809524Y-54227381D01*
X30857143Y-54179762D01*
X30809524Y-54132143D01*
X30809524Y-54227381D01*
X29809524Y-54227381D02*
X30380953Y-54227381D01*
X30095239Y-54227381D02*
X30095239Y-53227381D01*
X30190477Y-53370238D01*
X30285715Y-53465476D01*
X30380953Y-53513095D01*
X28952381Y-53560714D02*
X28952381Y-54227381D01*
X29380953Y-53560714D02*
X29380953Y-54084524D01*
X29333334Y-54179762D01*
X29238096Y-54227381D01*
X29095238Y-54227381D01*
X29000000Y-54179762D01*
X28952381Y-54132143D01*
X28142857Y-53703571D02*
X28476191Y-53703571D01*
X28476191Y-54227381D02*
X28476191Y-53227381D01*
X28000000Y-53227381D01*
X31238095Y-55877381D02*
X31809524Y-55877381D01*
X31523810Y-55877381D02*
X31523810Y-54877381D01*
X31619048Y-55020238D01*
X31714286Y-55115476D01*
X31809524Y-55163095D01*
X30380952Y-55210714D02*
X30380952Y-55877381D01*
X30809524Y-55210714D02*
X30809524Y-55734524D01*
X30761905Y-55829762D01*
X30666667Y-55877381D01*
X30523809Y-55877381D01*
X30428571Y-55829762D01*
X30380952Y-55782143D01*
X29571428Y-55353571D02*
X29904762Y-55353571D01*
X29904762Y-55877381D02*
X29904762Y-54877381D01*
X29428571Y-54877381D01*
X31809524Y-56622619D02*
X31761905Y-56575000D01*
X31666667Y-56527381D01*
X31428571Y-56527381D01*
X31333333Y-56575000D01*
X31285714Y-56622619D01*
X31238095Y-56717857D01*
X31238095Y-56813095D01*
X31285714Y-56955952D01*
X31857143Y-57527381D01*
X31238095Y-57527381D01*
X30809524Y-57432143D02*
X30761905Y-57479762D01*
X30809524Y-57527381D01*
X30857143Y-57479762D01*
X30809524Y-57432143D01*
X30809524Y-57527381D01*
X30380953Y-56622619D02*
X30333334Y-56575000D01*
X30238096Y-56527381D01*
X30000000Y-56527381D01*
X29904762Y-56575000D01*
X29857143Y-56622619D01*
X29809524Y-56717857D01*
X29809524Y-56813095D01*
X29857143Y-56955952D01*
X30428572Y-57527381D01*
X29809524Y-57527381D01*
X28952381Y-56860714D02*
X28952381Y-57527381D01*
X29380953Y-56860714D02*
X29380953Y-57384524D01*
X29333334Y-57479762D01*
X29238096Y-57527381D01*
X29095238Y-57527381D01*
X29000000Y-57479762D01*
X28952381Y-57432143D01*
X28142857Y-57003571D02*
X28476191Y-57003571D01*
X28476191Y-57527381D02*
X28476191Y-56527381D01*
X28000000Y-56527381D01*
X31238095Y-59177381D02*
X31809524Y-59177381D01*
X31523810Y-59177381D02*
X31523810Y-58177381D01*
X31619048Y-58320238D01*
X31714286Y-58415476D01*
X31809524Y-58463095D01*
X30619048Y-58177381D02*
X30523809Y-58177381D01*
X30428571Y-58225000D01*
X30380952Y-58272619D01*
X30333333Y-58367857D01*
X30285714Y-58558333D01*
X30285714Y-58796429D01*
X30333333Y-58986905D01*
X30380952Y-59082143D01*
X30428571Y-59129762D01*
X30523809Y-59177381D01*
X30619048Y-59177381D01*
X30714286Y-59129762D01*
X30761905Y-59082143D01*
X30809524Y-58986905D01*
X30857143Y-58796429D01*
X30857143Y-58558333D01*
X30809524Y-58367857D01*
X30761905Y-58272619D01*
X30714286Y-58225000D01*
X30619048Y-58177381D01*
X29428571Y-58510714D02*
X29428571Y-59177381D01*
X29857143Y-58510714D02*
X29857143Y-59034524D01*
X29809524Y-59129762D01*
X29714286Y-59177381D01*
X29571428Y-59177381D01*
X29476190Y-59129762D01*
X29428571Y-59082143D01*
X28619047Y-58653571D02*
X28952381Y-58653571D01*
X28952381Y-59177381D02*
X28952381Y-58177381D01*
X28476190Y-58177381D01*
X31333333Y-59827381D02*
X31523810Y-59827381D01*
X31619048Y-59875000D01*
X31666667Y-59922619D01*
X31761905Y-60065476D01*
X31809524Y-60255952D01*
X31809524Y-60636905D01*
X31761905Y-60732143D01*
X31714286Y-60779762D01*
X31619048Y-60827381D01*
X31428571Y-60827381D01*
X31333333Y-60779762D01*
X31285714Y-60732143D01*
X31238095Y-60636905D01*
X31238095Y-60398810D01*
X31285714Y-60303571D01*
X31333333Y-60255952D01*
X31428571Y-60208333D01*
X31619048Y-60208333D01*
X31714286Y-60255952D01*
X31761905Y-60303571D01*
X31809524Y-60398810D01*
X30809524Y-60160714D02*
X30809524Y-60827381D01*
X30809524Y-60255952D02*
X30761905Y-60208333D01*
X30666667Y-60160714D01*
X30523809Y-60160714D01*
X30428571Y-60208333D01*
X30380952Y-60303571D01*
X30380952Y-60827381D01*
X29380952Y-60827381D02*
X29952381Y-60827381D01*
X29666667Y-60827381D02*
X29666667Y-59827381D01*
X29761905Y-59970238D01*
X29857143Y-60065476D01*
X29952381Y-60113095D01*
X29047619Y-59827381D02*
X28428571Y-59827381D01*
X28761905Y-60208333D01*
X28619047Y-60208333D01*
X28523809Y-60255952D01*
X28476190Y-60303571D01*
X28428571Y-60398810D01*
X28428571Y-60636905D01*
X28476190Y-60732143D01*
X28523809Y-60779762D01*
X28619047Y-60827381D01*
X28904762Y-60827381D01*
X29000000Y-60779762D01*
X29047619Y-60732143D01*
X27952381Y-60827381D02*
X27761905Y-60827381D01*
X27666666Y-60779762D01*
X27619047Y-60732143D01*
X27523809Y-60589286D01*
X27476190Y-60398810D01*
X27476190Y-60017857D01*
X27523809Y-59922619D01*
X27571428Y-59875000D01*
X27666666Y-59827381D01*
X27857143Y-59827381D01*
X27952381Y-59875000D01*
X28000000Y-59922619D01*
X28047619Y-60017857D01*
X28047619Y-60255952D01*
X28000000Y-60351190D01*
X27952381Y-60398810D01*
X27857143Y-60446429D01*
X27666666Y-60446429D01*
X27571428Y-60398810D01*
X27523809Y-60351190D01*
X27476190Y-60255952D01*
X31761905Y-62477381D02*
X31761905Y-61477381D01*
X31428571Y-62191667D01*
X31095238Y-61477381D01*
X31095238Y-62477381D01*
X30619048Y-62477381D02*
X30619048Y-61477381D01*
X30142858Y-62477381D02*
X30142858Y-61477381D01*
X29904763Y-61477381D01*
X29761905Y-61525000D01*
X29666667Y-61620238D01*
X29619048Y-61715476D01*
X29571429Y-61905952D01*
X29571429Y-62048810D01*
X29619048Y-62239286D01*
X29666667Y-62334524D01*
X29761905Y-62429762D01*
X29904763Y-62477381D01*
X30142858Y-62477381D01*
X29142858Y-62477381D02*
X29142858Y-61477381D01*
X31761905Y-63127381D02*
X31761905Y-63936905D01*
X31714286Y-64032143D01*
X31666667Y-64079762D01*
X31571429Y-64127381D01*
X31380952Y-64127381D01*
X31285714Y-64079762D01*
X31238095Y-64032143D01*
X31190476Y-63936905D01*
X31190476Y-63127381D01*
X30761905Y-64079762D02*
X30619048Y-64127381D01*
X30380952Y-64127381D01*
X30285714Y-64079762D01*
X30238095Y-64032143D01*
X30190476Y-63936905D01*
X30190476Y-63841667D01*
X30238095Y-63746429D01*
X30285714Y-63698810D01*
X30380952Y-63651190D01*
X30571429Y-63603571D01*
X30666667Y-63555952D01*
X30714286Y-63508333D01*
X30761905Y-63413095D01*
X30761905Y-63317857D01*
X30714286Y-63222619D01*
X30666667Y-63175000D01*
X30571429Y-63127381D01*
X30333333Y-63127381D01*
X30190476Y-63175000D01*
X29428571Y-63603571D02*
X29285714Y-63651190D01*
X29238095Y-63698810D01*
X29190476Y-63794048D01*
X29190476Y-63936905D01*
X29238095Y-64032143D01*
X29285714Y-64079762D01*
X29380952Y-64127381D01*
X29761905Y-64127381D01*
X29761905Y-63127381D01*
X29428571Y-63127381D01*
X29333333Y-63175000D01*
X29285714Y-63222619D01*
X29238095Y-63317857D01*
X29238095Y-63413095D01*
X29285714Y-63508333D01*
X29333333Y-63555952D01*
X29428571Y-63603571D01*
X29761905Y-63603571D01*
X31857143Y-64777381D02*
X31238095Y-64777381D01*
X31571429Y-65158333D01*
X31428571Y-65158333D01*
X31333333Y-65205952D01*
X31285714Y-65253571D01*
X31238095Y-65348810D01*
X31238095Y-65586905D01*
X31285714Y-65682143D01*
X31333333Y-65729762D01*
X31428571Y-65777381D01*
X31714286Y-65777381D01*
X31809524Y-65729762D01*
X31857143Y-65682143D01*
X30809524Y-65682143D02*
X30761905Y-65729762D01*
X30809524Y-65777381D01*
X30857143Y-65729762D01*
X30809524Y-65682143D01*
X30809524Y-65777381D01*
X29857143Y-64777381D02*
X30333334Y-64777381D01*
X30380953Y-65253571D01*
X30333334Y-65205952D01*
X30238096Y-65158333D01*
X30000000Y-65158333D01*
X29904762Y-65205952D01*
X29857143Y-65253571D01*
X29809524Y-65348810D01*
X29809524Y-65586905D01*
X29857143Y-65682143D01*
X29904762Y-65729762D01*
X30000000Y-65777381D01*
X30238096Y-65777381D01*
X30333334Y-65729762D01*
X30380953Y-65682143D01*
X29380953Y-65777381D02*
X29380953Y-65110714D01*
X29380953Y-65205952D02*
X29333334Y-65158333D01*
X29238096Y-65110714D01*
X29095238Y-65110714D01*
X29000000Y-65158333D01*
X28952381Y-65253571D01*
X28952381Y-65777381D01*
X28952381Y-65253571D02*
X28904762Y-65158333D01*
X28809524Y-65110714D01*
X28666667Y-65110714D01*
X28571429Y-65158333D01*
X28523810Y-65253571D01*
X28523810Y-65777381D01*
X28047620Y-65777381D02*
X28047620Y-65110714D01*
X28047620Y-65205952D02*
X28000001Y-65158333D01*
X27904763Y-65110714D01*
X27761905Y-65110714D01*
X27666667Y-65158333D01*
X27619048Y-65253571D01*
X27619048Y-65777381D01*
X27619048Y-65253571D02*
X27571429Y-65158333D01*
X27476191Y-65110714D01*
X27333334Y-65110714D01*
X27238096Y-65158333D01*
X27190477Y-65253571D01*
X27190477Y-65777381D01*
X25666667Y-64777381D02*
X25666667Y-65491667D01*
X25714287Y-65634524D01*
X25809525Y-65729762D01*
X25952382Y-65777381D01*
X26047620Y-65777381D01*
X24761905Y-65777381D02*
X24761905Y-65253571D01*
X24809524Y-65158333D01*
X24904762Y-65110714D01*
X25095239Y-65110714D01*
X25190477Y-65158333D01*
X24761905Y-65729762D02*
X24857143Y-65777381D01*
X25095239Y-65777381D01*
X25190477Y-65729762D01*
X25238096Y-65634524D01*
X25238096Y-65539286D01*
X25190477Y-65444048D01*
X25095239Y-65396429D01*
X24857143Y-65396429D01*
X24761905Y-65348810D01*
X23857143Y-65729762D02*
X23952381Y-65777381D01*
X24142858Y-65777381D01*
X24238096Y-65729762D01*
X24285715Y-65682143D01*
X24333334Y-65586905D01*
X24333334Y-65301190D01*
X24285715Y-65205952D01*
X24238096Y-65158333D01*
X24142858Y-65110714D01*
X23952381Y-65110714D01*
X23857143Y-65158333D01*
X23428572Y-65777381D02*
X23428572Y-64777381D01*
X23333334Y-65396429D02*
X23047619Y-65777381D01*
X23047619Y-65110714D02*
X23428572Y-65491667D01*
X31809524Y-66522619D02*
X31761905Y-66475000D01*
X31666667Y-66427381D01*
X31428571Y-66427381D01*
X31333333Y-66475000D01*
X31285714Y-66522619D01*
X31238095Y-66617857D01*
X31238095Y-66713095D01*
X31285714Y-66855952D01*
X31857143Y-67427381D01*
X31238095Y-67427381D01*
X30857143Y-66522619D02*
X30809524Y-66475000D01*
X30714286Y-66427381D01*
X30476190Y-66427381D01*
X30380952Y-66475000D01*
X30333333Y-66522619D01*
X30285714Y-66617857D01*
X30285714Y-66713095D01*
X30333333Y-66855952D01*
X30904762Y-67427381D01*
X30285714Y-67427381D01*
X29666667Y-66427381D02*
X29571428Y-66427381D01*
X29476190Y-66475000D01*
X29428571Y-66522619D01*
X29380952Y-66617857D01*
X29333333Y-66808333D01*
X29333333Y-67046429D01*
X29380952Y-67236905D01*
X29428571Y-67332143D01*
X29476190Y-67379762D01*
X29571428Y-67427381D01*
X29666667Y-67427381D01*
X29761905Y-67379762D01*
X29809524Y-67332143D01*
X29857143Y-67236905D01*
X29904762Y-67046429D01*
X29904762Y-66808333D01*
X29857143Y-66617857D01*
X29809524Y-66522619D01*
X29761905Y-66475000D01*
X29666667Y-66427381D01*
X31333333Y-68410714D02*
X31333333Y-69077381D01*
X31571429Y-68029762D02*
X31809524Y-68744048D01*
X31190476Y-68744048D01*
X30904762Y-68077381D02*
X30238095Y-68077381D01*
X30666667Y-69077381D01*
X29666667Y-68077381D02*
X29571428Y-68077381D01*
X29476190Y-68125000D01*
X29428571Y-68172619D01*
X29380952Y-68267857D01*
X29333333Y-68458333D01*
X29333333Y-68696429D01*
X29380952Y-68886905D01*
X29428571Y-68982143D01*
X29476190Y-69029762D01*
X29571428Y-69077381D01*
X29666667Y-69077381D01*
X29761905Y-69029762D01*
X29809524Y-68982143D01*
X29857143Y-68886905D01*
X29904762Y-68696429D01*
X29904762Y-68458333D01*
X29857143Y-68267857D01*
X29809524Y-68172619D01*
X29761905Y-68125000D01*
X29666667Y-68077381D01*
X31285714Y-69727381D02*
X31761905Y-69727381D01*
X31809524Y-70203571D01*
X31761905Y-70155952D01*
X31666667Y-70108333D01*
X31428571Y-70108333D01*
X31333333Y-70155952D01*
X31285714Y-70203571D01*
X31238095Y-70298810D01*
X31238095Y-70536905D01*
X31285714Y-70632143D01*
X31333333Y-70679762D01*
X31428571Y-70727381D01*
X31666667Y-70727381D01*
X31761905Y-70679762D01*
X31809524Y-70632143D01*
X30809524Y-70632143D02*
X30761905Y-70679762D01*
X30809524Y-70727381D01*
X30857143Y-70679762D01*
X30809524Y-70632143D01*
X30809524Y-70727381D01*
X29904762Y-69727381D02*
X30095239Y-69727381D01*
X30190477Y-69775000D01*
X30238096Y-69822619D01*
X30333334Y-69965476D01*
X30380953Y-70155952D01*
X30380953Y-70536905D01*
X30333334Y-70632143D01*
X30285715Y-70679762D01*
X30190477Y-70727381D01*
X30000000Y-70727381D01*
X29904762Y-70679762D01*
X29857143Y-70632143D01*
X29809524Y-70536905D01*
X29809524Y-70298810D01*
X29857143Y-70203571D01*
X29904762Y-70155952D01*
X30000000Y-70108333D01*
X30190477Y-70108333D01*
X30285715Y-70155952D01*
X30333334Y-70203571D01*
X30380953Y-70298810D01*
X29380953Y-70727381D02*
X29380953Y-69727381D01*
X29285715Y-70346429D02*
X29000000Y-70727381D01*
X29000000Y-70060714D02*
X29380953Y-70441667D01*
X31238095Y-72377381D02*
X31809524Y-72377381D01*
X31523810Y-72377381D02*
X31523810Y-71377381D01*
X31619048Y-71520238D01*
X31714286Y-71615476D01*
X31809524Y-71663095D01*
X30619048Y-71377381D02*
X30523809Y-71377381D01*
X30428571Y-71425000D01*
X30380952Y-71472619D01*
X30333333Y-71567857D01*
X30285714Y-71758333D01*
X30285714Y-71996429D01*
X30333333Y-72186905D01*
X30380952Y-72282143D01*
X30428571Y-72329762D01*
X30523809Y-72377381D01*
X30619048Y-72377381D01*
X30714286Y-72329762D01*
X30761905Y-72282143D01*
X30809524Y-72186905D01*
X30857143Y-71996429D01*
X30857143Y-71758333D01*
X30809524Y-71567857D01*
X30761905Y-71472619D01*
X30714286Y-71425000D01*
X30619048Y-71377381D01*
X29857143Y-72377381D02*
X29857143Y-71377381D01*
X29761905Y-71996429D02*
X29476190Y-72377381D01*
X29476190Y-71710714D02*
X29857143Y-72091667D01*
X31761905Y-74027381D02*
X31761905Y-73027381D01*
X31380952Y-73027381D01*
X31285714Y-73075000D01*
X31238095Y-73122619D01*
X31190476Y-73217857D01*
X31190476Y-73360714D01*
X31238095Y-73455952D01*
X31285714Y-73503571D01*
X31380952Y-73551190D01*
X31761905Y-73551190D01*
X30190476Y-73932143D02*
X30238095Y-73979762D01*
X30380952Y-74027381D01*
X30476190Y-74027381D01*
X30619048Y-73979762D01*
X30714286Y-73884524D01*
X30761905Y-73789286D01*
X30809524Y-73598810D01*
X30809524Y-73455952D01*
X30761905Y-73265476D01*
X30714286Y-73170238D01*
X30619048Y-73075000D01*
X30476190Y-73027381D01*
X30380952Y-73027381D01*
X30238095Y-73075000D01*
X30190476Y-73122619D01*
X29761905Y-74027381D02*
X29761905Y-73027381D01*
X29428571Y-73741667D01*
X29095238Y-73027381D01*
X29095238Y-74027381D01*
X28142857Y-73027381D02*
X28619048Y-73027381D01*
X28666667Y-73503571D01*
X28619048Y-73455952D01*
X28523810Y-73408333D01*
X28285714Y-73408333D01*
X28190476Y-73455952D01*
X28142857Y-73503571D01*
X28095238Y-73598810D01*
X28095238Y-73836905D01*
X28142857Y-73932143D01*
X28190476Y-73979762D01*
X28285714Y-74027381D01*
X28523810Y-74027381D01*
X28619048Y-73979762D01*
X28666667Y-73932143D01*
X27142857Y-74027381D02*
X27714286Y-74027381D01*
X27428572Y-74027381D02*
X27428572Y-73027381D01*
X27523810Y-73170238D01*
X27619048Y-73265476D01*
X27714286Y-73313095D01*
X26761905Y-73122619D02*
X26714286Y-73075000D01*
X26619048Y-73027381D01*
X26380952Y-73027381D01*
X26285714Y-73075000D01*
X26238095Y-73122619D01*
X26190476Y-73217857D01*
X26190476Y-73313095D01*
X26238095Y-73455952D01*
X26809524Y-74027381D01*
X26190476Y-74027381D01*
X25857143Y-74027381D02*
X25333333Y-73360714D01*
X25857143Y-73360714D02*
X25333333Y-74027381D01*
X31809524Y-75391667D02*
X31333333Y-75391667D01*
X31904762Y-75677381D02*
X31571429Y-74677381D01*
X31238095Y-75677381D01*
X31047619Y-74677381D02*
X30476190Y-74677381D01*
X30761905Y-75677381D02*
X30761905Y-74677381D01*
X29714285Y-75010714D02*
X29714285Y-75677381D01*
X29952381Y-74629762D02*
X30190476Y-75344048D01*
X29571428Y-75344048D01*
X29238095Y-74772619D02*
X29190476Y-74725000D01*
X29095238Y-74677381D01*
X28857142Y-74677381D01*
X28761904Y-74725000D01*
X28714285Y-74772619D01*
X28666666Y-74867857D01*
X28666666Y-74963095D01*
X28714285Y-75105952D01*
X29285714Y-75677381D01*
X28666666Y-75677381D01*
X27571428Y-75772619D02*
X27666666Y-75725000D01*
X27761904Y-75629762D01*
X27904761Y-75486905D01*
X28000000Y-75439286D01*
X28095238Y-75439286D01*
X28047619Y-75677381D02*
X28142857Y-75629762D01*
X28238095Y-75534524D01*
X28285714Y-75344048D01*
X28285714Y-75010714D01*
X28238095Y-74820238D01*
X28142857Y-74725000D01*
X28047619Y-74677381D01*
X27857142Y-74677381D01*
X27761904Y-74725000D01*
X27666666Y-74820238D01*
X27619047Y-75010714D01*
X27619047Y-75344048D01*
X27666666Y-75534524D01*
X27761904Y-75629762D01*
X27857142Y-75677381D01*
X28047619Y-75677381D01*
X27333333Y-74677381D02*
X26761904Y-74677381D01*
X27047619Y-75677381D02*
X27047619Y-74677381D01*
X26476190Y-74772619D02*
X26428571Y-74725000D01*
X26333333Y-74677381D01*
X26095237Y-74677381D01*
X25999999Y-74725000D01*
X25952380Y-74772619D01*
X25904761Y-74867857D01*
X25904761Y-74963095D01*
X25952380Y-75105952D01*
X26523809Y-75677381D01*
X25904761Y-75677381D01*
X24952380Y-75677381D02*
X25523809Y-75677381D01*
X25238095Y-75677381D02*
X25238095Y-74677381D01*
X25333333Y-74820238D01*
X25428571Y-74915476D01*
X25523809Y-74963095D01*
X24571428Y-74772619D02*
X24523809Y-74725000D01*
X24428571Y-74677381D01*
X24190475Y-74677381D01*
X24095237Y-74725000D01*
X24047618Y-74772619D01*
X23999999Y-74867857D01*
X23999999Y-74963095D01*
X24047618Y-75105952D01*
X24619047Y-75677381D01*
X23999999Y-75677381D01*
X23380952Y-74677381D02*
X23285713Y-74677381D01*
X23190475Y-74725000D01*
X23142856Y-74772619D01*
X23095237Y-74867857D01*
X23047618Y-75058333D01*
X23047618Y-75296429D01*
X23095237Y-75486905D01*
X23142856Y-75582143D01*
X23190475Y-75629762D01*
X23285713Y-75677381D01*
X23380952Y-75677381D01*
X23476190Y-75629762D01*
X23523809Y-75582143D01*
X23571428Y-75486905D01*
X23619047Y-75296429D01*
X23619047Y-75058333D01*
X23571428Y-74867857D01*
X23523809Y-74772619D01*
X23476190Y-74725000D01*
X23380952Y-74677381D01*
X31904762Y-76327381D02*
X31333333Y-76327381D01*
X31619048Y-77327381D02*
X31619048Y-76327381D01*
X31000000Y-77327381D02*
X31000000Y-76327381D01*
X30619047Y-76327381D01*
X30523809Y-76375000D01*
X30476190Y-76422619D01*
X30428571Y-76517857D01*
X30428571Y-76660714D01*
X30476190Y-76755952D01*
X30523809Y-76803571D01*
X30619047Y-76851190D01*
X31000000Y-76851190D01*
X30047619Y-77279762D02*
X29904762Y-77327381D01*
X29666666Y-77327381D01*
X29571428Y-77279762D01*
X29523809Y-77232143D01*
X29476190Y-77136905D01*
X29476190Y-77041667D01*
X29523809Y-76946429D01*
X29571428Y-76898810D01*
X29666666Y-76851190D01*
X29857143Y-76803571D01*
X29952381Y-76755952D01*
X30000000Y-76708333D01*
X30047619Y-76613095D01*
X30047619Y-76517857D01*
X30000000Y-76422619D01*
X29952381Y-76375000D01*
X29857143Y-76327381D01*
X29619047Y-76327381D01*
X29476190Y-76375000D01*
X29142857Y-76327381D02*
X28476190Y-76327381D01*
X28904762Y-77327381D01*
X28190476Y-76327381D02*
X27571428Y-76327381D01*
X27904762Y-76708333D01*
X27761904Y-76708333D01*
X27666666Y-76755952D01*
X27619047Y-76803571D01*
X27571428Y-76898810D01*
X27571428Y-77136905D01*
X27619047Y-77232143D01*
X27666666Y-77279762D01*
X27761904Y-77327381D01*
X28047619Y-77327381D01*
X28142857Y-77279762D01*
X28190476Y-77232143D01*
X26619047Y-77327381D02*
X27190476Y-77327381D01*
X26904762Y-77327381D02*
X26904762Y-76327381D01*
X27000000Y-76470238D01*
X27095238Y-76565476D01*
X27190476Y-76613095D01*
X26285714Y-76327381D02*
X25666666Y-76327381D01*
X26000000Y-76708333D01*
X25857142Y-76708333D01*
X25761904Y-76755952D01*
X25714285Y-76803571D01*
X25666666Y-76898810D01*
X25666666Y-77136905D01*
X25714285Y-77232143D01*
X25761904Y-77279762D01*
X25857142Y-77327381D01*
X26142857Y-77327381D01*
X26238095Y-77279762D01*
X26285714Y-77232143D01*
X25333333Y-76327381D02*
X24714285Y-76327381D01*
X25047619Y-76708333D01*
X24904761Y-76708333D01*
X24809523Y-76755952D01*
X24761904Y-76803571D01*
X24714285Y-76898810D01*
X24714285Y-77136905D01*
X24761904Y-77232143D01*
X24809523Y-77279762D01*
X24904761Y-77327381D01*
X25190476Y-77327381D01*
X25285714Y-77279762D01*
X25333333Y-77232143D01*
X31809524Y-78929762D02*
X31666667Y-78977381D01*
X31428571Y-78977381D01*
X31333333Y-78929762D01*
X31285714Y-78882143D01*
X31238095Y-78786905D01*
X31238095Y-78691667D01*
X31285714Y-78596429D01*
X31333333Y-78548810D01*
X31428571Y-78501190D01*
X31619048Y-78453571D01*
X31714286Y-78405952D01*
X31761905Y-78358333D01*
X31809524Y-78263095D01*
X31809524Y-78167857D01*
X31761905Y-78072619D01*
X31714286Y-78025000D01*
X31619048Y-77977381D01*
X31380952Y-77977381D01*
X31238095Y-78025000D01*
X30952381Y-77977381D02*
X30380952Y-77977381D01*
X30666667Y-78977381D02*
X30666667Y-77977381D01*
X30047619Y-78977381D02*
X30047619Y-77977381D01*
X29714285Y-78691667D01*
X29380952Y-77977381D01*
X29380952Y-78977381D01*
X29000000Y-77977381D02*
X28380952Y-77977381D01*
X28714286Y-78358333D01*
X28571428Y-78358333D01*
X28476190Y-78405952D01*
X28428571Y-78453571D01*
X28380952Y-78548810D01*
X28380952Y-78786905D01*
X28428571Y-78882143D01*
X28476190Y-78929762D01*
X28571428Y-78977381D01*
X28857143Y-78977381D01*
X28952381Y-78929762D01*
X29000000Y-78882143D01*
X28000000Y-78072619D02*
X27952381Y-78025000D01*
X27857143Y-77977381D01*
X27619047Y-77977381D01*
X27523809Y-78025000D01*
X27476190Y-78072619D01*
X27428571Y-78167857D01*
X27428571Y-78263095D01*
X27476190Y-78405952D01*
X28047619Y-78977381D01*
X27428571Y-78977381D01*
X26666666Y-78453571D02*
X27000000Y-78453571D01*
X27000000Y-78977381D02*
X27000000Y-77977381D01*
X26523809Y-77977381D01*
X25952381Y-77977381D02*
X25857142Y-77977381D01*
X25761904Y-78025000D01*
X25714285Y-78072619D01*
X25666666Y-78167857D01*
X25619047Y-78358333D01*
X25619047Y-78596429D01*
X25666666Y-78786905D01*
X25714285Y-78882143D01*
X25761904Y-78929762D01*
X25857142Y-78977381D01*
X25952381Y-78977381D01*
X26047619Y-78929762D01*
X26095238Y-78882143D01*
X26142857Y-78786905D01*
X26190476Y-78596429D01*
X26190476Y-78358333D01*
X26142857Y-78167857D01*
X26095238Y-78072619D01*
X26047619Y-78025000D01*
X25952381Y-77977381D01*
X25285714Y-77977381D02*
X24666666Y-77977381D01*
X25000000Y-78358333D01*
X24857142Y-78358333D01*
X24761904Y-78405952D01*
X24714285Y-78453571D01*
X24666666Y-78548810D01*
X24666666Y-78786905D01*
X24714285Y-78882143D01*
X24761904Y-78929762D01*
X24857142Y-78977381D01*
X25142857Y-78977381D01*
X25238095Y-78929762D01*
X25285714Y-78882143D01*
X24047619Y-77977381D02*
X23952380Y-77977381D01*
X23857142Y-78025000D01*
X23809523Y-78072619D01*
X23761904Y-78167857D01*
X23714285Y-78358333D01*
X23714285Y-78596429D01*
X23761904Y-78786905D01*
X23809523Y-78882143D01*
X23857142Y-78929762D01*
X23952380Y-78977381D01*
X24047619Y-78977381D01*
X24142857Y-78929762D01*
X24190476Y-78882143D01*
X24238095Y-78786905D01*
X24285714Y-78596429D01*
X24285714Y-78358333D01*
X24238095Y-78167857D01*
X24190476Y-78072619D01*
X24142857Y-78025000D01*
X24047619Y-77977381D01*
X23285714Y-78977381D02*
X23285714Y-77977381D01*
X22714285Y-78977381D02*
X23142857Y-78405952D01*
X22714285Y-77977381D02*
X23285714Y-78548810D01*
X21857142Y-77977381D02*
X22047619Y-77977381D01*
X22142857Y-78025000D01*
X22190476Y-78072619D01*
X22285714Y-78215476D01*
X22333333Y-78405952D01*
X22333333Y-78786905D01*
X22285714Y-78882143D01*
X22238095Y-78929762D01*
X22142857Y-78977381D01*
X21952380Y-78977381D01*
X21857142Y-78929762D01*
X21809523Y-78882143D01*
X21761904Y-78786905D01*
X21761904Y-78548810D01*
X21809523Y-78453571D01*
X21857142Y-78405952D01*
X21952380Y-78358333D01*
X22142857Y-78358333D01*
X22238095Y-78405952D01*
X22285714Y-78453571D01*
X22333333Y-78548810D01*
X21476190Y-77977381D02*
X20904761Y-77977381D01*
X21190476Y-78977381D02*
X21190476Y-77977381D01*
X20666666Y-78977381D02*
X20142856Y-78310714D01*
X20666666Y-78310714D02*
X20142856Y-78977381D01*
D11*
X32500000Y-80000000D02*
X43000000Y-80000000D01*
X43000000Y-49000000D02*
X32500000Y-49000000D01*
D12*
X41690476Y-50832143D02*
X41738095Y-50879762D01*
X41880952Y-50927381D01*
X41976190Y-50927381D01*
X42119048Y-50879762D01*
X42214286Y-50784524D01*
X42261905Y-50689286D01*
X42309524Y-50498810D01*
X42309524Y-50355952D01*
X42261905Y-50165476D01*
X42214286Y-50070238D01*
X42119048Y-49975000D01*
X41976190Y-49927381D01*
X41880952Y-49927381D01*
X41738095Y-49975000D01*
X41690476Y-50022619D01*
X40738095Y-50927381D02*
X41309524Y-50927381D01*
X41023810Y-50927381D02*
X41023810Y-49927381D01*
X41119048Y-50070238D01*
X41214286Y-50165476D01*
X41309524Y-50213095D01*
X39547619Y-50546429D02*
X38785714Y-50546429D01*
X36976190Y-50832143D02*
X37023809Y-50879762D01*
X37166666Y-50927381D01*
X37261904Y-50927381D01*
X37404762Y-50879762D01*
X37500000Y-50784524D01*
X37547619Y-50689286D01*
X37595238Y-50498810D01*
X37595238Y-50355952D01*
X37547619Y-50165476D01*
X37500000Y-50070238D01*
X37404762Y-49975000D01*
X37261904Y-49927381D01*
X37166666Y-49927381D01*
X37023809Y-49975000D01*
X36976190Y-50022619D01*
X36595238Y-50022619D02*
X36547619Y-49975000D01*
X36452381Y-49927381D01*
X36214285Y-49927381D01*
X36119047Y-49975000D01*
X36071428Y-50022619D01*
X36023809Y-50117857D01*
X36023809Y-50213095D01*
X36071428Y-50355952D01*
X36642857Y-50927381D01*
X36023809Y-50927381D01*
X41690476Y-52482143D02*
X41738095Y-52529762D01*
X41880952Y-52577381D01*
X41976190Y-52577381D01*
X42119048Y-52529762D01*
X42214286Y-52434524D01*
X42261905Y-52339286D01*
X42309524Y-52148810D01*
X42309524Y-52005952D01*
X42261905Y-51815476D01*
X42214286Y-51720238D01*
X42119048Y-51625000D01*
X41976190Y-51577381D01*
X41880952Y-51577381D01*
X41738095Y-51625000D01*
X41690476Y-51672619D01*
X41357143Y-51577381D02*
X40738095Y-51577381D01*
X41071429Y-51958333D01*
X40928571Y-51958333D01*
X40833333Y-52005952D01*
X40785714Y-52053571D01*
X40738095Y-52148810D01*
X40738095Y-52386905D01*
X40785714Y-52482143D01*
X40833333Y-52529762D01*
X40928571Y-52577381D01*
X41214286Y-52577381D01*
X41309524Y-52529762D01*
X41357143Y-52482143D01*
X41690476Y-54132143D02*
X41738095Y-54179762D01*
X41880952Y-54227381D01*
X41976190Y-54227381D01*
X42119048Y-54179762D01*
X42214286Y-54084524D01*
X42261905Y-53989286D01*
X42309524Y-53798810D01*
X42309524Y-53655952D01*
X42261905Y-53465476D01*
X42214286Y-53370238D01*
X42119048Y-53275000D01*
X41976190Y-53227381D01*
X41880952Y-53227381D01*
X41738095Y-53275000D01*
X41690476Y-53322619D01*
X40833333Y-53560714D02*
X40833333Y-54227381D01*
X41071429Y-53179762D02*
X41309524Y-53894048D01*
X40690476Y-53894048D01*
X39547619Y-53846429D02*
X38785714Y-53846429D01*
X36976190Y-54132143D02*
X37023809Y-54179762D01*
X37166666Y-54227381D01*
X37261904Y-54227381D01*
X37404762Y-54179762D01*
X37500000Y-54084524D01*
X37547619Y-53989286D01*
X37595238Y-53798810D01*
X37595238Y-53655952D01*
X37547619Y-53465476D01*
X37500000Y-53370238D01*
X37404762Y-53275000D01*
X37261904Y-53227381D01*
X37166666Y-53227381D01*
X37023809Y-53275000D01*
X36976190Y-53322619D01*
X36023809Y-54227381D02*
X36595238Y-54227381D01*
X36309524Y-54227381D02*
X36309524Y-53227381D01*
X36404762Y-53370238D01*
X36500000Y-53465476D01*
X36595238Y-53513095D01*
X35642857Y-53322619D02*
X35595238Y-53275000D01*
X35500000Y-53227381D01*
X35261904Y-53227381D01*
X35166666Y-53275000D01*
X35119047Y-53322619D01*
X35071428Y-53417857D01*
X35071428Y-53513095D01*
X35119047Y-53655952D01*
X35690476Y-54227381D01*
X35071428Y-54227381D01*
X41690476Y-55782143D02*
X41738095Y-55829762D01*
X41880952Y-55877381D01*
X41976190Y-55877381D01*
X42119048Y-55829762D01*
X42214286Y-55734524D01*
X42261905Y-55639286D01*
X42309524Y-55448810D01*
X42309524Y-55305952D01*
X42261905Y-55115476D01*
X42214286Y-55020238D01*
X42119048Y-54925000D01*
X41976190Y-54877381D01*
X41880952Y-54877381D01*
X41738095Y-54925000D01*
X41690476Y-54972619D01*
X40738095Y-55877381D02*
X41309524Y-55877381D01*
X41023810Y-55877381D02*
X41023810Y-54877381D01*
X41119048Y-55020238D01*
X41214286Y-55115476D01*
X41309524Y-55163095D01*
X40404762Y-54877381D02*
X39785714Y-54877381D01*
X40119048Y-55258333D01*
X39976190Y-55258333D01*
X39880952Y-55305952D01*
X39833333Y-55353571D01*
X39785714Y-55448810D01*
X39785714Y-55686905D01*
X39833333Y-55782143D01*
X39880952Y-55829762D01*
X39976190Y-55877381D01*
X40261905Y-55877381D01*
X40357143Y-55829762D01*
X40404762Y-55782143D01*
X38595238Y-55496429D02*
X37833333Y-55496429D01*
X36023809Y-55782143D02*
X36071428Y-55829762D01*
X36214285Y-55877381D01*
X36309523Y-55877381D01*
X36452381Y-55829762D01*
X36547619Y-55734524D01*
X36595238Y-55639286D01*
X36642857Y-55448810D01*
X36642857Y-55305952D01*
X36595238Y-55115476D01*
X36547619Y-55020238D01*
X36452381Y-54925000D01*
X36309523Y-54877381D01*
X36214285Y-54877381D01*
X36071428Y-54925000D01*
X36023809Y-54972619D01*
X35642857Y-54972619D02*
X35595238Y-54925000D01*
X35500000Y-54877381D01*
X35261904Y-54877381D01*
X35166666Y-54925000D01*
X35119047Y-54972619D01*
X35071428Y-55067857D01*
X35071428Y-55163095D01*
X35119047Y-55305952D01*
X35690476Y-55877381D01*
X35071428Y-55877381D01*
X34690476Y-54972619D02*
X34642857Y-54925000D01*
X34547619Y-54877381D01*
X34309523Y-54877381D01*
X34214285Y-54925000D01*
X34166666Y-54972619D01*
X34119047Y-55067857D01*
X34119047Y-55163095D01*
X34166666Y-55305952D01*
X34738095Y-55877381D01*
X34119047Y-55877381D01*
X41690476Y-57432143D02*
X41738095Y-57479762D01*
X41880952Y-57527381D01*
X41976190Y-57527381D01*
X42119048Y-57479762D01*
X42214286Y-57384524D01*
X42261905Y-57289286D01*
X42309524Y-57098810D01*
X42309524Y-56955952D01*
X42261905Y-56765476D01*
X42214286Y-56670238D01*
X42119048Y-56575000D01*
X41976190Y-56527381D01*
X41880952Y-56527381D01*
X41738095Y-56575000D01*
X41690476Y-56622619D01*
X41309524Y-56622619D02*
X41261905Y-56575000D01*
X41166667Y-56527381D01*
X40928571Y-56527381D01*
X40833333Y-56575000D01*
X40785714Y-56622619D01*
X40738095Y-56717857D01*
X40738095Y-56813095D01*
X40785714Y-56955952D01*
X41357143Y-57527381D01*
X40738095Y-57527381D01*
X40404762Y-56527381D02*
X39785714Y-56527381D01*
X40119048Y-56908333D01*
X39976190Y-56908333D01*
X39880952Y-56955952D01*
X39833333Y-57003571D01*
X39785714Y-57098810D01*
X39785714Y-57336905D01*
X39833333Y-57432143D01*
X39880952Y-57479762D01*
X39976190Y-57527381D01*
X40261905Y-57527381D01*
X40357143Y-57479762D01*
X40404762Y-57432143D01*
X38595238Y-57146429D02*
X37833333Y-57146429D01*
X36023809Y-57432143D02*
X36071428Y-57479762D01*
X36214285Y-57527381D01*
X36309523Y-57527381D01*
X36452381Y-57479762D01*
X36547619Y-57384524D01*
X36595238Y-57289286D01*
X36642857Y-57098810D01*
X36642857Y-56955952D01*
X36595238Y-56765476D01*
X36547619Y-56670238D01*
X36452381Y-56575000D01*
X36309523Y-56527381D01*
X36214285Y-56527381D01*
X36071428Y-56575000D01*
X36023809Y-56622619D01*
X35642857Y-56622619D02*
X35595238Y-56575000D01*
X35500000Y-56527381D01*
X35261904Y-56527381D01*
X35166666Y-56575000D01*
X35119047Y-56622619D01*
X35071428Y-56717857D01*
X35071428Y-56813095D01*
X35119047Y-56955952D01*
X35690476Y-57527381D01*
X35071428Y-57527381D01*
X34214285Y-56527381D02*
X34404762Y-56527381D01*
X34500000Y-56575000D01*
X34547619Y-56622619D01*
X34642857Y-56765476D01*
X34690476Y-56955952D01*
X34690476Y-57336905D01*
X34642857Y-57432143D01*
X34595238Y-57479762D01*
X34500000Y-57527381D01*
X34309523Y-57527381D01*
X34214285Y-57479762D01*
X34166666Y-57432143D01*
X34119047Y-57336905D01*
X34119047Y-57098810D01*
X34166666Y-57003571D01*
X34214285Y-56955952D01*
X34309523Y-56908333D01*
X34500000Y-56908333D01*
X34595238Y-56955952D01*
X34642857Y-57003571D01*
X34690476Y-57098810D01*
X41690476Y-59082143D02*
X41738095Y-59129762D01*
X41880952Y-59177381D01*
X41976190Y-59177381D01*
X42119048Y-59129762D01*
X42214286Y-59034524D01*
X42261905Y-58939286D01*
X42309524Y-58748810D01*
X42309524Y-58605952D01*
X42261905Y-58415476D01*
X42214286Y-58320238D01*
X42119048Y-58225000D01*
X41976190Y-58177381D01*
X41880952Y-58177381D01*
X41738095Y-58225000D01*
X41690476Y-58272619D01*
X41309524Y-58272619D02*
X41261905Y-58225000D01*
X41166667Y-58177381D01*
X40928571Y-58177381D01*
X40833333Y-58225000D01*
X40785714Y-58272619D01*
X40738095Y-58367857D01*
X40738095Y-58463095D01*
X40785714Y-58605952D01*
X41357143Y-59177381D01*
X40738095Y-59177381D01*
X40404762Y-58177381D02*
X39738095Y-58177381D01*
X40166667Y-59177381D01*
X38595238Y-58796429D02*
X37833333Y-58796429D01*
X36023809Y-59082143D02*
X36071428Y-59129762D01*
X36214285Y-59177381D01*
X36309523Y-59177381D01*
X36452381Y-59129762D01*
X36547619Y-59034524D01*
X36595238Y-58939286D01*
X36642857Y-58748810D01*
X36642857Y-58605952D01*
X36595238Y-58415476D01*
X36547619Y-58320238D01*
X36452381Y-58225000D01*
X36309523Y-58177381D01*
X36214285Y-58177381D01*
X36071428Y-58225000D01*
X36023809Y-58272619D01*
X35690476Y-58177381D02*
X35071428Y-58177381D01*
X35404762Y-58558333D01*
X35261904Y-58558333D01*
X35166666Y-58605952D01*
X35119047Y-58653571D01*
X35071428Y-58748810D01*
X35071428Y-58986905D01*
X35119047Y-59082143D01*
X35166666Y-59129762D01*
X35261904Y-59177381D01*
X35547619Y-59177381D01*
X35642857Y-59129762D01*
X35690476Y-59082143D01*
X34452381Y-58177381D02*
X34357142Y-58177381D01*
X34261904Y-58225000D01*
X34214285Y-58272619D01*
X34166666Y-58367857D01*
X34119047Y-58558333D01*
X34119047Y-58796429D01*
X34166666Y-58986905D01*
X34214285Y-59082143D01*
X34261904Y-59129762D01*
X34357142Y-59177381D01*
X34452381Y-59177381D01*
X34547619Y-59129762D01*
X34595238Y-59082143D01*
X34642857Y-58986905D01*
X34690476Y-58796429D01*
X34690476Y-58558333D01*
X34642857Y-58367857D01*
X34595238Y-58272619D01*
X34547619Y-58225000D01*
X34452381Y-58177381D01*
X42261905Y-60827381D02*
X42261905Y-59827381D01*
X41214286Y-60732143D02*
X41261905Y-60779762D01*
X41404762Y-60827381D01*
X41500000Y-60827381D01*
X41642858Y-60779762D01*
X41738096Y-60684524D01*
X41785715Y-60589286D01*
X41833334Y-60398810D01*
X41833334Y-60255952D01*
X41785715Y-60065476D01*
X41738096Y-59970238D01*
X41642858Y-59875000D01*
X41500000Y-59827381D01*
X41404762Y-59827381D01*
X41261905Y-59875000D01*
X41214286Y-59922619D01*
X40261905Y-60827381D02*
X40833334Y-60827381D01*
X40547620Y-60827381D02*
X40547620Y-59827381D01*
X40642858Y-59970238D01*
X40738096Y-60065476D01*
X40833334Y-60113095D01*
X41976190Y-61477381D02*
X41976190Y-62191667D01*
X42023810Y-62334524D01*
X42119048Y-62429762D01*
X42261905Y-62477381D01*
X42357143Y-62477381D01*
X41547619Y-61572619D02*
X41500000Y-61525000D01*
X41404762Y-61477381D01*
X41166666Y-61477381D01*
X41071428Y-61525000D01*
X41023809Y-61572619D01*
X40976190Y-61667857D01*
X40976190Y-61763095D01*
X41023809Y-61905952D01*
X41595238Y-62477381D01*
X40976190Y-62477381D01*
X41976190Y-63127381D02*
X41976190Y-63841667D01*
X42023810Y-63984524D01*
X42119048Y-64079762D01*
X42261905Y-64127381D01*
X42357143Y-64127381D01*
X41071428Y-63460714D02*
X41071428Y-64127381D01*
X41309524Y-63079762D02*
X41547619Y-63794048D01*
X40928571Y-63794048D01*
X41976190Y-64777381D02*
X41976190Y-65491667D01*
X42023810Y-65634524D01*
X42119048Y-65729762D01*
X42261905Y-65777381D01*
X42357143Y-65777381D01*
X41452381Y-65777381D02*
X41261905Y-65777381D01*
X41166666Y-65729762D01*
X41119047Y-65682143D01*
X41023809Y-65539286D01*
X40976190Y-65348810D01*
X40976190Y-64967857D01*
X41023809Y-64872619D01*
X41071428Y-64825000D01*
X41166666Y-64777381D01*
X41357143Y-64777381D01*
X41452381Y-64825000D01*
X41500000Y-64872619D01*
X41547619Y-64967857D01*
X41547619Y-65205952D01*
X41500000Y-65301190D01*
X41452381Y-65348810D01*
X41357143Y-65396429D01*
X41166666Y-65396429D01*
X41071428Y-65348810D01*
X41023809Y-65301190D01*
X40976190Y-65205952D01*
X41690476Y-67427381D02*
X42023810Y-66951190D01*
X42261905Y-67427381D02*
X42261905Y-66427381D01*
X41880952Y-66427381D01*
X41785714Y-66475000D01*
X41738095Y-66522619D01*
X41690476Y-66617857D01*
X41690476Y-66760714D01*
X41738095Y-66855952D01*
X41785714Y-66903571D01*
X41880952Y-66951190D01*
X42261905Y-66951190D01*
X40738095Y-67427381D02*
X41309524Y-67427381D01*
X41023810Y-67427381D02*
X41023810Y-66427381D01*
X41119048Y-66570238D01*
X41214286Y-66665476D01*
X41309524Y-66713095D01*
X41690476Y-69077381D02*
X42023810Y-68601190D01*
X42261905Y-69077381D02*
X42261905Y-68077381D01*
X41880952Y-68077381D01*
X41785714Y-68125000D01*
X41738095Y-68172619D01*
X41690476Y-68267857D01*
X41690476Y-68410714D01*
X41738095Y-68505952D01*
X41785714Y-68553571D01*
X41880952Y-68601190D01*
X42261905Y-68601190D01*
X41309524Y-68172619D02*
X41261905Y-68125000D01*
X41166667Y-68077381D01*
X40928571Y-68077381D01*
X40833333Y-68125000D01*
X40785714Y-68172619D01*
X40738095Y-68267857D01*
X40738095Y-68363095D01*
X40785714Y-68505952D01*
X41357143Y-69077381D01*
X40738095Y-69077381D01*
X39547619Y-68696429D02*
X38785714Y-68696429D01*
X36976190Y-69077381D02*
X37309524Y-68601190D01*
X37547619Y-69077381D02*
X37547619Y-68077381D01*
X37166666Y-68077381D01*
X37071428Y-68125000D01*
X37023809Y-68172619D01*
X36976190Y-68267857D01*
X36976190Y-68410714D01*
X37023809Y-68505952D01*
X37071428Y-68553571D01*
X37166666Y-68601190D01*
X37547619Y-68601190D01*
X36642857Y-68077381D02*
X35976190Y-68077381D01*
X36404762Y-69077381D01*
X41690476Y-70727381D02*
X42023810Y-70251190D01*
X42261905Y-70727381D02*
X42261905Y-69727381D01*
X41880952Y-69727381D01*
X41785714Y-69775000D01*
X41738095Y-69822619D01*
X41690476Y-69917857D01*
X41690476Y-70060714D01*
X41738095Y-70155952D01*
X41785714Y-70203571D01*
X41880952Y-70251190D01*
X42261905Y-70251190D01*
X41119048Y-70155952D02*
X41214286Y-70108333D01*
X41261905Y-70060714D01*
X41309524Y-69965476D01*
X41309524Y-69917857D01*
X41261905Y-69822619D01*
X41214286Y-69775000D01*
X41119048Y-69727381D01*
X40928571Y-69727381D01*
X40833333Y-69775000D01*
X40785714Y-69822619D01*
X40738095Y-69917857D01*
X40738095Y-69965476D01*
X40785714Y-70060714D01*
X40833333Y-70108333D01*
X40928571Y-70155952D01*
X41119048Y-70155952D01*
X41214286Y-70203571D01*
X41261905Y-70251190D01*
X41309524Y-70346429D01*
X41309524Y-70536905D01*
X41261905Y-70632143D01*
X41214286Y-70679762D01*
X41119048Y-70727381D01*
X40928571Y-70727381D01*
X40833333Y-70679762D01*
X40785714Y-70632143D01*
X40738095Y-70536905D01*
X40738095Y-70346429D01*
X40785714Y-70251190D01*
X40833333Y-70203571D01*
X40928571Y-70155952D01*
X41690476Y-72377381D02*
X42023810Y-71901190D01*
X42261905Y-72377381D02*
X42261905Y-71377381D01*
X41880952Y-71377381D01*
X41785714Y-71425000D01*
X41738095Y-71472619D01*
X41690476Y-71567857D01*
X41690476Y-71710714D01*
X41738095Y-71805952D01*
X41785714Y-71853571D01*
X41880952Y-71901190D01*
X42261905Y-71901190D01*
X41214286Y-72377381D02*
X41023810Y-72377381D01*
X40928571Y-72329762D01*
X40880952Y-72282143D01*
X40785714Y-72139286D01*
X40738095Y-71948810D01*
X40738095Y-71567857D01*
X40785714Y-71472619D01*
X40833333Y-71425000D01*
X40928571Y-71377381D01*
X41119048Y-71377381D01*
X41214286Y-71425000D01*
X41261905Y-71472619D01*
X41309524Y-71567857D01*
X41309524Y-71805952D01*
X41261905Y-71901190D01*
X41214286Y-71948810D01*
X41119048Y-71996429D01*
X40928571Y-71996429D01*
X40833333Y-71948810D01*
X40785714Y-71901190D01*
X40738095Y-71805952D01*
X39547619Y-71996429D02*
X38785714Y-71996429D01*
X36976190Y-72377381D02*
X37309524Y-71901190D01*
X37547619Y-72377381D02*
X37547619Y-71377381D01*
X37166666Y-71377381D01*
X37071428Y-71425000D01*
X37023809Y-71472619D01*
X36976190Y-71567857D01*
X36976190Y-71710714D01*
X37023809Y-71805952D01*
X37071428Y-71853571D01*
X37166666Y-71901190D01*
X37547619Y-71901190D01*
X36642857Y-71377381D02*
X36023809Y-71377381D01*
X36357143Y-71758333D01*
X36214285Y-71758333D01*
X36119047Y-71805952D01*
X36071428Y-71853571D01*
X36023809Y-71948810D01*
X36023809Y-72186905D01*
X36071428Y-72282143D01*
X36119047Y-72329762D01*
X36214285Y-72377381D01*
X36500000Y-72377381D01*
X36595238Y-72329762D01*
X36642857Y-72282143D01*
X35642857Y-71472619D02*
X35595238Y-71425000D01*
X35500000Y-71377381D01*
X35261904Y-71377381D01*
X35166666Y-71425000D01*
X35119047Y-71472619D01*
X35071428Y-71567857D01*
X35071428Y-71663095D01*
X35119047Y-71805952D01*
X35690476Y-72377381D01*
X35071428Y-72377381D01*
X42261905Y-73027381D02*
X42261905Y-73836905D01*
X42214286Y-73932143D01*
X42166667Y-73979762D01*
X42071429Y-74027381D01*
X41880952Y-74027381D01*
X41785714Y-73979762D01*
X41738095Y-73932143D01*
X41690476Y-73836905D01*
X41690476Y-73027381D01*
X40690476Y-74027381D02*
X41261905Y-74027381D01*
X40976191Y-74027381D02*
X40976191Y-73027381D01*
X41071429Y-73170238D01*
X41166667Y-73265476D01*
X41261905Y-73313095D01*
X42261905Y-74677381D02*
X42261905Y-75486905D01*
X42214286Y-75582143D01*
X42166667Y-75629762D01*
X42071429Y-75677381D01*
X41880952Y-75677381D01*
X41785714Y-75629762D01*
X41738095Y-75582143D01*
X41690476Y-75486905D01*
X41690476Y-74677381D01*
X41261905Y-74772619D02*
X41214286Y-74725000D01*
X41119048Y-74677381D01*
X40880952Y-74677381D01*
X40785714Y-74725000D01*
X40738095Y-74772619D01*
X40690476Y-74867857D01*
X40690476Y-74963095D01*
X40738095Y-75105952D01*
X41309524Y-75677381D01*
X40690476Y-75677381D01*
X39500000Y-75296429D02*
X38738095Y-75296429D01*
X37500000Y-74677381D02*
X37500000Y-75486905D01*
X37452381Y-75582143D01*
X37404762Y-75629762D01*
X37309524Y-75677381D01*
X37119047Y-75677381D01*
X37023809Y-75629762D01*
X36976190Y-75582143D01*
X36928571Y-75486905D01*
X36928571Y-74677381D01*
X36547619Y-74677381D02*
X35928571Y-74677381D01*
X36261905Y-75058333D01*
X36119047Y-75058333D01*
X36023809Y-75105952D01*
X35976190Y-75153571D01*
X35928571Y-75248810D01*
X35928571Y-75486905D01*
X35976190Y-75582143D01*
X36023809Y-75629762D01*
X36119047Y-75677381D01*
X36404762Y-75677381D01*
X36500000Y-75629762D01*
X36547619Y-75582143D01*
X42261905Y-76327381D02*
X42261905Y-77136905D01*
X42214286Y-77232143D01*
X42166667Y-77279762D01*
X42071429Y-77327381D01*
X41880952Y-77327381D01*
X41785714Y-77279762D01*
X41738095Y-77232143D01*
X41690476Y-77136905D01*
X41690476Y-76327381D01*
X40785714Y-76660714D02*
X40785714Y-77327381D01*
X41023810Y-76279762D02*
X41261905Y-76994048D01*
X40642857Y-76994048D01*
X39500000Y-76946429D02*
X38738095Y-76946429D01*
X37500000Y-76327381D02*
X37500000Y-77136905D01*
X37452381Y-77232143D01*
X37404762Y-77279762D01*
X37309524Y-77327381D01*
X37119047Y-77327381D01*
X37023809Y-77279762D01*
X36976190Y-77232143D01*
X36928571Y-77136905D01*
X36928571Y-76327381D01*
X36023809Y-76327381D02*
X36214286Y-76327381D01*
X36309524Y-76375000D01*
X36357143Y-76422619D01*
X36452381Y-76565476D01*
X36500000Y-76755952D01*
X36500000Y-77136905D01*
X36452381Y-77232143D01*
X36404762Y-77279762D01*
X36309524Y-77327381D01*
X36119047Y-77327381D01*
X36023809Y-77279762D01*
X35976190Y-77232143D01*
X35928571Y-77136905D01*
X35928571Y-76898810D01*
X35976190Y-76803571D01*
X36023809Y-76755952D01*
X36119047Y-76708333D01*
X36309524Y-76708333D01*
X36404762Y-76755952D01*
X36452381Y-76803571D01*
X36500000Y-76898810D01*
X42261905Y-77977381D02*
X42261905Y-78786905D01*
X42214286Y-78882143D01*
X42166667Y-78929762D01*
X42071429Y-78977381D01*
X41880952Y-78977381D01*
X41785714Y-78929762D01*
X41738095Y-78882143D01*
X41690476Y-78786905D01*
X41690476Y-77977381D01*
X41309524Y-77977381D02*
X40642857Y-77977381D01*
X41071429Y-78977381D01*
D11*
X76500000Y-58000000D02*
G75*
G03X82500000Y-58000000I3000000J0D01*
G01*
X105500000Y-58000000D02*
G75*
G03X111500000Y-58000000I3000000J0D01*
G01*
X105500000Y-56000000D02*
X105500000Y-58000000D01*
X82500000Y-56000000D02*
X82500000Y-58000000D01*
X76500000Y-32000000D02*
X111500000Y-32000000D01*
X76500000Y-56000000D02*
X111500000Y-56000000D01*
X76500000Y-26000000D02*
X76500000Y-58000000D01*
X76500000Y-26000000D02*
X111500000Y-26000000D01*
X111500000Y-26000000D02*
X111500000Y-58000000D01*
D10*
X63746000Y-43254000D02*
X63746000Y-42746000D01*
X64127000Y-43000000D02*
X64381000Y-43000000D01*
X63746000Y-43000000D02*
X63492000Y-43000000D01*
X64127000Y-42746000D02*
X63746000Y-43000000D01*
X64127000Y-43254000D02*
X64127000Y-42746000D01*
X63746000Y-43000000D02*
X64127000Y-43254000D01*
D13*
X61800000Y-44060000D02*
X61800000Y-41940000D01*
X65000000Y-44060000D02*
X61800000Y-44060000D01*
X61800000Y-41940000D02*
X65000000Y-41940000D01*
X168610000Y-48600000D02*
X168610000Y-50400000D01*
X165390000Y-50400000D02*
X165390000Y-47950000D01*
X141150000Y-24970000D02*
X149850000Y-24970000D01*
X141150000Y-31380000D02*
X149850000Y-31380000D01*
X149850000Y-31380000D02*
X149850000Y-24970000D01*
X149850000Y-26200000D02*
X141150000Y-26200000D01*
X141150000Y-24970000D02*
X141150000Y-31380000D01*
D11*
X58500000Y-26000000D02*
X38500000Y-26000000D01*
X38500000Y-26000000D02*
X38500000Y-42500000D01*
X38500000Y-42500000D02*
X58500000Y-42500000D01*
X58500000Y-42500000D02*
X58500000Y-26000000D01*
D13*
X141000000Y-44020000D02*
X139000000Y-44020000D01*
X139000000Y-41980000D02*
X141000000Y-41980000D01*
X125000000Y-41980000D02*
X127000000Y-41980000D01*
X127000000Y-44020000D02*
X125000000Y-44020000D01*
X28520000Y-121000000D02*
X28520000Y-123000000D01*
X26480000Y-123000000D02*
X26480000Y-121000000D01*
X26520000Y-151000000D02*
X26520000Y-153000000D01*
X24480000Y-153000000D02*
X24480000Y-151000000D01*
X26520000Y-90000000D02*
X26520000Y-92000000D01*
X24480000Y-92000000D02*
X24480000Y-90000000D01*
X27000000Y-104020000D02*
X25000000Y-104020000D01*
X25000000Y-101980000D02*
X27000000Y-101980000D01*
X37000000Y-120480000D02*
X39000000Y-120480000D01*
X39000000Y-122520000D02*
X37000000Y-122520000D01*
X33520000Y-121000000D02*
X33520000Y-123000000D01*
X31480000Y-123000000D02*
X31480000Y-121000000D01*
X148980000Y-84000000D02*
X148980000Y-82000000D01*
X151020000Y-82000000D02*
X151020000Y-84000000D01*
X154980000Y-84000000D02*
X154980000Y-82000000D01*
X157020000Y-82000000D02*
X157020000Y-84000000D01*
X143000000Y-62980000D02*
X145000000Y-62980000D01*
X145000000Y-65020000D02*
X143000000Y-65020000D01*
X166000000Y-60520000D02*
X164000000Y-60520000D01*
X164000000Y-58480000D02*
X166000000Y-58480000D01*
X31020000Y-121000000D02*
X31020000Y-123000000D01*
X28980000Y-123000000D02*
X28980000Y-121000000D01*
X170000000Y-45520000D02*
X168000000Y-45520000D01*
X168000000Y-43480000D02*
X170000000Y-43480000D01*
X172020000Y-48500000D02*
X172020000Y-50500000D01*
X169980000Y-50500000D02*
X169980000Y-48500000D01*
X166000000Y-55520000D02*
X164000000Y-55520000D01*
X164000000Y-53480000D02*
X166000000Y-53480000D01*
X143000000Y-75980000D02*
X145000000Y-75980000D01*
X145000000Y-78020000D02*
X143000000Y-78020000D01*
X140980000Y-73000000D02*
X140980000Y-71000000D01*
X143020000Y-71000000D02*
X143020000Y-73000000D01*
X143000000Y-65980000D02*
X145000000Y-65980000D01*
X145000000Y-68020000D02*
X143000000Y-68020000D01*
X155980000Y-96000000D02*
X155980000Y-94000000D01*
X158020000Y-94000000D02*
X158020000Y-96000000D01*
X153000000Y-98020000D02*
X151000000Y-98020000D01*
X151000000Y-95980000D02*
X153000000Y-95980000D01*
X145980000Y-96000000D02*
X145980000Y-94000000D01*
X148020000Y-94000000D02*
X148020000Y-96000000D01*
X152000000Y-62020000D02*
X150000000Y-62020000D01*
X150000000Y-59980000D02*
X152000000Y-59980000D01*
X157020000Y-55000000D02*
X157020000Y-57000000D01*
X154980000Y-57000000D02*
X154980000Y-55000000D01*
X37000000Y-122980000D02*
X39000000Y-122980000D01*
X39000000Y-125020000D02*
X37000000Y-125020000D01*
X27000000Y-101520000D02*
X25000000Y-101520000D01*
X25000000Y-99480000D02*
X27000000Y-99480000D01*
X145980000Y-84000000D02*
X145980000Y-82000000D01*
X148020000Y-82000000D02*
X148020000Y-84000000D01*
X143000000Y-59980000D02*
X145000000Y-59980000D01*
X145000000Y-62020000D02*
X143000000Y-62020000D01*
X166000000Y-58020000D02*
X164000000Y-58020000D01*
X164000000Y-55980000D02*
X166000000Y-55980000D01*
X69430000Y-40000000D02*
X69430000Y-42000000D01*
X71570000Y-42000000D02*
X71570000Y-40000000D01*
X126930000Y-47000000D02*
X126930000Y-49000000D01*
X129070000Y-49000000D02*
X129070000Y-47000000D01*
X136930000Y-47000000D02*
X136930000Y-49000000D01*
X139070000Y-49000000D02*
X139070000Y-47000000D01*
X172070000Y-84000000D02*
X172070000Y-82000000D01*
X169930000Y-82000000D02*
X169930000Y-84000000D01*
X169070000Y-84000000D02*
X169070000Y-82000000D01*
X166930000Y-82000000D02*
X166930000Y-84000000D01*
X166070000Y-84000000D02*
X166070000Y-82000000D01*
X163930000Y-82000000D02*
X163930000Y-84000000D01*
X64000000Y-56930000D02*
X62000000Y-56930000D01*
X62000000Y-59070000D02*
X64000000Y-59070000D01*
X157930000Y-82000000D02*
X157930000Y-84000000D01*
X160070000Y-84000000D02*
X160070000Y-82000000D01*
X163070000Y-84000000D02*
X163070000Y-82000000D01*
X160930000Y-82000000D02*
X160930000Y-84000000D01*
X53000000Y-151930000D02*
X51000000Y-151930000D01*
X51000000Y-154070000D02*
X53000000Y-154070000D01*
X61000000Y-151930000D02*
X59000000Y-151930000D01*
X59000000Y-154070000D02*
X61000000Y-154070000D01*
X69000000Y-151930000D02*
X67000000Y-151930000D01*
X67000000Y-154070000D02*
X69000000Y-154070000D01*
X77000000Y-151930000D02*
X75000000Y-151930000D01*
X75000000Y-154070000D02*
X77000000Y-154070000D01*
X85000000Y-151930000D02*
X83000000Y-151930000D01*
X83000000Y-154070000D02*
X85000000Y-154070000D01*
X93000000Y-151930000D02*
X91000000Y-151930000D01*
X91000000Y-154070000D02*
X93000000Y-154070000D01*
X101000000Y-151930000D02*
X99000000Y-151930000D01*
X99000000Y-154070000D02*
X101000000Y-154070000D01*
X109000000Y-151930000D02*
X107000000Y-151930000D01*
X107000000Y-154070000D02*
X109000000Y-154070000D01*
X117000000Y-151930000D02*
X115000000Y-151930000D01*
X115000000Y-154070000D02*
X117000000Y-154070000D01*
X125000000Y-151930000D02*
X123000000Y-151930000D01*
X123000000Y-154070000D02*
X125000000Y-154070000D01*
X133000000Y-151930000D02*
X131000000Y-151930000D01*
X131000000Y-154070000D02*
X133000000Y-154070000D01*
X45930000Y-67000000D02*
X45930000Y-69000000D01*
X48070000Y-69000000D02*
X48070000Y-67000000D01*
X45930000Y-75000000D02*
X45930000Y-77000000D01*
X48070000Y-77000000D02*
X48070000Y-75000000D01*
X45930000Y-83000000D02*
X45930000Y-85000000D01*
X48070000Y-85000000D02*
X48070000Y-83000000D01*
X45930000Y-91000000D02*
X45930000Y-93000000D01*
X48070000Y-93000000D02*
X48070000Y-91000000D01*
X45930000Y-99000000D02*
X45930000Y-101000000D01*
X48070000Y-101000000D02*
X48070000Y-99000000D01*
X45930000Y-107000000D02*
X45930000Y-109000000D01*
X48070000Y-109000000D02*
X48070000Y-107000000D01*
X45930000Y-115000000D02*
X45930000Y-117000000D01*
X48070000Y-117000000D02*
X48070000Y-115000000D01*
X45930000Y-123000000D02*
X45930000Y-125000000D01*
X48070000Y-125000000D02*
X48070000Y-123000000D01*
X45930000Y-131000000D02*
X45930000Y-133000000D01*
X48070000Y-133000000D02*
X48070000Y-131000000D01*
X45930000Y-139000000D02*
X45930000Y-141000000D01*
X48070000Y-141000000D02*
X48070000Y-139000000D01*
X45930000Y-147000000D02*
X45930000Y-149000000D01*
X48070000Y-149000000D02*
X48070000Y-147000000D01*
X38930000Y-116000000D02*
X38930000Y-118000000D01*
X41070000Y-118000000D02*
X41070000Y-116000000D01*
D11*
X135800000Y-39300000D02*
X124200000Y-39300000D01*
X124200000Y-39300000D02*
X124200000Y-26700000D01*
X124200000Y-26700000D02*
X135800000Y-26700000D01*
X135800000Y-26700000D02*
X135800000Y-39300000D01*
D13*
X151980000Y-84000000D02*
X151980000Y-82000000D01*
X154020000Y-82000000D02*
X154020000Y-84000000D01*
X144390000Y-72900000D02*
X144390000Y-71100000D01*
X147610000Y-71100000D02*
X147610000Y-73550000D01*
X152900000Y-94610000D02*
X151100000Y-94610000D01*
X151100000Y-91390000D02*
X153550000Y-91390000D01*
D12*
X36225000Y-150450000D02*
X31775000Y-150450000D01*
X37750000Y-143550000D02*
X31775000Y-143550000D01*
X36225000Y-89450000D02*
X31775000Y-89450000D01*
X37750000Y-82550000D02*
X31775000Y-82550000D01*
X58920000Y-53040000D02*
X58920000Y-47960000D01*
X58920000Y-47960000D02*
X69080000Y-47960000D01*
X69080000Y-47960000D02*
X69080000Y-53040000D01*
X69080000Y-53040000D02*
X58920000Y-53040000D01*
X58920000Y-51770000D02*
X60190000Y-51770000D01*
X60190000Y-51770000D02*
X60190000Y-49230000D01*
X60190000Y-49230000D02*
X58920000Y-49230000D01*
X156025000Y-65675000D02*
X156250000Y-65675000D01*
X156025000Y-70325000D02*
X156350000Y-70325000D01*
X165975000Y-70325000D02*
X165650000Y-70325000D01*
X165975000Y-65675000D02*
X165650000Y-65675000D01*
X156025000Y-65675000D02*
X156025000Y-70325000D01*
X165975000Y-65675000D02*
X165975000Y-70325000D01*
X156250000Y-65675000D02*
X156250000Y-64600000D01*
X36125000Y-114125000D02*
X35900000Y-114125000D01*
X36125000Y-106875000D02*
X35825000Y-106875000D01*
X28875000Y-106875000D02*
X29175000Y-106875000D01*
X28875000Y-114125000D02*
X29175000Y-114125000D01*
X36125000Y-114125000D02*
X36125000Y-113825000D01*
X28875000Y-114125000D02*
X28875000Y-113825000D01*
X28875000Y-106875000D02*
X28875000Y-107175000D01*
X36125000Y-106875000D02*
X36125000Y-107175000D01*
X35900000Y-114125000D02*
X35900000Y-115350000D01*
X64738095Y-41452381D02*
X64738095Y-40452381D01*
X64500000Y-40452381D01*
X64357142Y-40500000D01*
X64261904Y-40595238D01*
X64214285Y-40690476D01*
X64166666Y-40880952D01*
X64166666Y-41023810D01*
X64214285Y-41214286D01*
X64261904Y-41309524D01*
X64357142Y-41404762D01*
X64500000Y-41452381D01*
X64738095Y-41452381D01*
X63214285Y-41452381D02*
X63785714Y-41452381D01*
X63500000Y-41452381D02*
X63500000Y-40452381D01*
X63595238Y-40595238D01*
X63690476Y-40690476D01*
X63785714Y-40738095D01*
X163552381Y-48738095D02*
X164361905Y-48738095D01*
X164457143Y-48785714D01*
X164504762Y-48833333D01*
X164552381Y-48928571D01*
X164552381Y-49119048D01*
X164504762Y-49214286D01*
X164457143Y-49261905D01*
X164361905Y-49309524D01*
X163552381Y-49309524D01*
X163885714Y-50214286D02*
X164552381Y-50214286D01*
X163504762Y-49976190D02*
X164219048Y-49738095D01*
X164219048Y-50357143D01*
X145833333Y-31692381D02*
X145833333Y-32406667D01*
X145880953Y-32549524D01*
X145976191Y-32644762D01*
X146119048Y-32692381D01*
X146214286Y-32692381D01*
X144928571Y-32025714D02*
X144928571Y-32692381D01*
X145166667Y-31644762D02*
X145404762Y-32359048D01*
X144785714Y-32359048D01*
X48833333Y-43452381D02*
X48833333Y-44166667D01*
X48880953Y-44309524D01*
X48976191Y-44404762D01*
X49119048Y-44452381D01*
X49214286Y-44452381D01*
X48404762Y-43547619D02*
X48357143Y-43500000D01*
X48261905Y-43452381D01*
X48023809Y-43452381D01*
X47928571Y-43500000D01*
X47880952Y-43547619D01*
X47833333Y-43642857D01*
X47833333Y-43738095D01*
X47880952Y-43880952D01*
X48452381Y-44452381D01*
X47833333Y-44452381D01*
X140166666Y-41607143D02*
X140214285Y-41654762D01*
X140357142Y-41702381D01*
X140452380Y-41702381D01*
X140595238Y-41654762D01*
X140690476Y-41559524D01*
X140738095Y-41464286D01*
X140785714Y-41273810D01*
X140785714Y-41130952D01*
X140738095Y-40940476D01*
X140690476Y-40845238D01*
X140595238Y-40750000D01*
X140452380Y-40702381D01*
X140357142Y-40702381D01*
X140214285Y-40750000D01*
X140166666Y-40797619D01*
X139214285Y-41702381D02*
X139785714Y-41702381D01*
X139500000Y-41702381D02*
X139500000Y-40702381D01*
X139595238Y-40845238D01*
X139690476Y-40940476D01*
X139785714Y-40988095D01*
X126166666Y-41607143D02*
X126214285Y-41654762D01*
X126357142Y-41702381D01*
X126452380Y-41702381D01*
X126595238Y-41654762D01*
X126690476Y-41559524D01*
X126738095Y-41464286D01*
X126785714Y-41273810D01*
X126785714Y-41130952D01*
X126738095Y-40940476D01*
X126690476Y-40845238D01*
X126595238Y-40750000D01*
X126452380Y-40702381D01*
X126357142Y-40702381D01*
X126214285Y-40750000D01*
X126166666Y-40797619D01*
X125785714Y-40797619D02*
X125738095Y-40750000D01*
X125642857Y-40702381D01*
X125404761Y-40702381D01*
X125309523Y-40750000D01*
X125261904Y-40797619D01*
X125214285Y-40892857D01*
X125214285Y-40988095D01*
X125261904Y-41130952D01*
X125833333Y-41702381D01*
X125214285Y-41702381D01*
X27857143Y-126333334D02*
X27904762Y-126285715D01*
X27952381Y-126142858D01*
X27952381Y-126047620D01*
X27904762Y-125904762D01*
X27809524Y-125809524D01*
X27714286Y-125761905D01*
X27523810Y-125714286D01*
X27380952Y-125714286D01*
X27190476Y-125761905D01*
X27095238Y-125809524D01*
X27000000Y-125904762D01*
X26952381Y-126047620D01*
X26952381Y-126142858D01*
X27000000Y-126285715D01*
X27047619Y-126333334D01*
X26952381Y-126666667D02*
X26952381Y-127285715D01*
X27333333Y-126952381D01*
X27333333Y-127095239D01*
X27380952Y-127190477D01*
X27428571Y-127238096D01*
X27523810Y-127285715D01*
X27761905Y-127285715D01*
X27857143Y-127238096D01*
X27904762Y-127190477D01*
X27952381Y-127095239D01*
X27952381Y-126809524D01*
X27904762Y-126714286D01*
X27857143Y-126666667D01*
X27607143Y-151833334D02*
X27654762Y-151785715D01*
X27702381Y-151642858D01*
X27702381Y-151547620D01*
X27654762Y-151404762D01*
X27559524Y-151309524D01*
X27464286Y-151261905D01*
X27273810Y-151214286D01*
X27130952Y-151214286D01*
X26940476Y-151261905D01*
X26845238Y-151309524D01*
X26750000Y-151404762D01*
X26702381Y-151547620D01*
X26702381Y-151642858D01*
X26750000Y-151785715D01*
X26797619Y-151833334D01*
X27035714Y-152690477D02*
X27702381Y-152690477D01*
X26654762Y-152452381D02*
X27369048Y-152214286D01*
X27369048Y-152833334D01*
X27607143Y-90833334D02*
X27654762Y-90785715D01*
X27702381Y-90642858D01*
X27702381Y-90547620D01*
X27654762Y-90404762D01*
X27559524Y-90309524D01*
X27464286Y-90261905D01*
X27273810Y-90214286D01*
X27130952Y-90214286D01*
X26940476Y-90261905D01*
X26845238Y-90309524D01*
X26750000Y-90404762D01*
X26702381Y-90547620D01*
X26702381Y-90642858D01*
X26750000Y-90785715D01*
X26797619Y-90833334D01*
X26702381Y-91738096D02*
X26702381Y-91261905D01*
X27178571Y-91214286D01*
X27130952Y-91261905D01*
X27083333Y-91357143D01*
X27083333Y-91595239D01*
X27130952Y-91690477D01*
X27178571Y-91738096D01*
X27273810Y-91785715D01*
X27511905Y-91785715D01*
X27607143Y-91738096D01*
X27654762Y-91690477D01*
X27702381Y-91595239D01*
X27702381Y-91357143D01*
X27654762Y-91261905D01*
X27607143Y-91214286D01*
X26166666Y-105107143D02*
X26214285Y-105154762D01*
X26357142Y-105202381D01*
X26452380Y-105202381D01*
X26595238Y-105154762D01*
X26690476Y-105059524D01*
X26738095Y-104964286D01*
X26785714Y-104773810D01*
X26785714Y-104630952D01*
X26738095Y-104440476D01*
X26690476Y-104345238D01*
X26595238Y-104250000D01*
X26452380Y-104202381D01*
X26357142Y-104202381D01*
X26214285Y-104250000D01*
X26166666Y-104297619D01*
X25309523Y-104202381D02*
X25500000Y-104202381D01*
X25595238Y-104250000D01*
X25642857Y-104297619D01*
X25738095Y-104440476D01*
X25785714Y-104630952D01*
X25785714Y-105011905D01*
X25738095Y-105107143D01*
X25690476Y-105154762D01*
X25595238Y-105202381D01*
X25404761Y-105202381D01*
X25309523Y-105154762D01*
X25261904Y-105107143D01*
X25214285Y-105011905D01*
X25214285Y-104773810D01*
X25261904Y-104678571D01*
X25309523Y-104630952D01*
X25404761Y-104583333D01*
X25595238Y-104583333D01*
X25690476Y-104630952D01*
X25738095Y-104678571D01*
X25785714Y-104773810D01*
X42666666Y-121857143D02*
X42714285Y-121904762D01*
X42857142Y-121952381D01*
X42952380Y-121952381D01*
X43095238Y-121904762D01*
X43190476Y-121809524D01*
X43238095Y-121714286D01*
X43285714Y-121523810D01*
X43285714Y-121380952D01*
X43238095Y-121190476D01*
X43190476Y-121095238D01*
X43095238Y-121000000D01*
X42952380Y-120952381D01*
X42857142Y-120952381D01*
X42714285Y-121000000D01*
X42666666Y-121047619D01*
X42333333Y-120952381D02*
X41666666Y-120952381D01*
X42095238Y-121952381D01*
X32857143Y-126333334D02*
X32904762Y-126285715D01*
X32952381Y-126142858D01*
X32952381Y-126047620D01*
X32904762Y-125904762D01*
X32809524Y-125809524D01*
X32714286Y-125761905D01*
X32523810Y-125714286D01*
X32380952Y-125714286D01*
X32190476Y-125761905D01*
X32095238Y-125809524D01*
X32000000Y-125904762D01*
X31952381Y-126047620D01*
X31952381Y-126142858D01*
X32000000Y-126285715D01*
X32047619Y-126333334D01*
X32380952Y-126904762D02*
X32333333Y-126809524D01*
X32285714Y-126761905D01*
X32190476Y-126714286D01*
X32142857Y-126714286D01*
X32047619Y-126761905D01*
X32000000Y-126809524D01*
X31952381Y-126904762D01*
X31952381Y-127095239D01*
X32000000Y-127190477D01*
X32047619Y-127238096D01*
X32142857Y-127285715D01*
X32190476Y-127285715D01*
X32285714Y-127238096D01*
X32333333Y-127190477D01*
X32380952Y-127095239D01*
X32380952Y-126904762D01*
X32428571Y-126809524D01*
X32476190Y-126761905D01*
X32571429Y-126714286D01*
X32761905Y-126714286D01*
X32857143Y-126761905D01*
X32904762Y-126809524D01*
X32952381Y-126904762D01*
X32952381Y-127095239D01*
X32904762Y-127190477D01*
X32857143Y-127238096D01*
X32761905Y-127285715D01*
X32571429Y-127285715D01*
X32476190Y-127238096D01*
X32428571Y-127190477D01*
X32380952Y-127095239D01*
X150357143Y-87333334D02*
X150404762Y-87285715D01*
X150452381Y-87142858D01*
X150452381Y-87047620D01*
X150404762Y-86904762D01*
X150309524Y-86809524D01*
X150214286Y-86761905D01*
X150023810Y-86714286D01*
X149880952Y-86714286D01*
X149690476Y-86761905D01*
X149595238Y-86809524D01*
X149500000Y-86904762D01*
X149452381Y-87047620D01*
X149452381Y-87142858D01*
X149500000Y-87285715D01*
X149547619Y-87333334D01*
X150452381Y-87809524D02*
X150452381Y-88000000D01*
X150404762Y-88095239D01*
X150357143Y-88142858D01*
X150214286Y-88238096D01*
X150023810Y-88285715D01*
X149642857Y-88285715D01*
X149547619Y-88238096D01*
X149500000Y-88190477D01*
X149452381Y-88095239D01*
X149452381Y-87904762D01*
X149500000Y-87809524D01*
X149547619Y-87761905D01*
X149642857Y-87714286D01*
X149880952Y-87714286D01*
X149976190Y-87761905D01*
X150023810Y-87809524D01*
X150071429Y-87904762D01*
X150071429Y-88095239D01*
X150023810Y-88190477D01*
X149976190Y-88238096D01*
X149880952Y-88285715D01*
X156357143Y-87357143D02*
X156404762Y-87309524D01*
X156452381Y-87166667D01*
X156452381Y-87071429D01*
X156404762Y-86928571D01*
X156309524Y-86833333D01*
X156214286Y-86785714D01*
X156023810Y-86738095D01*
X155880952Y-86738095D01*
X155690476Y-86785714D01*
X155595238Y-86833333D01*
X155500000Y-86928571D01*
X155452381Y-87071429D01*
X155452381Y-87166667D01*
X155500000Y-87309524D01*
X155547619Y-87357143D01*
X156452381Y-88309524D02*
X156452381Y-87738095D01*
X156452381Y-88023809D02*
X155452381Y-88023809D01*
X155595238Y-87928571D01*
X155690476Y-87833333D01*
X155738095Y-87738095D01*
X155452381Y-88928571D02*
X155452381Y-89023810D01*
X155500000Y-89119048D01*
X155547619Y-89166667D01*
X155642857Y-89214286D01*
X155833333Y-89261905D01*
X156071429Y-89261905D01*
X156261905Y-89214286D01*
X156357143Y-89166667D01*
X156404762Y-89119048D01*
X156452381Y-89023810D01*
X156452381Y-88928571D01*
X156404762Y-88833333D01*
X156357143Y-88785714D01*
X156261905Y-88738095D01*
X156071429Y-88690476D01*
X155833333Y-88690476D01*
X155642857Y-88738095D01*
X155547619Y-88785714D01*
X155500000Y-88833333D01*
X155452381Y-88928571D01*
X139642857Y-64357143D02*
X139690476Y-64404762D01*
X139833333Y-64452381D01*
X139928571Y-64452381D01*
X140071429Y-64404762D01*
X140166667Y-64309524D01*
X140214286Y-64214286D01*
X140261905Y-64023810D01*
X140261905Y-63880952D01*
X140214286Y-63690476D01*
X140166667Y-63595238D01*
X140071429Y-63500000D01*
X139928571Y-63452381D01*
X139833333Y-63452381D01*
X139690476Y-63500000D01*
X139642857Y-63547619D01*
X138690476Y-64452381D02*
X139261905Y-64452381D01*
X138976191Y-64452381D02*
X138976191Y-63452381D01*
X139071429Y-63595238D01*
X139166667Y-63690476D01*
X139261905Y-63738095D01*
X137738095Y-64452381D02*
X138309524Y-64452381D01*
X138023810Y-64452381D02*
X138023810Y-63452381D01*
X138119048Y-63595238D01*
X138214286Y-63690476D01*
X138309524Y-63738095D01*
X170642857Y-59857143D02*
X170690476Y-59904762D01*
X170833333Y-59952381D01*
X170928571Y-59952381D01*
X171071429Y-59904762D01*
X171166667Y-59809524D01*
X171214286Y-59714286D01*
X171261905Y-59523810D01*
X171261905Y-59380952D01*
X171214286Y-59190476D01*
X171166667Y-59095238D01*
X171071429Y-59000000D01*
X170928571Y-58952381D01*
X170833333Y-58952381D01*
X170690476Y-59000000D01*
X170642857Y-59047619D01*
X169690476Y-59952381D02*
X170261905Y-59952381D01*
X169976191Y-59952381D02*
X169976191Y-58952381D01*
X170071429Y-59095238D01*
X170166667Y-59190476D01*
X170261905Y-59238095D01*
X169309524Y-59047619D02*
X169261905Y-59000000D01*
X169166667Y-58952381D01*
X168928571Y-58952381D01*
X168833333Y-59000000D01*
X168785714Y-59047619D01*
X168738095Y-59142857D01*
X168738095Y-59238095D01*
X168785714Y-59380952D01*
X169357143Y-59952381D01*
X168738095Y-59952381D01*
X30357143Y-126357143D02*
X30404762Y-126309524D01*
X30452381Y-126166667D01*
X30452381Y-126071429D01*
X30404762Y-125928571D01*
X30309524Y-125833333D01*
X30214286Y-125785714D01*
X30023810Y-125738095D01*
X29880952Y-125738095D01*
X29690476Y-125785714D01*
X29595238Y-125833333D01*
X29500000Y-125928571D01*
X29452381Y-126071429D01*
X29452381Y-126166667D01*
X29500000Y-126309524D01*
X29547619Y-126357143D01*
X30452381Y-127309524D02*
X30452381Y-126738095D01*
X30452381Y-127023809D02*
X29452381Y-127023809D01*
X29595238Y-126928571D01*
X29690476Y-126833333D01*
X29738095Y-126738095D01*
X29452381Y-127642857D02*
X29452381Y-128261905D01*
X29833333Y-127928571D01*
X29833333Y-128071429D01*
X29880952Y-128166667D01*
X29928571Y-128214286D01*
X30023810Y-128261905D01*
X30261905Y-128261905D01*
X30357143Y-128214286D01*
X30404762Y-128166667D01*
X30452381Y-128071429D01*
X30452381Y-127785714D01*
X30404762Y-127690476D01*
X30357143Y-127642857D01*
X164642857Y-44857143D02*
X164690476Y-44904762D01*
X164833333Y-44952381D01*
X164928571Y-44952381D01*
X165071429Y-44904762D01*
X165166667Y-44809524D01*
X165214286Y-44714286D01*
X165261905Y-44523810D01*
X165261905Y-44380952D01*
X165214286Y-44190476D01*
X165166667Y-44095238D01*
X165071429Y-44000000D01*
X164928571Y-43952381D01*
X164833333Y-43952381D01*
X164690476Y-44000000D01*
X164642857Y-44047619D01*
X163690476Y-44952381D02*
X164261905Y-44952381D01*
X163976191Y-44952381D02*
X163976191Y-43952381D01*
X164071429Y-44095238D01*
X164166667Y-44190476D01*
X164261905Y-44238095D01*
X162833333Y-44285714D02*
X162833333Y-44952381D01*
X163071429Y-43904762D02*
X163309524Y-44619048D01*
X162690476Y-44619048D01*
X173107143Y-48857143D02*
X173154762Y-48809524D01*
X173202381Y-48666667D01*
X173202381Y-48571429D01*
X173154762Y-48428571D01*
X173059524Y-48333333D01*
X172964286Y-48285714D01*
X172773810Y-48238095D01*
X172630952Y-48238095D01*
X172440476Y-48285714D01*
X172345238Y-48333333D01*
X172250000Y-48428571D01*
X172202381Y-48571429D01*
X172202381Y-48666667D01*
X172250000Y-48809524D01*
X172297619Y-48857143D01*
X173202381Y-49809524D02*
X173202381Y-49238095D01*
X173202381Y-49523809D02*
X172202381Y-49523809D01*
X172345238Y-49428571D01*
X172440476Y-49333333D01*
X172488095Y-49238095D01*
X172202381Y-50714286D02*
X172202381Y-50238095D01*
X172678571Y-50190476D01*
X172630952Y-50238095D01*
X172583333Y-50333333D01*
X172583333Y-50571429D01*
X172630952Y-50666667D01*
X172678571Y-50714286D01*
X172773810Y-50761905D01*
X173011905Y-50761905D01*
X173107143Y-50714286D01*
X173154762Y-50666667D01*
X173202381Y-50571429D01*
X173202381Y-50333333D01*
X173154762Y-50238095D01*
X173107143Y-50190476D01*
X170642857Y-54857143D02*
X170690476Y-54904762D01*
X170833333Y-54952381D01*
X170928571Y-54952381D01*
X171071429Y-54904762D01*
X171166667Y-54809524D01*
X171214286Y-54714286D01*
X171261905Y-54523810D01*
X171261905Y-54380952D01*
X171214286Y-54190476D01*
X171166667Y-54095238D01*
X171071429Y-54000000D01*
X170928571Y-53952381D01*
X170833333Y-53952381D01*
X170690476Y-54000000D01*
X170642857Y-54047619D01*
X169690476Y-54952381D02*
X170261905Y-54952381D01*
X169976191Y-54952381D02*
X169976191Y-53952381D01*
X170071429Y-54095238D01*
X170166667Y-54190476D01*
X170261905Y-54238095D01*
X168833333Y-53952381D02*
X169023810Y-53952381D01*
X169119048Y-54000000D01*
X169166667Y-54047619D01*
X169261905Y-54190476D01*
X169309524Y-54380952D01*
X169309524Y-54761905D01*
X169261905Y-54857143D01*
X169214286Y-54904762D01*
X169119048Y-54952381D01*
X168928571Y-54952381D01*
X168833333Y-54904762D01*
X168785714Y-54857143D01*
X168738095Y-54761905D01*
X168738095Y-54523810D01*
X168785714Y-54428571D01*
X168833333Y-54380952D01*
X168928571Y-54333333D01*
X169119048Y-54333333D01*
X169214286Y-54380952D01*
X169261905Y-54428571D01*
X169309524Y-54523810D01*
X144642857Y-79357143D02*
X144690476Y-79404762D01*
X144833333Y-79452381D01*
X144928571Y-79452381D01*
X145071429Y-79404762D01*
X145166667Y-79309524D01*
X145214286Y-79214286D01*
X145261905Y-79023810D01*
X145261905Y-78880952D01*
X145214286Y-78690476D01*
X145166667Y-78595238D01*
X145071429Y-78500000D01*
X144928571Y-78452381D01*
X144833333Y-78452381D01*
X144690476Y-78500000D01*
X144642857Y-78547619D01*
X143690476Y-79452381D02*
X144261905Y-79452381D01*
X143976191Y-79452381D02*
X143976191Y-78452381D01*
X144071429Y-78595238D01*
X144166667Y-78690476D01*
X144261905Y-78738095D01*
X143357143Y-78452381D02*
X142690476Y-78452381D01*
X143119048Y-79452381D01*
X140607143Y-71357143D02*
X140654762Y-71309524D01*
X140702381Y-71166667D01*
X140702381Y-71071429D01*
X140654762Y-70928571D01*
X140559524Y-70833333D01*
X140464286Y-70785714D01*
X140273810Y-70738095D01*
X140130952Y-70738095D01*
X139940476Y-70785714D01*
X139845238Y-70833333D01*
X139750000Y-70928571D01*
X139702381Y-71071429D01*
X139702381Y-71166667D01*
X139750000Y-71309524D01*
X139797619Y-71357143D01*
X140702381Y-72309524D02*
X140702381Y-71738095D01*
X140702381Y-72023809D02*
X139702381Y-72023809D01*
X139845238Y-71928571D01*
X139940476Y-71833333D01*
X139988095Y-71738095D01*
X140130952Y-72880952D02*
X140083333Y-72785714D01*
X140035714Y-72738095D01*
X139940476Y-72690476D01*
X139892857Y-72690476D01*
X139797619Y-72738095D01*
X139750000Y-72785714D01*
X139702381Y-72880952D01*
X139702381Y-73071429D01*
X139750000Y-73166667D01*
X139797619Y-73214286D01*
X139892857Y-73261905D01*
X139940476Y-73261905D01*
X140035714Y-73214286D01*
X140083333Y-73166667D01*
X140130952Y-73071429D01*
X140130952Y-72880952D01*
X140178571Y-72785714D01*
X140226190Y-72738095D01*
X140321429Y-72690476D01*
X140511905Y-72690476D01*
X140607143Y-72738095D01*
X140654762Y-72785714D01*
X140702381Y-72880952D01*
X140702381Y-73071429D01*
X140654762Y-73166667D01*
X140607143Y-73214286D01*
X140511905Y-73261905D01*
X140321429Y-73261905D01*
X140226190Y-73214286D01*
X140178571Y-73166667D01*
X140130952Y-73071429D01*
X139642857Y-67357143D02*
X139690476Y-67404762D01*
X139833333Y-67452381D01*
X139928571Y-67452381D01*
X140071429Y-67404762D01*
X140166667Y-67309524D01*
X140214286Y-67214286D01*
X140261905Y-67023810D01*
X140261905Y-66880952D01*
X140214286Y-66690476D01*
X140166667Y-66595238D01*
X140071429Y-66500000D01*
X139928571Y-66452381D01*
X139833333Y-66452381D01*
X139690476Y-66500000D01*
X139642857Y-66547619D01*
X138690476Y-67452381D02*
X139261905Y-67452381D01*
X138976191Y-67452381D02*
X138976191Y-66452381D01*
X139071429Y-66595238D01*
X139166667Y-66690476D01*
X139261905Y-66738095D01*
X138214286Y-67452381D02*
X138023810Y-67452381D01*
X137928571Y-67404762D01*
X137880952Y-67357143D01*
X137785714Y-67214286D01*
X137738095Y-67023810D01*
X137738095Y-66642857D01*
X137785714Y-66547619D01*
X137833333Y-66500000D01*
X137928571Y-66452381D01*
X138119048Y-66452381D01*
X138214286Y-66500000D01*
X138261905Y-66547619D01*
X138309524Y-66642857D01*
X138309524Y-66880952D01*
X138261905Y-66976190D01*
X138214286Y-67023810D01*
X138119048Y-67071429D01*
X137928571Y-67071429D01*
X137833333Y-67023810D01*
X137785714Y-66976190D01*
X137738095Y-66880952D01*
X159357143Y-94357143D02*
X159404762Y-94309524D01*
X159452381Y-94166667D01*
X159452381Y-94071429D01*
X159404762Y-93928571D01*
X159309524Y-93833333D01*
X159214286Y-93785714D01*
X159023810Y-93738095D01*
X158880952Y-93738095D01*
X158690476Y-93785714D01*
X158595238Y-93833333D01*
X158500000Y-93928571D01*
X158452381Y-94071429D01*
X158452381Y-94166667D01*
X158500000Y-94309524D01*
X158547619Y-94357143D01*
X158547619Y-94738095D02*
X158500000Y-94785714D01*
X158452381Y-94880952D01*
X158452381Y-95119048D01*
X158500000Y-95214286D01*
X158547619Y-95261905D01*
X158642857Y-95309524D01*
X158738095Y-95309524D01*
X158880952Y-95261905D01*
X159452381Y-94690476D01*
X159452381Y-95309524D01*
X158452381Y-95928571D02*
X158452381Y-96023810D01*
X158500000Y-96119048D01*
X158547619Y-96166667D01*
X158642857Y-96214286D01*
X158833333Y-96261905D01*
X159071429Y-96261905D01*
X159261905Y-96214286D01*
X159357143Y-96166667D01*
X159404762Y-96119048D01*
X159452381Y-96023810D01*
X159452381Y-95928571D01*
X159404762Y-95833333D01*
X159357143Y-95785714D01*
X159261905Y-95738095D01*
X159071429Y-95690476D01*
X158833333Y-95690476D01*
X158642857Y-95738095D01*
X158547619Y-95785714D01*
X158500000Y-95833333D01*
X158452381Y-95928571D01*
X152642857Y-99107143D02*
X152690476Y-99154762D01*
X152833333Y-99202381D01*
X152928571Y-99202381D01*
X153071429Y-99154762D01*
X153166667Y-99059524D01*
X153214286Y-98964286D01*
X153261905Y-98773810D01*
X153261905Y-98630952D01*
X153214286Y-98440476D01*
X153166667Y-98345238D01*
X153071429Y-98250000D01*
X152928571Y-98202381D01*
X152833333Y-98202381D01*
X152690476Y-98250000D01*
X152642857Y-98297619D01*
X152261905Y-98297619D02*
X152214286Y-98250000D01*
X152119048Y-98202381D01*
X151880952Y-98202381D01*
X151785714Y-98250000D01*
X151738095Y-98297619D01*
X151690476Y-98392857D01*
X151690476Y-98488095D01*
X151738095Y-98630952D01*
X152309524Y-99202381D01*
X151690476Y-99202381D01*
X150738095Y-99202381D02*
X151309524Y-99202381D01*
X151023810Y-99202381D02*
X151023810Y-98202381D01*
X151119048Y-98345238D01*
X151214286Y-98440476D01*
X151309524Y-98488095D01*
X145607143Y-94357143D02*
X145654762Y-94309524D01*
X145702381Y-94166667D01*
X145702381Y-94071429D01*
X145654762Y-93928571D01*
X145559524Y-93833333D01*
X145464286Y-93785714D01*
X145273810Y-93738095D01*
X145130952Y-93738095D01*
X144940476Y-93785714D01*
X144845238Y-93833333D01*
X144750000Y-93928571D01*
X144702381Y-94071429D01*
X144702381Y-94166667D01*
X144750000Y-94309524D01*
X144797619Y-94357143D01*
X144797619Y-94738095D02*
X144750000Y-94785714D01*
X144702381Y-94880952D01*
X144702381Y-95119048D01*
X144750000Y-95214286D01*
X144797619Y-95261905D01*
X144892857Y-95309524D01*
X144988095Y-95309524D01*
X145130952Y-95261905D01*
X145702381Y-94690476D01*
X145702381Y-95309524D01*
X144797619Y-95690476D02*
X144750000Y-95738095D01*
X144702381Y-95833333D01*
X144702381Y-96071429D01*
X144750000Y-96166667D01*
X144797619Y-96214286D01*
X144892857Y-96261905D01*
X144988095Y-96261905D01*
X145130952Y-96214286D01*
X145702381Y-95642857D01*
X145702381Y-96261905D01*
X151642857Y-63107143D02*
X151690476Y-63154762D01*
X151833333Y-63202381D01*
X151928571Y-63202381D01*
X152071429Y-63154762D01*
X152166667Y-63059524D01*
X152214286Y-62964286D01*
X152261905Y-62773810D01*
X152261905Y-62630952D01*
X152214286Y-62440476D01*
X152166667Y-62345238D01*
X152071429Y-62250000D01*
X151928571Y-62202381D01*
X151833333Y-62202381D01*
X151690476Y-62250000D01*
X151642857Y-62297619D01*
X151261905Y-62297619D02*
X151214286Y-62250000D01*
X151119048Y-62202381D01*
X150880952Y-62202381D01*
X150785714Y-62250000D01*
X150738095Y-62297619D01*
X150690476Y-62392857D01*
X150690476Y-62488095D01*
X150738095Y-62630952D01*
X151309524Y-63202381D01*
X150690476Y-63202381D01*
X150357143Y-62202381D02*
X149738095Y-62202381D01*
X150071429Y-62583333D01*
X149928571Y-62583333D01*
X149833333Y-62630952D01*
X149785714Y-62678571D01*
X149738095Y-62773810D01*
X149738095Y-63011905D01*
X149785714Y-63107143D01*
X149833333Y-63154762D01*
X149928571Y-63202381D01*
X150214286Y-63202381D01*
X150309524Y-63154762D01*
X150357143Y-63107143D01*
X158107143Y-55357143D02*
X158154762Y-55309524D01*
X158202381Y-55166667D01*
X158202381Y-55071429D01*
X158154762Y-54928571D01*
X158059524Y-54833333D01*
X157964286Y-54785714D01*
X157773810Y-54738095D01*
X157630952Y-54738095D01*
X157440476Y-54785714D01*
X157345238Y-54833333D01*
X157250000Y-54928571D01*
X157202381Y-55071429D01*
X157202381Y-55166667D01*
X157250000Y-55309524D01*
X157297619Y-55357143D01*
X157297619Y-55738095D02*
X157250000Y-55785714D01*
X157202381Y-55880952D01*
X157202381Y-56119048D01*
X157250000Y-56214286D01*
X157297619Y-56261905D01*
X157392857Y-56309524D01*
X157488095Y-56309524D01*
X157630952Y-56261905D01*
X158202381Y-55690476D01*
X158202381Y-56309524D01*
X157535714Y-57166667D02*
X158202381Y-57166667D01*
X157154762Y-56928571D02*
X157869048Y-56690476D01*
X157869048Y-57309524D01*
X43642857Y-124357143D02*
X43690476Y-124404762D01*
X43833333Y-124452381D01*
X43928571Y-124452381D01*
X44071429Y-124404762D01*
X44166667Y-124309524D01*
X44214286Y-124214286D01*
X44261905Y-124023810D01*
X44261905Y-123880952D01*
X44214286Y-123690476D01*
X44166667Y-123595238D01*
X44071429Y-123500000D01*
X43928571Y-123452381D01*
X43833333Y-123452381D01*
X43690476Y-123500000D01*
X43642857Y-123547619D01*
X43261905Y-123547619D02*
X43214286Y-123500000D01*
X43119048Y-123452381D01*
X42880952Y-123452381D01*
X42785714Y-123500000D01*
X42738095Y-123547619D01*
X42690476Y-123642857D01*
X42690476Y-123738095D01*
X42738095Y-123880952D01*
X43309524Y-124452381D01*
X42690476Y-124452381D01*
X41785714Y-123452381D02*
X42261905Y-123452381D01*
X42309524Y-123928571D01*
X42261905Y-123880952D01*
X42166667Y-123833333D01*
X41928571Y-123833333D01*
X41833333Y-123880952D01*
X41785714Y-123928571D01*
X41738095Y-124023810D01*
X41738095Y-124261905D01*
X41785714Y-124357143D01*
X41833333Y-124404762D01*
X41928571Y-124452381D01*
X42166667Y-124452381D01*
X42261905Y-124404762D01*
X42309524Y-124357143D01*
X31642857Y-100857143D02*
X31690476Y-100904762D01*
X31833333Y-100952381D01*
X31928571Y-100952381D01*
X32071429Y-100904762D01*
X32166667Y-100809524D01*
X32214286Y-100714286D01*
X32261905Y-100523810D01*
X32261905Y-100380952D01*
X32214286Y-100190476D01*
X32166667Y-100095238D01*
X32071429Y-100000000D01*
X31928571Y-99952381D01*
X31833333Y-99952381D01*
X31690476Y-100000000D01*
X31642857Y-100047619D01*
X31261905Y-100047619D02*
X31214286Y-100000000D01*
X31119048Y-99952381D01*
X30880952Y-99952381D01*
X30785714Y-100000000D01*
X30738095Y-100047619D01*
X30690476Y-100142857D01*
X30690476Y-100238095D01*
X30738095Y-100380952D01*
X31309524Y-100952381D01*
X30690476Y-100952381D01*
X29833333Y-99952381D02*
X30023810Y-99952381D01*
X30119048Y-100000000D01*
X30166667Y-100047619D01*
X30261905Y-100190476D01*
X30309524Y-100380952D01*
X30309524Y-100761905D01*
X30261905Y-100857143D01*
X30214286Y-100904762D01*
X30119048Y-100952381D01*
X29928571Y-100952381D01*
X29833333Y-100904762D01*
X29785714Y-100857143D01*
X29738095Y-100761905D01*
X29738095Y-100523810D01*
X29785714Y-100428571D01*
X29833333Y-100380952D01*
X29928571Y-100333333D01*
X30119048Y-100333333D01*
X30214286Y-100380952D01*
X30261905Y-100428571D01*
X30309524Y-100523810D01*
X147357143Y-87357143D02*
X147404762Y-87309524D01*
X147452381Y-87166667D01*
X147452381Y-87071429D01*
X147404762Y-86928571D01*
X147309524Y-86833333D01*
X147214286Y-86785714D01*
X147023810Y-86738095D01*
X146880952Y-86738095D01*
X146690476Y-86785714D01*
X146595238Y-86833333D01*
X146500000Y-86928571D01*
X146452381Y-87071429D01*
X146452381Y-87166667D01*
X146500000Y-87309524D01*
X146547619Y-87357143D01*
X146547619Y-87738095D02*
X146500000Y-87785714D01*
X146452381Y-87880952D01*
X146452381Y-88119048D01*
X146500000Y-88214286D01*
X146547619Y-88261905D01*
X146642857Y-88309524D01*
X146738095Y-88309524D01*
X146880952Y-88261905D01*
X147452381Y-87690476D01*
X147452381Y-88309524D01*
X146452381Y-88642857D02*
X146452381Y-89309524D01*
X147452381Y-88880952D01*
X139642857Y-61357143D02*
X139690476Y-61404762D01*
X139833333Y-61452381D01*
X139928571Y-61452381D01*
X140071429Y-61404762D01*
X140166667Y-61309524D01*
X140214286Y-61214286D01*
X140261905Y-61023810D01*
X140261905Y-60880952D01*
X140214286Y-60690476D01*
X140166667Y-60595238D01*
X140071429Y-60500000D01*
X139928571Y-60452381D01*
X139833333Y-60452381D01*
X139690476Y-60500000D01*
X139642857Y-60547619D01*
X139261905Y-60547619D02*
X139214286Y-60500000D01*
X139119048Y-60452381D01*
X138880952Y-60452381D01*
X138785714Y-60500000D01*
X138738095Y-60547619D01*
X138690476Y-60642857D01*
X138690476Y-60738095D01*
X138738095Y-60880952D01*
X139309524Y-61452381D01*
X138690476Y-61452381D01*
X138119048Y-60880952D02*
X138214286Y-60833333D01*
X138261905Y-60785714D01*
X138309524Y-60690476D01*
X138309524Y-60642857D01*
X138261905Y-60547619D01*
X138214286Y-60500000D01*
X138119048Y-60452381D01*
X137928571Y-60452381D01*
X137833333Y-60500000D01*
X137785714Y-60547619D01*
X137738095Y-60642857D01*
X137738095Y-60690476D01*
X137785714Y-60785714D01*
X137833333Y-60833333D01*
X137928571Y-60880952D01*
X138119048Y-60880952D01*
X138214286Y-60928571D01*
X138261905Y-60976190D01*
X138309524Y-61071429D01*
X138309524Y-61261905D01*
X138261905Y-61357143D01*
X138214286Y-61404762D01*
X138119048Y-61452381D01*
X137928571Y-61452381D01*
X137833333Y-61404762D01*
X137785714Y-61357143D01*
X137738095Y-61261905D01*
X137738095Y-61071429D01*
X137785714Y-60976190D01*
X137833333Y-60928571D01*
X137928571Y-60880952D01*
X170642857Y-57357143D02*
X170690476Y-57404762D01*
X170833333Y-57452381D01*
X170928571Y-57452381D01*
X171071429Y-57404762D01*
X171166667Y-57309524D01*
X171214286Y-57214286D01*
X171261905Y-57023810D01*
X171261905Y-56880952D01*
X171214286Y-56690476D01*
X171166667Y-56595238D01*
X171071429Y-56500000D01*
X170928571Y-56452381D01*
X170833333Y-56452381D01*
X170690476Y-56500000D01*
X170642857Y-56547619D01*
X170261905Y-56547619D02*
X170214286Y-56500000D01*
X170119048Y-56452381D01*
X169880952Y-56452381D01*
X169785714Y-56500000D01*
X169738095Y-56547619D01*
X169690476Y-56642857D01*
X169690476Y-56738095D01*
X169738095Y-56880952D01*
X170309524Y-57452381D01*
X169690476Y-57452381D01*
X169214286Y-57452381D02*
X169023810Y-57452381D01*
X168928571Y-57404762D01*
X168880952Y-57357143D01*
X168785714Y-57214286D01*
X168738095Y-57023810D01*
X168738095Y-56642857D01*
X168785714Y-56547619D01*
X168833333Y-56500000D01*
X168928571Y-56452381D01*
X169119048Y-56452381D01*
X169214286Y-56500000D01*
X169261905Y-56547619D01*
X169309524Y-56642857D01*
X169309524Y-56880952D01*
X169261905Y-56976190D01*
X169214286Y-57023810D01*
X169119048Y-57071429D01*
X168928571Y-57071429D01*
X168833333Y-57023810D01*
X168785714Y-56976190D01*
X168738095Y-56880952D01*
X72802381Y-40833334D02*
X72326190Y-40500000D01*
X72802381Y-40261905D02*
X71802381Y-40261905D01*
X71802381Y-40642858D01*
X71850000Y-40738096D01*
X71897619Y-40785715D01*
X71992857Y-40833334D01*
X72135714Y-40833334D01*
X72230952Y-40785715D01*
X72278571Y-40738096D01*
X72326190Y-40642858D01*
X72326190Y-40261905D01*
X72802381Y-41785715D02*
X72802381Y-41214286D01*
X72802381Y-41500000D02*
X71802381Y-41500000D01*
X71945238Y-41404762D01*
X72040476Y-41309524D01*
X72088095Y-41214286D01*
X130302381Y-47833334D02*
X129826190Y-47500000D01*
X130302381Y-47261905D02*
X129302381Y-47261905D01*
X129302381Y-47642858D01*
X129350000Y-47738096D01*
X129397619Y-47785715D01*
X129492857Y-47833334D01*
X129635714Y-47833334D01*
X129730952Y-47785715D01*
X129778571Y-47738096D01*
X129826190Y-47642858D01*
X129826190Y-47261905D01*
X129397619Y-48214286D02*
X129350000Y-48261905D01*
X129302381Y-48357143D01*
X129302381Y-48595239D01*
X129350000Y-48690477D01*
X129397619Y-48738096D01*
X129492857Y-48785715D01*
X129588095Y-48785715D01*
X129730952Y-48738096D01*
X130302381Y-48166667D01*
X130302381Y-48785715D01*
X140302381Y-47833334D02*
X139826190Y-47500000D01*
X140302381Y-47261905D02*
X139302381Y-47261905D01*
X139302381Y-47642858D01*
X139350000Y-47738096D01*
X139397619Y-47785715D01*
X139492857Y-47833334D01*
X139635714Y-47833334D01*
X139730952Y-47785715D01*
X139778571Y-47738096D01*
X139826190Y-47642858D01*
X139826190Y-47261905D01*
X139302381Y-48166667D02*
X139302381Y-48785715D01*
X139683333Y-48452381D01*
X139683333Y-48595239D01*
X139730952Y-48690477D01*
X139778571Y-48738096D01*
X139873810Y-48785715D01*
X140111905Y-48785715D01*
X140207143Y-48738096D01*
X140254762Y-48690477D01*
X140302381Y-48595239D01*
X140302381Y-48309524D01*
X140254762Y-48214286D01*
X140207143Y-48166667D01*
X171452381Y-87333334D02*
X170976190Y-87000000D01*
X171452381Y-86761905D02*
X170452381Y-86761905D01*
X170452381Y-87142858D01*
X170500000Y-87238096D01*
X170547619Y-87285715D01*
X170642857Y-87333334D01*
X170785714Y-87333334D01*
X170880952Y-87285715D01*
X170928571Y-87238096D01*
X170976190Y-87142858D01*
X170976190Y-86761905D01*
X170785714Y-88190477D02*
X171452381Y-88190477D01*
X170404762Y-87952381D02*
X171119048Y-87714286D01*
X171119048Y-88333334D01*
X168452381Y-87333334D02*
X167976190Y-87000000D01*
X168452381Y-86761905D02*
X167452381Y-86761905D01*
X167452381Y-87142858D01*
X167500000Y-87238096D01*
X167547619Y-87285715D01*
X167642857Y-87333334D01*
X167785714Y-87333334D01*
X167880952Y-87285715D01*
X167928571Y-87238096D01*
X167976190Y-87142858D01*
X167976190Y-86761905D01*
X167452381Y-88238096D02*
X167452381Y-87761905D01*
X167928571Y-87714286D01*
X167880952Y-87761905D01*
X167833333Y-87857143D01*
X167833333Y-88095239D01*
X167880952Y-88190477D01*
X167928571Y-88238096D01*
X168023810Y-88285715D01*
X168261905Y-88285715D01*
X168357143Y-88238096D01*
X168404762Y-88190477D01*
X168452381Y-88095239D01*
X168452381Y-87857143D01*
X168404762Y-87761905D01*
X168357143Y-87714286D01*
X165452381Y-87333334D02*
X164976190Y-87000000D01*
X165452381Y-86761905D02*
X164452381Y-86761905D01*
X164452381Y-87142858D01*
X164500000Y-87238096D01*
X164547619Y-87285715D01*
X164642857Y-87333334D01*
X164785714Y-87333334D01*
X164880952Y-87285715D01*
X164928571Y-87238096D01*
X164976190Y-87142858D01*
X164976190Y-86761905D01*
X164452381Y-88190477D02*
X164452381Y-88000000D01*
X164500000Y-87904762D01*
X164547619Y-87857143D01*
X164690476Y-87761905D01*
X164880952Y-87714286D01*
X165261905Y-87714286D01*
X165357143Y-87761905D01*
X165404762Y-87809524D01*
X165452381Y-87904762D01*
X165452381Y-88095239D01*
X165404762Y-88190477D01*
X165357143Y-88238096D01*
X165261905Y-88285715D01*
X165023810Y-88285715D01*
X164928571Y-88238096D01*
X164880952Y-88190477D01*
X164833333Y-88095239D01*
X164833333Y-87904762D01*
X164880952Y-87809524D01*
X164928571Y-87761905D01*
X165023810Y-87714286D01*
X63166666Y-60302381D02*
X63500000Y-59826190D01*
X63738095Y-60302381D02*
X63738095Y-59302381D01*
X63357142Y-59302381D01*
X63261904Y-59350000D01*
X63214285Y-59397619D01*
X63166666Y-59492857D01*
X63166666Y-59635714D01*
X63214285Y-59730952D01*
X63261904Y-59778571D01*
X63357142Y-59826190D01*
X63738095Y-59826190D01*
X62833333Y-59302381D02*
X62166666Y-59302381D01*
X62595238Y-60302381D01*
X159452381Y-87333334D02*
X158976190Y-87000000D01*
X159452381Y-86761905D02*
X158452381Y-86761905D01*
X158452381Y-87142858D01*
X158500000Y-87238096D01*
X158547619Y-87285715D01*
X158642857Y-87333334D01*
X158785714Y-87333334D01*
X158880952Y-87285715D01*
X158928571Y-87238096D01*
X158976190Y-87142858D01*
X158976190Y-86761905D01*
X158880952Y-87904762D02*
X158833333Y-87809524D01*
X158785714Y-87761905D01*
X158690476Y-87714286D01*
X158642857Y-87714286D01*
X158547619Y-87761905D01*
X158500000Y-87809524D01*
X158452381Y-87904762D01*
X158452381Y-88095239D01*
X158500000Y-88190477D01*
X158547619Y-88238096D01*
X158642857Y-88285715D01*
X158690476Y-88285715D01*
X158785714Y-88238096D01*
X158833333Y-88190477D01*
X158880952Y-88095239D01*
X158880952Y-87904762D01*
X158928571Y-87809524D01*
X158976190Y-87761905D01*
X159071429Y-87714286D01*
X159261905Y-87714286D01*
X159357143Y-87761905D01*
X159404762Y-87809524D01*
X159452381Y-87904762D01*
X159452381Y-88095239D01*
X159404762Y-88190477D01*
X159357143Y-88238096D01*
X159261905Y-88285715D01*
X159071429Y-88285715D01*
X158976190Y-88238096D01*
X158928571Y-88190477D01*
X158880952Y-88095239D01*
X162452381Y-87333334D02*
X161976190Y-87000000D01*
X162452381Y-86761905D02*
X161452381Y-86761905D01*
X161452381Y-87142858D01*
X161500000Y-87238096D01*
X161547619Y-87285715D01*
X161642857Y-87333334D01*
X161785714Y-87333334D01*
X161880952Y-87285715D01*
X161928571Y-87238096D01*
X161976190Y-87142858D01*
X161976190Y-86761905D01*
X162452381Y-87809524D02*
X162452381Y-88000000D01*
X162404762Y-88095239D01*
X162357143Y-88142858D01*
X162214286Y-88238096D01*
X162023810Y-88285715D01*
X161642857Y-88285715D01*
X161547619Y-88238096D01*
X161500000Y-88190477D01*
X161452381Y-88095239D01*
X161452381Y-87904762D01*
X161500000Y-87809524D01*
X161547619Y-87761905D01*
X161642857Y-87714286D01*
X161880952Y-87714286D01*
X161976190Y-87761905D01*
X162023810Y-87809524D01*
X162071429Y-87904762D01*
X162071429Y-88095239D01*
X162023810Y-88190477D01*
X161976190Y-88238096D01*
X161880952Y-88285715D01*
X52642857Y-155302381D02*
X52976191Y-154826190D01*
X53214286Y-155302381D02*
X53214286Y-154302381D01*
X52833333Y-154302381D01*
X52738095Y-154350000D01*
X52690476Y-154397619D01*
X52642857Y-154492857D01*
X52642857Y-154635714D01*
X52690476Y-154730952D01*
X52738095Y-154778571D01*
X52833333Y-154826190D01*
X53214286Y-154826190D01*
X51690476Y-155302381D02*
X52261905Y-155302381D01*
X51976191Y-155302381D02*
X51976191Y-154302381D01*
X52071429Y-154445238D01*
X52166667Y-154540476D01*
X52261905Y-154588095D01*
X51071429Y-154302381D02*
X50976190Y-154302381D01*
X50880952Y-154350000D01*
X50833333Y-154397619D01*
X50785714Y-154492857D01*
X50738095Y-154683333D01*
X50738095Y-154921429D01*
X50785714Y-155111905D01*
X50833333Y-155207143D01*
X50880952Y-155254762D01*
X50976190Y-155302381D01*
X51071429Y-155302381D01*
X51166667Y-155254762D01*
X51214286Y-155207143D01*
X51261905Y-155111905D01*
X51309524Y-154921429D01*
X51309524Y-154683333D01*
X51261905Y-154492857D01*
X51214286Y-154397619D01*
X51166667Y-154350000D01*
X51071429Y-154302381D01*
X60642857Y-155302381D02*
X60976191Y-154826190D01*
X61214286Y-155302381D02*
X61214286Y-154302381D01*
X60833333Y-154302381D01*
X60738095Y-154350000D01*
X60690476Y-154397619D01*
X60642857Y-154492857D01*
X60642857Y-154635714D01*
X60690476Y-154730952D01*
X60738095Y-154778571D01*
X60833333Y-154826190D01*
X61214286Y-154826190D01*
X59690476Y-155302381D02*
X60261905Y-155302381D01*
X59976191Y-155302381D02*
X59976191Y-154302381D01*
X60071429Y-154445238D01*
X60166667Y-154540476D01*
X60261905Y-154588095D01*
X58738095Y-155302381D02*
X59309524Y-155302381D01*
X59023810Y-155302381D02*
X59023810Y-154302381D01*
X59119048Y-154445238D01*
X59214286Y-154540476D01*
X59309524Y-154588095D01*
X68642857Y-155302381D02*
X68976191Y-154826190D01*
X69214286Y-155302381D02*
X69214286Y-154302381D01*
X68833333Y-154302381D01*
X68738095Y-154350000D01*
X68690476Y-154397619D01*
X68642857Y-154492857D01*
X68642857Y-154635714D01*
X68690476Y-154730952D01*
X68738095Y-154778571D01*
X68833333Y-154826190D01*
X69214286Y-154826190D01*
X67690476Y-155302381D02*
X68261905Y-155302381D01*
X67976191Y-155302381D02*
X67976191Y-154302381D01*
X68071429Y-154445238D01*
X68166667Y-154540476D01*
X68261905Y-154588095D01*
X67309524Y-154397619D02*
X67261905Y-154350000D01*
X67166667Y-154302381D01*
X66928571Y-154302381D01*
X66833333Y-154350000D01*
X66785714Y-154397619D01*
X66738095Y-154492857D01*
X66738095Y-154588095D01*
X66785714Y-154730952D01*
X67357143Y-155302381D01*
X66738095Y-155302381D01*
X76642857Y-155302381D02*
X76976191Y-154826190D01*
X77214286Y-155302381D02*
X77214286Y-154302381D01*
X76833333Y-154302381D01*
X76738095Y-154350000D01*
X76690476Y-154397619D01*
X76642857Y-154492857D01*
X76642857Y-154635714D01*
X76690476Y-154730952D01*
X76738095Y-154778571D01*
X76833333Y-154826190D01*
X77214286Y-154826190D01*
X75690476Y-155302381D02*
X76261905Y-155302381D01*
X75976191Y-155302381D02*
X75976191Y-154302381D01*
X76071429Y-154445238D01*
X76166667Y-154540476D01*
X76261905Y-154588095D01*
X75357143Y-154302381D02*
X74738095Y-154302381D01*
X75071429Y-154683333D01*
X74928571Y-154683333D01*
X74833333Y-154730952D01*
X74785714Y-154778571D01*
X74738095Y-154873810D01*
X74738095Y-155111905D01*
X74785714Y-155207143D01*
X74833333Y-155254762D01*
X74928571Y-155302381D01*
X75214286Y-155302381D01*
X75309524Y-155254762D01*
X75357143Y-155207143D01*
X84642857Y-155302381D02*
X84976191Y-154826190D01*
X85214286Y-155302381D02*
X85214286Y-154302381D01*
X84833333Y-154302381D01*
X84738095Y-154350000D01*
X84690476Y-154397619D01*
X84642857Y-154492857D01*
X84642857Y-154635714D01*
X84690476Y-154730952D01*
X84738095Y-154778571D01*
X84833333Y-154826190D01*
X85214286Y-154826190D01*
X83690476Y-155302381D02*
X84261905Y-155302381D01*
X83976191Y-155302381D02*
X83976191Y-154302381D01*
X84071429Y-154445238D01*
X84166667Y-154540476D01*
X84261905Y-154588095D01*
X82833333Y-154635714D02*
X82833333Y-155302381D01*
X83071429Y-154254762D02*
X83309524Y-154969048D01*
X82690476Y-154969048D01*
X92642857Y-155302381D02*
X92976191Y-154826190D01*
X93214286Y-155302381D02*
X93214286Y-154302381D01*
X92833333Y-154302381D01*
X92738095Y-154350000D01*
X92690476Y-154397619D01*
X92642857Y-154492857D01*
X92642857Y-154635714D01*
X92690476Y-154730952D01*
X92738095Y-154778571D01*
X92833333Y-154826190D01*
X93214286Y-154826190D01*
X91690476Y-155302381D02*
X92261905Y-155302381D01*
X91976191Y-155302381D02*
X91976191Y-154302381D01*
X92071429Y-154445238D01*
X92166667Y-154540476D01*
X92261905Y-154588095D01*
X90785714Y-154302381D02*
X91261905Y-154302381D01*
X91309524Y-154778571D01*
X91261905Y-154730952D01*
X91166667Y-154683333D01*
X90928571Y-154683333D01*
X90833333Y-154730952D01*
X90785714Y-154778571D01*
X90738095Y-154873810D01*
X90738095Y-155111905D01*
X90785714Y-155207143D01*
X90833333Y-155254762D01*
X90928571Y-155302381D01*
X91166667Y-155302381D01*
X91261905Y-155254762D01*
X91309524Y-155207143D01*
X100642857Y-155302381D02*
X100976191Y-154826190D01*
X101214286Y-155302381D02*
X101214286Y-154302381D01*
X100833333Y-154302381D01*
X100738095Y-154350000D01*
X100690476Y-154397619D01*
X100642857Y-154492857D01*
X100642857Y-154635714D01*
X100690476Y-154730952D01*
X100738095Y-154778571D01*
X100833333Y-154826190D01*
X101214286Y-154826190D01*
X99690476Y-155302381D02*
X100261905Y-155302381D01*
X99976191Y-155302381D02*
X99976191Y-154302381D01*
X100071429Y-154445238D01*
X100166667Y-154540476D01*
X100261905Y-154588095D01*
X98833333Y-154302381D02*
X99023810Y-154302381D01*
X99119048Y-154350000D01*
X99166667Y-154397619D01*
X99261905Y-154540476D01*
X99309524Y-154730952D01*
X99309524Y-155111905D01*
X99261905Y-155207143D01*
X99214286Y-155254762D01*
X99119048Y-155302381D01*
X98928571Y-155302381D01*
X98833333Y-155254762D01*
X98785714Y-155207143D01*
X98738095Y-155111905D01*
X98738095Y-154873810D01*
X98785714Y-154778571D01*
X98833333Y-154730952D01*
X98928571Y-154683333D01*
X99119048Y-154683333D01*
X99214286Y-154730952D01*
X99261905Y-154778571D01*
X99309524Y-154873810D01*
X108642857Y-155302381D02*
X108976191Y-154826190D01*
X109214286Y-155302381D02*
X109214286Y-154302381D01*
X108833333Y-154302381D01*
X108738095Y-154350000D01*
X108690476Y-154397619D01*
X108642857Y-154492857D01*
X108642857Y-154635714D01*
X108690476Y-154730952D01*
X108738095Y-154778571D01*
X108833333Y-154826190D01*
X109214286Y-154826190D01*
X107690476Y-155302381D02*
X108261905Y-155302381D01*
X107976191Y-155302381D02*
X107976191Y-154302381D01*
X108071429Y-154445238D01*
X108166667Y-154540476D01*
X108261905Y-154588095D01*
X107357143Y-154302381D02*
X106690476Y-154302381D01*
X107119048Y-155302381D01*
X116642857Y-155302381D02*
X116976191Y-154826190D01*
X117214286Y-155302381D02*
X117214286Y-154302381D01*
X116833333Y-154302381D01*
X116738095Y-154350000D01*
X116690476Y-154397619D01*
X116642857Y-154492857D01*
X116642857Y-154635714D01*
X116690476Y-154730952D01*
X116738095Y-154778571D01*
X116833333Y-154826190D01*
X117214286Y-154826190D01*
X115690476Y-155302381D02*
X116261905Y-155302381D01*
X115976191Y-155302381D02*
X115976191Y-154302381D01*
X116071429Y-154445238D01*
X116166667Y-154540476D01*
X116261905Y-154588095D01*
X115119048Y-154730952D02*
X115214286Y-154683333D01*
X115261905Y-154635714D01*
X115309524Y-154540476D01*
X115309524Y-154492857D01*
X115261905Y-154397619D01*
X115214286Y-154350000D01*
X115119048Y-154302381D01*
X114928571Y-154302381D01*
X114833333Y-154350000D01*
X114785714Y-154397619D01*
X114738095Y-154492857D01*
X114738095Y-154540476D01*
X114785714Y-154635714D01*
X114833333Y-154683333D01*
X114928571Y-154730952D01*
X115119048Y-154730952D01*
X115214286Y-154778571D01*
X115261905Y-154826190D01*
X115309524Y-154921429D01*
X115309524Y-155111905D01*
X115261905Y-155207143D01*
X115214286Y-155254762D01*
X115119048Y-155302381D01*
X114928571Y-155302381D01*
X114833333Y-155254762D01*
X114785714Y-155207143D01*
X114738095Y-155111905D01*
X114738095Y-154921429D01*
X114785714Y-154826190D01*
X114833333Y-154778571D01*
X114928571Y-154730952D01*
X124642857Y-155302381D02*
X124976191Y-154826190D01*
X125214286Y-155302381D02*
X125214286Y-154302381D01*
X124833333Y-154302381D01*
X124738095Y-154350000D01*
X124690476Y-154397619D01*
X124642857Y-154492857D01*
X124642857Y-154635714D01*
X124690476Y-154730952D01*
X124738095Y-154778571D01*
X124833333Y-154826190D01*
X125214286Y-154826190D01*
X123690476Y-155302381D02*
X124261905Y-155302381D01*
X123976191Y-155302381D02*
X123976191Y-154302381D01*
X124071429Y-154445238D01*
X124166667Y-154540476D01*
X124261905Y-154588095D01*
X123214286Y-155302381D02*
X123023810Y-155302381D01*
X122928571Y-155254762D01*
X122880952Y-155207143D01*
X122785714Y-155064286D01*
X122738095Y-154873810D01*
X122738095Y-154492857D01*
X122785714Y-154397619D01*
X122833333Y-154350000D01*
X122928571Y-154302381D01*
X123119048Y-154302381D01*
X123214286Y-154350000D01*
X123261905Y-154397619D01*
X123309524Y-154492857D01*
X123309524Y-154730952D01*
X123261905Y-154826190D01*
X123214286Y-154873810D01*
X123119048Y-154921429D01*
X122928571Y-154921429D01*
X122833333Y-154873810D01*
X122785714Y-154826190D01*
X122738095Y-154730952D01*
X132642857Y-155302381D02*
X132976191Y-154826190D01*
X133214286Y-155302381D02*
X133214286Y-154302381D01*
X132833333Y-154302381D01*
X132738095Y-154350000D01*
X132690476Y-154397619D01*
X132642857Y-154492857D01*
X132642857Y-154635714D01*
X132690476Y-154730952D01*
X132738095Y-154778571D01*
X132833333Y-154826190D01*
X133214286Y-154826190D01*
X132261905Y-154397619D02*
X132214286Y-154350000D01*
X132119048Y-154302381D01*
X131880952Y-154302381D01*
X131785714Y-154350000D01*
X131738095Y-154397619D01*
X131690476Y-154492857D01*
X131690476Y-154588095D01*
X131738095Y-154730952D01*
X132309524Y-155302381D01*
X131690476Y-155302381D01*
X131071429Y-154302381D02*
X130976190Y-154302381D01*
X130880952Y-154350000D01*
X130833333Y-154397619D01*
X130785714Y-154492857D01*
X130738095Y-154683333D01*
X130738095Y-154921429D01*
X130785714Y-155111905D01*
X130833333Y-155207143D01*
X130880952Y-155254762D01*
X130976190Y-155302381D01*
X131071429Y-155302381D01*
X131166667Y-155254762D01*
X131214286Y-155207143D01*
X131261905Y-155111905D01*
X131309524Y-154921429D01*
X131309524Y-154683333D01*
X131261905Y-154492857D01*
X131214286Y-154397619D01*
X131166667Y-154350000D01*
X131071429Y-154302381D01*
X49302381Y-67357143D02*
X48826190Y-67023809D01*
X49302381Y-66785714D02*
X48302381Y-66785714D01*
X48302381Y-67166667D01*
X48350000Y-67261905D01*
X48397619Y-67309524D01*
X48492857Y-67357143D01*
X48635714Y-67357143D01*
X48730952Y-67309524D01*
X48778571Y-67261905D01*
X48826190Y-67166667D01*
X48826190Y-66785714D01*
X48397619Y-67738095D02*
X48350000Y-67785714D01*
X48302381Y-67880952D01*
X48302381Y-68119048D01*
X48350000Y-68214286D01*
X48397619Y-68261905D01*
X48492857Y-68309524D01*
X48588095Y-68309524D01*
X48730952Y-68261905D01*
X49302381Y-67690476D01*
X49302381Y-68309524D01*
X49302381Y-69261905D02*
X49302381Y-68690476D01*
X49302381Y-68976190D02*
X48302381Y-68976190D01*
X48445238Y-68880952D01*
X48540476Y-68785714D01*
X48588095Y-68690476D01*
X49302381Y-75357143D02*
X48826190Y-75023809D01*
X49302381Y-74785714D02*
X48302381Y-74785714D01*
X48302381Y-75166667D01*
X48350000Y-75261905D01*
X48397619Y-75309524D01*
X48492857Y-75357143D01*
X48635714Y-75357143D01*
X48730952Y-75309524D01*
X48778571Y-75261905D01*
X48826190Y-75166667D01*
X48826190Y-74785714D01*
X48397619Y-75738095D02*
X48350000Y-75785714D01*
X48302381Y-75880952D01*
X48302381Y-76119048D01*
X48350000Y-76214286D01*
X48397619Y-76261905D01*
X48492857Y-76309524D01*
X48588095Y-76309524D01*
X48730952Y-76261905D01*
X49302381Y-75690476D01*
X49302381Y-76309524D01*
X48397619Y-76690476D02*
X48350000Y-76738095D01*
X48302381Y-76833333D01*
X48302381Y-77071429D01*
X48350000Y-77166667D01*
X48397619Y-77214286D01*
X48492857Y-77261905D01*
X48588095Y-77261905D01*
X48730952Y-77214286D01*
X49302381Y-76642857D01*
X49302381Y-77261905D01*
X49302381Y-83357143D02*
X48826190Y-83023809D01*
X49302381Y-82785714D02*
X48302381Y-82785714D01*
X48302381Y-83166667D01*
X48350000Y-83261905D01*
X48397619Y-83309524D01*
X48492857Y-83357143D01*
X48635714Y-83357143D01*
X48730952Y-83309524D01*
X48778571Y-83261905D01*
X48826190Y-83166667D01*
X48826190Y-82785714D01*
X48397619Y-83738095D02*
X48350000Y-83785714D01*
X48302381Y-83880952D01*
X48302381Y-84119048D01*
X48350000Y-84214286D01*
X48397619Y-84261905D01*
X48492857Y-84309524D01*
X48588095Y-84309524D01*
X48730952Y-84261905D01*
X49302381Y-83690476D01*
X49302381Y-84309524D01*
X48302381Y-84642857D02*
X48302381Y-85261905D01*
X48683333Y-84928571D01*
X48683333Y-85071429D01*
X48730952Y-85166667D01*
X48778571Y-85214286D01*
X48873810Y-85261905D01*
X49111905Y-85261905D01*
X49207143Y-85214286D01*
X49254762Y-85166667D01*
X49302381Y-85071429D01*
X49302381Y-84785714D01*
X49254762Y-84690476D01*
X49207143Y-84642857D01*
X49302381Y-91357143D02*
X48826190Y-91023809D01*
X49302381Y-90785714D02*
X48302381Y-90785714D01*
X48302381Y-91166667D01*
X48350000Y-91261905D01*
X48397619Y-91309524D01*
X48492857Y-91357143D01*
X48635714Y-91357143D01*
X48730952Y-91309524D01*
X48778571Y-91261905D01*
X48826190Y-91166667D01*
X48826190Y-90785714D01*
X48397619Y-91738095D02*
X48350000Y-91785714D01*
X48302381Y-91880952D01*
X48302381Y-92119048D01*
X48350000Y-92214286D01*
X48397619Y-92261905D01*
X48492857Y-92309524D01*
X48588095Y-92309524D01*
X48730952Y-92261905D01*
X49302381Y-91690476D01*
X49302381Y-92309524D01*
X48635714Y-93166667D02*
X49302381Y-93166667D01*
X48254762Y-92928571D02*
X48969048Y-92690476D01*
X48969048Y-93309524D01*
X49302381Y-99357143D02*
X48826190Y-99023809D01*
X49302381Y-98785714D02*
X48302381Y-98785714D01*
X48302381Y-99166667D01*
X48350000Y-99261905D01*
X48397619Y-99309524D01*
X48492857Y-99357143D01*
X48635714Y-99357143D01*
X48730952Y-99309524D01*
X48778571Y-99261905D01*
X48826190Y-99166667D01*
X48826190Y-98785714D01*
X48397619Y-99738095D02*
X48350000Y-99785714D01*
X48302381Y-99880952D01*
X48302381Y-100119048D01*
X48350000Y-100214286D01*
X48397619Y-100261905D01*
X48492857Y-100309524D01*
X48588095Y-100309524D01*
X48730952Y-100261905D01*
X49302381Y-99690476D01*
X49302381Y-100309524D01*
X48302381Y-101214286D02*
X48302381Y-100738095D01*
X48778571Y-100690476D01*
X48730952Y-100738095D01*
X48683333Y-100833333D01*
X48683333Y-101071429D01*
X48730952Y-101166667D01*
X48778571Y-101214286D01*
X48873810Y-101261905D01*
X49111905Y-101261905D01*
X49207143Y-101214286D01*
X49254762Y-101166667D01*
X49302381Y-101071429D01*
X49302381Y-100833333D01*
X49254762Y-100738095D01*
X49207143Y-100690476D01*
X49302381Y-107357143D02*
X48826190Y-107023809D01*
X49302381Y-106785714D02*
X48302381Y-106785714D01*
X48302381Y-107166667D01*
X48350000Y-107261905D01*
X48397619Y-107309524D01*
X48492857Y-107357143D01*
X48635714Y-107357143D01*
X48730952Y-107309524D01*
X48778571Y-107261905D01*
X48826190Y-107166667D01*
X48826190Y-106785714D01*
X48397619Y-107738095D02*
X48350000Y-107785714D01*
X48302381Y-107880952D01*
X48302381Y-108119048D01*
X48350000Y-108214286D01*
X48397619Y-108261905D01*
X48492857Y-108309524D01*
X48588095Y-108309524D01*
X48730952Y-108261905D01*
X49302381Y-107690476D01*
X49302381Y-108309524D01*
X48302381Y-109166667D02*
X48302381Y-108976190D01*
X48350000Y-108880952D01*
X48397619Y-108833333D01*
X48540476Y-108738095D01*
X48730952Y-108690476D01*
X49111905Y-108690476D01*
X49207143Y-108738095D01*
X49254762Y-108785714D01*
X49302381Y-108880952D01*
X49302381Y-109071429D01*
X49254762Y-109166667D01*
X49207143Y-109214286D01*
X49111905Y-109261905D01*
X48873810Y-109261905D01*
X48778571Y-109214286D01*
X48730952Y-109166667D01*
X48683333Y-109071429D01*
X48683333Y-108880952D01*
X48730952Y-108785714D01*
X48778571Y-108738095D01*
X48873810Y-108690476D01*
X49302381Y-115357143D02*
X48826190Y-115023809D01*
X49302381Y-114785714D02*
X48302381Y-114785714D01*
X48302381Y-115166667D01*
X48350000Y-115261905D01*
X48397619Y-115309524D01*
X48492857Y-115357143D01*
X48635714Y-115357143D01*
X48730952Y-115309524D01*
X48778571Y-115261905D01*
X48826190Y-115166667D01*
X48826190Y-114785714D01*
X48397619Y-115738095D02*
X48350000Y-115785714D01*
X48302381Y-115880952D01*
X48302381Y-116119048D01*
X48350000Y-116214286D01*
X48397619Y-116261905D01*
X48492857Y-116309524D01*
X48588095Y-116309524D01*
X48730952Y-116261905D01*
X49302381Y-115690476D01*
X49302381Y-116309524D01*
X48302381Y-116642857D02*
X48302381Y-117309524D01*
X49302381Y-116880952D01*
X49302381Y-123357143D02*
X48826190Y-123023809D01*
X49302381Y-122785714D02*
X48302381Y-122785714D01*
X48302381Y-123166667D01*
X48350000Y-123261905D01*
X48397619Y-123309524D01*
X48492857Y-123357143D01*
X48635714Y-123357143D01*
X48730952Y-123309524D01*
X48778571Y-123261905D01*
X48826190Y-123166667D01*
X48826190Y-122785714D01*
X48397619Y-123738095D02*
X48350000Y-123785714D01*
X48302381Y-123880952D01*
X48302381Y-124119048D01*
X48350000Y-124214286D01*
X48397619Y-124261905D01*
X48492857Y-124309524D01*
X48588095Y-124309524D01*
X48730952Y-124261905D01*
X49302381Y-123690476D01*
X49302381Y-124309524D01*
X48730952Y-124880952D02*
X48683333Y-124785714D01*
X48635714Y-124738095D01*
X48540476Y-124690476D01*
X48492857Y-124690476D01*
X48397619Y-124738095D01*
X48350000Y-124785714D01*
X48302381Y-124880952D01*
X48302381Y-125071429D01*
X48350000Y-125166667D01*
X48397619Y-125214286D01*
X48492857Y-125261905D01*
X48540476Y-125261905D01*
X48635714Y-125214286D01*
X48683333Y-125166667D01*
X48730952Y-125071429D01*
X48730952Y-124880952D01*
X48778571Y-124785714D01*
X48826190Y-124738095D01*
X48921429Y-124690476D01*
X49111905Y-124690476D01*
X49207143Y-124738095D01*
X49254762Y-124785714D01*
X49302381Y-124880952D01*
X49302381Y-125071429D01*
X49254762Y-125166667D01*
X49207143Y-125214286D01*
X49111905Y-125261905D01*
X48921429Y-125261905D01*
X48826190Y-125214286D01*
X48778571Y-125166667D01*
X48730952Y-125071429D01*
X49302381Y-131357143D02*
X48826190Y-131023809D01*
X49302381Y-130785714D02*
X48302381Y-130785714D01*
X48302381Y-131166667D01*
X48350000Y-131261905D01*
X48397619Y-131309524D01*
X48492857Y-131357143D01*
X48635714Y-131357143D01*
X48730952Y-131309524D01*
X48778571Y-131261905D01*
X48826190Y-131166667D01*
X48826190Y-130785714D01*
X48397619Y-131738095D02*
X48350000Y-131785714D01*
X48302381Y-131880952D01*
X48302381Y-132119048D01*
X48350000Y-132214286D01*
X48397619Y-132261905D01*
X48492857Y-132309524D01*
X48588095Y-132309524D01*
X48730952Y-132261905D01*
X49302381Y-131690476D01*
X49302381Y-132309524D01*
X49302381Y-132785714D02*
X49302381Y-132976190D01*
X49254762Y-133071429D01*
X49207143Y-133119048D01*
X49064286Y-133214286D01*
X48873810Y-133261905D01*
X48492857Y-133261905D01*
X48397619Y-133214286D01*
X48350000Y-133166667D01*
X48302381Y-133071429D01*
X48302381Y-132880952D01*
X48350000Y-132785714D01*
X48397619Y-132738095D01*
X48492857Y-132690476D01*
X48730952Y-132690476D01*
X48826190Y-132738095D01*
X48873810Y-132785714D01*
X48921429Y-132880952D01*
X48921429Y-133071429D01*
X48873810Y-133166667D01*
X48826190Y-133214286D01*
X48730952Y-133261905D01*
X49302381Y-139357143D02*
X48826190Y-139023809D01*
X49302381Y-138785714D02*
X48302381Y-138785714D01*
X48302381Y-139166667D01*
X48350000Y-139261905D01*
X48397619Y-139309524D01*
X48492857Y-139357143D01*
X48635714Y-139357143D01*
X48730952Y-139309524D01*
X48778571Y-139261905D01*
X48826190Y-139166667D01*
X48826190Y-138785714D01*
X48302381Y-139690476D02*
X48302381Y-140309524D01*
X48683333Y-139976190D01*
X48683333Y-140119048D01*
X48730952Y-140214286D01*
X48778571Y-140261905D01*
X48873810Y-140309524D01*
X49111905Y-140309524D01*
X49207143Y-140261905D01*
X49254762Y-140214286D01*
X49302381Y-140119048D01*
X49302381Y-139833333D01*
X49254762Y-139738095D01*
X49207143Y-139690476D01*
X48302381Y-140928571D02*
X48302381Y-141023810D01*
X48350000Y-141119048D01*
X48397619Y-141166667D01*
X48492857Y-141214286D01*
X48683333Y-141261905D01*
X48921429Y-141261905D01*
X49111905Y-141214286D01*
X49207143Y-141166667D01*
X49254762Y-141119048D01*
X49302381Y-141023810D01*
X49302381Y-140928571D01*
X49254762Y-140833333D01*
X49207143Y-140785714D01*
X49111905Y-140738095D01*
X48921429Y-140690476D01*
X48683333Y-140690476D01*
X48492857Y-140738095D01*
X48397619Y-140785714D01*
X48350000Y-140833333D01*
X48302381Y-140928571D01*
X49302381Y-147357143D02*
X48826190Y-147023809D01*
X49302381Y-146785714D02*
X48302381Y-146785714D01*
X48302381Y-147166667D01*
X48350000Y-147261905D01*
X48397619Y-147309524D01*
X48492857Y-147357143D01*
X48635714Y-147357143D01*
X48730952Y-147309524D01*
X48778571Y-147261905D01*
X48826190Y-147166667D01*
X48826190Y-146785714D01*
X48302381Y-147690476D02*
X48302381Y-148309524D01*
X48683333Y-147976190D01*
X48683333Y-148119048D01*
X48730952Y-148214286D01*
X48778571Y-148261905D01*
X48873810Y-148309524D01*
X49111905Y-148309524D01*
X49207143Y-148261905D01*
X49254762Y-148214286D01*
X49302381Y-148119048D01*
X49302381Y-147833333D01*
X49254762Y-147738095D01*
X49207143Y-147690476D01*
X49302381Y-149261905D02*
X49302381Y-148690476D01*
X49302381Y-148976190D02*
X48302381Y-148976190D01*
X48445238Y-148880952D01*
X48540476Y-148785714D01*
X48588095Y-148690476D01*
X42302381Y-116357143D02*
X41826190Y-116023809D01*
X42302381Y-115785714D02*
X41302381Y-115785714D01*
X41302381Y-116166667D01*
X41350000Y-116261905D01*
X41397619Y-116309524D01*
X41492857Y-116357143D01*
X41635714Y-116357143D01*
X41730952Y-116309524D01*
X41778571Y-116261905D01*
X41826190Y-116166667D01*
X41826190Y-115785714D01*
X41302381Y-116690476D02*
X41302381Y-117309524D01*
X41683333Y-116976190D01*
X41683333Y-117119048D01*
X41730952Y-117214286D01*
X41778571Y-117261905D01*
X41873810Y-117309524D01*
X42111905Y-117309524D01*
X42207143Y-117261905D01*
X42254762Y-117214286D01*
X42302381Y-117119048D01*
X42302381Y-116833333D01*
X42254762Y-116738095D01*
X42207143Y-116690476D01*
X41397619Y-117690476D02*
X41350000Y-117738095D01*
X41302381Y-117833333D01*
X41302381Y-118071429D01*
X41350000Y-118166667D01*
X41397619Y-118214286D01*
X41492857Y-118261905D01*
X41588095Y-118261905D01*
X41730952Y-118214286D01*
X42302381Y-117642857D01*
X42302381Y-118261905D01*
X130333333Y-39952381D02*
X130333333Y-40666667D01*
X130380953Y-40809524D01*
X130476191Y-40904762D01*
X130619048Y-40952381D01*
X130714286Y-40952381D01*
X129809524Y-40952381D02*
X129619048Y-40952381D01*
X129523809Y-40904762D01*
X129476190Y-40857143D01*
X129380952Y-40714286D01*
X129333333Y-40523810D01*
X129333333Y-40142857D01*
X129380952Y-40047619D01*
X129428571Y-40000000D01*
X129523809Y-39952381D01*
X129714286Y-39952381D01*
X129809524Y-40000000D01*
X129857143Y-40047619D01*
X129904762Y-40142857D01*
X129904762Y-40380952D01*
X129857143Y-40476190D01*
X129809524Y-40523810D01*
X129714286Y-40571429D01*
X129523809Y-40571429D01*
X129428571Y-40523810D01*
X129380952Y-40476190D01*
X129333333Y-40380952D01*
X153357143Y-87357143D02*
X153404762Y-87309524D01*
X153452381Y-87166667D01*
X153452381Y-87071429D01*
X153404762Y-86928571D01*
X153309524Y-86833333D01*
X153214286Y-86785714D01*
X153023810Y-86738095D01*
X152880952Y-86738095D01*
X152690476Y-86785714D01*
X152595238Y-86833333D01*
X152500000Y-86928571D01*
X152452381Y-87071429D01*
X152452381Y-87166667D01*
X152500000Y-87309524D01*
X152547619Y-87357143D01*
X152452381Y-87690476D02*
X152452381Y-88309524D01*
X152833333Y-87976190D01*
X152833333Y-88119048D01*
X152880952Y-88214286D01*
X152928571Y-88261905D01*
X153023810Y-88309524D01*
X153261905Y-88309524D01*
X153357143Y-88261905D01*
X153404762Y-88214286D01*
X153452381Y-88119048D01*
X153452381Y-87833333D01*
X153404762Y-87738095D01*
X153357143Y-87690476D01*
X152452381Y-88928571D02*
X152452381Y-89023810D01*
X152500000Y-89119048D01*
X152547619Y-89166667D01*
X152642857Y-89214286D01*
X152833333Y-89261905D01*
X153071429Y-89261905D01*
X153261905Y-89214286D01*
X153357143Y-89166667D01*
X153404762Y-89119048D01*
X153452381Y-89023810D01*
X153452381Y-88928571D01*
X153404762Y-88833333D01*
X153357143Y-88785714D01*
X153261905Y-88738095D01*
X153071429Y-88690476D01*
X152833333Y-88690476D01*
X152642857Y-88738095D01*
X152547619Y-88785714D01*
X152500000Y-88833333D01*
X152452381Y-88928571D01*
X148352381Y-71238095D02*
X149161905Y-71238095D01*
X149257143Y-71285714D01*
X149304762Y-71333333D01*
X149352381Y-71428571D01*
X149352381Y-71619048D01*
X149304762Y-71714286D01*
X149257143Y-71761905D01*
X149161905Y-71809524D01*
X148352381Y-71809524D01*
X148352381Y-72761905D02*
X148352381Y-72285714D01*
X148828571Y-72238095D01*
X148780952Y-72285714D01*
X148733333Y-72380952D01*
X148733333Y-72619048D01*
X148780952Y-72714286D01*
X148828571Y-72761905D01*
X148923810Y-72809524D01*
X149161905Y-72809524D01*
X149257143Y-72761905D01*
X149304762Y-72714286D01*
X149352381Y-72619048D01*
X149352381Y-72380952D01*
X149304762Y-72285714D01*
X149257143Y-72238095D01*
X152761905Y-89552381D02*
X152761905Y-90361905D01*
X152714286Y-90457143D01*
X152666667Y-90504762D01*
X152571429Y-90552381D01*
X152380952Y-90552381D01*
X152285714Y-90504762D01*
X152238095Y-90457143D01*
X152190476Y-90361905D01*
X152190476Y-89552381D01*
X151285714Y-89552381D02*
X151476191Y-89552381D01*
X151571429Y-89600000D01*
X151619048Y-89647619D01*
X151714286Y-89790476D01*
X151761905Y-89980952D01*
X151761905Y-90361905D01*
X151714286Y-90457143D01*
X151666667Y-90504762D01*
X151571429Y-90552381D01*
X151380952Y-90552381D01*
X151285714Y-90504762D01*
X151238095Y-90457143D01*
X151190476Y-90361905D01*
X151190476Y-90123810D01*
X151238095Y-90028571D01*
X151285714Y-89980952D01*
X151380952Y-89933333D01*
X151571429Y-89933333D01*
X151666667Y-89980952D01*
X151714286Y-90028571D01*
X151761905Y-90123810D01*
X34761905Y-142152381D02*
X34761905Y-142961905D01*
X34714286Y-143057143D01*
X34666667Y-143104762D01*
X34571429Y-143152381D01*
X34380952Y-143152381D01*
X34285714Y-143104762D01*
X34238095Y-143057143D01*
X34190476Y-142961905D01*
X34190476Y-142152381D01*
X33761905Y-142247619D02*
X33714286Y-142200000D01*
X33619048Y-142152381D01*
X33380952Y-142152381D01*
X33285714Y-142200000D01*
X33238095Y-142247619D01*
X33190476Y-142342857D01*
X33190476Y-142438095D01*
X33238095Y-142580952D01*
X33809524Y-143152381D01*
X33190476Y-143152381D01*
X34761905Y-81152381D02*
X34761905Y-81961905D01*
X34714286Y-82057143D01*
X34666667Y-82104762D01*
X34571429Y-82152381D01*
X34380952Y-82152381D01*
X34285714Y-82104762D01*
X34238095Y-82057143D01*
X34190476Y-81961905D01*
X34190476Y-81152381D01*
X33809524Y-81152381D02*
X33190476Y-81152381D01*
X33523810Y-81533333D01*
X33380952Y-81533333D01*
X33285714Y-81580952D01*
X33238095Y-81628571D01*
X33190476Y-81723810D01*
X33190476Y-81961905D01*
X33238095Y-82057143D01*
X33285714Y-82104762D01*
X33380952Y-82152381D01*
X33666667Y-82152381D01*
X33761905Y-82104762D01*
X33809524Y-82057143D01*
X65357190Y-52095381D02*
X65357190Y-51095381D01*
X64309571Y-52000143D02*
X64357190Y-52047762D01*
X64500047Y-52095381D01*
X64595285Y-52095381D01*
X64738143Y-52047762D01*
X64833381Y-51952524D01*
X64881000Y-51857286D01*
X64928619Y-51666810D01*
X64928619Y-51523952D01*
X64881000Y-51333476D01*
X64833381Y-51238238D01*
X64738143Y-51143000D01*
X64595285Y-51095381D01*
X64500047Y-51095381D01*
X64357190Y-51143000D01*
X64309571Y-51190619D01*
X63357190Y-52095381D02*
X63928619Y-52095381D01*
X63642905Y-52095381D02*
X63642905Y-51095381D01*
X63738143Y-51238238D01*
X63833381Y-51333476D01*
X63928619Y-51381095D01*
X154552381Y-67238095D02*
X155361905Y-67238095D01*
X155457143Y-67285714D01*
X155504762Y-67333333D01*
X155552381Y-67428571D01*
X155552381Y-67619048D01*
X155504762Y-67714286D01*
X155457143Y-67761905D01*
X155361905Y-67809524D01*
X154552381Y-67809524D01*
X155552381Y-68809524D02*
X155552381Y-68238095D01*
X155552381Y-68523809D02*
X154552381Y-68523809D01*
X154695238Y-68428571D01*
X154790476Y-68333333D01*
X154838095Y-68238095D01*
X38952381Y-108738095D02*
X39761905Y-108738095D01*
X39857143Y-108785714D01*
X39904762Y-108833333D01*
X39952381Y-108928571D01*
X39952381Y-109119048D01*
X39904762Y-109214286D01*
X39857143Y-109261905D01*
X39761905Y-109309524D01*
X38952381Y-109309524D01*
X38952381Y-109690476D02*
X38952381Y-110357143D01*
X39952381Y-109928571D01*
M02*
