M48
INCH,TZ
T1C0.016
T2C0.020
T3C0.031
T4C0.039
T5C0.047
T6C0.051
T7C0.094
%
G90
G05
T1
X8071Y-51378
X8661Y-37598
X8858Y-42126
X9252Y-42126
X9843Y-37598
X9843Y-50394
X10236Y-37992
X10236Y-38386
X10433Y-33661
X10630Y-58465
X10827Y-34449
X11024Y-59449
X11220Y-41929
X11417Y-38386
X11811Y-37992
X11811Y-51378
X12008Y-36024
X12402Y-39370
X12402Y-39764
X12992Y-37402
X13189Y-50394
X13386Y-40157
X13386Y-40551
X14961Y-68110
X14961Y-69882
X15157Y-40748
X15157Y-51378
X15354Y-41732
X15551Y-43701
X15945Y-43898
X16142Y-42717
X19291Y-25984
X19291Y-29134
X19291Y-32283
X19291Y-35433
X19291Y-38583
X19291Y-41732
X19291Y-44882
X19291Y-48031
X19291Y-51181
X19291Y-54331
X19291Y-57480
X21260Y-59449
X23425Y-16929
X24409Y-59449
X25787Y-15748
X27559Y-59449
X29331Y-12008
X30709Y-59449
X33858Y-59449
X37008Y-59449
X40157Y-59449
X43307Y-59449
X45079Y-12008
X46457Y-59449
X49606Y-59449
X52756Y-59449
X57087Y-37795
X57087Y-40945
X57087Y-43307
X61024Y-28937
X64370Y-28937
X64961Y-35236
X66142Y-29921
X66142Y-35236
X66339Y-42520
X66535Y-29921
X66732Y-42520
X66929Y-28937
X67126Y-41142
X67323Y-35236
T2
X21260Y-25354
X21260Y-26614
X21260Y-28504
X21260Y-29764
X21260Y-31654
X21260Y-32913
X21260Y-34803
X21260Y-36063
X21260Y-37953
X21260Y-39213
X21260Y-41102
X21260Y-42362
X21260Y-44252
X21260Y-45512
X21260Y-47402
X21260Y-48661
X21260Y-50551
X21260Y-51811
X21260Y-53701
X21260Y-54961
X21260Y-56850
X21260Y-58110
X24409Y-25354
X24409Y-26614
X24409Y-28504
X24409Y-29764
X24409Y-31654
X24409Y-32913
X24409Y-34803
X24409Y-36063
X24409Y-37953
X24409Y-39213
X24409Y-41102
X24409Y-42362
X24409Y-44252
X24409Y-45512
X24409Y-47402
X24409Y-48661
X24409Y-50551
X24409Y-51811
X24409Y-53701
X24409Y-54961
X24409Y-56850
X24409Y-58110
X27559Y-25354
X27559Y-26614
X27559Y-28504
X27559Y-29764
X27559Y-31654
X27559Y-32913
X27559Y-34803
X27559Y-36063
X27559Y-37953
X27559Y-39213
X27559Y-41102
X27559Y-42362
X27559Y-44252
X27559Y-45512
X27559Y-47402
X27559Y-48661
X27559Y-50551
X27559Y-51811
X27559Y-53701
X27559Y-54961
X27559Y-56850
X27559Y-58110
X30709Y-25354
X30709Y-26614
X30709Y-28504
X30709Y-29764
X30709Y-31654
X30709Y-32913
X30709Y-34803
X30709Y-36063
X30709Y-37953
X30709Y-39213
X30709Y-41102
X30709Y-42362
X30709Y-44252
X30709Y-45512
X30709Y-47402
X30709Y-48661
X30709Y-50551
X30709Y-51811
X30709Y-53701
X30709Y-54961
X30709Y-56850
X30709Y-58110
X33858Y-25354
X33858Y-26614
X33858Y-28504
X33858Y-29764
X33858Y-31654
X33858Y-32913
X33858Y-34803
X33858Y-36063
X33858Y-37953
X33858Y-39213
X33858Y-41102
X33858Y-42362
X33858Y-44252
X33858Y-45512
X33858Y-47402
X33858Y-48661
X33858Y-50551
X33858Y-51811
X33858Y-53701
X33858Y-54961
X33858Y-56850
X33858Y-58110
X37008Y-25354
X37008Y-26614
X37008Y-28504
X37008Y-29764
X37008Y-31654
X37008Y-32913
X37008Y-34803
X37008Y-36063
X37008Y-37953
X37008Y-39213
X37008Y-41102
X37008Y-42362
X37008Y-44252
X37008Y-45512
X37008Y-47402
X37008Y-48661
X37008Y-50551
X37008Y-51811
X37008Y-53701
X37008Y-54961
X37008Y-56850
X37008Y-58110
X40157Y-25354
X40157Y-26614
X40157Y-28504
X40157Y-29764
X40157Y-31654
X40157Y-32913
X40157Y-34803
X40157Y-36063
X40157Y-37953
X40157Y-39213
X40157Y-41102
X40157Y-42362
X40157Y-44252
X40157Y-45512
X40157Y-47402
X40157Y-48661
X40157Y-50551
X40157Y-51811
X40157Y-53701
X40157Y-54961
X40157Y-56850
X40157Y-58110
X43307Y-25354
X43307Y-26614
X43307Y-28504
X43307Y-29764
X43307Y-31654
X43307Y-32913
X43307Y-34803
X43307Y-36063
X43307Y-37953
X43307Y-39213
X43307Y-41102
X43307Y-42362
X43307Y-44252
X43307Y-45512
X43307Y-47402
X43307Y-48661
X43307Y-50551
X43307Y-51811
X43307Y-53701
X43307Y-54961
X43307Y-56850
X43307Y-58110
X46457Y-25354
X46457Y-26614
X46457Y-28504
X46457Y-29764
X46457Y-31654
X46457Y-32913
X46457Y-34803
X46457Y-36063
X46457Y-37953
X46457Y-39213
X46457Y-41102
X46457Y-42362
X46457Y-44252
X46457Y-45512
X46457Y-47402
X46457Y-48661
X46457Y-50551
X46457Y-51811
X46457Y-53701
X46457Y-54961
X46457Y-56850
X46457Y-58110
X49606Y-25354
X49606Y-26614
X49606Y-28504
X49606Y-29764
X49606Y-31654
X49606Y-32913
X49606Y-34803
X49606Y-36063
X49606Y-37953
X49606Y-39213
X49606Y-41102
X49606Y-42362
X49606Y-44252
X49606Y-45512
X49606Y-47402
X49606Y-48661
X49606Y-50551
X49606Y-51811
X49606Y-53701
X49606Y-54961
X49606Y-56850
X49606Y-58110
X52756Y-25354
X52756Y-26614
X52756Y-28504
X52756Y-29764
X52756Y-31654
X52756Y-32913
X52756Y-34803
X52756Y-36063
X52756Y-37953
X52756Y-39213
X52756Y-41102
X52756Y-42362
X52756Y-44252
X52756Y-45512
X52756Y-47402
X52756Y-48661
X52756Y-50551
X52756Y-51811
X52756Y-53701
X52756Y-54961
X52756Y-56850
X52756Y-58110
T4
X10039Y-12795
X10039Y-18504
X10039Y-64764
X10039Y-70472
X11024Y-12795
X11024Y-64764
X12008Y-12795
X12008Y-18504
X12008Y-64764
X12008Y-70472
X20276Y-70472
X21260Y-70472
X22244Y-70472
X26583Y-70472
X27567Y-70472
X28551Y-70472
X32890Y-70472
X33508Y-11376
X33874Y-70472
X34508Y-11376
X34858Y-70472
X35508Y-11376
X36508Y-11376
X37508Y-11376
X38508Y-11376
X39197Y-70472
X39508Y-11376
X40181Y-70472
X40508Y-11376
X41165Y-70472
X45504Y-70472
X46488Y-70472
X47472Y-70472
X51811Y-70472
X52795Y-70472
X53780Y-70472
X62008Y-12795
X62008Y-18504
X62008Y-64764
X62008Y-70472
X62205Y-41543
X62205Y-42543
X62205Y-43543
X62205Y-44543
X62205Y-45543
X62205Y-46543
X62205Y-47543
X62205Y-48543
X62205Y-49543
X62205Y-50543
X62205Y-51543
X62205Y-52543
X62205Y-53543
X62205Y-54543
X62205Y-55543
X62205Y-56543
X62205Y-57543
X62205Y-58543
X62205Y-59543
X62205Y-60543
X62992Y-12795
X62992Y-64764
X63205Y-41543
X63205Y-42543
X63205Y-43543
X63205Y-44543
X63205Y-45543
X63205Y-46543
X63205Y-47543
X63205Y-48543
X63205Y-49543
X63205Y-50543
X63205Y-51543
X63205Y-52543
X63205Y-53543
X63205Y-54543
X63205Y-55543
X63205Y-56543
X63205Y-57543
X63205Y-58543
X63205Y-59543
X63205Y-60543
X63976Y-12795
X63976Y-18504
X63976Y-64764
X63976Y-70472
T6
X16142Y-14961
X17126Y-11024
X17126Y-15945
X18110Y-11024
X19094Y-14961
X20079Y-11024
X21063Y-11024
X21063Y-15945
X22047Y-14961
T7
X16142Y-12992
X22047Y-12992
T3
X55906Y-10817G85X55906Y-10955
G05
X56309Y-11949G85X56289Y-11949
G05
X58278Y-11949G85X58258Y-11949
G05
X58661Y-10817G85X58661Y-10955
G05
T5
X49508Y-14567G85X49311Y-14567
G05
X52244Y-11417G85X51850Y-11417
G05
X52126Y-14370G85X52126Y-13976
G05
X53051Y-15079G85X52854Y-15079
G05
T0
M30
