  0
SECTION
  2
HEADER
  9
$ACADVER
  1
AC1012
  9
$DWGCODEPAGE
  3
undefined
  9
$INSBASE
 10
0.0
 20
0.0
 30
0.0
  9
$EXTMIN
 10
1.000000000000000E+20
 20
1.000000000000000E+20
 30
1.000000000000000E+20
  9
$EXTMAX
 10
-1.000000000000000E+20
 20
-1.000000000000000E+20
 30
-1.000000000000000E+20
  9
$LIMMIN
 10
0.0
 20
0.0
  9
$LIMMAX
 10
12.0
 20
9.0
  9
$ORTHOMODE
 70
     0
  9
$REGENMODE
 70
     1
  9
$FILLMODE
 70
     1
  9
$QTEXTMODE
 70
     0
  9
$MIRRTEXT
 70
     1
  9
$DRAGMODE
 70
     2
  9
$LTSCALE
 40
1.0
  9
$OSMODE
 70
    37
  9
$ATTMODE
 70
     1
  9
$TEXTSIZE
 40
0.2
  9
$TRACEWID
 40
0.05
  9
$TEXTSTYLE
  7
STANDARD
  9
$CLAYER
  8
0
  9
$CELTYPE
  6
BYLAYER
  9
$CECOLOR
 62
   256
  9
$CELTSCALE
 40
1.0
  9
$DELOBJ
 70
     1
  9
$DISPSILH
 70
     0
  9
$DIMSCALE
 40
1.0
  9
$DIMASZ
 40
0.18
  9
$DIMEXO
 40
0.0625
  9
$DIMDLI
 40
0.38
  9
$DIMRND
 40
0.0
  9
$DIMDLE
 40
0.0
  9
$DIMEXE
 40
0.18
  9
$DIMTP
 40
0.0
  9
$DIMTM
 40
0.0
  9
$DIMTXT
 40
0.18
  9
$DIMCEN
 40
0.09
  9
$DIMTSZ
 40
0.0
  9
$DIMTOL
 70
     0
  9
$DIMLIM
 70
     0
  9
$DIMTIH
 70
     1
  9
$DIMTOH
 70
     1
  9
$DIMSE1
 70
     0
  9
$DIMSE2
 70
     0
  9
$DIMTAD
 70
     0
  9
$DIMZIN
 70
     0
  9
$DIMBLK
  1

  9
$DIMASO
 70
     1
  9
$DIMSHO
 70
     1
  9
$DIMPOST
  1

  9
$DIMAPOST
  1

  9
$DIMALT
 70
     0
  9
$DIMALTD
 70
     2
  9
$DIMALTF
 40
25.4
  9
$DIMLFAC
 40
1.0
  9
$DIMTOFL
 70
     0
  9
$DIMTVP
 40
0.0
  9
$DIMTIX
 70
     0
  9
$DIMSOXD
 70
     0
  9
$DIMSAH
 70
     0
  9
$DIMBLK1
  1

  9
$DIMBLK2
  1

  9
$DIMSTYLE
  2
STANDARD
  9
$DIMCLRD
 70
     0
  9
$DIMCLRE
 70
     0
  9
$DIMCLRT
 70
     0
  9
$DIMTFAC
 40
1.0
  9
$DIMGAP
 40
0.09
  9
$DIMJUST
 70
     0
  9
$DIMSD1
 70
     0
  9
$DIMSD2
 70
     0
  9
$DIMTOLJ
 70
     1
  9
$DIMTZIN
 70
     0
  9
$DIMALTZ
 70
     0
  9
$DIMALTTZ
 70
     0
  9
$DIMFIT
 70
     3
  9
$DIMUPT
 70
     0
  9
$DIMUNIT
 70
     2
  9
$DIMDEC
 70
     4
  9
$DIMTDEC
 70
     4
  9
$DIMALTU
 70
     2
  9
$DIMALTTD
 70
     2
  9
$DIMTXSTY
  7
STANDARD
  9
$DIMAUNIT
 70
     0
  9
$LUNITS
 70
     2
  9
$LUPREC
 70
     4
  9
$SKETCHINC
 40
0.1
  9
$FILLETRAD
 40
0.5
  9
$AUNITS
 70
     0
  9
$AUPREC
 70
     0
  9
$MENU
  1
.
  9
$ELEVATION
 40
0.0
  9
$PELEVATION
 40
0.0
  9
$THICKNESS
 40
0.0
  9
$LIMCHECK
 70
     0
  9
$CHAMFERA
 40
0.5
  9
$CHAMFERB
 40
0.5
  9
$CHAMFERC
 40
1.0
  9
$CHAMFERD
 40
0.0
  9
$SKPOLY
 70
     0
  9
$TDCREATE
 40
2458103.699745371
  9
$TDUPDATE
 40
2458103.699745371
  9
$TDINDWG
 40
0.0000000116
  9
$TDUSRTIMER
 40
0.0000000116
  9
$USRTIMER
 70
     1
  9
$ANGBASE
 50
0.0
  9
$ANGDIR
 70
     0
  9
$PDMODE
 70
     0
  9
$PDSIZE
 40
0.0
  9
$PLINEWID
 40
0.0
  9
$COORDS
 70
     1
  9
$SPLFRAME
 70
     0
  9
$SPLINETYPE
 70
     6
  9
$SPLINESEGS
 70
     8
  9
$ATTDIA
 70
     0
  9
$ATTREQ
 70
     1
  9
$HANDLING
 70
     1
  9
$HANDSEED
  5
169
  9
$SURFTAB1
 70
     6
  9
$SURFTAB2
 70
     6
  9
$SURFTYPE
 70
     6
  9
$SURFU
 70
     6
  9
$SURFV
 70
     6
  9
$UCSNAME
  2

  9
$UCSORG
 10
0.0
 20
0.0
 30
0.0
  9
$UCSXDIR
 10
1.0
 20
0.0
 30
0.0
  9
$UCSYDIR
 10
0.0
 20
1.0
 30
0.0
  9
$PUCSNAME
  2

  9
$PUCSORG
 10
0.0
 20
0.0
 30
0.0
  9
$PUCSXDIR
 10
1.0
 20
0.0
 30
0.0
  9
$PUCSYDIR
 10
0.0
 20
1.0
 30
0.0
  9
$USERI1
 70
     0
  9
$USERI2
 70
     0
  9
$USERI3
 70
     0
  9
$USERI4
 70
     0
  9
$USERI5
 70
     0
  9
$USERR1
 40
0.0
  9
$USERR2
 40
0.0
  9
$USERR3
 40
0.0
  9
$USERR4
 40
0.0
  9
$USERR5
 40
0.0
  9
$WORLDVIEW
 70
     1
  9
$SHADEDGE
 70
     3
  9
$SHADEDIF
 70
    70
  9
$TILEMODE
 70
     1
  9
$MAXACTVP
 70
    64
  9
$PINSBASE
 10
0.0
 20
0.0
 30
0.0
  9
$PLIMCHECK
 70
     0
  9
$PEXTMIN
 10
1.000000000000000E+20
 20
1.000000000000000E+20
 30
1.000000000000000E+20
  9
$PEXTMAX
 10
-1.000000000000000E+20
 20
-1.000000000000000E+20
 30
-1.000000000000000E+20
  9
$PLIMMIN
 10
0.0
 20
0.0
  9
$PLIMMAX
 10
12.0
 20
9.0
  9
$UNITMODE
 70
     0
  9
$VISRETAIN
 70
     1
  9
$PLINEGEN
 70
     0
  9
$PSLTSCALE
 70
     1
  9
$TREEDEPTH
 70
  3020
  9
$PICKSTYLE
 70
     1
  9
$CMLSTYLE
  2
STANDARD
  9
$CMLJUST
 70
     0
  9
$CMLSCALE
 40
1.0
  9
$SAVEIMAGES
 70
     1
  0
ENDSEC
  0
SECTION
  2
CLASSES
  0
CLASS
  1
ACDBDICTIONARYWDFLT
  2
AcDbDictionaryWithDefault
  3
ObjectDBX Classes
 90
    32768
280
     0
281
     0
  0
CLASS
  1
VISUALSTYLE
  2
AcDbVisualStyle
  3
ObjectDBX Classes
 90
     4095
280
     0
281
     0
  0
CLASS
  1
MATERIAL
  2
AcDbMaterial
  3
ObjectDBX Classes
 90
     1153
280
     0
281
     0
  0
CLASS
  1
SUN
  2
AcDbSun
  3
SCENEOE
 90
     1024
280
     0
281
     0
  0
CLASS
  1
DICTIONARYVAR
  2
AcDbDictionaryVar
  3
ObjectDBX Classes
 90
        0
280
     0
281
     0
  0
CLASS
  1
XRECORD
  2
AcDbXrecord
  3
AutoCAD 2000
 90
    32768
280
     0
281
     0
  0
CLASS
  1
LWPOLYLINE
  2
AcDbPolyline
  3
AutoCAD 2000
 90
    32768
280
     0
281
     1
  0
CLASS
  1
HATCH
  2
AcDbHatch
  3
AutoCAD 2000
 90
    32768
280
     0
281
     1
  0
CLASS
  1
ACDBPLACEHOLDER
  2
AcDbPlaceHolder
  3
ObjectDBX Classes
 90
        0
280
     0
281
     0
  0
CLASS
  1
LAYOUT
  2
AcDbLayout
  3
ObjectDBX Classes
 90
        0
280
     0
281
     0
  0
ENDSEC
  0
SECTION
  2
TABLES
  0
TABLE
  2
VPORT
  5
8
330
0
100
AcDbSymbolTable
 70
     1
  0
VPORT
  5
29
330
8
100
AcDbSymbolTableRecord
100
AcDbViewportTableRecord
  2
*ACTIVE
 70
     0
 10
0.0
 20
0.0
 11
1.0
 21
1.0
 12
0.0
 22
0.0
 13
0.0
 23
0.0
 14
0.5
 24
0.5
 15
0.5
 25
0.5
 16
0.0
 26
0.0
 36
1.0
 17
209.9997916141666
 27
-148.5000416295416
 37
0.0
 40
297.0000832590831
 41
1.414139614438941
 42
50.0
 43
0.0
 44
0.0
 50
0.0
 51
0.0
 71
     0
 72
   100
 73
     1
 74
     3
 75
     0
 76
     0
 77
     0
 78
     0
  0
ENDTAB
  0
TABLE
  2
LTYPE
  5
5
330
0
100
AcDbSymbolTable
 70
     1
  0
LTYPE
  5
14
330
5
100
AcDbSymbolTableRecord
100
AcDbLinetypeTableRecord
  2
BYBLOCK
 70
     0
  3

 72
    65
 73
     0
 40
0.0
  0
LTYPE
  5
15
330
5
100
AcDbSymbolTableRecord
100
AcDbLinetypeTableRecord
  2
BYLAYER
 70
     0
  3

 72
    65
 73
     0
 40
0.0
  0
LTYPE
  5
16
330
5
100
AcDbSymbolTableRecord
100
AcDbLinetypeTableRecord
  2
CONTINUOUS
 70
     0
  3
Solid line
 72
    65
 73
     0
 40
0.0
  0
ENDTAB
  0
TABLE
  2
LAYER
  5
2
330
0
100
AcDbSymbolTable
 70
     2
  0
LAYER
  5
10
330
2
100
AcDbSymbolTableRecord
100
AcDbLayerTableRecord
  2
0
 70
     0
 62
     7
  6
CONTINUOUS
  0
LAYER
  5
40
330
2
100
AcDbSymbolTableRecord
100
AcDbLayerTableRecord
  2
_LAYER_
 70
     0
 62
     7
  6
CONTINUOUS
  0
ENDTAB
  0
TABLE
  2
STYLE
  5
3
330
0
100
AcDbSymbolTable
 70
     1
  0
STYLE
  5
11
330
3
100
AcDbSymbolTableRecord
100
AcDbTextStyleTableRecord
  2
STANDARD
 70
     0
 40
0.0
 41
1.0
 50
0.0
 71
     0
 42
0.2
  3
txt
  4

  0
ENDTAB
  0
TABLE
  2
VIEW
  5
6
330
0
100
AcDbSymbolTable
 70
     0
  0
ENDTAB
  0
TABLE
  2
UCS
  5
7
330
0
100
AcDbSymbolTable
 70
     0
  0
ENDTAB
  0
TABLE
  2
APPID
  5
9
330
0
100
AcDbSymbolTable
 70
     1
  0
APPID
  5
12
330
9
100
AcDbSymbolTableRecord
100
AcDbRegAppTableRecord
  2
ACAD
 70
     0
  0
ENDTAB
  0
TABLE
  2
DIMSTYLE
  5
A
330
0
100
AcDbSymbolTable
 70
     1
  0
DIMSTYLE
105
27
330
A
100
AcDbSymbolTableRecord
100
AcDbDimStyleTableRecord
  2
STANDARD
 70
     0
  3

  4

  5

  6

  7

 40
1.0
 41
0.18
 42
0.0625
 43
0.38
 44
0.18
 45
0.0
 46
0.0
 47
0.0
 48
0.0
140
0.18
141
0.09
142
0.0
143
25.4
144
1.0
145
0.0
146
1.0
147
0.09
 71
     0
 72
     0
 73
     1
 74
     1
 75
     0
 76
     0
 77
     0
 78
     0
170
     0
171
     2
172
     0
173
     0
174
     0
175
     0
176
     0
177
     0
178
     0
270
     2
271
     4
272
     4
273
     2
274
     2
340
11
275
     0
280
     0
281
     0
282
     0
283
     1
284
     0
285
     0
286
     0
287
     3
288
     0
  0
ENDTAB
  0
TABLE
  2
BLOCK_RECORD
  5
1
330
0
100
AcDbSymbolTable
 70
     1
  0
BLOCK_RECORD
  5
1F
330
1
100
AcDbSymbolTableRecord
100
AcDbBlockTableRecord
  2
*MODEL_SPACE
  0
BLOCK_RECORD
  5
1B
330
1
100
AcDbSymbolTableRecord
100
AcDbBlockTableRecord
  2
*PAPER_SPACE
  0
ENDTAB
  0
ENDSEC
  0
SECTION
  2
BLOCKS
  0
BLOCK
  5
20
330
1F
100
AcDbEntity
  8
0
100
AcDbBlockBegin
  2
*MODEL_SPACE
 70
     0
 10
0.0
 20
0.0
 30
0.0
  3
*MODEL_SPACE
  1

  0
ENDBLK
  5
21
330
1F
100
AcDbEntity
  8
0
100
AcDbBlockEnd
  0
BLOCK
  5
1C
330
1B
100
AcDbEntity
 67
     1
  8
0
100
AcDbBlockBegin
  2
*PAPER_SPACE
 70
     0
 10
0.0
 20
0.0
 30
0.0
  3
*PAPER_SPACE
  1

  0
ENDBLK
  5
1D
330
1B
100
AcDbEntity
 67
     1
  8
0
100
AcDbBlockEnd
  0
ENDSEC
  0
SECTION
  2
ENTITIES
  0
POLYLINE
  5
41
330
1F
100
AcDbEntity
  8
_LAYER_
 62
     7
100
AcDb2dPolyline
 66
     1
 10
0.0
 20
0.0
 30
0.0
  0
VERTEX
  5
42
330
41
100
AcDbEntity
  8
_LAYER_
 62
     7
100
AcDbVertex
100
AcDb2dVertex
 10
181.5151687024956
 20
-89.42091164431143
 30
0.0
  0
VERTEX
  5
43
330
41
100
AcDbEntity
  8
_LAYER_
 62
     7
100
AcDbVertex
100
AcDb2dVertex
 10
194.4151933733885
 20
-89.42091164431143
 30
0.0
  0
VERTEX
  5
44
330
41
100
AcDbEntity
  8
_LAYER_
 62
     7
100
AcDbVertex
100
AcDb2dVertex
 10
194.4151933733885
 20
-75.62095053665017
 30
0.0
  0
VERTEX
  5
45
330
41
100
AcDbEntity
  8
_LAYER_
 62
     7
100
AcDbVertex
100
AcDb2dVertex
 10
181.5151687024956
 20
-75.62095053665017
 30
0.0
  0
VERTEX
  5
46
330
41
100
AcDbEntity
  8
_LAYER_
 62
     7
100
AcDbVertex
100
AcDb2dVertex
 10
181.5151687024956
 20
-89.42091164431143
 30
0.0
  0
SEQEND
  5
47
330
41
100
AcDbEntity
  8
_LAYER_
 62
     7
  0
POLYLINE
  5
48
330
1F
100
AcDbEntity
  8
_LAYER_
 62
     7
100
AcDb2dPolyline
 66
     1
 10
0.0
 20
0.0
 30
0.0
  0
VERTEX
  5
49
330
48
100
AcDbEntity
  8
_LAYER_
 62
     7
100
AcDbVertex
100
AcDb2dVertex
 10
389.9645771247314
 20
-67.51799776089844
 30
0.0
  0
VERTEX
  5
4A
330
48
100
AcDbEntity
  8
_LAYER_
 62
     7
100
AcDbVertex
100
AcDb2dVertex
 10
389.9645771247314
 20
-82.24400053499453
 30
0.0
  0
VERTEX
  5
4B
330
48
100
AcDbEntity
  8
_LAYER_
 62
     7
100
AcDbVertex
100
AcDb2dVertex
 10
386.9645549032589
 20
-82.24400053499453
 30
0.0
  0
VERTEX
  5
4C
330
48
100
AcDbEntity
  8
_LAYER_
 62
     7
100
AcDbVertex
100
AcDb2dVertex
 10
386.9645549032589
 20
-86.24379497843893
 30
0.0
  0
VERTEX
  5
4D
330
48
100
AcDbEntity
  8
_LAYER_
 62
     7
100
AcDbVertex
100
AcDb2dVertex
 10
389.9645771247314
 20
-86.24379497843893
 30
0.0
  0
VERTEX
  5
4E
330
48
100
AcDbEntity
  8
_LAYER_
 62
     7
100
AcDbVertex
100
AcDb2dVertex
 10
389.9645771247314
 20
-210.7919893917464
 30
0.0
  0
VERTEX
  5
4F
330
48
100
AcDbEntity
  8
_LAYER_
 62
     7
100
AcDbVertex
100
AcDb2dVertex
 10
386.9645549032589
 20
-210.7919893917464
 30
0.0
  0
VERTEX
  5
50
330
48
100
AcDbEntity
  8
_LAYER_
 62
     7
100
AcDbVertex
100
AcDb2dVertex
 10
386.9645549032589
 20
-214.7917838351908
 30
0.0
  0
VERTEX
  5
51
330
48
100
AcDbEntity
  8
_LAYER_
 62
     7
100
AcDbVertex
100
AcDb2dVertex
 10
389.9645771247314
 20
-214.7917838351908
 30
0.0
  0
VERTEX
  5
52
330
48
100
AcDbEntity
  8
_LAYER_
 62
     7
100
AcDbVertex
100
AcDb2dVertex
 10
389.9645771247314
 20
-229.5149643870658
 30
0.0
  0
VERTEX
  5
53
330
48
100
AcDbEntity
  8
_LAYER_
 62
     7
100
AcDbVertex
100
AcDb2dVertex
 10
398.6312687892311
 20
-229.5149643870658
 30
0.0
  0
VERTEX
  5
54
330
48
100
AcDbEntity
  8
_LAYER_
 62
     7
100
AcDbVertex
100
AcDb2dVertex
 10
398.6312687892311
 20
-232.5149866085383
 30
0.0
  0
VERTEX
  5
55
330
48
100
AcDbEntity
  8
_LAYER_
 62
     7
100
AcDbVertex
100
AcDb2dVertex
 10
407.2979604537308
 20
-232.5149866085383
 30
0.0
  0
VERTEX
  5
56
330
48
100
AcDbEntity
  8
_LAYER_
 62
     7
100
AcDbVertex
100
AcDb2dVertex
 10
407.2979604537308
 20
-229.5149643870658
 30
0.0
  0
VERTEX
  5
57
330
48
100
AcDbEntity
  8
_LAYER_
 62
     7
100
AcDbVertex
100
AcDb2dVertex
 10
415.9646521182311
 20
-229.5149643870658
 30
0.0
  0
VERTEX
  5
58
330
48
100
AcDbEntity
  8
_LAYER_
 62
     7
100
AcDbVertex
100
AcDb2dVertex
 10
415.9646521182311
 20
-214.7917838351908
 30
0.0
  0
VERTEX
  5
59
330
48
100
AcDbEntity
  8
_LAYER_
 62
     7
100
AcDbVertex
100
AcDb2dVertex
 10
418.9646743397035
 20
-214.7917838351908
 30
0.0
  0
VERTEX
  5
5A
330
48
100
AcDbEntity
  8
_LAYER_
 62
     7
100
AcDbVertex
100
AcDb2dVertex
 10
418.9646743397035
 20
-210.7919893917464
 30
0.0
  0
VERTEX
  5
5B
330
48
100
AcDbEntity
  8
_LAYER_
 62
     7
100
AcDbVertex
100
AcDb2dVertex
 10
415.9646521182311
 20
-210.7919893917464
 30
0.0
  0
VERTEX
  5
5C
330
48
100
AcDbEntity
  8
_LAYER_
 62
     7
100
AcDbVertex
100
AcDb2dVertex
 10
415.9646521182311
 20
-86.24379497843893
 30
0.0
  0
VERTEX
  5
5D
330
48
100
AcDbEntity
  8
_LAYER_
 62
     7
100
AcDbVertex
100
AcDb2dVertex
 10
418.9646743397035
 20
-86.24379497843893
 30
0.0
  0
VERTEX
  5
5E
330
48
100
AcDbEntity
  8
_LAYER_
 62
     7
100
AcDbVertex
100
AcDb2dVertex
 10
418.9646743397035
 20
-82.24400053499453
 30
0.0
  0
VERTEX
  5
5F
330
48
100
AcDbEntity
  8
_LAYER_
 62
     7
100
AcDbVertex
100
AcDb2dVertex
 10
415.9646521182311
 20
-82.24400053499453
 30
0.0
  0
VERTEX
  5
60
330
48
100
AcDbEntity
  8
_LAYER_
 62
     7
100
AcDbVertex
100
AcDb2dVertex
 10
415.9646521182311
 20
-67.51799776089844
 30
0.0
  0
VERTEX
  5
61
330
48
100
AcDbEntity
  8
_LAYER_
 62
     7
100
AcDbVertex
100
AcDb2dVertex
 10
407.2979604537308
 20
-67.51799776089844
 30
0.0
  0
VERTEX
  5
62
330
48
100
AcDbEntity
  8
_LAYER_
 62
     7
100
AcDbVertex
100
AcDb2dVertex
 10
407.2979604537308
 20
-64.51797553942593
 30
0.0
  0
VERTEX
  5
63
330
48
100
AcDbEntity
  8
_LAYER_
 62
     7
100
AcDbVertex
100
AcDb2dVertex
 10
398.6312687892311
 20
-64.51797553942593
 30
0.0
  0
VERTEX
  5
64
330
48
100
AcDbEntity
  8
_LAYER_
 62
     7
100
AcDbVertex
100
AcDb2dVertex
 10
398.6312687892311
 20
-67.51799776089844
 30
0.0
  0
VERTEX
  5
65
330
48
100
AcDbEntity
  8
_LAYER_
 62
     7
100
AcDbVertex
100
AcDb2dVertex
 10
389.9645771247314
 20
-67.51799776089844
 30
0.0
  0
SEQEND
  5
66
330
48
100
AcDbEntity
  8
_LAYER_
 62
     7
  0
SPLINE
  5
67
330
1F
100
AcDbEntity
  8
_LAYER_
 62
     7
100
AcDbSpline
210
0.0
220
0.0
230
1.0
 70
    11
 71
     3
 72
    86
 73
    82
 74
     0
 42
0.0000000001
 43
0.0000000001
 12
1.0
 22
0.0
 32
0.0
 13
1.0
 23
0.0
 33
0.0
 40
0.0
 40
0.0
 40
0.0
 40
0.0
 40
1.0
 40
1.0
 40
1.0
 40
2.0
 40
2.0
 40
2.0
 40
3.0
 40
3.0
 40
3.0
 40
4.0
 40
4.0
 40
4.0
 40
5.0
 40
5.0
 40
5.0
 40
6.0
 40
6.0
 40
6.0
 40
7.0
 40
7.0
 40
7.0
 40
8.0
 40
8.0
 40
8.0
 40
9.0
 40
9.0
 40
9.0
 40
10.0
 40
10.0
 40
10.0
 40
11.0
 40
11.0
 40
11.0
 40
12.0
 40
12.0
 40
12.0
 40
13.0
 40
13.0
 40
13.0
 40
14.0
 40
14.0
 40
14.0
 40
15.0
 40
15.0
 40
15.0
 40
16.0
 40
16.0
 40
16.0
 40
17.0
 40
17.0
 40
17.0
 40
18.0
 40
18.0
 40
18.0
 40
19.0
 40
19.0
 40
19.0
 40
20.0
 40
20.0
 40
20.0
 40
21.0
 40
21.0
 40
21.0
 40
22.0
 40
22.0
 40
22.0
 40
23.0
 40
23.0
 40
23.0
 40
24.0
 40
24.0
 40
24.0
 40
25.0
 40
25.0
 40
25.0
 40
26.0
 40
26.0
 40
26.0
 40
27.0
 40
27.0
 40
27.0
 40
27.0
 10
215.9649408791642
 20
-235.5179721633429
 30
0.0
 10
244.606967926223
 20
-235.5179721633429
 30
0.0
 10
273.2489949732818
 20
-235.5179721633429
 30
0.0
 10
301.8910220203406
 20
-235.5179721633429
 30
0.0
 10
316.3267941520534
 20
-235.5179721633429
 30
0.0
 10
330.762601561543
 20
-235.5179721633429
 30
0.0
 10
345.1983736932558
 20
-235.5179721633429
 30
0.0
 10
352.4162068424469
 20
-235.5179721633429
 30
0.0
 10
359.6340490767584
 20
-235.5179721633429
 30
0.0
 10
366.8518824082869
 20
-235.5179721633429
 30
0.0
 10
370.4607990740512
 20
-235.5179721633429
 30
0.0
 10
374.0697157398162
 20
-235.5179721633429
 30
0.0
 10
377.6786324055805
 20
-235.5179721633429
 30
0.0
 10
379.3924268495965
 20
-235.5179721633429
 30
0.0
 10
381.0014462936386
 20
-235.7797332743887
 30
0.0
 10
382.6397462932291
 20
-234.7422138302034
 30
0.0
 10
384.0893101817557
 20
-233.8239332748777
 30
0.0
 10
384.9645518482035
 20
-232.2339638308302
 30
0.0
 10
384.9645518482035
 20
-230.5180527201482
 30
0.0
 10
384.9645518482035
 20
-201.8765188384199
 30
0.0
 10
384.9645518482035
 20
-173.2349496789134
 30
0.0
 10
384.9645518482035
 20
-144.5933805194072
 30
0.0
 10
384.9645518482035
 20
-128.7317860789281
 30
0.0
 10
384.9645518482035
 20
-112.8701916384492
 30
0.0
 10
384.9645518482035
 20
-97.00859719796996
 30
0.0
 10
384.9645518482035
 20
-89.07779997773052
 30
0.0
 10
384.9645518482035
 20
-81.14700275749108
 30
0.0
 10
384.9645518482035
 20
-73.21620553725164
 30
0.0
 10
384.9645518482035
 20
-70.92526664893528
 30
0.0
 10
385.0428685148505
 20
-68.63573887172996
 30
0.0
 10
384.9610240704265
 20
-66.34303609452543
 30
0.0
 10
384.9486768482074
 20
-65.99484442794578
 30
0.0
 10
384.901404625997
 20
-65.65688331691896
 30
0.0
 10
384.8177962926842
 20
-65.31856942811471
 30
0.0
 10
384.6304712927314
 20
-64.56468331719218
 30
0.0
 10
384.3129712928109
 20
-63.93426942846079
 30
0.0
 10
383.8180240707123
 20
-63.33560553972153
 30
0.0
 10
382.8665824042835
 20
-62.18484442889822
 30
0.0
 10
381.4572351824133
 20
-61.521269429064
 30
0.0
 10
379.964279627231
 20
-61.521269429064
 30
0.0
 10
351.3222429814673
 20
-61.521269429064
 30
0.0
 10
322.6802159344085
 20
-61.521269429064
 30
0.0
 10
294.0381888873497
 20
-61.521269429064
 30
0.0
 10
278.1763479031301
 20
-61.521269429064
 30
0.0
 10
262.3145421966874
 20
-61.521269429064
 30
0.0
 10
246.4527012124678
 20
-61.521269429064
 30
0.0
 10
238.5217983592464
 20
-61.521269429064
 30
0.0
 10
230.5908602282481
 20
-61.521269429064
 30
0.0
 10
222.6599573750268
 20
-61.521269429064
 30
0.0
 10
220.3686657668158
 20
-61.521269429064
 30
0.0
 10
218.0791380474488
 20
-61.44295276241699
 30
0.0
 10
215.7864353281627
 20
-61.52444442906321
 30
0.0
 10
215.4382436703792
 20
-61.53714442906006
 30
0.0
 10
215.1006353456589
 20
-61.58441665127047
 30
0.0
 10
214.7623214654012
 20
-61.66802498458292
 30
0.0
 10
214.0080825957545
 20
-61.85499720675863
 30
0.0
 10
213.3776687229488
 20
-62.17284998445689
 30
0.0
 10
212.7790048493331
 20
-62.66779720655514
 30
0.0
 10
211.6282437675804
 20
-63.61923887298399
 30
0.0
 10
210.9646687845096
 20
-65.0282333170764
 30
0.0
 10
210.9646687845096
 20
-66.52154165003614
 30
0.0
 10
210.9646687845096
 20
-95.16300497620911
 30
0.0
 10
210.9646687845096
 20
-123.8044330246046
 30
0.0
 10
210.9646687845096
 20
-152.4458610729994
 30
0.0
 10
210.9646687845096
 20
-168.3074555134789
 30
0.0
 10
210.9646687845096
 20
-184.1690499539578
 30
0.0
 10
210.9646687845096
 20
-200.0306443944366
 30
0.0
 10
210.9646687845096
 20
-207.9615827257875
 30
0.0
 10
210.9646687845096
 20
-215.8924857793601
 30
0.0
 10
210.9646687845096
 20
-223.8233888329327
 30
0.0
 10
210.9646687845096
 20
-226.1143277212491
 30
0.0
 10
210.8863521198409
 20
-228.4038554984544
 30
0.0
 10
210.9678437844286
 20
-230.6962054978812
 30
0.0
 10
210.9801910063358
 20
-231.0443971644612
 30
0.0
 10
211.0278160051208
 20
-231.382358275488
 30
0.0
 10
211.1114243363211
 20
-231.7206721642919
 30
0.0
 10
211.2983965537732
 20
-232.4749110529925
 30
0.0
 10
211.6162493234419
 20
-233.1053249417239
 30
0.0
 10
212.111196533037
 20
-233.7039888304632
 30
0.0
 10
213.0622853976616
 20
-234.8547499412862
 30
0.0
 10
214.4719853616971
 20
-235.5179721633429
 30
0.0
 10
215.9649408791642
 20
-235.5179721633429
 30
0.0
  0
SPLINE
  5
68
330
1F
100
AcDbEntity
  8
_LAYER_
 62
     7
100
AcDbSpline
210
0.0
220
0.0
230
1.0
 70
    11
 71
     3
 72
    17
 73
    13
 74
     0
 42
0.0000000001
 43
0.0000000001
 12
1.0
 22
0.0
 32
0.0
 13
1.0
 23
0.0
 33
0.0
 40
0.0
 40
0.0
 40
0.0
 40
0.0
 40
1.0
 40
1.0
 40
1.0
 40
2.0
 40
2.0
 40
2.0
 40
3.0
 40
3.0
 40
3.0
 40
4.0
 40
4.0
 40
4.0
 40
4.0
 10
374.4645093508285
 20
-223.5180243885649
 30
0.0
 10
374.4645093508285
 20
-222.6897021665498
 30
0.0
 10
373.7928204621074
 20
-222.0180132778287
 30
0.0
 10
372.9644982400923
 20
-222.0180132778287
 30
0.0
 10
372.1358232402994
 20
-222.0180132778287
 30
0.0
 10
371.4641343515783
 20
-222.6897021665498
 30
0.0
 10
371.4641343515783
 20
-223.5180243885649
 30
0.0
 10
371.4641343515783
 20
-224.3466993883578
 30
0.0
 10
372.1358232402994
 20
-225.0180354993012
 30
0.0
 10
372.9644982400923
 20
-225.0180354993012
 30
0.0
 10
373.7928204621074
 20
-225.0180354993012
 30
0.0
 10
374.4645093508285
 20
-224.3466993883578
 30
0.0
 10
374.4645093508285
 20
-223.5180243885649
 30
0.0
  0
SPLINE
  5
69
330
1F
100
AcDbEntity
  8
_LAYER_
 62
     7
100
AcDbSpline
210
0.0
220
0.0
230
1.0
 70
    11
 71
     3
 72
    17
 73
    13
 74
     0
 42
0.0000000001
 43
0.0000000001
 12
1.0
 22
0.0
 32
0.0
 13
1.0
 23
0.0
 33
0.0
 40
0.0
 40
0.0
 40
0.0
 40
0.0
 40
1.0
 40
1.0
 40
1.0
 40
2.0
 40
2.0
 40
2.0
 40
3.0
 40
3.0
 40
3.0
 40
4.0
 40
4.0
 40
4.0
 40
4.0
 10
374.4645093508285
 20
-73.52132303717521
 30
0.0
 10
374.4645093508285
 20
-72.69300081516009
 30
0.0
 10
373.7928204621074
 20
-72.02131192643895
 30
0.0
 10
372.9644982400923
 20
-72.02131192643895
 30
0.0
 10
372.1358232402994
 20
-72.02131192643895
 30
0.0
 10
371.4641343515783
 20
-72.69300081516009
 30
0.0
 10
371.4641343515783
 20
-73.52132303717521
 30
0.0
 10
371.4641343515783
 20
-74.34964525919034
 30
0.0
 10
372.1358232402994
 20
-75.02133414791146
 30
0.0
 10
372.9644982400923
 20
-75.02133414791146
 30
0.0
 10
373.7928204621074
 20
-75.02133414791146
 30
0.0
 10
374.4645093508285
 20
-74.34964525919034
 30
0.0
 10
374.4645093508285
 20
-73.52132303717521
 30
0.0
  0
SPLINE
  5
6A
330
1F
100
AcDbEntity
  8
_LAYER_
 62
     7
100
AcDbSpline
210
0.0
220
0.0
230
1.0
 70
    11
 71
     3
 72
    17
 73
    13
 74
     0
 42
0.0000000001
 43
0.0000000001
 12
1.0
 22
0.0
 32
0.0
 13
1.0
 23
0.0
 33
0.0
 40
0.0
 40
0.0
 40
0.0
 40
0.0
 40
1.0
 40
1.0
 40
1.0
 40
2.0
 40
2.0
 40
2.0
 40
3.0
 40
3.0
 40
3.0
 40
4.0
 40
4.0
 40
4.0
 40
4.0
 10
224.4646978845396
 20
-73.52132303717521
 30
0.0
 10
224.4646978845396
 20
-72.69300081516009
 30
0.0
 10
223.7933617905557
 20
-72.02131192643895
 30
0.0
 10
222.9646868116969
 20
-72.02131192643895
 30
0.0
 10
222.136364610607
 20
-72.02131192643895
 30
0.0
 10
221.4646757388543
 20
-72.69300081516009
 30
0.0
 10
221.4646757388543
 20
-73.52132303717521
 30
0.0
 10
221.4646757388543
 20
-74.34964525919034
 30
0.0
 10
222.136364610607
 20
-75.02133414791146
 30
0.0
 10
222.9646868116969
 20
-75.02133414791146
 30
0.0
 10
223.7933617905557
 20
-75.02133414791146
 30
0.0
 10
224.4646978845396
 20
-74.34964525919034
 30
0.0
 10
224.4646978845396
 20
-73.52132303717521
 30
0.0
  0
POLYLINE
  5
6B
330
1F
100
AcDbEntity
  8
_LAYER_
 62
     7
100
AcDb2dPolyline
 66
     1
 10
0.0
 20
0.0
 30
0.0
  0
VERTEX
  5
6C
330
6B
100
AcDbEntity
  8
_LAYER_
 62
     7
100
AcDbVertex
100
AcDb2dVertex
 10
381.9643532378421
 20
-210.7923421695241
 30
0.0
  0
VERTEX
  5
6D
330
6B
100
AcDbEntity
  8
_LAYER_
 62
     7
100
AcDbVertex
100
AcDb2dVertex
 10
378.9643310163702
 20
-210.7923421695241
 30
0.0
  0
VERTEX
  5
6E
330
6B
100
AcDbEntity
  8
_LAYER_
 62
     7
100
AcDbVertex
100
AcDb2dVertex
 10
378.9643310163702
 20
-214.7924893907463
 30
0.0
  0
VERTEX
  5
6F
330
6B
100
AcDbEntity
  8
_LAYER_
 62
     7
100
AcDbVertex
100
AcDb2dVertex
 10
381.9643532378421
 20
-214.7924893907463
 30
0.0
  0
VERTEX
  5
70
330
6B
100
AcDbEntity
  8
_LAYER_
 62
     7
100
AcDbVertex
100
AcDb2dVertex
 10
381.9643532378421
 20
-210.7923421695241
 30
0.0
  0
SEQEND
  5
71
330
6B
100
AcDbEntity
  8
_LAYER_
 62
     7
  0
POLYLINE
  5
72
330
1F
100
AcDbEntity
  8
_LAYER_
 62
     7
100
AcDb2dPolyline
 66
     1
 10
0.0
 20
0.0
 30
0.0
  0
VERTEX
  5
73
330
72
100
AcDbEntity
  8
_LAYER_
 62
     7
100
AcDbVertex
100
AcDb2dVertex
 10
364.2383282422738
 20
-229.518139387065
 30
0.0
  0
VERTEX
  5
74
330
72
100
AcDbEntity
  8
_LAYER_
 62
     7
100
AcDbVertex
100
AcDb2dVertex
 10
360.2381810210517
 20
-229.518139387065
 30
0.0
  0
VERTEX
  5
75
330
72
100
AcDbEntity
  8
_LAYER_
 62
     7
100
AcDbVertex
100
AcDb2dVertex
 10
360.2381810210517
 20
-232.5181616085368
 30
0.0
  0
VERTEX
  5
76
330
72
100
AcDbEntity
  8
_LAYER_
 62
     7
100
AcDbVertex
100
AcDb2dVertex
 10
364.2383282422738
 20
-232.5181616085368
 30
0.0
  0
VERTEX
  5
77
330
72
100
AcDbEntity
  8
_LAYER_
 62
     7
100
AcDbVertex
100
AcDb2dVertex
 10
364.2383282422738
 20
-229.518139387065
 30
0.0
  0
SEQEND
  5
78
330
72
100
AcDbEntity
  8
_LAYER_
 62
     7
  0
POLYLINE
  5
79
330
1F
100
AcDbEntity
  8
_LAYER_
 62
     7
100
AcDb2dPolyline
 66
     1
 10
0.0
 20
0.0
 30
0.0
  0
VERTEX
  5
7A
330
79
100
AcDbEntity
  8
_LAYER_
 62
     7
100
AcDbVertex
100
AcDb2dVertex
 10
381.9643532378421
 20
-82.24400053499453
 30
0.0
  0
VERTEX
  5
7B
330
79
100
AcDbEntity
  8
_LAYER_
 62
     7
100
AcDbVertex
100
AcDb2dVertex
 10
378.9643310163702
 20
-82.24400053499453
 30
0.0
  0
VERTEX
  5
7C
330
79
100
AcDbEntity
  8
_LAYER_
 62
     7
100
AcDbVertex
100
AcDb2dVertex
 10
378.9643310163702
 20
-86.24414775621669
 30
0.0
  0
VERTEX
  5
7D
330
79
100
AcDbEntity
  8
_LAYER_
 62
     7
100
AcDbVertex
100
AcDb2dVertex
 10
381.9643532378421
 20
-86.24414775621669
 30
0.0
  0
VERTEX
  5
7E
330
79
100
AcDbEntity
  8
_LAYER_
 62
     7
100
AcDbVertex
100
AcDb2dVertex
 10
381.9643532378421
 20
-82.24400053499453
 30
0.0
  0
SEQEND
  5
7F
330
79
100
AcDbEntity
  8
_LAYER_
 62
     7
  0
POLYLINE
  5
80
330
1F
100
AcDbEntity
  8
_LAYER_
 62
     7
100
AcDb2dPolyline
 66
     1
 10
0.0
 20
0.0
 30
0.0
  0
VERTEX
  5
81
330
80
100
AcDbEntity
  8
_LAYER_
 62
     7
100
AcDbVertex
100
AcDb2dVertex
 10
360.2385337988295
 20
-67.52117276089764
 30
0.0
  0
VERTEX
  5
82
330
80
100
AcDbEntity
  8
_LAYER_
 62
     7
100
AcDbVertex
100
AcDb2dVertex
 10
364.2383282422738
 20
-67.52117276089764
 30
0.0
  0
VERTEX
  5
83
330
80
100
AcDbEntity
  8
_LAYER_
 62
     7
100
AcDbVertex
100
AcDb2dVertex
 10
364.2383282422738
 20
-64.52115053942514
 30
0.0
  0
VERTEX
  5
84
330
80
100
AcDbEntity
  8
_LAYER_
 62
     7
100
AcDbVertex
100
AcDb2dVertex
 10
360.2385337988295
 20
-64.52115053942514
 30
0.0
  0
VERTEX
  5
85
330
80
100
AcDbEntity
  8
_LAYER_
 62
     7
100
AcDbVertex
100
AcDb2dVertex
 10
360.2385337988295
 20
-67.52117276089764
 30
0.0
  0
SEQEND
  5
86
330
80
100
AcDbEntity
  8
_LAYER_
 62
     7
  0
POLYLINE
  5
87
330
1F
100
AcDbEntity
  8
_LAYER_
 62
     7
100
AcDb2dPolyline
 66
     1
 10
0.0
 20
0.0
 30
0.0
  0
VERTEX
  5
88
330
87
100
AcDbEntity
  8
_LAYER_
 62
     7
100
AcDbVertex
100
AcDb2dVertex
 10
213.9648673190792
 20
-86.24414775621669
 30
0.0
  0
VERTEX
  5
89
330
87
100
AcDbEntity
  8
_LAYER_
 62
     7
100
AcDbVertex
100
AcDb2dVertex
 10
216.9648894647645
 20
-86.24414775621669
 30
0.0
  0
VERTEX
  5
8A
330
87
100
AcDbEntity
  8
_LAYER_
 62
     7
100
AcDbVertex
100
AcDb2dVertex
 10
216.9648894647645
 20
-82.24400053499453
 30
0.0
  0
VERTEX
  5
8B
330
87
100
AcDbEntity
  8
_LAYER_
 62
     7
100
AcDbVertex
100
AcDb2dVertex
 10
213.9648673190792
 20
-82.24400053499453
 30
0.0
  0
VERTEX
  5
8C
330
87
100
AcDbEntity
  8
_LAYER_
 62
     7
100
AcDbVertex
100
AcDb2dVertex
 10
213.9648673190792
 20
-86.24414775621669
 30
0.0
  0
SEQEND
  5
8D
330
87
100
AcDbEntity
  8
_LAYER_
 62
     7
  0
POLYLINE
  5
8E
330
1F
100
AcDbEntity
  8
_LAYER_
 62
     7
100
AcDb2dPolyline
 66
     1
 10
0.0
 20
0.0
 30
0.0
  0
VERTEX
  5
8F
330
8E
100
AcDbEntity
  8
_LAYER_
 62
     7
100
AcDbVertex
100
AcDb2dVertex
 10
231.6877168669317
 20
-67.52117276089764
 30
0.0
  0
VERTEX
  5
90
330
8E
100
AcDbEntity
  8
_LAYER_
 62
     7
100
AcDbVertex
100
AcDb2dVertex
 10
235.6878639871017
 20
-67.52117276089764
 30
0.0
  0
VERTEX
  5
91
330
8E
100
AcDbEntity
  8
_LAYER_
 62
     7
100
AcDbVertex
100
AcDb2dVertex
 10
235.6878639871017
 20
-64.52115053942514
 30
0.0
  0
VERTEX
  5
92
330
8E
100
AcDbEntity
  8
_LAYER_
 62
     7
100
AcDbVertex
100
AcDb2dVertex
 10
231.6877168669317
 20
-64.52115053942514
 30
0.0
  0
VERTEX
  5
93
330
8E
100
AcDbEntity
  8
_LAYER_
 62
     7
100
AcDbVertex
100
AcDb2dVertex
 10
231.6877168669317
 20
-67.52117276089764
 30
0.0
  0
SEQEND
  5
94
330
8E
100
AcDbEntity
  8
_LAYER_
 62
     7
  0
POLYLINE
  5
95
330
1F
100
AcDbEntity
  8
_LAYER_
 62
     7
100
AcDb2dPolyline
 66
     1
 10
0.0
 20
0.0
 30
0.0
  0
VERTEX
  5
96
330
95
100
AcDbEntity
  8
_LAYER_
 62
     7
100
AcDbVertex
100
AcDb2dVertex
 10
235.6878639871017
 20
-229.518139387065
 30
0.0
  0
VERTEX
  5
97
330
95
100
AcDbEntity
  8
_LAYER_
 62
     7
100
AcDbVertex
100
AcDb2dVertex
 10
231.6877168669317
 20
-229.518139387065
 30
0.0
  0
VERTEX
  5
98
330
95
100
AcDbEntity
  8
_LAYER_
 62
     7
100
AcDbVertex
100
AcDb2dVertex
 10
231.6877168669317
 20
-232.5181616085368
 30
0.0
  0
VERTEX
  5
99
330
95
100
AcDbEntity
  8
_LAYER_
 62
     7
100
AcDbVertex
100
AcDb2dVertex
 10
235.6878639871017
 20
-232.5181616085368
 30
0.0
  0
VERTEX
  5
9A
330
95
100
AcDbEntity
  8
_LAYER_
 62
     7
100
AcDbVertex
100
AcDb2dVertex
 10
235.6878639871017
 20
-229.518139387065
 30
0.0
  0
SEQEND
  5
9B
330
95
100
AcDbEntity
  8
_LAYER_
 62
     7
  0
POLYLINE
  5
9C
330
1F
100
AcDbEntity
  8
_LAYER_
 62
     7
100
AcDb2dPolyline
 66
     1
 10
0.0
 20
0.0
 30
0.0
  0
VERTEX
  5
9D
330
9C
100
AcDbEntity
  8
_LAYER_
 62
     7
100
AcDbVertex
100
AcDb2dVertex
 10
213.9648673190792
 20
-214.7921366129686
 30
0.0
  0
VERTEX
  5
9E
330
9C
100
AcDbEntity
  8
_LAYER_
 62
     7
100
AcDbVertex
100
AcDb2dVertex
 10
216.9648894647645
 20
-214.7921366129686
 30
0.0
  0
VERTEX
  5
9F
330
9C
100
AcDbEntity
  8
_LAYER_
 62
     7
100
AcDbVertex
100
AcDb2dVertex
 10
216.9648894647645
 20
-210.7919893917464
 30
0.0
  0
VERTEX
  5
A0
330
9C
100
AcDbEntity
  8
_LAYER_
 62
     7
100
AcDbVertex
100
AcDb2dVertex
 10
213.9648673190792
 20
-210.7919893917464
 30
0.0
  0
VERTEX
  5
A1
330
9C
100
AcDbEntity
  8
_LAYER_
 62
     7
100
AcDbVertex
100
AcDb2dVertex
 10
213.9648673190792
 20
-214.7921366129686
 30
0.0
  0
SEQEND
  5
A2
330
9C
100
AcDbEntity
  8
_LAYER_
 62
     7
  0
SPLINE
  5
A3
330
1F
100
AcDbEntity
  8
_LAYER_
 62
     7
100
AcDbSpline
210
0.0
220
0.0
230
1.0
 70
    11
 71
     3
 72
    17
 73
    13
 74
     0
 42
0.0000000001
 43
0.0000000001
 12
1.0
 22
0.0
 32
0.0
 13
1.0
 23
0.0
 33
0.0
 40
0.0
 40
0.0
 40
0.0
 40
0.0
 40
1.0
 40
1.0
 40
1.0
 40
2.0
 40
2.0
 40
2.0
 40
3.0
 40
3.0
 40
3.0
 40
4.0
 40
4.0
 40
4.0
 40
4.0
 10
224.4646978845396
 20
-223.5180243885649
 30
0.0
 10
224.4646978845396
 20
-222.6897021665498
 30
0.0
 10
223.7933617905557
 20
-222.0180132778287
 30
0.0
 10
222.9646868116969
 20
-222.0180132778287
 30
0.0
 10
222.136364610607
 20
-222.0180132778287
 30
0.0
 10
221.4646757388543
 20
-222.6897021665498
 30
0.0
 10
221.4646757388543
 20
-223.5180243885649
 30
0.0
 10
221.4646757388543
 20
-224.3466993883578
 30
0.0
 10
222.136364610607
 20
-225.0180354993012
 30
0.0
 10
222.9646868116969
 20
-225.0180354993012
 30
0.0
 10
223.7933617905557
 20
-225.0180354993012
 30
0.0
 10
224.4646978845396
 20
-224.3466993883578
 30
0.0
 10
224.4646978845396
 20
-223.5180243885649
 30
0.0
  0
POLYLINE
  5
A4
330
1F
100
AcDbEntity
  8
_LAYER_
 62
     7
100
AcDb2dPolyline
 66
     1
 10
0.0
 20
0.0
 30
0.0
  0
VERTEX
  5
A5
330
A4
100
AcDbEntity
  8
_LAYER_
 62
     7
100
AcDbVertex
100
AcDb2dVertex
 10
37.96460292033117
 20
-30.52081638125866
 30
0.0
  0
VERTEX
  5
A6
330
A4
100
AcDbEntity
  8
_LAYER_
 62
     7
100
AcDbVertex
100
AcDb2dVertex
 10
55.68745246818361
 20
-30.52081638125866
 30
0.0
  0
VERTEX
  5
A7
330
A4
100
AcDbEntity
  8
_LAYER_
 62
     7
100
AcDbVertex
100
AcDb2dVertex
 10
55.68745246818361
 20
-27.52079415978648
 30
0.0
  0
VERTEX
  5
A8
330
A4
100
AcDbEntity
  8
_LAYER_
 62
     7
100
AcDbVertex
100
AcDb2dVertex
 10
59.68759958835359
 20
-27.52079415978648
 30
0.0
  0
VERTEX
  5
A9
330
A4
100
AcDbEntity
  8
_LAYER_
 62
     7
100
AcDbVertex
100
AcDb2dVertex
 10
59.68759958835359
 20
-30.52081638125866
 30
0.0
  0
VERTEX
  5
AA
330
A4
100
AcDbEntity
  8
_LAYER_
 62
     7
100
AcDbVertex
100
AcDb2dVertex
 10
184.2382602996904
 20
-30.52081638125866
 30
0.0
  0
VERTEX
  5
AB
330
A4
100
AcDbEntity
  8
_LAYER_
 62
     7
100
AcDbVertex
100
AcDb2dVertex
 10
184.2382602996904
 20
-27.52079415978648
 30
0.0
  0
VERTEX
  5
AC
330
A4
100
AcDbEntity
  8
_LAYER_
 62
     7
100
AcDbVertex
100
AcDb2dVertex
 10
188.2384074198604
 20
-27.52079415978648
 30
0.0
  0
VERTEX
  5
AD
330
A4
100
AcDbEntity
  8
_LAYER_
 62
     7
100
AcDbVertex
100
AcDb2dVertex
 10
188.2384074198604
 20
-30.52081638125866
 30
0.0
  0
VERTEX
  5
AE
330
A4
100
AcDbEntity
  8
_LAYER_
 62
     7
100
AcDbVertex
100
AcDb2dVertex
 10
205.964079189863
 20
-30.52081638125866
 30
0.0
  0
VERTEX
  5
AF
330
A4
100
AcDbEntity
  8
_LAYER_
 62
     7
100
AcDbVertex
100
AcDb2dVertex
 10
205.964079189863
 20
-39.18750804575865
 30
0.0
  0
VERTEX
  5
B0
330
A4
100
AcDbEntity
  8
_LAYER_
 62
     7
100
AcDbVertex
100
AcDb2dVertex
 10
202.9640570441777
 20
-39.18750804575865
 30
0.0
  0
VERTEX
  5
B1
330
A4
100
AcDbEntity
  8
_LAYER_
 62
     7
100
AcDbVertex
100
AcDb2dVertex
 10
202.9640570441777
 20
-47.85419971025865
 30
0.0
  0
VERTEX
  5
B2
330
A4
100
AcDbEntity
  8
_LAYER_
 62
     7
100
AcDbVertex
100
AcDb2dVertex
 10
205.964079189863
 20
-47.85419971025865
 30
0.0
  0
VERTEX
  5
B3
330
A4
100
AcDbEntity
  8
_LAYER_
 62
     7
100
AcDbVertex
100
AcDb2dVertex
 10
205.964079189863
 20
-56.52089137475865
 30
0.0
  0
VERTEX
  5
B4
330
A4
100
AcDbEntity
  8
_LAYER_
 62
     7
100
AcDbVertex
100
AcDb2dVertex
 10
188.2384074198604
 20
-56.52089137475865
 30
0.0
  0
VERTEX
  5
B5
330
A4
100
AcDbEntity
  8
_LAYER_
 62
     7
100
AcDbVertex
100
AcDb2dVertex
 10
188.2384074198604
 20
-59.52091359623083
 30
0.0
  0
VERTEX
  5
B6
330
A4
100
AcDbEntity
  8
_LAYER_
 62
     7
100
AcDbVertex
100
AcDb2dVertex
 10
184.2382602996904
 20
-59.52091359623083
 30
0.0
  0
VERTEX
  5
B7
330
A4
100
AcDbEntity
  8
_LAYER_
 62
     7
100
AcDbVertex
100
AcDb2dVertex
 10
184.2382602996904
 20
-56.52089137475865
 30
0.0
  0
VERTEX
  5
B8
330
A4
100
AcDbEntity
  8
_LAYER_
 62
     7
100
AcDbVertex
100
AcDb2dVertex
 10
59.68759958835359
 20
-56.52089137475865
 30
0.0
  0
VERTEX
  5
B9
330
A4
100
AcDbEntity
  8
_LAYER_
 62
     7
100
AcDbVertex
100
AcDb2dVertex
 10
59.68759958835359
 20
-59.52091359623083
 30
0.0
  0
VERTEX
  5
BA
330
A4
100
AcDbEntity
  8
_LAYER_
 62
     7
100
AcDbVertex
100
AcDb2dVertex
 10
55.68745246818361
 20
-59.52091359623083
 30
0.0
  0
VERTEX
  5
BB
330
A4
100
AcDbEntity
  8
_LAYER_
 62
     7
100
AcDbVertex
100
AcDb2dVertex
 10
55.68745246818361
 20
-56.52089137475865
 30
0.0
  0
VERTEX
  5
BC
330
A4
100
AcDbEntity
  8
_LAYER_
 62
     7
100
AcDbVertex
100
AcDb2dVertex
 10
37.96460292033117
 20
-56.52089137475865
 30
0.0
  0
VERTEX
  5
BD
330
A4
100
AcDbEntity
  8
_LAYER_
 62
     7
100
AcDbVertex
100
AcDb2dVertex
 10
37.96460292033117
 20
-47.85419971025865
 30
0.0
  0
VERTEX
  5
BE
330
A4
100
AcDbEntity
  8
_LAYER_
 62
     7
100
AcDbVertex
100
AcDb2dVertex
 10
40.96462506601646
 20
-47.85419971025865
 30
0.0
  0
VERTEX
  5
BF
330
A4
100
AcDbEntity
  8
_LAYER_
 62
     7
100
AcDbVertex
100
AcDb2dVertex
 10
40.96462506601646
 20
-39.18750804575865
 30
0.0
  0
VERTEX
  5
C0
330
A4
100
AcDbEntity
  8
_LAYER_
 62
     7
100
AcDbVertex
100
AcDb2dVertex
 10
37.96460292033117
 20
-39.18750804575865
 30
0.0
  0
VERTEX
  5
C1
330
A4
100
AcDbEntity
  8
_LAYER_
 62
     7
100
AcDbVertex
100
AcDb2dVertex
 10
37.96460292033117
 20
-30.52081638125866
 30
0.0
  0
SEQEND
  5
C2
330
A4
100
AcDbEntity
  8
_LAYER_
 62
     7
  0
SPLINE
  5
C3
330
1F
100
AcDbEntity
  8
_LAYER_
 62
     7
100
AcDbSpline
210
0.0
220
0.0
230
1.0
 70
    11
 71
     3
 72
    17
 73
    13
 74
     0
 42
0.0000000001
 43
0.0000000001
 12
1.0
 22
0.0
 32
0.0
 13
1.0
 23
0.0
 33
0.0
 40
0.0
 40
0.0
 40
0.0
 40
0.0
 40
1.0
 40
1.0
 40
1.0
 40
2.0
 40
2.0
 40
2.0
 40
3.0
 40
3.0
 40
3.0
 40
4.0
 40
4.0
 40
4.0
 40
4.0
 10
85.99956475041276
 20
-34.27941665809684
 30
0.0
 10
83.79047036232701
 20
-34.27941665809684
 30
0.0
 10
81.99977040801157
 20
-36.07046943542694
 30
0.0
 10
81.99977040801157
 20
-38.27956387931901
 30
0.0
 10
81.99977040801157
 20
-40.4893638787666
 30
0.0
 10
83.79047036232701
 20
-42.27971110054117
 30
0.0
 10
85.99956475041276
 20
-42.27971110054117
 30
0.0
 10
88.20865913849852
 20
-42.27971110054117
 30
0.0
 10
89.99971187058273
 20
-40.4893638787666
 30
0.0
 10
89.99971187058273
 20
-38.27956387931901
 30
0.0
 10
89.99971187058273
 20
-36.07046943542694
 30
0.0
 10
88.20865913849852
 20
-34.27941665809684
 30
0.0
 10
85.99956475041276
 20
-34.27941665809684
 30
0.0
  0
SPLINE
  5
C4
330
1F
100
AcDbEntity
  8
_LAYER_
 62
     7
100
AcDbSpline
210
0.0
220
0.0
230
1.0
 70
    11
 71
     3
 72
    17
 73
    13
 74
     0
 42
0.0000000001
 43
0.0000000001
 12
1.0
 22
0.0
 32
0.0
 13
1.0
 23
0.0
 33
0.0
 40
0.0
 40
0.0
 40
0.0
 40
0.0
 40
1.0
 40
1.0
 40
1.0
 40
2.0
 40
2.0
 40
2.0
 40
3.0
 40
3.0
 40
3.0
 40
4.0
 40
4.0
 40
4.0
 40
4.0
 10
167.4531646168028
 20
-37.50436999062391
 30
0.0
 10
163.1729119482233
 20
-37.50436999062391
 30
0.0
 10
159.7033425922949
 20
-40.97393943420097
 30
0.0
 10
159.7033425922949
 20
-45.25419221090862
 30
0.0
 10
159.7033425922949
 20
-49.5351505431718
 30
0.0
 10
163.1729119482233
 20
-53.00471998674886
 30
0.0
 10
167.4531646168028
 20
-53.00471998674886
 30
0.0
 10
171.7334172853822
 20
-53.00471998674886
 30
0.0
 10
175.2033394190793
 20
-49.5351505431718
 30
0.0
 10
175.2033394190793
 20
-45.25419221090862
 30
0.0
 10
175.2033394190793
 20
-40.97393943420097
 30
0.0
 10
171.7334172853822
 20
-37.50436999062391
 30
0.0
 10
167.4531646168028
 20
-37.50436999062391
 30
0.0
  0
SPLINE
  5
C5
330
1F
100
AcDbEntity
  8
_LAYER_
 62
     7
100
AcDbSpline
210
0.0
220
0.0
230
1.0
 70
    11
 71
     3
 72
    29
 73
    25
 74
     0
 42
0.0000000001
 43
0.0000000001
 12
1.0
 22
0.0
 32
0.0
 13
1.0
 23
0.0
 33
0.0
 40
0.0
 40
0.0
 40
0.0
 40
0.0
 40
1.0
 40
1.0
 40
1.0
 40
2.0
 40
2.0
 40
2.0
 40
3.0
 40
3.0
 40
3.0
 40
4.0
 40
4.0
 40
4.0
 40
5.0
 40
5.0
 40
5.0
 40
6.0
 40
6.0
 40
6.0
 40
7.0
 40
7.0
 40
7.0
 40
8.0
 40
8.0
 40
8.0
 40
8.0
 10
64.96501389815997
 20
-41.38700693409773
 30
0.0
 10
68.63168019350441
 20
-41.38700693409773
 30
0.0
 10
72.29831121107198
 20
-41.38700693409773
 30
0.0
 10
75.9649775064164
 20
-41.38700693409773
 30
0.0
 10
76.24120249936932
 20
-41.38700693409773
 30
0.0
 10
76.46521638254315
 20
-41.16299304526477
 30
0.0
 10
76.46521638254315
 20
-40.88712082311146
 30
0.0
 10
76.46521638254315
 20
-38.22036776822263
 30
0.0
 10
76.46521638254315
 20
-35.5536147133338
 30
0.0
 10
76.46521638254315
 20
-32.88682638066713
 30
0.0
 10
76.46521638254315
 20
-32.61095415851383
 30
0.0
 10
76.24120249936932
 20
-32.38694026968118
 30
0.0
 10
75.9649775064164
 20
-32.38694026968118
 30
0.0
 10
72.29831121107198
 20
-32.38694026968118
 30
0.0
 10
68.63168019350441
 20
-32.38694026968118
 30
0.0
 10
64.96501389815997
 20
-32.38694026968118
 30
0.0
 10
64.68878890520706
 20
-32.38694026968118
 30
0.0
 10
64.46512779980202
 20
-32.61095415851383
 30
0.0
 10
64.46512779980202
 20
-32.88682638066713
 30
0.0
 10
64.46512779980202
 20
-35.5536147133338
 30
0.0
 10
64.46512779980202
 20
-38.22036776822263
 30
0.0
 10
64.46512779980202
 20
-40.88712082311146
 30
0.0
 10
64.46512779980202
 20
-41.16299304526477
 30
0.0
 10
64.68878890520706
 20
-41.38700693409773
 30
0.0
 10
64.96501389815997
 20
-41.38700693409773
 30
0.0
  0
POLYLINE
  5
C6
330
1F
100
AcDbEntity
  8
_LAYER_
 62
     7
100
AcDb2dPolyline
 66
     1
 10
0.0
 20
0.0
 30
0.0
  0
VERTEX
  5
C7
330
C6
100
AcDbEntity
  8
_LAYER_
 62
     7
100
AcDbVertex
100
AcDb2dVertex
 10
205.9647847454006
 20
-240.5179974398702
 30
0.0
  0
VERTEX
  5
C8
330
C6
100
AcDbEntity
  8
_LAYER_
 62
     7
100
AcDbVertex
100
AcDb2dVertex
 10
205.9647847454006
 20
-249.1846891043705
 30
0.0
  0
VERTEX
  5
C9
330
C6
100
AcDbEntity
  8
_LAYER_
 62
     7
100
AcDbVertex
100
AcDb2dVertex
 10
202.9647625997153
 20
-249.1846891043705
 30
0.0
  0
VERTEX
  5
CA
330
C6
100
AcDbEntity
  8
_LAYER_
 62
     7
100
AcDbVertex
100
AcDb2dVertex
 10
202.9647625997153
 20
-257.8513807688709
 30
0.0
  0
VERTEX
  5
CB
330
C6
100
AcDbEntity
  8
_LAYER_
 62
     7
100
AcDbVertex
100
AcDb2dVertex
 10
205.9647847454006
 20
-257.8513807688709
 30
0.0
  0
VERTEX
  5
CC
330
C6
100
AcDbEntity
  8
_LAYER_
 62
     7
100
AcDbVertex
100
AcDb2dVertex
 10
205.9647847454006
 20
-266.5180724333705
 30
0.0
  0
VERTEX
  5
CD
330
C6
100
AcDbEntity
  8
_LAYER_
 62
     7
100
AcDbVertex
100
AcDb2dVertex
 10
188.2387601976291
 20
-266.5180724333705
 30
0.0
  0
VERTEX
  5
CE
330
C6
100
AcDbEntity
  8
_LAYER_
 62
     7
100
AcDbVertex
100
AcDb2dVertex
 10
188.2387601976291
 20
-269.518094654843
 30
0.0
  0
VERTEX
  5
CF
330
C6
100
AcDbEntity
  8
_LAYER_
 62
     7
100
AcDbVertex
100
AcDb2dVertex
 10
184.2389658552279
 20
-269.518094654843
 30
0.0
  0
VERTEX
  5
D0
330
C6
100
AcDbEntity
  8
_LAYER_
 62
     7
100
AcDbVertex
100
AcDb2dVertex
 10
184.2389658552279
 20
-266.5180724333705
 30
0.0
  0
VERTEX
  5
D1
330
C6
100
AcDbEntity
  8
_LAYER_
 62
     7
100
AcDbVertex
100
AcDb2dVertex
 10
59.68795236612236
 20
-266.5180724333705
 30
0.0
  0
VERTEX
  5
D2
330
C6
100
AcDbEntity
  8
_LAYER_
 62
     7
100
AcDbVertex
100
AcDb2dVertex
 10
59.68795236612236
 20
-269.518094654843
 30
0.0
  0
VERTEX
  5
D3
330
C6
100
AcDbEntity
  8
_LAYER_
 62
     7
100
AcDbVertex
100
AcDb2dVertex
 10
55.68815802372117
 20
-269.518094654843
 30
0.0
  0
VERTEX
  5
D4
330
C6
100
AcDbEntity
  8
_LAYER_
 62
     7
100
AcDbVertex
100
AcDb2dVertex
 10
55.68815802372117
 20
-266.5180724333705
 30
0.0
  0
VERTEX
  5
D5
330
C6
100
AcDbEntity
  8
_LAYER_
 62
     7
100
AcDbVertex
100
AcDb2dVertex
 10
37.96530847586873
 20
-266.5180724333705
 30
0.0
  0
VERTEX
  5
D6
330
C6
100
AcDbEntity
  8
_LAYER_
 62
     7
100
AcDbVertex
100
AcDb2dVertex
 10
37.96530847586873
 20
-257.8513807688709
 30
0.0
  0
VERTEX
  5
D7
330
C6
100
AcDbEntity
  8
_LAYER_
 62
     7
100
AcDbVertex
100
AcDb2dVertex
 10
40.96533062155401
 20
-257.8513807688709
 30
0.0
  0
VERTEX
  5
D8
330
C6
100
AcDbEntity
  8
_LAYER_
 62
     7
100
AcDbVertex
100
AcDb2dVertex
 10
40.96533062155401
 20
-249.1846891043705
 30
0.0
  0
VERTEX
  5
D9
330
C6
100
AcDbEntity
  8
_LAYER_
 62
     7
100
AcDbVertex
100
AcDb2dVertex
 10
37.96530847586873
 20
-249.1846891043705
 30
0.0
  0
VERTEX
  5
DA
330
C6
100
AcDbEntity
  8
_LAYER_
 62
     7
100
AcDbVertex
100
AcDb2dVertex
 10
37.96530847586873
 20
-240.5179974398702
 30
0.0
  0
VERTEX
  5
DB
330
C6
100
AcDbEntity
  8
_LAYER_
 62
     7
100
AcDbVertex
100
AcDb2dVertex
 10
55.68815802372117
 20
-240.5179974398702
 30
0.0
  0
VERTEX
  5
DC
330
C6
100
AcDbEntity
  8
_LAYER_
 62
     7
100
AcDbVertex
100
AcDb2dVertex
 10
55.68815802372117
 20
-237.5179752183983
 30
0.0
  0
VERTEX
  5
DD
330
C6
100
AcDbEntity
  8
_LAYER_
 62
     7
100
AcDbVertex
100
AcDb2dVertex
 10
59.68795236612236
 20
-237.5179752183983
 30
0.0
  0
VERTEX
  5
DE
330
C6
100
AcDbEntity
  8
_LAYER_
 62
     7
100
AcDbVertex
100
AcDb2dVertex
 10
59.68795236612236
 20
-240.5179974398702
 30
0.0
  0
VERTEX
  5
DF
330
C6
100
AcDbEntity
  8
_LAYER_
 62
     7
100
AcDbVertex
100
AcDb2dVertex
 10
184.2389658552279
 20
-240.5179974398702
 30
0.0
  0
VERTEX
  5
E0
330
C6
100
AcDbEntity
  8
_LAYER_
 62
     7
100
AcDbVertex
100
AcDb2dVertex
 10
184.2389658552279
 20
-237.5179752183983
 30
0.0
  0
VERTEX
  5
E1
330
C6
100
AcDbEntity
  8
_LAYER_
 62
     7
100
AcDbVertex
100
AcDb2dVertex
 10
188.2387601976291
 20
-237.5179752183983
 30
0.0
  0
VERTEX
  5
E2
330
C6
100
AcDbEntity
  8
_LAYER_
 62
     7
100
AcDbVertex
100
AcDb2dVertex
 10
188.2387601976291
 20
-240.5179974398702
 30
0.0
  0
VERTEX
  5
E3
330
C6
100
AcDbEntity
  8
_LAYER_
 62
     7
100
AcDbVertex
100
AcDb2dVertex
 10
205.9647847454006
 20
-240.5179974398702
 30
0.0
  0
SEQEND
  5
E4
330
C6
100
AcDbEntity
  8
_LAYER_
 62
     7
  0
SPLINE
  5
E5
330
1F
100
AcDbEntity
  8
_LAYER_
 62
     7
100
AcDbSpline
210
0.0
220
0.0
230
1.0
 70
    11
 71
     3
 72
    29
 73
    25
 74
     0
 42
0.0000000001
 43
0.0000000001
 12
1.0
 22
0.0
 32
0.0
 13
1.0
 23
0.0
 33
0.0
 40
0.0
 40
0.0
 40
0.0
 40
0.0
 40
1.0
 40
1.0
 40
1.0
 40
2.0
 40
2.0
 40
2.0
 40
3.0
 40
3.0
 40
3.0
 40
4.0
 40
4.0
 40
4.0
 40
5.0
 40
5.0
 40
5.0
 40
6.0
 40
6.0
 40
6.0
 40
7.0
 40
7.0
 40
7.0
 40
8.0
 40
8.0
 40
8.0
 40
8.0
 10
161.963452737287
 20
-193.5167438405098
 30
0.0
 10
135.2968712705115
 20
-193.5167438405098
 30
0.0
 10
108.6302586175001
 20
-193.5167438405098
 30
0.0
 10
81.96368331284232
 20
-193.5167438405098
 30
0.0
 10
79.20249164686619
 20
-193.5167438405098
 30
0.0
 10
76.96376386964793
 20
-191.2780160632919
 30
0.0
 10
76.96376386964793
 20
-188.5168243973151
 30
0.0
 10
76.96376386964793
 20
-161.8502463484263
 30
0.0
 10
76.96376386964793
 20
-135.1836682995374
 30
0.0
 10
76.96376386964793
 20
-108.5170549728707
 30
0.0
 10
76.96376386964793
 20
-105.7555105291168
 30
0.0
 10
79.20249164686619
 20
-103.5167827518985
 30
0.0
 10
81.96368331284232
 20
-103.5167827518985
 30
0.0
 10
108.6302586175001
 20
-103.5167827518985
 30
0.0
 10
135.2968712705115
 20
-103.5167827518985
 30
0.0
 10
161.963452737287
 20
-103.5167827518985
 30
0.0
 10
164.7249971810409
 20
-103.5171355296763
 30
0.0
 10
166.9633721804814
 20
-105.7555105291168
 30
0.0
 10
166.9633721804814
 20
-108.5170549728707
 30
0.0
 10
166.9633721804814
 20
-135.1836682995374
 30
0.0
 10
166.9633721804814
 20
-161.8502463484263
 30
0.0
 10
166.9633721804814
 20
-188.5168243973151
 30
0.0
 10
166.9633721804814
 20
-191.278368841069
 30
0.0
 10
164.7249971810409
 20
-193.5167438405098
 30
0.0
 10
161.963452737287
 20
-193.5167438405098
 30
0.0
  0
SPLINE
  5
E6
330
1F
100
AcDbEntity
  8
_LAYER_
 62
     7
100
AcDbSpline
210
0.0
220
0.0
230
1.0
 70
    11
 71
     3
 72
    17
 73
    13
 74
     0
 42
0.0000000001
 43
0.0000000001
 12
1.0
 22
0.0
 32
0.0
 13
1.0
 23
0.0
 33
0.0
 40
0.0
 40
0.0
 40
0.0
 40
0.0
 40
1.0
 40
1.0
 40
1.0
 40
2.0
 40
2.0
 40
2.0
 40
3.0
 40
3.0
 40
3.0
 40
4.0
 40
4.0
 40
4.0
 40
4.0
 10
48.46513904132907
 20
-73.52097025939744
 30
0.0
 10
48.46513904132907
 20
-72.69264803738233
 30
0.0
 10
47.7934501695764
 20
-72.02095914866152
 30
0.0
 10
46.96512796848643
 20
-72.02095914866152
 30
0.0
 10
46.13645298962769
 20
-72.02095914866152
 30
0.0
 10
45.46511689564379
 20
-72.69264803738233
 30
0.0
 10
45.46511689564379
 20
-73.52097025939744
 30
0.0
 10
45.46511689564379
 20
-74.34964525919034
 30
0.0
 10
46.13645298962769
 20
-75.0209813701337
 30
0.0
 10
46.96512796848643
 20
-75.0209813701337
 30
0.0
 10
47.7934501695764
 20
-75.0209813701337
 30
0.0
 10
48.46513904132907
 20
-74.34964525919034
 30
0.0
 10
48.46513904132907
 20
-73.52097025939744
 30
0.0
  0
SPLINE
  5
E7
330
1F
100
AcDbEntity
  8
_LAYER_
 62
     7
100
AcDbSpline
210
0.0
220
0.0
230
1.0
 70
    11
 71
     3
 72
    17
 73
    13
 74
     0
 42
0.0000000001
 43
0.0000000001
 12
1.0
 22
0.0
 32
0.0
 13
1.0
 23
0.0
 33
0.0
 40
0.0
 40
0.0
 40
0.0
 40
0.0
 40
1.0
 40
1.0
 40
1.0
 40
2.0
 40
2.0
 40
2.0
 40
3.0
 40
3.0
 40
3.0
 40
4.0
 40
4.0
 40
4.0
 40
4.0
 10
198.4645882700799
 20
-73.52097025939744
 30
0.0
 10
198.4645882700799
 20
-72.69264803738233
 30
0.0
 10
197.793252176096
 20
-72.02095914866152
 30
0.0
 10
196.9645771972372
 20
-72.02095914866152
 30
0.0
 10
196.1362549961473
 20
-72.02095914866152
 30
0.0
 10
195.4645661243946
 20
-72.69264803738233
 30
0.0
 10
195.4645661243946
 20
-73.52097025939744
 30
0.0
 10
195.4645661243946
 20
-74.34964525919034
 30
0.0
 10
196.1362549961473
 20
-75.0209813701337
 30
0.0
 10
196.9645771972372
 20
-75.0209813701337
 30
0.0
 10
197.793252176096
 20
-75.0209813701337
 30
0.0
 10
198.4645882700799
 20
-74.34964525919034
 30
0.0
 10
198.4645882700799
 20
-73.52097025939744
 30
0.0
  0
SPLINE
  5
E8
330
1F
100
AcDbEntity
  8
_LAYER_
 62
     7
100
AcDbSpline
210
0.0
220
0.0
230
1.0
 70
    11
 71
     3
 72
    17
 73
    13
 74
     0
 42
0.0000000001
 43
0.0000000001
 12
1.0
 22
0.0
 32
0.0
 13
1.0
 23
0.0
 33
0.0
 40
0.0
 40
0.0
 40
0.0
 40
0.0
 40
1.0
 40
1.0
 40
1.0
 40
2.0
 40
2.0
 40
2.0
 40
3.0
 40
3.0
 40
3.0
 40
4.0
 40
4.0
 40
4.0
 40
4.0
 10
198.4645882700799
 20
-223.5176716107872
 30
0.0
 10
198.4645882700799
 20
-222.689349388772
 30
0.0
 10
197.793252176096
 20
-222.0176605000509
 30
0.0
 10
196.9645771972372
 20
-222.0176605000509
 30
0.0
 10
196.1362549961473
 20
-222.0176605000509
 30
0.0
 10
195.4645661243946
 20
-222.689349388772
 30
0.0
 10
195.4645661243946
 20
-223.5176716107872
 30
0.0
 10
195.4645661243946
 20
-224.3463466105801
 30
0.0
 10
196.1362549961473
 20
-225.0176827215234
 30
0.0
 10
196.9645771972372
 20
-225.0176827215234
 30
0.0
 10
197.793252176096
 20
-225.0176827215234
 30
0.0
 10
198.4645882700799
 20
-224.3463466105801
 30
0.0
 10
198.4645882700799
 20
-223.5176716107872
 30
0.0
  0
SPLINE
  5
E9
330
1F
100
AcDbEntity
  8
_LAYER_
 62
     7
100
AcDbSpline
210
0.0
220
0.0
230
1.0
 70
    11
 71
     3
 72
    17
 73
    13
 74
     0
 42
0.0000000001
 43
0.0000000001
 12
1.0
 22
0.0
 32
0.0
 13
1.0
 23
0.0
 33
0.0
 40
0.0
 40
0.0
 40
0.0
 40
0.0
 40
1.0
 40
1.0
 40
1.0
 40
2.0
 40
2.0
 40
2.0
 40
3.0
 40
3.0
 40
3.0
 40
4.0
 40
4.0
 40
4.0
 40
4.0
 10
48.46513904132907
 20
-223.5176716107872
 30
0.0
 10
48.46513904132907
 20
-222.689349388772
 30
0.0
 10
47.7934501695764
 20
-222.0176605000509
 30
0.0
 10
46.96512796848643
 20
-222.0176605000509
 30
0.0
 10
46.13645298962769
 20
-222.0176605000509
 30
0.0
 10
45.46511689564379
 20
-222.689349388772
 30
0.0
 10
45.46511689564379
 20
-223.5176716107872
 30
0.0
 10
45.46511689564379
 20
-224.3463466105801
 30
0.0
 10
46.13645298962769
 20
-225.0176827215234
 30
0.0
 10
46.96512796848643
 20
-225.0176827215234
 30
0.0
 10
47.7934501695764
 20
-225.0176827215234
 30
0.0
 10
48.46513904132907
 20
-224.3463466105801
 30
0.0
 10
48.46513904132907
 20
-223.5176716107872
 30
0.0
  0
POLYLINE
  5
EA
330
1F
100
AcDbEntity
  8
_LAYER_
 62
     7
100
AcDb2dPolyline
 66
     1
 10
0.0
 20
0.0
 30
0.0
  0
VERTEX
  5
EB
330
EA
100
AcDbEntity
  8
_LAYER_
 62
     7
100
AcDbVertex
100
AcDb2dVertex
 10
205.9644319676318
 20
-210.7919893917464
 30
0.0
  0
VERTEX
  5
EC
330
EA
100
AcDbEntity
  8
_LAYER_
 62
     7
100
AcDbVertex
100
AcDb2dVertex
 10
202.9644098219465
 20
-210.7919893917464
 30
0.0
  0
VERTEX
  5
ED
330
EA
100
AcDbEntity
  8
_LAYER_
 62
     7
100
AcDbVertex
100
AcDb2dVertex
 10
202.9644098219465
 20
-214.7921366129686
 30
0.0
  0
VERTEX
  5
EE
330
EA
100
AcDbEntity
  8
_LAYER_
 62
     7
100
AcDbVertex
100
AcDb2dVertex
 10
205.9644319676318
 20
-214.7921366129686
 30
0.0
  0
VERTEX
  5
EF
330
EA
100
AcDbEntity
  8
_LAYER_
 62
     7
100
AcDbVertex
100
AcDb2dVertex
 10
205.9644319676318
 20
-210.7919893917464
 30
0.0
  0
SEQEND
  5
F0
330
EA
100
AcDbEntity
  8
_LAYER_
 62
     7
  0
POLYLINE
  5
F1
330
1F
100
AcDbEntity
  8
_LAYER_
 62
     7
100
AcDb2dPolyline
 66
     1
 10
0.0
 20
0.0
 30
0.0
  0
VERTEX
  5
F2
330
F1
100
AcDbEntity
  8
_LAYER_
 62
     7
100
AcDbVertex
100
AcDb2dVertex
 10
188.2387601976291
 20
-229.5177866092872
 30
0.0
  0
VERTEX
  5
F3
330
F1
100
AcDbEntity
  8
_LAYER_
 62
     7
100
AcDbVertex
100
AcDb2dVertex
 10
184.2386130774592
 20
-229.5177866092872
 30
0.0
  0
VERTEX
  5
F4
330
F1
100
AcDbEntity
  8
_LAYER_
 62
     7
100
AcDbVertex
100
AcDb2dVertex
 10
184.2386130774592
 20
-232.5178088307597
 30
0.0
  0
VERTEX
  5
F5
330
F1
100
AcDbEntity
  8
_LAYER_
 62
     7
100
AcDbVertex
100
AcDb2dVertex
 10
188.2387601976291
 20
-232.5178088307597
 30
0.0
  0
VERTEX
  5
F6
330
F1
100
AcDbEntity
  8
_LAYER_
 62
     7
100
AcDbVertex
100
AcDb2dVertex
 10
188.2387601976291
 20
-229.5177866092872
 30
0.0
  0
SEQEND
  5
F7
330
F1
100
AcDbEntity
  8
_LAYER_
 62
     7
  0
POLYLINE
  5
F8
330
1F
100
AcDbEntity
  8
_LAYER_
 62
     7
100
AcDb2dPolyline
 66
     1
 10
0.0
 20
0.0
 30
0.0
  0
VERTEX
  5
F9
330
F8
100
AcDbEntity
  8
_LAYER_
 62
     7
100
AcDbVertex
100
AcDb2dVertex
 10
59.68795236612236
 20
-229.5177866092872
 30
0.0
  0
VERTEX
  5
FA
330
F8
100
AcDbEntity
  8
_LAYER_
 62
     7
100
AcDbVertex
100
AcDb2dVertex
 10
55.68815802372117
 20
-229.5177866092872
 30
0.0
  0
VERTEX
  5
FB
330
F8
100
AcDbEntity
  8
_LAYER_
 62
     7
100
AcDbVertex
100
AcDb2dVertex
 10
55.68815802372117
 20
-232.5178088307597
 30
0.0
  0
VERTEX
  5
FC
330
F8
100
AcDbEntity
  8
_LAYER_
 62
     7
100
AcDbVertex
100
AcDb2dVertex
 10
59.68795236612236
 20
-232.5178088307597
 30
0.0
  0
VERTEX
  5
FD
330
F8
100
AcDbEntity
  8
_LAYER_
 62
     7
100
AcDbVertex
100
AcDb2dVertex
 10
59.68795236612236
 20
-229.5177866092872
 30
0.0
  0
SEQEND
  5
FE
330
F8
100
AcDbEntity
  8
_LAYER_
 62
     7
  0
POLYLINE
  5
FF
330
1F
100
AcDbEntity
  8
_LAYER_
 62
     7
100
AcDb2dPolyline
 66
     1
 10
0.0
 20
0.0
 30
0.0
  0
VERTEX
  5
100
330
FF
100
AcDbEntity
  8
_LAYER_
 62
     7
100
AcDbVertex
100
AcDb2dVertex
 10
37.96530847586873
 20
-214.7917838351908
 30
0.0
  0
VERTEX
  5
101
330
FF
100
AcDbEntity
  8
_LAYER_
 62
     7
100
AcDbVertex
100
AcDb2dVertex
 10
40.96533062155401
 20
-214.7917838351908
 30
0.0
  0
VERTEX
  5
102
330
FF
100
AcDbEntity
  8
_LAYER_
 62
     7
100
AcDbVertex
100
AcDb2dVertex
 10
40.96533062155401
 20
-210.7916366139686
 30
0.0
  0
VERTEX
  5
103
330
FF
100
AcDbEntity
  8
_LAYER_
 62
     7
100
AcDbVertex
100
AcDb2dVertex
 10
37.96530847586873
 20
-210.7916366139686
 30
0.0
  0
VERTEX
  5
104
330
FF
100
AcDbEntity
  8
_LAYER_
 62
     7
100
AcDbVertex
100
AcDb2dVertex
 10
37.96530847586873
 20
-214.7917838351908
 30
0.0
  0
SEQEND
  5
105
330
FF
100
AcDbEntity
  8
_LAYER_
 62
     7
  0
POLYLINE
  5
106
330
1F
100
AcDbEntity
  8
_LAYER_
 62
     7
100
AcDb2dPolyline
 66
     1
 10
0.0
 20
0.0
 30
0.0
  0
VERTEX
  5
107
330
106
100
AcDbEntity
  8
_LAYER_
 62
     7
100
AcDbVertex
100
AcDb2dVertex
 10
205.9644319676318
 20
-82.24400053499453
 30
0.0
  0
VERTEX
  5
108
330
106
100
AcDbEntity
  8
_LAYER_
 62
     7
100
AcDbVertex
100
AcDb2dVertex
 10
202.9644098219465
 20
-82.24400053499453
 30
0.0
  0
VERTEX
  5
109
330
106
100
AcDbEntity
  8
_LAYER_
 62
     7
100
AcDbVertex
100
AcDb2dVertex
 10
202.9644098219465
 20
-86.24379497843893
 30
0.0
  0
VERTEX
  5
10A
330
106
100
AcDbEntity
  8
_LAYER_
 62
     7
100
AcDbVertex
100
AcDb2dVertex
 10
205.9644319676318
 20
-86.24379497843893
 30
0.0
  0
VERTEX
  5
10B
330
106
100
AcDbEntity
  8
_LAYER_
 62
     7
100
AcDbVertex
100
AcDb2dVertex
 10
205.9644319676318
 20
-82.24400053499453
 30
0.0
  0
SEQEND
  5
10C
330
106
100
AcDbEntity
  8
_LAYER_
 62
     7
  0
POLYLINE
  5
10D
330
1F
100
AcDbEntity
  8
_LAYER_
 62
     7
100
AcDb2dPolyline
 66
     1
 10
0.0
 20
0.0
 30
0.0
  0
VERTEX
  5
10E
330
10D
100
AcDbEntity
  8
_LAYER_
 62
     7
100
AcDbVertex
100
AcDb2dVertex
 10
184.2386130774592
 20
-67.52081998311988
 30
0.0
  0
VERTEX
  5
10F
330
10D
100
AcDbEntity
  8
_LAYER_
 62
     7
100
AcDbVertex
100
AcDb2dVertex
 10
188.2387601976291
 20
-67.52081998311988
 30
0.0
  0
VERTEX
  5
110
330
10D
100
AcDbEntity
  8
_LAYER_
 62
     7
100
AcDbVertex
100
AcDb2dVertex
 10
188.2387601976291
 20
-64.5207977616477
 30
0.0
  0
VERTEX
  5
111
330
10D
100
AcDbEntity
  8
_LAYER_
 62
     7
100
AcDbVertex
100
AcDb2dVertex
 10
184.2386130774592
 20
-64.5207977616477
 30
0.0
  0
VERTEX
  5
112
330
10D
100
AcDbEntity
  8
_LAYER_
 62
     7
100
AcDbVertex
100
AcDb2dVertex
 10
184.2386130774592
 20
-67.52081998311988
 30
0.0
  0
SEQEND
  5
113
330
10D
100
AcDbEntity
  8
_LAYER_
 62
     7
  0
SPLINE
  5
114
330
1F
100
AcDbEntity
  8
_LAYER_
 62
     7
100
AcDbSpline
210
0.0
220
0.0
230
1.0
 70
    11
 71
     3
 72
    86
 73
    82
 74
     0
 42
0.0000000001
 43
0.0000000001
 12
1.0
 22
0.0
 32
0.0
 13
1.0
 23
0.0
 33
0.0
 40
0.0
 40
0.0
 40
0.0
 40
0.0
 40
1.0
 40
1.0
 40
1.0
 40
2.0
 40
2.0
 40
2.0
 40
3.0
 40
3.0
 40
3.0
 40
4.0
 40
4.0
 40
4.0
 40
5.0
 40
5.0
 40
5.0
 40
6.0
 40
6.0
 40
6.0
 40
7.0
 40
7.0
 40
7.0
 40
8.0
 40
8.0
 40
8.0
 40
9.0
 40
9.0
 40
9.0
 40
10.0
 40
10.0
 40
10.0
 40
11.0
 40
11.0
 40
11.0
 40
12.0
 40
12.0
 40
12.0
 40
13.0
 40
13.0
 40
13.0
 40
14.0
 40
14.0
 40
14.0
 40
15.0
 40
15.0
 40
15.0
 40
16.0
 40
16.0
 40
16.0
 40
17.0
 40
17.0
 40
17.0
 40
18.0
 40
18.0
 40
18.0
 40
19.0
 40
19.0
 40
19.0
 40
20.0
 40
20.0
 40
20.0
 40
21.0
 40
21.0
 40
21.0
 40
22.0
 40
22.0
 40
22.0
 40
23.0
 40
23.0
 40
23.0
 40
24.0
 40
24.0
 40
24.0
 40
25.0
 40
25.0
 40
25.0
 40
26.0
 40
26.0
 40
26.0
 40
27.0
 40
27.0
 40
27.0
 40
27.0
 10
39.96506453596182
 20
-235.5179721633429
 30
0.0
 10
68.6070915830206
 20
-235.5179721633429
 30
0.0
 10
97.2491186300794
 20
-235.5179721633429
 30
0.0
 10
125.8911456771382
 20
-235.5179721633429
 30
0.0
 10
140.326917808851
 20
-235.5179721633429
 30
0.0
 10
154.7627252183406
 20
-235.5179721633429
 30
0.0
 10
169.1984973500534
 20
-235.5179721633429
 30
0.0
 10
176.4163304992445
 20
-235.5179721633429
 30
0.0
 10
183.6341636484355
 20
-235.5179721633429
 30
0.0
 10
190.8519967976266
 20
-235.5179721633429
 30
0.0
 10
194.4610192055528
 20
-235.5179721633429
 30
0.0
 10
198.0700768912558
 20
-235.5179721633429
 30
0.0
 10
201.679099299182
 20
-235.5179721633429
 30
0.0
 10
203.3928936999039
 20
-235.5179721633429
 30
0.0
 10
205.0019131032988
 20
-235.7793804966109
 30
0.0
 10
206.6402130615023
 20
-234.7418610524256
 30
0.0
 10
208.0897769134097
 20
-233.8235804970999
 30
0.0
 10
208.9646657799783
 20
-232.2336110530525
 30
0.0
 10
208.9646657799783
 20
-230.5176999423705
 30
0.0
 10
208.9646657799783
 20
-201.8761660606422
 30
0.0
 10
208.9646657799783
 20
-173.2345969011357
 30
0.0
 10
208.9646657799783
 20
-144.5930277416295
 30
0.0
 10
208.9646657799783
 20
-128.7314333011506
 30
0.0
 10
208.9646657799783
 20
-112.8698388606714
 30
0.0
 10
208.9646657799783
 20
-97.00824442019253
 30
0.0
 10
208.9646657799783
 20
-89.07744719995276
 30
0.0
 10
208.9646657799783
 20
-81.14664997971332
 30
0.0
 10
208.9646657799783
 20
-73.21585275947388
 30
0.0
 10
208.9646657799783
 20
-70.92491387115751
 30
0.0
 10
209.0433352224158
 20
-68.63503331617443
 30
0.0
 10
208.9614907800593
 20
-66.34268331674767
 30
0.0
 10
208.9491435581521
 20
-65.99449165016802
 30
0.0
 10
208.9015185593671
 20
-65.65653053914153
 30
0.0
 10
208.8179102281668
 20
-65.31821665033728
 30
0.0
 10
208.6309380107147
 20
-64.56433053941441
 30
0.0
 10
208.3134380188148
 20
-63.93391665068304
 30
0.0
 10
207.8181380314509
 20
-63.33525276194409
 30
0.0
 10
206.8670491668263
 20
-62.18449165112045
 30
0.0
 10
205.4577019805596
 20
-61.52091665128656
 30
0.0
 10
203.9647464630925
 20
-61.52091665128656
 30
0.0
 10
175.3227194160337
 20
-61.52091665128656
 30
0.0
 10
146.6806923689749
 20
-61.52091665128656
 30
0.0
 10
118.0386653219161
 20
-61.52091665128656
 30
0.0
 10
102.1767185043659
 20
-61.52091665128656
 30
0.0
 10
86.3147716868156
 20
-61.52091665128656
 30
0.0
 10
70.45282486926536
 20
-61.52091665128656
 30
0.0
 10
62.52202784937463
 20
-61.52091665128656
 30
0.0
 10
54.59123082948389
 20
-61.52091665128656
 30
0.0
 10
46.66043380959316
 20
-61.52091665128656
 30
0.0
 10
44.36914220138221
 20
-61.52091665128656
 30
0.0
 10
42.07961448201515
 20
-61.44259998463924
 30
0.0
 10
39.7869117627291
 20
-61.52409165128577
 30
0.0
 10
39.43872010494554
 20
-61.53643887350485
 30
0.0
 10
39.10075900245653
 20
-61.58371109571526
 30
0.0
 10
38.76244512219875
 20
-61.66767220680516
 30
0.0
 10
38.00855903032087
 20
-61.85464442898087
 30
0.0
 10
37.37814515751518
 20
-62.17249720667913
 30
0.0
 10
36.77948128389949
 20
-62.6674444287777
 30
0.0
 10
35.62872020214673
 20
-63.61888609520655
 30
0.0
 10
34.96514610236986
 20
-65.02788053929864
 30
0.0
 10
34.96514610236986
 20
-66.5211888722587
 30
0.0
 10
34.96514610236986
 20
-95.16275803176487
 30
0.0
 10
34.96514610236986
 20
-123.804327191271
 30
0.0
 10
34.96514610236986
 20
-152.4458610729994
 30
0.0
 10
34.96514610236986
 20
-168.3073496801457
 30
0.0
 10
34.96514610236986
 20
-184.1688382872914
 30
0.0
 10
34.96514610236986
 20
-200.0302916166589
 30
0.0
 10
34.96514610236986
 20
-207.9612299480097
 30
0.0
 10
34.96514610236986
 20
-215.8921330015824
 30
0.0
 10
34.96514610236986
 20
-223.8230360551556
 30
0.0
 10
34.96514610236986
 20
-226.1139749434713
 30
0.0
 10
34.8864766579451
 20
-228.4035027206767
 30
0.0
 10
34.96832110236907
 20
-230.6958527201041
 30
0.0
 10
34.98066832458815
 20
-231.0440443866834
 30
0.0
 10
35.02794054679856
 20
-231.3820054977102
 30
0.0
 10
35.11190165788878
 20
-231.7203193865141
 30
0.0
 10
35.29852021057084
 20
-232.4745582752148
 30
0.0
 10
35.61637298023951
 20
-233.1049721639461
 30
0.0
 10
36.11167296760336
 20
-233.7032832749076
 30
0.0
 10
37.06276183222795
 20
-234.8543971635084
 30
0.0
 10
38.47210901849473
 20
-235.5179721633429
 30
0.0
 10
39.96506453596182
 20
-235.5179721633429
 30
0.0
  0
POLYLINE
  5
115
330
1F
100
AcDbEntity
  8
_LAYER_
 62
     7
100
AcDb2dPolyline
 66
     1
 10
0.0
 20
0.0
 30
0.0
  0
VERTEX
  5
116
330
115
100
AcDbEntity
  8
_LAYER_
 62
     7
100
AcDbVertex
100
AcDb2dVertex
 10
37.96530847586873
 20
-86.24379497843893
 30
0.0
  0
VERTEX
  5
117
330
115
100
AcDbEntity
  8
_LAYER_
 62
     7
100
AcDbVertex
100
AcDb2dVertex
 10
40.96533062155401
 20
-86.24379497843893
 30
0.0
  0
VERTEX
  5
118
330
115
100
AcDbEntity
  8
_LAYER_
 62
     7
100
AcDbVertex
100
AcDb2dVertex
 10
40.96533062155401
 20
-82.24364775721676
 30
0.0
  0
VERTEX
  5
119
330
115
100
AcDbEntity
  8
_LAYER_
 62
     7
100
AcDbVertex
100
AcDb2dVertex
 10
37.96530847586873
 20
-82.24364775721676
 30
0.0
  0
VERTEX
  5
11A
330
115
100
AcDbEntity
  8
_LAYER_
 62
     7
100
AcDbVertex
100
AcDb2dVertex
 10
37.96530847586873
 20
-86.24379497843893
 30
0.0
  0
SEQEND
  5
11B
330
115
100
AcDbEntity
  8
_LAYER_
 62
     7
  0
POLYLINE
  5
11C
330
1F
100
AcDbEntity
  8
_LAYER_
 62
     7
100
AcDb2dPolyline
 66
     1
 10
0.0
 20
0.0
 30
0.0
  0
VERTEX
  5
11D
330
11C
100
AcDbEntity
  8
_LAYER_
 62
     7
100
AcDbVertex
100
AcDb2dVertex
 10
55.6878052459524
 20
-67.52081998311988
 30
0.0
  0
VERTEX
  5
11E
330
11C
100
AcDbEntity
  8
_LAYER_
 62
     7
100
AcDbVertex
100
AcDb2dVertex
 10
59.68759958835359
 20
-67.52081998311988
 30
0.0
  0
VERTEX
  5
11F
330
11C
100
AcDbEntity
  8
_LAYER_
 62
     7
100
AcDbVertex
100
AcDb2dVertex
 10
59.68759958835359
 20
-64.5207977616477
 30
0.0
  0
VERTEX
  5
120
330
11C
100
AcDbEntity
  8
_LAYER_
 62
     7
100
AcDbVertex
100
AcDb2dVertex
 10
55.6878052459524
 20
-64.5207977616477
 30
0.0
  0
VERTEX
  5
121
330
11C
100
AcDbEntity
  8
_LAYER_
 62
     7
100
AcDbVertex
100
AcDb2dVertex
 10
55.6878052459524
 20
-67.52081998311988
 30
0.0
  0
SEQEND
  5
122
330
11C
100
AcDbEntity
  8
_LAYER_
 62
     7
  0
SPLINE
  5
123
330
1F
100
AcDbEntity
  8
_LAYER_
 62
     7
100
AcDbSpline
210
0.0
220
0.0
230
1.0
 70
    11
 71
     3
 72
   134
 73
   130
 74
     0
 42
0.0000000001
 43
0.0000000001
 12
1.0
 22
0.0
 32
0.0
 13
1.0
 23
0.0
 33
0.0
 40
0.0
 40
0.0
 40
0.0
 40
0.0
 40
1.0
 40
1.0
 40
1.0
 40
2.0
 40
2.0
 40
2.0
 40
3.0
 40
3.0
 40
3.0
 40
4.0
 40
4.0
 40
4.0
 40
5.0
 40
5.0
 40
5.0
 40
6.0
 40
6.0
 40
6.0
 40
7.0
 40
7.0
 40
7.0
 40
8.0
 40
8.0
 40
8.0
 40
9.0
 40
9.0
 40
9.0
 40
10.0
 40
10.0
 40
10.0
 40
11.0
 40
11.0
 40
11.0
 40
12.0
 40
12.0
 40
12.0
 40
13.0
 40
13.0
 40
13.0
 40
14.0
 40
14.0
 40
14.0
 40
15.0
 40
15.0
 40
15.0
 40
16.0
 40
16.0
 40
16.0
 40
17.0
 40
17.0
 40
17.0
 40
18.0
 40
18.0
 40
18.0
 40
19.0
 40
19.0
 40
19.0
 40
20.0
 40
20.0
 40
20.0
 40
21.0
 40
21.0
 40
21.0
 40
22.0
 40
22.0
 40
22.0
 40
23.0
 40
23.0
 40
23.0
 40
24.0
 40
24.0
 40
24.0
 40
25.0
 40
25.0
 40
25.0
 40
26.0
 40
26.0
 40
26.0
 40
27.0
 40
27.0
 40
27.0
 40
28.0
 40
28.0
 40
28.0
 40
29.0
 40
29.0
 40
29.0
 40
30.0
 40
30.0
 40
30.0
 40
31.0
 40
31.0
 40
31.0
 40
32.0
 40
32.0
 40
32.0
 40
33.0
 40
33.0
 40
33.0
 40
34.0
 40
34.0
 40
34.0
 40
35.0
 40
35.0
 40
35.0
 40
36.0
 40
36.0
 40
36.0
 40
37.0
 40
37.0
 40
37.0
 40
38.0
 40
38.0
 40
38.0
 40
39.0
 40
39.0
 40
39.0
 40
40.0
 40
40.0
 40
40.0
 40
41.0
 40
41.0
 40
41.0
 40
42.0
 40
42.0
 40
42.0
 40
43.0
 40
43.0
 40
43.0
 40
43.0
 10
77.36536413735624
 20
-218.519868834259
 30
0.0
 10
77.36536413735624
 20
-219.2843382785122
 30
0.0
 10
77.09160858878477
 20
-220.557513278194
 30
0.0
 10
78.15205856173043
 20
-220.9466271669853
 30
0.0
 10
78.41664188831369
 20
-221.0436410558505
 30
0.0
 10
80.44511405878526
 20
-221.020004944745
 30
0.0
 10
80.70158349668664
 20
-221.020004944745
 30
0.0
 10
81.57223903002992
 20
-221.020004944745
 30
0.0
 10
82.4428945633732
 20
-221.020004944745
 30
0.0
 10
83.31355009671648
 20
-221.020004944745
 30
0.0
 10
83.74887786338812
 20
-221.020004944745
 30
0.0
 10
84.18420563005976
 20
-221.020004944745
 30
0.0
 10
84.6195333967314
 20
-221.020004944745
 30
0.0
 10
85.08837505143693
 20
-221.020004944745
 30
0.0
 10
85.532522262328
 20
-221.1244271669412
 30
0.0
 10
85.99183891727652
 20
-220.8436160559002
 30
0.0
 10
86.54816945863891
 20
-220.5028327226519
 30
0.0
 10
86.56545556930902
 20
-220.0593910560962
 30
0.0
 10
86.56545556930902
 20
-219.4967105006816
 30
0.0
 10
86.56545556930902
 20
-219.2743546674036
 30
0.0
 10
86.56545556930902
 20
-219.0519988341256
 30
0.0
 10
86.56545556930902
 20
-218.8296077230707
 30
0.0
 10
86.56545556930902
 20
-218.7597577230881
 30
0.0
 10
86.46844168289516
 20
-218.519868834259
 30
0.0
 10
86.60496667941212
 20
-218.519868834259
 30
0.0
 10
86.69764139927001
 20
-218.519868834259
 30
0.0
 10
86.79028084135102
 20
-218.519868834259
 30
0.0
 10
86.88295556120892
 20
-218.519868834259
 30
0.0
 10
86.92927528224942
 20
-218.519868834259
 30
0.0
 10
86.97563028106681
 20
-218.519868834259
 30
0.0
 10
87.02195000210732
 20
-218.519868834259
 30
0.0
 10
87.03348583514635
 20
-218.519868834259
 30
0.0
 10
87.0449863904085
 20
-218.519868834259
 30
0.0
 10
87.05652222344753
 20
-218.519868834259
 30
0.0
 10
87.05934444559774
 20
-218.519868834259
 30
0.0
 10
87.06534166766697
 20
-218.5251605009242
 30
0.0
 10
87.06534166766697
 20
-218.5195160564813
 30
0.0
 10
87.06534166766697
 20
-218.4500188342764
 30
0.0
 10
87.06534166766697
 20
-218.3805216120715
 30
0.0
 10
87.06534166766697
 20
-218.3110243898666
 30
0.0
 10
87.06534166766697
 20
-218.1721710565682
 30
0.0
 10
87.06534166766697
 20
-218.0332824454916
 30
0.0
 10
87.06534166766697
 20
-217.894393834415
 30
0.0
 10
87.06534166766697
 20
-217.3385571678873
 30
0.0
 10
87.06534166766697
 20
-216.782685223582
 30
0.0
 10
87.06534166766697
 20
-216.2268132792767
 30
0.0
 10
87.06534166766697
 20
-214.4531877241648
 30
0.0
 10
87.06534166766697
 20
-212.6795268912747
 30
0.0
 10
87.06534166766697
 20
-210.9058660583846
 30
0.0
 10
87.06534166766697
 20
-210.7931182806354
 30
0.0
 10
87.06534166766697
 20
-210.680335225108
 30
0.0
 10
87.06534166766697
 20
-210.5675521695806
 30
0.0
 10
87.06534166766697
 20
-210.5481493918076
 30
0.0
 10
87.0791000006493
 20
-210.5199271695924
 30
0.0
 10
87.04699722369054
 20
-210.5199271695924
 30
0.0
 10
87.03299194627006
 20
-210.5199271695924
 30
0.0
 10
87.01902194662647
 20
-210.5199271695924
 30
0.0
 10
87.00501666920599
 20
-210.5199271695924
 30
0.0
 10
86.97679444770378
 20
-210.5199271695924
 30
0.0
 10
86.94857222620156
 20
-210.5199271695924
 30
0.0
 10
86.92035000469934
 20
-210.5199271695924
 30
0.0
 10
86.86390556169492
 20
-210.5199271695924
 30
0.0
 10
86.8074611186905
 20
-210.5199271695924
 30
0.0
 10
86.75101667568607
 20
-210.5199271695924
 30
0.0
 10
86.6794027886242
 20
-210.5199271695924
 30
0.0
 10
86.56545556930902
 20
-210.5830743917989
 30
0.0
 10
86.56545556930902
 20
-210.4588966140519
 30
0.0
 10
86.56545556930902
 20
-210.3682327251858
 30
0.0
 10
86.56686668038412
 20
-210.2775688363197
 30
0.0
 10
86.56510279154024
 20
-210.1865521696759
 30
0.0
 10
86.55981112500858
 20
-209.9731216141732
 30
0.0
 10
86.51289168176115
 20
-209.7847382808871
 30
0.0
 10
86.41764168419117
 20
-209.5938855031573
 30
0.0
 10
86.1929222454798
 20
-209.1447993921581
 30
0.0
 10
85.90752503053866
 20
-208.9310160588783
 30
0.0
 10
85.41293059871238
 20
-208.8421160589004
 30
0.0
 10
85.04286671926461
 20
-208.7754410589176
 30
0.0
 10
84.67915283965483
 20
-208.8198910589059
 30
0.0
 10
84.31191118235728
 20
-208.8198910589059
 30
0.0
 10
83.95101952489773
 20
-208.8198910589059
 30
0.0
 10
83.59012786743817
 20
-208.8198910589059
 30
0.0
 10
83.22923620997862
 20
-208.8198910589059
 30
0.0
 10
82.36115595434741
 20
-208.8198910589059
 30
0.0
 10
81.49311097649309
 20
-208.8198910589059
 30
0.0
 10
80.62503072086189
 20
-208.8198910589059
 30
0.0
 10
80.1908671208272
 20
-208.8198910589059
 30
0.0
 10
79.75673879856942
 20
-208.8198910589059
 30
0.0
 10
79.32257519853474
 20
-208.8198910589059
 30
0.0
 10
78.84526687737855
 20
-208.8198910589059
 30
0.0
 10
78.40358911086891
 20
-208.7634466144756
 30
0.0
 10
77.96085301105293
 20
-209.0742438366206
 30
0.0
 10
77.62853635286437
 20
-209.3077827254505
 30
0.0
 10
77.45990857938865
 20
-209.5716605031628
 30
0.0
 10
77.38758913678923
 20
-209.9713577252851
 30
0.0
 10
77.35901413751824
 20
-210.1294021696901
 30
0.0
 10
77.36536413735624
 20
-210.2860355029841
 30
0.0
 10
77.36536413735624
 20
-210.4444327251669
 30
0.0
 10
77.36536413735624
 20
-210.6137660584578
 30
0.0
 10
77.20731969694384
 20
-210.5199271695924
 30
0.0
 10
77.11206969937388
 20
-210.5199271695924
 30
0.0
 10
77.04892247876266
 20
-210.5199271695924
 30
0.0
 10
76.98577525815146
 20
-210.5199271695924
 30
0.0
 10
76.92262803754026
 20
-210.5199271695924
 30
0.0
 10
76.90675303794526
 20
-210.5199271695924
 30
0.0
 10
76.89087803835028
 20
-210.5199271695924
 30
0.0
 10
76.87500303875528
 20
-210.5199271695924
 30
0.0
 10
76.84043081741507
 20
-210.5199271695924
 30
0.0
 10
76.86547803899828
 20
-210.5534410584727
 30
0.0
 10
76.86547803899828
 20
-210.5717855029125
 30
0.0
 10
76.86547803899828
 20
-210.6664710584447
 30
0.0
 10
76.86547803899828
 20
-210.7611213361987
 30
0.0
 10
76.86547803899828
 20
-210.8557716139527
 30
0.0
 10
76.86547803899828
 20
-211.0454602250167
 30
0.0
 10
76.86547803899828
 20
-211.23514883608
 30
0.0
 10
76.86547803899828
 20
-211.4248021693658
 30
0.0
 10
76.86547803899828
 20
-212.1828157802879
 30
0.0
 10
76.86547803899828
 20
-212.9408293912095
 30
0.0
 10
76.86547803899828
 20
-213.6988077243528
 30
0.0
 10
76.86547803899828
 20
-214.7672657796415
 30
0.0
 10
76.86547803899828
 20
-215.8357238349302
 30
0.0
 10
76.86547803899828
 20
-216.9041466124408
 30
0.0
 10
76.86547803899828
 20
-217.4383932789739
 30
0.0
 10
76.86547803899828
 20
-217.9726046677288
 30
0.0
 10
76.86547803899828
 20
-218.5068160564844
 30
0.0
 10
76.86547803899828
 20
-218.5727855009123
 30
0.0
 10
76.93074192622215
 20
-218.519868834259
 30
0.0
 10
76.9646085920248
 20
-218.519868834259
 30
0.0
 10
77.0982055330609
 20
-218.519868834259
 30
0.0
 10
77.23176719632013
 20
-218.519868834259
 30
0.0
 10
77.36536413735624
 20
-218.519868834259
 30
0.0
  0
SPLINE
  5
124
330
1F
100
AcDbEntity
  8
_LAYER_
 62
     7
100
AcDbSpline
210
0.0
220
0.0
230
1.0
 70
    11
 71
     3
 72
   134
 73
   130
 74
     0
 42
0.0000000001
 43
0.0000000001
 12
1.0
 22
0.0
 32
0.0
 13
1.0
 23
0.0
 33
0.0
 40
0.0
 40
0.0
 40
0.0
 40
0.0
 40
1.0
 40
1.0
 40
1.0
 40
2.0
 40
2.0
 40
2.0
 40
3.0
 40
3.0
 40
3.0
 40
4.0
 40
4.0
 40
4.0
 40
5.0
 40
5.0
 40
5.0
 40
6.0
 40
6.0
 40
6.0
 40
7.0
 40
7.0
 40
7.0
 40
8.0
 40
8.0
 40
8.0
 40
9.0
 40
9.0
 40
9.0
 40
10.0
 40
10.0
 40
10.0
 40
11.0
 40
11.0
 40
11.0
 40
12.0
 40
12.0
 40
12.0
 40
13.0
 40
13.0
 40
13.0
 40
14.0
 40
14.0
 40
14.0
 40
15.0
 40
15.0
 40
15.0
 40
16.0
 40
16.0
 40
16.0
 40
17.0
 40
17.0
 40
17.0
 40
18.0
 40
18.0
 40
18.0
 40
19.0
 40
19.0
 40
19.0
 40
20.0
 40
20.0
 40
20.0
 40
21.0
 40
21.0
 40
21.0
 40
22.0
 40
22.0
 40
22.0
 40
23.0
 40
23.0
 40
23.0
 40
24.0
 40
24.0
 40
24.0
 40
25.0
 40
25.0
 40
25.0
 40
26.0
 40
26.0
 40
26.0
 40
27.0
 40
27.0
 40
27.0
 40
28.0
 40
28.0
 40
28.0
 40
29.0
 40
29.0
 40
29.0
 40
30.0
 40
30.0
 40
30.0
 40
31.0
 40
31.0
 40
31.0
 40
32.0
 40
32.0
 40
32.0
 40
33.0
 40
33.0
 40
33.0
 40
34.0
 40
34.0
 40
34.0
 40
35.0
 40
35.0
 40
35.0
 40
36.0
 40
36.0
 40
36.0
 40
37.0
 40
37.0
 40
37.0
 40
38.0
 40
38.0
 40
38.0
 40
39.0
 40
39.0
 40
39.0
 40
40.0
 40
40.0
 40
40.0
 40
41.0
 40
41.0
 40
41.0
 40
42.0
 40
42.0
 40
42.0
 40
43.0
 40
43.0
 40
43.0
 40
43.0
 10
93.35766234046983
 20
-218.5350382786996
 30
0.0
 10
93.35766234046983
 20
-219.2991549451749
 30
0.0
 10
93.08355401412959
 20
-220.5726827226345
 30
0.0
 10
94.14435676484403
 20
-220.9617966114265
 30
0.0
 10
94.40894009142728
 20
-221.0584577225133
 30
0.0
 10
96.43741226189887
 20
-221.0351743891855
 30
0.0
 10
96.69388169980023
 20
-221.0351743891855
 30
0.0
 10
97.56453723314351
 20
-221.0351743891855
 30
0.0
 10
98.4351927664868
 20
-221.0351743891855
 30
0.0
 10
99.30584829983007
 20
-221.0351743891855
 30
0.0
 10
99.74117606650172
 20
-221.0351743891855
 30
0.0
 10
100.1765038331734
 20
-221.0351743891855
 30
0.0
 10
100.611831599845
 20
-221.0351743891855
 30
0.0
 10
101.0806732545505
 20
-221.0351743891855
 30
0.0
 10
101.5248204654416
 20
-221.1395966113817
 30
0.0
 10
101.9841371203901
 20
-220.8587855003407
 30
0.0
 10
102.5404676617525
 20
-220.5180021670931
 30
0.0
 10
102.5577537724226
 20
-220.0745605005368
 30
0.0
 10
102.5577537724226
 20
-219.5118799451221
 30
0.0
 10
102.5577537724226
 20
-219.2895241118441
 30
0.0
 10
102.5577537724226
 20
-219.0671682785668
 30
0.0
 10
102.5577537724226
 20
-218.8447771675112
 30
0.0
 10
102.5577537724226
 20
-218.7749271675286
 30
0.0
 10
102.4607398860088
 20
-218.5350382786996
 30
0.0
 10
102.5972648825257
 20
-218.5350382786996
 30
0.0
 10
102.6899396023836
 20
-218.5350382786996
 30
0.0
 10
102.7825790444646
 20
-218.5350382786996
 30
0.0
 10
102.8752537643225
 20
-218.5350382786996
 30
0.0
 10
102.921573485363
 20
-218.5350382786996
 30
0.0
 10
102.9679284841804
 20
-218.5350382786996
 30
0.0
 10
103.0142482052209
 20
-218.5350382786996
 30
0.0
 10
103.0257840382599
 20
-218.5350382786996
 30
0.0
 10
103.0372845935221
 20
-218.5350382786996
 30
0.0
 10
103.0488204265611
 20
-218.5350382786996
 30
0.0
 10
103.0516426487114
 20
-218.5350382786996
 30
0.0
 10
103.0576398707806
 20
-218.5403299453647
 30
0.0
 10
103.0576398707806
 20
-218.534332723144
 30
0.0
 10
103.0576398707806
 20
-218.4648355009392
 30
0.0
 10
103.0576398707806
 20
-218.3953382787343
 30
0.0
 10
103.0576398707806
 20
-218.3258410565294
 30
0.0
 10
103.0576398707806
 20
-218.186987723231
 30
0.0
 10
103.0576398707806
 20
-218.0480991121544
 30
0.0
 10
103.0576398707806
 20
-217.9092105010784
 30
0.0
 10
103.0576398707806
 20
-217.3534796678839
 30
0.0
 10
103.0576398707806
 20
-216.7977488346893
 30
0.0
 10
103.0576398707806
 20
-216.2419827237173
 30
0.0
 10
103.0576398707806
 20
-214.4683571686053
 30
0.0
 10
103.0576398707806
 20
-212.6946963357152
 30
0.0
 10
103.0576398707806
 20
-210.9210355028251
 30
0.0
 10
103.0576398707806
 20
-210.8082877250759
 30
0.0
 10
103.0576398707806
 20
-210.6955046695485
 30
0.0
 10
103.0576398707806
 20
-210.5827216140212
 30
0.0
 10
103.0576398707806
 20
-210.5633188362481
 30
0.0
 10
103.0710454259941
 20
-210.535096614033
 30
0.0
 10
103.0392954268041
 20
-210.535096614033
 30
0.0
 10
103.0252901493837
 20
-210.535096614033
 30
0.0
 10
103.0113201497401
 20
-210.535096614033
 30
0.0
 10
102.9973148723196
 20
-210.535096614033
 30
0.0
 10
102.9690926508174
 20
-210.535096614033
 30
0.0
 10
102.9408704293152
 20
-210.535096614033
 30
0.0
 10
102.9126482078129
 20
-210.535096614033
 30
0.0
 10
102.8562037648085
 20
-210.535096614033
 30
0.0
 10
102.7997593218041
 20
-210.535096614033
 30
0.0
 10
102.7433148787997
 20
-210.535096614033
 30
0.0
 10
102.6717009917378
 20
-210.535096614033
 30
0.0
 10
102.5577537724226
 20
-210.5978910584617
 30
0.0
 10
102.5577537724226
 20
-210.4737132807147
 30
0.0
 10
102.5577537724226
 20
-210.3834021696264
 30
0.0
 10
102.5591648834977
 20
-210.2923855029825
 30
0.0
 10
102.5574009946538
 20
-210.2017216141165
 30
0.0
 10
102.5521093281222
 20
-209.9882910586138
 30
0.0
 10
102.5051898848747
 20
-209.7999077253276
 30
0.0
 10
102.4099398873048
 20
-209.6090549475979
 30
0.0
 10
102.1852204485934
 20
-209.1599688365986
 30
0.0
 10
101.8998232336523
 20
-208.9458327255411
 30
0.0
 10
101.405228801826
 20
-208.8569327255638
 30
0.0
 10
101.0351649223782
 20
-208.7906105033581
 30
0.0
 10
100.6714510427684
 20
-208.8350605033471
 30
0.0
 10
100.3042093854709
 20
-208.8350605033471
 30
0.0
 10
99.94331772801132
 20
-208.8350605033471
 30
0.0
 10
99.58242607055176
 20
-208.8350605033471
 30
0.0
 10
99.22153441309221
 20
-208.8350605033471
 30
0.0
 10
98.353454157461
 20
-208.8350605033471
 30
0.0
 10
97.48540917960668
 20
-208.8350605033471
 30
0.0
 10
96.61732892397548
 20
-208.8350605033471
 30
0.0
 10
96.1831653239408
 20
-208.8350605033471
 30
0.0
 10
95.749037001683
 20
-208.8350605033471
 30
0.0
 10
95.31487340164833
 20
-208.8350605033471
 30
0.0
 10
94.83756508049214
 20
-208.8350605033471
 30
0.0
 10
94.3958873139825
 20
-208.778263281139
 30
0.0
 10
93.95315121416654
 20
-209.0894132810611
 30
0.0
 10
93.62083455597796
 20
-209.3225993921139
 30
0.0
 10
93.45220678250224
 20
-209.5864771698256
 30
0.0
 10
93.37988733990282
 20
-209.9861743919478
 30
0.0
 10
93.35131234063184
 20
-210.1445716141306
 30
0.0
 10
93.35766234046983
 20
-210.3012049474247
 30
0.0
 10
93.35766234046983
 20
-210.4596021696075
 30
0.0
 10
93.35766234046983
 20
-210.6285827251205
 30
0.0
 10
93.19961790005743
 20
-210.535096614033
 30
0.0
 10
93.10436790248747
 20
-210.535096614033
 30
0.0
 10
93.04122068187627
 20
-210.535096614033
 30
0.0
 10
92.97807346126505
 20
-210.535096614033
 30
0.0
 10
92.91492624065386
 20
-210.535096614033
 30
0.0
 10
92.89905124105886
 20
-210.535096614033
 30
0.0
 10
92.88317624146387
 20
-210.535096614033
 30
0.0
 10
92.86730124186887
 20
-210.535096614033
 30
0.0
 10
92.83272902052866
 20
-210.535096614033
 30
0.0
 10
92.85777624211188
 20
-210.5686105029133
 30
0.0
 10
92.85777624211188
 20
-210.586954947353
 30
0.0
 10
92.85777624211188
 20
-210.6816405028852
 30
0.0
 10
92.85777624211188
 20
-210.7762907806392
 30
0.0
 10
92.85777624211188
 20
-210.8709410583932
 30
0.0
 10
92.85777624211188
 20
-211.060523836124
 30
0.0
 10
92.85777624211188
 20
-211.2500713360766
 30
0.0
 10
92.85777624211188
 20
-211.4396188360292
 30
0.0
 10
92.85777624211188
 20
-212.1977382802839
 30
0.0
 10
92.85777624211188
 20
-212.9558577245386
 30
0.0
 10
92.85777624211188
 20
-213.713977168794
 30
0.0
 10
92.85777624211188
 20
-214.782435224082
 30
0.0
 10
92.85777624211188
 20
-215.8508932793708
 30
0.0
 10
92.85777624211188
 20
-216.9193160568813
 30
0.0
 10
92.85777624211188
 20
-217.4535627234144
 30
0.0
 10
92.85777624211188
 20
-217.98777411217
 30
0.0
 10
92.85777624211188
 20
-218.521985500925
 30
0.0
 10
92.85777624211188
 20
-218.5879549453529
 30
0.0
 10
92.92304012933575
 20
-218.5350382786996
 30
0.0
 10
92.9569067951384
 20
-218.5350382786996
 30
0.0
 10
93.0905037361745
 20
-218.5350382786996
 30
0.0
 10
93.22406539943373
 20
-218.5350382786996
 30
0.0
 10
93.35766234046983
 20
-218.5350382786996
 30
0.0
  0
SPLINE
  5
125
330
1F
100
AcDbEntity
  8
_LAYER_
 62
     7
100
AcDbSpline
210
0.0
220
0.0
230
1.0
 70
    11
 71
     3
 72
   134
 73
   130
 74
     0
 42
0.0000000001
 43
0.0000000001
 12
1.0
 22
0.0
 32
0.0
 13
1.0
 23
0.0
 33
0.0
 40
0.0
 40
0.0
 40
0.0
 40
0.0
 40
1.0
 40
1.0
 40
1.0
 40
2.0
 40
2.0
 40
2.0
 40
3.0
 40
3.0
 40
3.0
 40
4.0
 40
4.0
 40
4.0
 40
5.0
 40
5.0
 40
5.0
 40
6.0
 40
6.0
 40
6.0
 40
7.0
 40
7.0
 40
7.0
 40
8.0
 40
8.0
 40
8.0
 40
9.0
 40
9.0
 40
9.0
 40
10.0
 40
10.0
 40
10.0
 40
11.0
 40
11.0
 40
11.0
 40
12.0
 40
12.0
 40
12.0
 40
13.0
 40
13.0
 40
13.0
 40
14.0
 40
14.0
 40
14.0
 40
15.0
 40
15.0
 40
15.0
 40
16.0
 40
16.0
 40
16.0
 40
17.0
 40
17.0
 40
17.0
 40
18.0
 40
18.0
 40
18.0
 40
19.0
 40
19.0
 40
19.0
 40
20.0
 40
20.0
 40
20.0
 40
21.0
 40
21.0
 40
21.0
 40
22.0
 40
22.0
 40
22.0
 40
23.0
 40
23.0
 40
23.0
 40
24.0
 40
24.0
 40
24.0
 40
25.0
 40
25.0
 40
25.0
 40
26.0
 40
26.0
 40
26.0
 40
27.0
 40
27.0
 40
27.0
 40
28.0
 40
28.0
 40
28.0
 40
29.0
 40
29.0
 40
29.0
 40
30.0
 40
30.0
 40
30.0
 40
31.0
 40
31.0
 40
31.0
 40
32.0
 40
32.0
 40
32.0
 40
33.0
 40
33.0
 40
33.0
 40
34.0
 40
34.0
 40
34.0
 40
35.0
 40
35.0
 40
35.0
 40
36.0
 40
36.0
 40
36.0
 40
37.0
 40
37.0
 40
37.0
 40
38.0
 40
38.0
 40
38.0
 40
39.0
 40
39.0
 40
39.0
 40
40.0
 40
40.0
 40
40.0
 40
41.0
 40
41.0
 40
41.0
 40
42.0
 40
42.0
 40
42.0
 40
43.0
 40
43.0
 40
43.0
 40
43.0
 10
109.404923319959
 20
-218.5202216120368
 30
0.0
 10
109.404923319959
 20
-219.2843382785122
 30
0.0
 10
109.1311677713875
 20
-220.5578660559718
 30
0.0
 10
110.1916177443332
 20
-220.9469799447631
 30
0.0
 10
110.4562010709164
 20
-221.0436410558505
 30
0.0
 10
112.484673241388
 20
-221.0203577225227
 30
0.0
 10
112.7411426792894
 20
-221.0203577225227
 30
0.0
 10
113.6117982126327
 20
-221.0203577225227
 30
0.0
 10
114.4824537459759
 20
-221.0203577225227
 30
0.0
 10
115.3531092793192
 20
-221.0203577225227
 30
0.0
 10
115.7884370459909
 20
-221.0203577225227
 30
0.0
 10
116.2237648126625
 20
-221.0203577225227
 30
0.0
 10
116.6590925793342
 20
-221.0203577225227
 30
0.0
 10
117.1279342340397
 20
-221.0203577225227
 30
0.0
 10
117.5720814449308
 20
-221.1247799447189
 30
0.0
 10
118.0313980998793
 20
-220.8439688336779
 30
0.0
 10
118.5877286412417
 20
-220.5031855004297
 30
0.0
 10
118.6050147519118
 20
-220.059743833874
 30
0.0
 10
118.6050147519118
 20
-219.4970632784593
 30
0.0
 10
118.6050147519118
 20
-219.2747074451813
 30
0.0
 10
118.6050147519118
 20
-219.0523516119033
 30
0.0
 10
118.6050147519118
 20
-218.8299605008478
 30
0.0
 10
118.6050147519118
 20
-218.7601105008658
 30
0.0
 10
118.5080008654979
 20
-218.5202216120368
 30
0.0
 10
118.6445258620149
 20
-218.5202216120368
 30
0.0
 10
118.7372005818728
 20
-218.5202216120368
 30
0.0
 10
118.8298400239538
 20
-218.5202216120368
 30
0.0
 10
118.9225147438117
 20
-218.5202216120368
 30
0.0
 10
118.9688344648522
 20
-218.5202216120368
 30
0.0
 10
119.0151894636696
 20
-218.5202216120368
 30
0.0
 10
119.0615091847101
 20
-218.5202216120368
 30
0.0
 10
119.0731508510797
 20
-218.5202216120368
 30
0.0
 10
119.0847925174494
 20
-218.5202216120368
 30
0.0
 10
119.0964341838191
 20
-218.5202216120368
 30
0.0
 10
119.0989036282005
 20
-218.5202216120368
 30
0.0
 10
119.1049008502697
 20
-218.5255132787019
 30
0.0
 10
119.1049008502697
 20
-218.5195160564813
 30
0.0
 10
119.1049008502697
 20
-218.4500188342764
 30
0.0
 10
119.1049008502697
 20
-218.3805216120715
 30
0.0
 10
119.1049008502697
 20
-218.3110243898666
 30
0.0
 10
119.1049008502697
 20
-218.1721710565682
 30
0.0
 10
119.1049008502697
 20
-218.0332824454916
 30
0.0
 10
119.1049008502697
 20
-217.894393834415
 30
0.0
 10
119.1049008502697
 20
-217.3386630012211
 30
0.0
 10
119.1049008502697
 20
-216.7829321680266
 30
0.0
 10
119.1049008502697
 20
-216.2271660570545
 30
0.0
 10
119.1049008502697
 20
-214.4535405019419
 30
0.0
 10
119.1049008502697
 20
-212.6798796690524
 30
0.0
 10
119.1049008502697
 20
-210.9062188361623
 30
0.0
 10
119.1049008502697
 20
-210.7934710584125
 30
0.0
 10
119.1049008502697
 20
-210.6806880028851
 30
0.0
 10
119.1049008502697
 20
-210.5679049473578
 30
0.0
 10
119.1049008502697
 20
-210.5485021695854
 30
0.0
 10
119.118659183252
 20
-210.5202799473702
 30
0.0
 10
119.0865564062933
 20
-210.5202799473702
 30
0.0
 10
119.0725511288728
 20
-210.5202799473702
 30
0.0
 10
119.0585811292292
 20
-210.5202799473702
 30
0.0
 10
119.0445758518087
 20
-210.5202799473702
 30
0.0
 10
119.0163536303065
 20
-210.5202799473702
 30
0.0
 10
118.9881314088043
 20
-210.5202799473702
 30
0.0
 10
118.9599091873021
 20
-210.5202799473702
 30
0.0
 10
118.9034647442977
 20
-210.5202799473702
 30
0.0
 10
118.8470203012932
 20
-210.5202799473702
 30
0.0
 10
118.7905758582888
 20
-210.5202799473702
 30
0.0
 10
118.7193147489957
 20
-210.5202799473702
 30
0.0
 10
118.6050147519118
 20
-210.5830743917989
 30
0.0
 10
118.6050147519118
 20
-210.4588966140519
 30
0.0
 10
118.6050147519118
 20
-210.3685855029636
 30
0.0
 10
118.6064258629869
 20
-210.2775688363197
 30
0.0
 10
118.604661974143
 20
-210.186904947453
 30
0.0
 10
118.5993703076113
 20
-209.973474391951
 30
0.0
 10
118.5524508643639
 20
-209.7850910586649
 30
0.0
 10
118.4572008667939
 20
-209.5942382809351
 30
0.0
 10
118.2324814280826
 20
-209.1451521699359
 30
0.0
 10
117.9470842131414
 20
-208.9310160588783
 30
0.0
 10
117.4524897813151
 20
-208.8421160589004
 30
0.0
 10
117.0824259018674
 20
-208.7757938366947
 30
0.0
 10
116.7187120222576
 20
-208.8202438366837
 30
0.0
 10
116.35147036496
 20
-208.8202438366837
 30
0.0
 10
115.9905787075005
 20
-208.8202438366837
 30
0.0
 10
115.6296870500409
 20
-208.8202438366837
 30
0.0
 10
115.2687953925814
 20
-208.8202438366837
 30
0.0
 10
114.4007151369502
 20
-208.8202438366837
 30
0.0
 10
113.5326701590958
 20
-208.8202438366837
 30
0.0
 10
112.6645899034646
 20
-208.8202438366837
 30
0.0
 10
112.23042630343
 20
-208.8202438366837
 30
0.0
 10
111.7962979811722
 20
-208.8202438366837
 30
0.0
 10
111.3621343811375
 20
-208.8202438366837
 30
0.0
 10
110.8848260599813
 20
-208.8202438366837
 30
0.0
 10
110.4431482934717
 20
-208.7634466144756
 30
0.0
 10
110.0004121936557
 20
-209.0745966143983
 30
0.0
 10
109.6680955354671
 20
-209.3077827254505
 30
0.0
 10
109.4994677619914
 20
-209.5720132809406
 30
0.0
 10
109.427148319392
 20
-209.9713577252851
 30
0.0
 10
109.398573320121
 20
-210.1297549474679
 30
0.0
 10
109.404923319959
 20
-210.2863882807619
 30
0.0
 10
109.404923319959
 20
-210.4447855029447
 30
0.0
 10
109.404923319959
 20
-210.6141188362355
 30
0.0
 10
109.2468788795466
 20
-210.5202799473702
 30
0.0
 10
109.1516288819766
 20
-210.5202799473702
 30
0.0
 10
109.0884816613654
 20
-210.5202799473702
 30
0.0
 10
109.0253344407542
 20
-210.5202799473702
 30
0.0
 10
108.962187220143
 20
-210.5202799473702
 30
0.0
 10
108.946312220548
 20
-210.5202799473702
 30
0.0
 10
108.930437220953
 20
-210.5202799473702
 30
0.0
 10
108.914562221358
 20
-210.5202799473702
 30
0.0
 10
108.8799900000178
 20
-210.5202799473702
 30
0.0
 10
108.905037221601
 20
-210.5537938362505
 30
0.0
 10
108.905037221601
 20
-210.5721382806902
 30
0.0
 10
108.905037221601
 20
-210.6668238362224
 30
0.0
 10
108.905037221601
 20
-210.7614741139764
 30
0.0
 10
108.905037221601
 20
-210.8561243917305
 30
0.0
 10
108.905037221601
 20
-211.0457071694606
 30
0.0
 10
108.905037221601
 20
-211.2352546694132
 30
0.0
 10
108.905037221601
 20
-211.4248021693658
 30
0.0
 10
108.905037221601
 20
-212.1829216136211
 30
0.0
 10
108.905037221601
 20
-212.9410410578759
 30
0.0
 10
108.905037221601
 20
-213.6991605021306
 30
0.0
 10
108.905037221601
 20
-214.7676185574193
 30
0.0
 10
108.905037221601
 20
-215.836076612708
 30
0.0
 10
108.905037221601
 20
-216.9044993902185
 30
0.0
 10
108.905037221601
 20
-217.4387460567517
 30
0.0
 10
108.905037221601
 20
-217.9729574455066
 30
0.0
 10
108.905037221601
 20
-218.5071688342622
 30
0.0
 10
108.905037221601
 20
-218.5731382786901
 30
0.0
 10
108.9703011088249
 20
-218.5202216120368
 30
0.0
 10
109.0041677746276
 20
-218.5202216120368
 30
0.0
 10
109.1377647156636
 20
-218.5202216120368
 30
0.0
 10
109.2713263789229
 20
-218.5202216120368
 30
0.0
 10
109.404923319959
 20
-218.5202216120368
 30
0.0
  0
SPLINE
  5
126
330
1F
100
AcDbEntity
  8
_LAYER_
 62
     7
100
AcDbSpline
210
0.0
220
0.0
230
1.0
 70
    11
 71
     3
 72
   134
 73
   130
 74
     0
 42
0.0000000001
 43
0.0000000001
 12
1.0
 22
0.0
 32
0.0
 13
1.0
 23
0.0
 33
0.0
 40
0.0
 40
0.0
 40
0.0
 40
0.0
 40
1.0
 40
1.0
 40
1.0
 40
2.0
 40
2.0
 40
2.0
 40
3.0
 40
3.0
 40
3.0
 40
4.0
 40
4.0
 40
4.0
 40
5.0
 40
5.0
 40
5.0
 40
6.0
 40
6.0
 40
6.0
 40
7.0
 40
7.0
 40
7.0
 40
8.0
 40
8.0
 40
8.0
 40
9.0
 40
9.0
 40
9.0
 40
10.0
 40
10.0
 40
10.0
 40
11.0
 40
11.0
 40
11.0
 40
12.0
 40
12.0
 40
12.0
 40
13.0
 40
13.0
 40
13.0
 40
14.0
 40
14.0
 40
14.0
 40
15.0
 40
15.0
 40
15.0
 40
16.0
 40
16.0
 40
16.0
 40
17.0
 40
17.0
 40
17.0
 40
18.0
 40
18.0
 40
18.0
 40
19.0
 40
19.0
 40
19.0
 40
20.0
 40
20.0
 40
20.0
 40
21.0
 40
21.0
 40
21.0
 40
22.0
 40
22.0
 40
22.0
 40
23.0
 40
23.0
 40
23.0
 40
24.0
 40
24.0
 40
24.0
 40
25.0
 40
25.0
 40
25.0
 40
26.0
 40
26.0
 40
26.0
 40
27.0
 40
27.0
 40
27.0
 40
28.0
 40
28.0
 40
28.0
 40
29.0
 40
29.0
 40
29.0
 40
30.0
 40
30.0
 40
30.0
 40
31.0
 40
31.0
 40
31.0
 40
32.0
 40
32.0
 40
32.0
 40
33.0
 40
33.0
 40
33.0
 40
34.0
 40
34.0
 40
34.0
 40
35.0
 40
35.0
 40
35.0
 40
36.0
 40
36.0
 40
36.0
 40
37.0
 40
37.0
 40
37.0
 40
38.0
 40
38.0
 40
38.0
 40
39.0
 40
39.0
 40
39.0
 40
40.0
 40
40.0
 40
40.0
 40
41.0
 40
41.0
 40
41.0
 40
42.0
 40
42.0
 40
42.0
 40
43.0
 40
43.0
 40
43.0
 40
43.0
 10
125.4249498556985
 20
-218.5202216120368
 30
0.0
 10
125.4249498556985
 20
-219.2843382785122
 30
0.0
 10
125.151194307127
 20
-220.5578660559718
 30
0.0
 10
126.2119970578415
 20
-220.9469799447631
 30
0.0
 10
126.4765803844247
 20
-221.0436410558505
 30
0.0
 10
128.5046997771275
 20
-221.0203577225227
 30
0.0
 10
128.7611692150289
 20
-221.0203577225227
 30
0.0
 10
129.6318247483722
 20
-221.0203577225227
 30
0.0
 10
130.5024802817155
 20
-221.0203577225227
 30
0.0
 10
131.3731358150588
 20
-221.0203577225227
 30
0.0
 10
131.8084635817304
 20
-221.0203577225227
 30
0.0
 10
132.243791348402
 20
-221.0203577225227
 30
0.0
 10
132.6791191150737
 20
-221.0203577225227
 30
0.0
 10
133.1479607697792
 20
-221.0203577225227
 30
0.0
 10
133.592460758439
 20
-221.1247799447189
 30
0.0
 10
134.0514246356188
 20
-220.8436160559002
 30
0.0
 10
134.6077551769812
 20
-220.5031855004297
 30
0.0
 10
134.6250412876513
 20
-220.0593910560962
 30
0.0
 10
134.6250412876513
 20
-219.4967105006816
 30
0.0
 10
134.6250412876513
 20
-219.2743546674036
 30
0.0
 10
134.6250412876513
 20
-219.0519988341256
 30
0.0
 10
134.6250412876513
 20
-218.8296077230707
 30
0.0
 10
134.6250412876513
 20
-218.7597577230881
 30
0.0
 10
134.5283801790062
 20
-218.5202216120368
 30
0.0
 10
134.6649051755232
 20
-218.5202216120368
 30
0.0
 10
134.7574387842735
 20
-218.5202216120368
 30
0.0
 10
134.8500110773988
 20
-218.5202216120368
 30
0.0
 10
134.9425412795512
 20
-218.5202216120368
 30
0.0
 10
134.9888610005917
 20
-218.5202216120368
 30
0.0
 10
135.0352194106857
 20
-218.5202216120368
 30
0.0
 10
135.0815357204496
 20
-218.5202216120368
 30
0.0
 10
135.0931773868192
 20
-218.5202216120368
 30
0.0
 10
135.1048190531889
 20
-218.5202216120368
 30
0.0
 10
135.1164607195586
 20
-218.5202216120368
 30
0.0
 10
135.1192829417088
 20
-218.5202216120368
 30
0.0
 10
135.1249273860092
 20
-218.5255132787019
 30
0.0
 10
135.1249273860092
 20
-218.5195160564813
 30
0.0
 10
135.1249273860092
 20
-218.4500188342764
 30
0.0
 10
135.1249273860092
 20
-218.3805216120715
 30
0.0
 10
135.1249273860092
 20
-218.3110243898666
 30
0.0
 10
135.1249273860092
 20
-218.1721710565682
 30
0.0
 10
135.1249273860092
 20
-218.0332824454916
 30
0.0
 10
135.1249273860092
 20
-217.894393834415
 30
0.0
 10
135.1249273860092
 20
-217.3386630012211
 30
0.0
 10
135.1249273860092
 20
-216.7829321680266
 30
0.0
 10
135.1249273860092
 20
-216.2271660570545
 30
0.0
 10
135.1249273860092
 20
-214.4533993908312
 30
0.0
 10
135.1249273860092
 20
-212.6796327246079
 30
0.0
 10
135.1249273860092
 20
-210.9058660583846
 30
0.0
 10
135.1249273860092
 20
-210.7931182806354
 30
0.0
 10
135.1249273860092
 20
-210.680335225108
 30
0.0
 10
135.1249273860092
 20
-210.5675521695806
 30
0.0
 10
135.1249273860092
 20
-210.5485021695854
 30
0.0
 10
135.1386857189916
 20
-210.5199271695924
 30
0.0
 10
135.1069357198016
 20
-210.5199271695924
 30
0.0
 10
135.0928246090505
 20
-210.5199271695924
 30
0.0
 10
135.0787134982994
 20
-210.5199271695924
 30
0.0
 10
135.0646023875483
 20
-210.5199271695924
 30
0.0
 10
135.036380166046
 20
-210.5199271695924
 30
0.0
 10
135.0081579445438
 20
-210.5199271695924
 30
0.0
 10
134.9799357230416
 20
-210.5199271695924
 30
0.0
 10
134.9234912800372
 20
-210.5199271695924
 30
0.0
 10
134.8670468370328
 20
-210.5199271695924
 30
0.0
 10
134.8106023940283
 20
-210.5199271695924
 30
0.0
 10
134.7393412847352
 20
-210.5199271695924
 30
0.0
 10
134.6250412876513
 20
-210.5830743917989
 30
0.0
 10
134.6250412876513
 20
-210.4588966140519
 30
0.0
 10
134.6250412876513
 20
-210.3685855029636
 30
0.0
 10
134.6268051764952
 20
-210.2775688363197
 30
0.0
 10
134.6246885098825
 20
-210.1865521696759
 30
0.0
 10
134.6193968433508
 20
-209.973474391951
 30
0.0
 10
134.5724774001034
 20
-209.7847382808871
 30
0.0
 10
134.4772274025334
 20
-209.5942382809351
 30
0.0
 10
134.2528607415908
 20
-209.1451521699359
 30
0.0
 10
133.9671107488809
 20
-208.9310160588783
 30
0.0
 10
133.4725163170546
 20
-208.8421160589004
 30
0.0
 10
133.1024524376069
 20
-208.7757938366947
 30
0.0
 10
132.7387385579971
 20
-208.8202438366837
 30
0.0
 10
132.3714969006996
 20
-208.8202438366837
 30
0.0
 10
132.0107110765706
 20
-208.8202438366837
 30
0.0
 10
131.6499638559763
 20
-208.8202438366837
 30
0.0
 10
131.2891747060897
 20
-208.8202438366837
 30
0.0
 10
130.4209886171278
 20
-208.8202438366837
 30
0.0
 10
129.552802528166
 20
-208.8202438366837
 30
0.0
 10
128.6846164392041
 20
-208.8202438366837
 30
0.0
 10
128.2504528391695
 20
-208.8202438366837
 30
0.0
 10
127.8163277458238
 20
-208.8202438366837
 30
0.0
 10
127.382160916877
 20
-208.8202438366837
 30
0.0
 10
126.9048525957208
 20
-208.8202438366837
 30
0.0
 10
126.46352760698
 20
-208.7634466144756
 30
0.0
 10
126.0204387293952
 20
-209.0745966143983
 30
0.0
 10
125.6881220712066
 20
-209.3077827254505
 30
0.0
 10
125.5194942977309
 20
-209.5716605031628
 30
0.0
 10
125.4471748551315
 20
-209.9713577252851
 30
0.0
 10
125.4185998558605
 20
-210.1294021696901
 30
0.0
 10
125.4249498556985
 20
-210.2863882807619
 30
0.0
 10
125.4249498556985
 20
-210.4447855029447
 30
0.0
 10
125.4249498556985
 20
-210.6137660584578
 30
0.0
 10
125.2669054152861
 20
-210.5199271695924
 30
0.0
 10
125.1716554177161
 20
-210.5199271695924
 30
0.0
 10
125.1085081971049
 20
-210.5199271695924
 30
0.0
 10
125.0453609764937
 20
-210.5199271695924
 30
0.0
 10
124.9822137558825
 20
-210.5199271695924
 30
0.0
 10
124.9663387562875
 20
-210.5199271695924
 30
0.0
 10
124.9504637566925
 20
-210.5199271695924
 30
0.0
 10
124.9345887570975
 20
-210.5199271695924
 30
0.0
 10
124.9003693135261
 20
-210.5199271695924
 30
0.0
 10
124.9250637573406
 20
-210.5537938362505
 30
0.0
 10
124.9250637573406
 20
-210.5717855029125
 30
0.0
 10
124.9250637573406
 20
-210.6665768917779
 30
0.0
 10
124.9250637573406
 20
-210.7613682806432
 30
0.0
 10
124.9250637573406
 20
-210.8561243917305
 30
0.0
 10
124.9250637573406
 20
-211.0457071694606
 30
0.0
 10
124.9250637573406
 20
-211.2352546694132
 30
0.0
 10
124.9250637573406
 20
-211.4248021693658
 30
0.0
 10
124.9250637573406
 20
-212.1829216136211
 30
0.0
 10
124.9250637573406
 20
-212.9410410578759
 30
0.0
 10
124.9250637573406
 20
-213.6991605021306
 30
0.0
 10
124.9250637573406
 20
-214.7676185574193
 30
0.0
 10
124.9250637573406
 20
-215.836076612708
 30
0.0
 10
124.9250637573406
 20
-216.9044993902185
 30
0.0
 10
124.9250637573406
 20
-217.4387460567517
 30
0.0
 10
124.9250637573406
 20
-217.9729574455066
 30
0.0
 10
124.9250637573406
 20
-218.5071688342622
 30
0.0
 10
124.9250637573406
 20
-218.5731382786901
 30
0.0
 10
124.9903276445644
 20
-218.5202216120368
 30
0.0
 10
125.0241943103671
 20
-218.5202216120368
 30
0.0
 10
125.1577944131551
 20
-218.5202216120368
 30
0.0
 10
125.2913529146624
 20
-218.5202216120368
 30
0.0
 10
125.4249498556985
 20
-218.5202216120368
 30
0.0
  0
SPLINE
  5
127
330
1F
100
AcDbEntity
  8
_LAYER_
 62
     7
100
AcDbSpline
210
0.0
220
0.0
230
1.0
 70
    11
 71
     3
 72
   134
 73
   130
 74
     0
 42
0.0000000001
 43
0.0000000001
 12
1.0
 22
0.0
 32
0.0
 13
1.0
 23
0.0
 33
0.0
 40
0.0
 40
0.0
 40
0.0
 40
0.0
 40
1.0
 40
1.0
 40
1.0
 40
2.0
 40
2.0
 40
2.0
 40
3.0
 40
3.0
 40
3.0
 40
4.0
 40
4.0
 40
4.0
 40
5.0
 40
5.0
 40
5.0
 40
6.0
 40
6.0
 40
6.0
 40
7.0
 40
7.0
 40
7.0
 40
8.0
 40
8.0
 40
8.0
 40
9.0
 40
9.0
 40
9.0
 40
10.0
 40
10.0
 40
10.0
 40
11.0
 40
11.0
 40
11.0
 40
12.0
 40
12.0
 40
12.0
 40
13.0
 40
13.0
 40
13.0
 40
14.0
 40
14.0
 40
14.0
 40
15.0
 40
15.0
 40
15.0
 40
16.0
 40
16.0
 40
16.0
 40
17.0
 40
17.0
 40
17.0
 40
18.0
 40
18.0
 40
18.0
 40
19.0
 40
19.0
 40
19.0
 40
20.0
 40
20.0
 40
20.0
 40
21.0
 40
21.0
 40
21.0
 40
22.0
 40
22.0
 40
22.0
 40
23.0
 40
23.0
 40
23.0
 40
24.0
 40
24.0
 40
24.0
 40
25.0
 40
25.0
 40
25.0
 40
26.0
 40
26.0
 40
26.0
 40
27.0
 40
27.0
 40
27.0
 40
28.0
 40
28.0
 40
28.0
 40
29.0
 40
29.0
 40
29.0
 40
30.0
 40
30.0
 40
30.0
 40
31.0
 40
31.0
 40
31.0
 40
32.0
 40
32.0
 40
32.0
 40
33.0
 40
33.0
 40
33.0
 40
34.0
 40
34.0
 40
34.0
 40
35.0
 40
35.0
 40
35.0
 40
36.0
 40
36.0
 40
36.0
 40
37.0
 40
37.0
 40
37.0
 40
38.0
 40
38.0
 40
38.0
 40
39.0
 40
39.0
 40
39.0
 40
40.0
 40
40.0
 40
40.0
 40
41.0
 40
41.0
 40
41.0
 40
42.0
 40
42.0
 40
42.0
 40
43.0
 40
43.0
 40
43.0
 40
43.0
 10
141.4456819469756
 20
-218.519868834259
 30
0.0
 10
141.4456819469756
 20
-219.2843382785122
 30
0.0
 10
141.1719263984041
 20
-220.557513278194
 30
0.0
 10
142.2323763713498
 20
-220.9466271669853
 30
0.0
 10
142.496959697933
 20
-221.0436410558505
 30
0.0
 10
144.5254318684046
 20
-221.020004944745
 30
0.0
 10
144.781901306306
 20
-221.020004944745
 30
0.0
 10
145.6525568396493
 20
-221.020004944745
 30
0.0
 10
146.5232123729925
 20
-221.020004944745
 30
0.0
 10
147.3938679063358
 20
-221.020004944745
 30
0.0
 10
147.8291956730075
 20
-221.020004944745
 30
0.0
 10
148.2645234396791
 20
-221.020004944745
 30
0.0
 10
148.6998512063508
 20
-221.020004944745
 30
0.0
 10
149.1686928610563
 20
-221.020004944745
 30
0.0
 10
149.6128400719473
 20
-221.1244271669412
 30
0.0
 10
150.0721567268959
 20
-220.8436160559002
 30
0.0
 10
150.6284872682583
 20
-220.5028327226519
 30
0.0
 10
150.6457733789284
 20
-220.0593910560962
 30
0.0
 10
150.6457733789284
 20
-219.4967105006816
 30
0.0
 10
150.6457733789284
 20
-219.2743546674036
 30
0.0
 10
150.6457733789284
 20
-219.0519988341256
 30
0.0
 10
150.6457733789284
 20
-218.8296077230707
 30
0.0
 10
150.6457733789284
 20
-218.7597577230881
 30
0.0
 10
150.5487594925145
 20
-218.519868834259
 30
0.0
 10
150.6852844890315
 20
-218.519868834259
 30
0.0
 10
150.7779592088893
 20
-218.519868834259
 30
0.0
 10
150.8705986509704
 20
-218.519868834259
 30
0.0
 10
150.9632733708283
 20
-218.519868834259
 30
0.0
 10
151.0095930918688
 20
-218.519868834259
 30
0.0
 10
151.0559480906861
 20
-218.519868834259
 30
0.0
 10
151.1022678117266
 20
-218.519868834259
 30
0.0
 10
151.1139094780963
 20
-218.519868834259
 30
0.0
 10
151.125551144466
 20
-218.519868834259
 30
0.0
 10
151.1371928108356
 20
-218.519868834259
 30
0.0
 10
151.1400150329859
 20
-218.519868834259
 30
0.0
 10
151.1456594772863
 20
-218.5251605009242
 30
0.0
 10
151.1456594772863
 20
-218.5195160564813
 30
0.0
 10
151.1456594772863
 20
-218.4500188342764
 30
0.0
 10
151.1456594772863
 20
-218.3805216120715
 30
0.0
 10
151.1456594772863
 20
-218.3110243898666
 30
0.0
 10
151.1456594772863
 20
-218.1721710565682
 30
0.0
 10
151.1456594772863
 20
-218.0332824454916
 30
0.0
 10
151.1456594772863
 20
-217.894393834415
 30
0.0
 10
151.1456594772863
 20
-217.3385571678873
 30
0.0
 10
151.1456594772863
 20
-216.782685223582
 30
0.0
 10
151.1456594772863
 20
-216.2268132792767
 30
0.0
 10
151.1456594772863
 20
-214.4531877241648
 30
0.0
 10
151.1456594772863
 20
-212.6795268912747
 30
0.0
 10
151.1456594772863
 20
-210.9058660583846
 30
0.0
 10
151.1456594772863
 20
-210.7931182806354
 30
0.0
 10
151.1456594772863
 20
-210.680335225108
 30
0.0
 10
151.1456594772863
 20
-210.5675521695806
 30
0.0
 10
151.1456594772863
 20
-210.5481493918076
 30
0.0
 10
151.1594178102686
 20
-210.5199271695924
 30
0.0
 10
151.1276678110787
 20
-210.5199271695924
 30
0.0
 10
151.1135567003275
 20
-210.5199271695924
 30
0.0
 10
151.0994455895764
 20
-210.5199271695924
 30
0.0
 10
151.0853344788253
 20
-210.5199271695924
 30
0.0
 10
151.0571122573231
 20
-210.5199271695924
 30
0.0
 10
151.0288900358209
 20
-210.5199271695924
 30
0.0
 10
151.0006678143187
 20
-210.5199271695924
 30
0.0
 10
150.9442233713143
 20
-210.5199271695924
 30
0.0
 10
150.8877789283098
 20
-210.5199271695924
 30
0.0
 10
150.8313344853054
 20
-210.5199271695924
 30
0.0
 10
150.7600733760123
 20
-210.5199271695924
 30
0.0
 10
150.6457733789284
 20
-210.5830743917989
 30
0.0
 10
150.6457733789284
 20
-210.4588966140519
 30
0.0
 10
150.6457733789284
 20
-210.3682327251858
 30
0.0
 10
150.6475372677722
 20
-210.2775688363197
 30
0.0
 10
150.6454206011596
 20
-210.1865521696759
 30
0.0
 10
150.6401289346279
 20
-209.9731216141732
 30
0.0
 10
150.5932094913805
 20
-209.7847382808871
 30
0.0
 10
150.4979594938105
 20
-209.5938855031573
 30
0.0
 10
150.2732400550991
 20
-209.1447993921581
 30
0.0
 10
149.987842840158
 20
-208.9306632811005
 30
0.0
 10
149.4932484083317
 20
-208.8417632811226
 30
0.0
 10
149.1231845288839
 20
-208.7754410589176
 30
0.0
 10
148.7594706492742
 20
-208.8198910589059
 30
0.0
 10
148.3922289919766
 20
-208.8198910589059
 30
0.0
 10
148.0313373345171
 20
-208.8198910589059
 30
0.0
 10
147.6704456770575
 20
-208.8198910589059
 30
0.0
 10
147.309554019598
 20
-208.8198910589059
 30
0.0
 10
146.4414737639667
 20
-208.8198910589059
 30
0.0
 10
145.5734287861124
 20
-208.8198910589059
 30
0.0
 10
144.7053485304812
 20
-208.8198910589059
 30
0.0
 10
144.2711849304465
 20
-208.8198910589059
 30
0.0
 10
143.8370566081888
 20
-208.8198910589059
 30
0.0
 10
143.4028930081541
 20
-208.8198910589059
 30
0.0
 10
142.9255846869979
 20
-208.8198910589059
 30
0.0
 10
142.4839069204882
 20
-208.7634466144756
 30
0.0
 10
142.0411708206723
 20
-209.0742438366206
 30
0.0
 10
141.7088541624837
 20
-209.3077827254505
 30
0.0
 10
141.540226389008
 20
-209.5716605031628
 30
0.0
 10
141.4679069464086
 20
-209.9713577252851
 30
0.0
 10
141.4393319471376
 20
-210.1294021696901
 30
0.0
 10
141.4456819469756
 20
-210.2860355029841
 30
0.0
 10
141.4456819469756
 20
-210.4444327251669
 30
0.0
 10
141.4456819469756
 20
-210.6137660584578
 30
0.0
 10
141.2876375065632
 20
-210.5199271695924
 30
0.0
 10
141.1923875089932
 20
-210.5199271695924
 30
0.0
 10
141.129240288382
 20
-210.5199271695924
 30
0.0
 10
141.0660930677708
 20
-210.5199271695924
 30
0.0
 10
141.0029458471596
 20
-210.5199271695924
 30
0.0
 10
140.9870708475646
 20
-210.5199271695924
 30
0.0
 10
140.9711958479696
 20
-210.5199271695924
 30
0.0
 10
140.9553208483746
 20
-210.5199271695924
 30
0.0
 10
140.9211014048032
 20
-210.5199271695924
 30
0.0
 10
140.9457958486176
 20
-210.5534410584727
 30
0.0
 10
140.9457958486176
 20
-210.5717855029125
 30
0.0
 10
140.9457958486176
 20
-210.6664710584447
 30
0.0
 10
140.9457958486176
 20
-210.7611213361987
 30
0.0
 10
140.9457958486176
 20
-210.8557716139527
 30
0.0
 10
140.9457958486176
 20
-211.0454602250167
 30
0.0
 10
140.9457958486176
 20
-211.23514883608
 30
0.0
 10
140.9457958486176
 20
-211.4248021693658
 30
0.0
 10
140.9457958486176
 20
-212.1828157802879
 30
0.0
 10
140.9457958486176
 20
-212.9408293912095
 30
0.0
 10
140.9457958486176
 20
-213.6988077243528
 30
0.0
 10
140.9457958486176
 20
-214.7672657796415
 30
0.0
 10
140.9457958486176
 20
-215.8357238349302
 30
0.0
 10
140.9457958486176
 20
-216.9041466124408
 30
0.0
 10
140.9457958486176
 20
-217.4383932789739
 30
0.0
 10
140.9457958486176
 20
-217.9726046677288
 30
0.0
 10
140.9457958486176
 20
-218.5068160564844
 30
0.0
 10
140.9457958486176
 20
-218.5727855009123
 30
0.0
 10
141.0110597358415
 20
-218.519868834259
 30
0.0
 10
141.0449264016441
 20
-218.519868834259
 30
0.0
 10
141.1785233426803
 20
-218.519868834259
 30
0.0
 10
141.3120850059395
 20
-218.519868834259
 30
0.0
 10
141.4456819469756
 20
-218.519868834259
 30
0.0
  0
SPLINE
  5
128
330
1F
100
AcDbEntity
  8
_LAYER_
 62
     7
100
AcDbSpline
210
0.0
220
0.0
230
1.0
 70
    11
 71
     3
 72
   134
 73
   130
 74
     0
 42
0.0000000001
 43
0.0000000001
 12
1.0
 22
0.0
 32
0.0
 13
1.0
 23
0.0
 33
0.0
 40
0.0
 40
0.0
 40
0.0
 40
0.0
 40
1.0
 40
1.0
 40
1.0
 40
2.0
 40
2.0
 40
2.0
 40
3.0
 40
3.0
 40
3.0
 40
4.0
 40
4.0
 40
4.0
 40
5.0
 40
5.0
 40
5.0
 40
6.0
 40
6.0
 40
6.0
 40
7.0
 40
7.0
 40
7.0
 40
8.0
 40
8.0
 40
8.0
 40
9.0
 40
9.0
 40
9.0
 40
10.0
 40
10.0
 40
10.0
 40
11.0
 40
11.0
 40
11.0
 40
12.0
 40
12.0
 40
12.0
 40
13.0
 40
13.0
 40
13.0
 40
14.0
 40
14.0
 40
14.0
 40
15.0
 40
15.0
 40
15.0
 40
16.0
 40
16.0
 40
16.0
 40
17.0
 40
17.0
 40
17.0
 40
18.0
 40
18.0
 40
18.0
 40
19.0
 40
19.0
 40
19.0
 40
20.0
 40
20.0
 40
20.0
 40
21.0
 40
21.0
 40
21.0
 40
22.0
 40
22.0
 40
22.0
 40
23.0
 40
23.0
 40
23.0
 40
24.0
 40
24.0
 40
24.0
 40
25.0
 40
25.0
 40
25.0
 40
26.0
 40
26.0
 40
26.0
 40
27.0
 40
27.0
 40
27.0
 40
28.0
 40
28.0
 40
28.0
 40
29.0
 40
29.0
 40
29.0
 40
30.0
 40
30.0
 40
30.0
 40
31.0
 40
31.0
 40
31.0
 40
32.0
 40
32.0
 40
32.0
 40
33.0
 40
33.0
 40
33.0
 40
34.0
 40
34.0
 40
34.0
 40
35.0
 40
35.0
 40
35.0
 40
36.0
 40
36.0
 40
36.0
 40
37.0
 40
37.0
 40
37.0
 40
38.0
 40
38.0
 40
38.0
 40
39.0
 40
39.0
 40
39.0
 40
40.0
 40
40.0
 40
40.0
 40
41.0
 40
41.0
 40
41.0
 40
42.0
 40
42.0
 40
42.0
 40
43.0
 40
43.0
 40
43.0
 40
43.0
 10
157.4652145938388
 20
-218.5202216120368
 30
0.0
 10
157.4652145938388
 20
-219.2843382785122
 30
0.0
 10
157.1914590452673
 20
-220.5578660559718
 30
0.0
 10
158.2522617959818
 20
-220.9469799447631
 30
0.0
 10
158.516845122565
 20
-221.0436410558505
 30
0.0
 10
160.5449645152678
 20
-221.0203577225227
 30
0.0
 10
160.8014339531692
 20
-221.0203577225227
 30
0.0
 10
161.6720894865125
 20
-221.0203577225227
 30
0.0
 10
162.5427450198558
 20
-221.0203577225227
 30
0.0
 10
163.413400553199
 20
-221.0203577225227
 30
0.0
 10
163.8487283198707
 20
-221.0203577225227
 30
0.0
 10
164.2840560865423
 20
-221.0203577225227
 30
0.0
 10
164.719383853214
 20
-221.0203577225227
 30
0.0
 10
165.1882255079195
 20
-221.0203577225227
 30
0.0
 10
165.6327254965794
 20
-221.1247799447189
 30
0.0
 10
166.0916893737591
 20
-220.8436160559002
 30
0.0
 10
166.6480199151215
 20
-220.5031855004297
 30
0.0
 10
166.6653060257916
 20
-220.0593910560962
 30
0.0
 10
166.6653060257916
 20
-219.4967105006816
 30
0.0
 10
166.6653060257916
 20
-219.2744605007368
 30
0.0
 10
166.6653060257916
 20
-219.0522105007926
 30
0.0
 10
166.6653060257916
 20
-218.8299605008478
 30
0.0
 10
166.6653060257916
 20
-218.7597577230881
 30
0.0
 10
166.5682921393777
 20
-218.5202216120368
 30
0.0
 10
166.7048171358947
 20
-218.5202216120368
 30
0.0
 10
166.7974918557526
 20
-218.5202216120368
 30
0.0
 10
166.8901312978336
 20
-218.5202216120368
 30
0.0
 10
166.9828060176915
 20
-218.5202216120368
 30
0.0
 10
167.029125738732
 20
-218.5202216120368
 30
0.0
 10
167.0754807375494
 20
-218.5202216120368
 30
0.0
 10
167.1218004585899
 20
-218.5202216120368
 30
0.0
 10
167.1334421249595
 20
-218.5202216120368
 30
0.0
 10
167.1450837913292
 20
-218.5202216120368
 30
0.0
 10
167.1567254576989
 20
-218.5202216120368
 30
0.0
 10
167.1595476798491
 20
-218.5202216120368
 30
0.0
 10
167.1651921241495
 20
-218.5255132787019
 30
0.0
 10
167.1651921241495
 20
-218.5195160564813
 30
0.0
 10
167.1651921241495
 20
-218.4500188342764
 30
0.0
 10
167.1651921241495
 20
-218.3805216120715
 30
0.0
 10
167.1651921241495
 20
-218.3110243898666
 30
0.0
 10
167.1651921241495
 20
-218.1721710565682
 30
0.0
 10
167.1651921241495
 20
-218.0332824454916
 30
0.0
 10
167.1651921241495
 20
-217.894393834415
 30
0.0
 10
167.1651921241495
 20
-217.3386630012211
 30
0.0
 10
167.1651921241495
 20
-216.7829321680266
 30
0.0
 10
167.1651921241495
 20
-216.2271660570545
 30
0.0
 10
167.1651921241495
 20
-214.4533993908312
 30
0.0
 10
167.1651921241495
 20
-212.6796327246079
 30
0.0
 10
167.1651921241495
 20
-210.9058660583846
 30
0.0
 10
167.1651921241495
 20
-210.7931182806354
 30
0.0
 10
167.1651921241495
 20
-210.680335225108
 30
0.0
 10
167.1651921241495
 20
-210.5675521695806
 30
0.0
 10
167.1651921241495
 20
-210.5485021695854
 30
0.0
 10
167.1789504571319
 20
-210.5199271695924
 30
0.0
 10
167.1472004579419
 20
-210.5199271695924
 30
0.0
 10
167.1330893471908
 20
-210.5199271695924
 30
0.0
 10
167.1189782364397
 20
-210.5199271695924
 30
0.0
 10
167.1048671256886
 20
-210.5199271695924
 30
0.0
 10
167.0766449041863
 20
-210.5199271695924
 30
0.0
 10
167.0484226826841
 20
-210.5199271695924
 30
0.0
 10
167.0202004611819
 20
-210.5199271695924
 30
0.0
 10
166.9637560181775
 20
-210.5199271695924
 30
0.0
 10
166.9073115751731
 20
-210.5199271695924
 30
0.0
 10
166.8508671321686
 20
-210.5199271695924
 30
0.0
 10
166.7796060228756
 20
-210.5199271695924
 30
0.0
 10
166.6653060257916
 20
-210.5830743917989
 30
0.0
 10
166.6653060257916
 20
-210.4588966140519
 30
0.0
 10
166.6653060257916
 20
-210.3685855029636
 30
0.0
 10
166.6670699146355
 20
-210.2775688363197
 30
0.0
 10
166.6649532480228
 20
-210.186904947453
 30
0.0
 10
166.6596615814912
 20
-209.973474391951
 30
0.0
 10
166.6130949160125
 20
-209.7847382808871
 30
0.0
 10
166.5174921406737
 20
-209.5942382809351
 30
0.0
 10
166.2931254797311
 20
-209.1451521699359
 30
0.0
 10
166.0073754870212
 20
-208.9310160588783
 30
0.0
 10
165.5127810551949
 20
-208.8421160589004
 30
0.0
 10
165.1427171757472
 20
-208.7757938366947
 30
0.0
 10
164.7790032961374
 20
-208.8202438366837
 30
0.0
 10
164.4117616388398
 20
-208.8202438366837
 30
0.0
 10
164.0509758147109
 20
-208.8202438366837
 30
0.0
 10
163.6902252683589
 20
-208.8202438366837
 30
0.0
 10
163.32943944423
 20
-208.8202438366837
 30
0.0
 10
162.4612533552681
 20
-208.8202438366837
 30
0.0
 10
161.5930672663063
 20
-208.8202438366837
 30
0.0
 10
160.7248811773445
 20
-208.8202438366837
 30
0.0
 10
160.2907175773098
 20
-208.8202438366837
 30
0.0
 10
159.856589255052
 20
-208.8202438366837
 30
0.0
 10
159.4224256550173
 20
-208.8202438366837
 30
0.0
 10
158.9451173338611
 20
-208.8202438366837
 30
0.0
 10
158.5037923451202
 20
-208.7634466144756
 30
0.0
 10
158.0607034675355
 20
-209.0745966143983
 30
0.0
 10
157.7283868093469
 20
-209.3077827254505
 30
0.0
 10
157.5597590358712
 20
-209.5716605031628
 30
0.0
 10
157.4874395932718
 20
-209.9713577252851
 30
0.0
 10
157.4588645940008
 20
-210.1294021696901
 30
0.0
 10
157.4652145938388
 20
-210.2863882807619
 30
0.0
 10
157.4652145938388
 20
-210.4447855029447
 30
0.0
 10
157.4652145938388
 20
-210.6137660584578
 30
0.0
 10
157.3071701534264
 20
-210.5199271695924
 30
0.0
 10
157.2119201558564
 20
-210.5199271695924
 30
0.0
 10
157.1487729352452
 20
-210.5199271695924
 30
0.0
 10
157.085625714634
 20
-210.5199271695924
 30
0.0
 10
157.0224784940228
 20
-210.5199271695924
 30
0.0
 10
157.0066034944278
 20
-210.5199271695924
 30
0.0
 10
156.9907284948328
 20
-210.5199271695924
 30
0.0
 10
156.9748534952379
 20
-210.5199271695924
 30
0.0
 10
156.9406340516664
 20
-210.5199271695924
 30
0.0
 10
156.9653284954809
 20
-210.5537938362505
 30
0.0
 10
156.9653284954809
 20
-210.5717855029125
 30
0.0
 10
156.9653284954809
 20
-210.6665768917779
 30
0.0
 10
156.9653284954809
 20
-210.7613682806432
 30
0.0
 10
156.9653284954809
 20
-210.8561243917305
 30
0.0
 10
156.9653284954809
 20
-211.0457071694606
 30
0.0
 10
156.9653284954809
 20
-211.2352546694132
 30
0.0
 10
156.9653284954809
 20
-211.4248021693658
 30
0.0
 10
156.9653284954809
 20
-212.1829216136211
 30
0.0
 10
156.9653284954809
 20
-212.9410410578759
 30
0.0
 10
156.9653284954809
 20
-213.6991605021306
 30
0.0
 10
156.9653284954809
 20
-214.7676185574193
 30
0.0
 10
156.9653284954809
 20
-215.836076612708
 30
0.0
 10
156.9653284954809
 20
-216.9044993902185
 30
0.0
 10
156.9653284954809
 20
-217.4387460567517
 30
0.0
 10
156.9653284954809
 20
-217.9729574455066
 30
0.0
 10
156.9653284954809
 20
-218.5071688342622
 30
0.0
 10
156.9653284954809
 20
-218.5731382786901
 30
0.0
 10
157.0305923827047
 20
-218.5202216120368
 30
0.0
 10
157.0644590485074
 20
-218.5202216120368
 30
0.0
 10
157.1980559895435
 20
-218.5202216120368
 30
0.0
 10
157.3316176528027
 20
-218.5202216120368
 30
0.0
 10
157.4652145938388
 20
-218.5202216120368
 30
0.0
  0
SPLINE
  5
129
330
1F
100
AcDbEntity
  8
_LAYER_
 62
     7
100
AcDbSpline
210
0.0
220
0.0
230
1.0
 70
    11
 71
     3
 72
    65
 73
    61
 74
     0
 42
0.0000000001
 43
0.0000000001
 12
1.0
 22
0.0
 32
0.0
 13
1.0
 23
0.0
 33
0.0
 40
0.0
 40
0.0
 40
0.0
 40
0.0
 40
1.0
 40
1.0
 40
1.0
 40
2.0
 40
2.0
 40
2.0
 40
3.0
 40
3.0
 40
3.0
 40
4.0
 40
4.0
 40
4.0
 40
5.0
 40
5.0
 40
5.0
 40
6.0
 40
6.0
 40
6.0
 40
7.0
 40
7.0
 40
7.0
 40
8.0
 40
8.0
 40
8.0
 40
9.0
 40
9.0
 40
9.0
 40
10.0
 40
10.0
 40
10.0
 40
11.0
 40
11.0
 40
11.0
 40
12.0
 40
12.0
 40
12.0
 40
13.0
 40
13.0
 40
13.0
 40
14.0
 40
14.0
 40
14.0
 40
15.0
 40
15.0
 40
15.0
 40
16.0
 40
16.0
 40
16.0
 40
17.0
 40
17.0
 40
17.0
 40
18.0
 40
18.0
 40
18.0
 40
19.0
 40
19.0
 40
19.0
 40
20.0
 40
20.0
 40
20.0
 40
20.0
 10
105.2668400921969
 20
-92.22489525472155
 30
0.0
 10
113.8950787609611
 20
-92.22489525472155
 30
0.0
 10
122.5233174297253
 20
-92.22489525472155
 30
0.0
 10
131.1515560984895
 20
-92.22489525472155
 30
0.0
 10
133.3084393767961
 20
-92.22489525472155
 30
0.0
 10
135.4653226551028
 20
-92.22489525472155
 30
0.0
 10
137.6222059334095
 20
-92.22489525472155
 30
0.0
 10
137.8918339820862
 20
-92.22489525472155
 30
0.0
 10
138.1614973085399
 20
-92.22489525472155
 30
0.0
 10
138.4311253572166
 20
-92.22489525472155
 30
0.0
 10
138.7151114610827
 20
-92.22489525472155
 30
0.0
 10
138.9740503433655
 20
-92.28804247692801
 30
0.0
 10
139.1518503388294
 20
-91.96772025478575
 30
0.0
 10
139.2379281144112
 20
-91.81320358815768
 30
0.0
 10
139.2146447816719
 20
-90.51462858848247
 30
0.0
 10
139.2146447816719
 20
-90.36716747740834
 30
0.0
 10
139.2146447816719
 20
-89.28861997767784
 30
0.0
 10
139.2146447816719
 20
-88.21007247794734
 30
0.0
 10
139.2146447816719
 20
-87.13148970043932
 30
0.0
 10
139.2146447816719
 20
-84.97450053431183
 30
0.0
 10
139.2146447816719
 20
-82.81751136818467
 30
0.0
 10
139.2146447816719
 20
-80.66048692427934
 30
0.0
 10
139.2146447816719
 20
-79.58204525788236
 30
0.0
 10
139.2146447816719
 20
-78.50360359148505
 30
0.0
 10
139.2146447816719
 20
-77.42516192508808
 30
0.0
 10
139.2146447816719
 20
-76.8859058141119
 30
0.0
 10
139.2146447816719
 20
-76.34661442535788
 30
0.0
 10
139.2146447816719
 20
-75.80732303660388
 30
0.0
 10
139.2146447816719
 20
-75.37375914782328
 30
0.0
 10
139.4390114426145
 20
-74.47488137027031
 30
0.0
 10
138.7147586833139
 20
-74.47488137027031
 30
0.0
 10
130.0866258478804
 20
-74.47488137027031
 30
0.0
 10
121.4585282902237
 20
-74.47488137027031
 30
0.0
 10
112.8303954547901
 20
-74.47488137027031
 30
0.0
 10
110.6734063431528
 20
-74.47488137027031
 30
0.0
 10
108.5163819537387
 20
-74.47488137027031
 30
0.0
 10
106.3593928421014
 20
-74.47488137027031
 30
0.0
 10
106.0897647934246
 20
-74.47488137027031
 30
0.0
 10
105.820101466971
 20
-74.47488137027031
 30
0.0
 10
105.5504734182942
 20
-74.47488137027031
 30
0.0
 10
105.2668400921969
 20
-74.47488137027031
 30
0.0
 10
105.0079012099141
 20
-74.41208692584128
 30
0.0
 10
104.8297484366814
 20
-74.73205637020578
 30
0.0
 10
104.7436706610997
 20
-74.88692581461162
 30
0.0
 10
104.766953993839
 20
-76.18514803650939
 30
0.0
 10
104.766953993839
 20
-76.33260914758351
 30
0.0
 10
104.766953993839
 20
-77.41119192509154
 30
0.0
 10
104.766953993839
 20
-78.48973942482205
 30
0.0
 10
104.766953993839
 20
-79.56828692455223
 30
0.0
 10
104.766953993839
 20
-81.72531136845755
 30
0.0
 10
104.766953993839
 20
-83.88230053458504
 30
0.0
 10
104.766953993839
 20
-86.03928970071252
 30
0.0
 10
104.766953993839
 20
-87.11787247822055
 30
0.0
 10
104.766953993839
 20
-88.19641997795104
 30
0.0
 10
104.766953993839
 20
-89.27496747768123
 30
0.0
 10
104.766953993839
 20
-89.81415303310204
 30
0.0
 10
104.766953993839
 20
-90.353303310745
 30
0.0
 10
104.766953993839
 20
-90.89245358838798
 30
0.0
 10
104.766953993839
 20
-91.32601747716858
 30
0.0
 10
104.5425873328964
 20
-92.22489525472155
 30
0.0
 10
105.2668400921969
 20
-92.22489525472155
 30
0.0
  0
POLYLINE
  5
12A
330
1F
100
AcDbEntity
  8
_LAYER_
 62
     7
100
AcDb2dPolyline
 66
     1
 10
0.0
 20
0.0
 30
0.0
  0
VERTEX
  5
12B
330
12A
100
AcDbEntity
  8
_LAYER_
 62
     7
100
AcDbVertex
100
AcDb2dVertex
 10
181.5155214802644
 20
-221.4208310557561
 30
0.0
  0
VERTEX
  5
12C
330
12A
100
AcDbEntity
  8
_LAYER_
 62
     7
100
AcDbVertex
100
AcDb2dVertex
 10
194.4155461511573
 20
-221.4208310557561
 30
0.0
  0
VERTEX
  5
12D
330
12A
100
AcDbEntity
  8
_LAYER_
 62
     7
100
AcDbVertex
100
AcDb2dVertex
 10
194.4155461511573
 20
-207.6208699480949
 30
0.0
  0
VERTEX
  5
12E
330
12A
100
AcDbEntity
  8
_LAYER_
 62
     7
100
AcDbVertex
100
AcDb2dVertex
 10
181.5155214802644
 20
-207.6208699480949
 30
0.0
  0
VERTEX
  5
12F
330
12A
100
AcDbEntity
  8
_LAYER_
 62
     7
100
AcDbVertex
100
AcDb2dVertex
 10
181.5155214802644
 20
-221.4208310557561
 30
0.0
  0
SEQEND
  5
130
330
12A
100
AcDbEntity
  8
_LAYER_
 62
     7
  0
POLYLINE
  5
131
330
1F
100
AcDbEntity
  8
_LAYER_
 62
     7
100
AcDb2dPolyline
 66
     1
 10
0.0
 20
0.0
 30
0.0
  0
VERTEX
  5
132
330
131
100
AcDbEntity
  8
_LAYER_
 62
     7
100
AcDbVertex
100
AcDb2dVertex
 10
49.51525262564955
 20
-221.4208310557561
 30
0.0
  0
VERTEX
  5
133
330
131
100
AcDbEntity
  8
_LAYER_
 62
     7
100
AcDbVertex
100
AcDb2dVertex
 10
62.41527729654251
 20
-221.4208310557561
 30
0.0
  0
VERTEX
  5
134
330
131
100
AcDbEntity
  8
_LAYER_
 62
     7
100
AcDbVertex
100
AcDb2dVertex
 10
62.41527729654251
 20
-207.6208699480949
 30
0.0
  0
VERTEX
  5
135
330
131
100
AcDbEntity
  8
_LAYER_
 62
     7
100
AcDbVertex
100
AcDb2dVertex
 10
49.51525262564955
 20
-207.6208699480949
 30
0.0
  0
VERTEX
  5
136
330
131
100
AcDbEntity
  8
_LAYER_
 62
     7
100
AcDbVertex
100
AcDb2dVertex
 10
49.51525262564955
 20
-221.4208310557561
 30
0.0
  0
SEQEND
  5
137
330
131
100
AcDbEntity
  8
_LAYER_
 62
     7
  0
POLYLINE
  5
138
330
1F
100
AcDbEntity
  8
_LAYER_
 62
     7
100
AcDb2dPolyline
 66
     1
 10
0.0
 20
0.0
 30
0.0
  0
VERTEX
  5
139
330
138
100
AcDbEntity
  8
_LAYER_
 62
     7
100
AcDbVertex
100
AcDb2dVertex
 10
49.51489984788078
 20
-89.42091164431143
 30
0.0
  0
VERTEX
  5
13A
330
138
100
AcDbEntity
  8
_LAYER_
 62
     7
100
AcDbVertex
100
AcDb2dVertex
 10
62.41492451877373
 20
-89.42091164431143
 30
0.0
  0
VERTEX
  5
13B
330
138
100
AcDbEntity
  8
_LAYER_
 62
     7
100
AcDbVertex
100
AcDb2dVertex
 10
62.41492451877373
 20
-75.62095053665017
 30
0.0
  0
VERTEX
  5
13C
330
138
100
AcDbEntity
  8
_LAYER_
 62
     7
100
AcDbVertex
100
AcDb2dVertex
 10
49.51489984788078
 20
-75.62095053665017
 30
0.0
  0
VERTEX
  5
13D
330
138
100
AcDbEntity
  8
_LAYER_
 62
     7
100
AcDbVertex
100
AcDb2dVertex
 10
49.51489984788078
 20
-89.42091164431143
 30
0.0
  0
SEQEND
  5
13E
330
138
100
AcDbEntity
  8
_LAYER_
 62
     7
  0
POLYLINE
  5
13F
330
1F
100
AcDbEntity
  8
_LAYER_
 62
     7
100
AcDb2dPolyline
 66
     1
 10
0.0
 20
0.0
 30
0.0
  0
VERTEX
  5
140
330
13F
100
AcDbEntity
  8
_LAYER_
 62
     7
100
AcDbVertex
100
AcDb2dVertex
 10
29.96512082584195
 20
-229.5174338315095
 30
0.0
  0
VERTEX
  5
141
330
13F
100
AcDbEntity
  8
_LAYER_
 62
     7
100
AcDbVertex
100
AcDb2dVertex
 10
29.96512082584195
 20
-214.791431057413
 30
0.0
  0
VERTEX
  5
142
330
13F
100
AcDbEntity
  8
_LAYER_
 62
     7
100
AcDbVertex
100
AcDb2dVertex
 10
32.96514304731414
 20
-214.791431057413
 30
0.0
  0
VERTEX
  5
143
330
13F
100
AcDbEntity
  8
_LAYER_
 62
     7
100
AcDbVertex
100
AcDb2dVertex
 10
32.96514304731414
 20
-210.7916366139686
 30
0.0
  0
VERTEX
  5
144
330
13F
100
AcDbEntity
  8
_LAYER_
 62
     7
100
AcDbVertex
100
AcDb2dVertex
 10
29.96512082584195
 20
-210.7916366139686
 30
0.0
  0
VERTEX
  5
145
330
13F
100
AcDbEntity
  8
_LAYER_
 62
     7
100
AcDbVertex
100
AcDb2dVertex
 10
29.96512082584195
 20
-86.24379497843893
 30
0.0
  0
VERTEX
  5
146
330
13F
100
AcDbEntity
  8
_LAYER_
 62
     7
100
AcDbVertex
100
AcDb2dVertex
 10
32.96514304731414
 20
-86.24379497843893
 30
0.0
  0
VERTEX
  5
147
330
13F
100
AcDbEntity
  8
_LAYER_
 62
     7
100
AcDbVertex
100
AcDb2dVertex
 10
32.96514304731414
 20
-82.24364775721676
 30
0.0
  0
VERTEX
  5
148
330
13F
100
AcDbEntity
  8
_LAYER_
 62
     7
100
AcDbVertex
100
AcDb2dVertex
 10
29.96512082584195
 20
-82.24364775721676
 30
0.0
  0
VERTEX
  5
149
330
13F
100
AcDbEntity
  8
_LAYER_
 62
     7
100
AcDbVertex
100
AcDb2dVertex
 10
29.96512082584195
 20
-67.52046720534211
 30
0.0
  0
VERTEX
  5
14A
330
13F
100
AcDbEntity
  8
_LAYER_
 62
     7
100
AcDbVertex
100
AcDb2dVertex
 10
21.29842916134195
 20
-67.52046720534211
 30
0.0
  0
VERTEX
  5
14B
330
13F
100
AcDbEntity
  8
_LAYER_
 62
     7
100
AcDbVertex
100
AcDb2dVertex
 10
21.29842916134195
 20
-64.52044498386994
 30
0.0
  0
VERTEX
  5
14C
330
13F
100
AcDbEntity
  8
_LAYER_
 62
     7
100
AcDbVertex
100
AcDb2dVertex
 10
12.63173749684196
 20
-64.52044498386994
 30
0.0
  0
VERTEX
  5
14D
330
13F
100
AcDbEntity
  8
_LAYER_
 62
     7
100
AcDbVertex
100
AcDb2dVertex
 10
12.63173749684196
 20
-67.52046720534211
 30
0.0
  0
VERTEX
  5
14E
330
13F
100
AcDbEntity
  8
_LAYER_
 62
     7
100
AcDbVertex
100
AcDb2dVertex
 10
3.965045832341959
 20
-67.52046720534211
 30
0.0
  0
VERTEX
  5
14F
330
13F
100
AcDbEntity
  8
_LAYER_
 62
     7
100
AcDbVertex
100
AcDb2dVertex
 10
3.965045832341959
 20
-82.24364775721676
 30
0.0
  0
VERTEX
  5
150
330
13F
100
AcDbEntity
  8
_LAYER_
 62
     7
100
AcDbVertex
100
AcDb2dVertex
 10
0.9650412497588563
 20
-82.24364775721676
 30
0.0
  0
VERTEX
  5
151
330
13F
100
AcDbEntity
  8
_LAYER_
 62
     7
100
AcDbVertex
100
AcDb2dVertex
 10
0.9650412497588563
 20
-86.24379497843893
 30
0.0
  0
VERTEX
  5
152
330
13F
100
AcDbEntity
  8
_LAYER_
 62
     7
100
AcDbVertex
100
AcDb2dVertex
 10
3.965045832341959
 20
-86.24379497843893
 30
0.0
  0
VERTEX
  5
153
330
13F
100
AcDbEntity
  8
_LAYER_
 62
     7
100
AcDbVertex
100
AcDb2dVertex
 10
3.965045832341959
 20
-210.7916366139686
 30
0.0
  0
VERTEX
  5
154
330
13F
100
AcDbEntity
  8
_LAYER_
 62
     7
100
AcDbVertex
100
AcDb2dVertex
 10
0.9650412497588563
 20
-210.7916366139686
 30
0.0
  0
VERTEX
  5
155
330
13F
100
AcDbEntity
  8
_LAYER_
 62
     7
100
AcDbVertex
100
AcDb2dVertex
 10
0.9650412497588563
 20
-214.791431057413
 30
0.0
  0
VERTEX
  5
156
330
13F
100
AcDbEntity
  8
_LAYER_
 62
     7
100
AcDbVertex
100
AcDb2dVertex
 10
3.965045832341959
 20
-214.791431057413
 30
0.0
  0
VERTEX
  5
157
330
13F
100
AcDbEntity
  8
_LAYER_
 62
     7
100
AcDbVertex
100
AcDb2dVertex
 10
3.965045832341959
 20
-229.5174338315095
 30
0.0
  0
VERTEX
  5
158
330
13F
100
AcDbEntity
  8
_LAYER_
 62
     7
100
AcDbVertex
100
AcDb2dVertex
 10
12.63173749684196
 20
-229.5174338315095
 30
0.0
  0
VERTEX
  5
159
330
13F
100
AcDbEntity
  8
_LAYER_
 62
     7
100
AcDbVertex
100
AcDb2dVertex
 10
12.63173749684196
 20
-232.517456052982
 30
0.0
  0
VERTEX
  5
15A
330
13F
100
AcDbEntity
  8
_LAYER_
 62
     7
100
AcDbVertex
100
AcDb2dVertex
 10
21.29842916134195
 20
-232.517456052982
 30
0.0
  0
VERTEX
  5
15B
330
13F
100
AcDbEntity
  8
_LAYER_
 62
     7
100
AcDbVertex
100
AcDb2dVertex
 10
21.29842916134195
 20
-229.5174338315095
 30
0.0
  0
VERTEX
  5
15C
330
13F
100
AcDbEntity
  8
_LAYER_
 62
     7
100
AcDbVertex
100
AcDb2dVertex
 10
29.96512082584195
 20
-229.5174338315095
 30
0.0
  0
SEQEND
  5
15D
330
13F
100
AcDbEntity
  8
_LAYER_
 62
     7
  0
ENDSEC
  0
SECTION
  2
OBJECTS
  0
DICTIONARY
  5
C
330
0
100
AcDbDictionary
  3
ACAD_GROUP
350
D
  3
ACAD_LAYOUT
350
1A
  3
ACAD_MATERIAL
350
3B
  3
ACAD_MLEADERSTYLE
350
160
  3
ACAD_MLINESTYLE
350
17
  3
ACAD_PLOTSETTINGS
350
19
  3
ACAD_VISUALSTYLE
350
2A
  3
ACDBVARIABLEDICTIONARY
350
15E
1001
ACAD
1000
TREAT_AS_HARD
1070
     0
  0
DICTIONARY
  5
D
102
{ACAD_REACTORS
330
C
102
}
330
C
100
AcDbDictionary
1001
ACAD
1000
TREAT_AS_HARD
1070
     0
  0
DICTIONARY
  5
1A
102
{ACAD_REACTORS
330
C
102
}
330
C
100
AcDbDictionary
1001
ACAD
1000
TREAT_AS_HARD
1070
     0
  0
DICTIONARY
  5
3B
102
{ACAD_REACTORS
330
C
102
}
330
C
100
AcDbDictionary
  3
BYBLOCK
350
3D
  3
BYLAYER
350
3C
  3
GLOBAL
350
3E
1001
ACAD
1000
TREAT_AS_HARD
1070
     0
  0
DICTIONARY
  5
160
102
{ACAD_REACTORS
330
C
102
}
330
C
100
AcDbDictionary
1001
ACAD
1000
TREAT_AS_HARD
1070
     0
  0
DICTIONARY
  5
17
102
{ACAD_REACTORS
330
C
102
}
330
C
100
AcDbDictionary
  3
STANDARD
350
18
1001
ACAD
1000
TREAT_AS_HARD
1070
     0
  0
DICTIONARY
  5
19
102
{ACAD_REACTORS
330
C
102
}
330
C
100
AcDbDictionary
1001
ACAD
1000
TREAT_AS_HARD
1070
     0
  0
DICTIONARY
  5
2A
102
{ACAD_REACTORS
330
C
102
}
330
C
100
AcDbDictionary
  3
2DWIREFRAME
350
2F
  3
3DWIREFRAME
350
30
  3
3D_HIDDEN
350
31
  3
BASIC
350
32
  3
BRIGHTEN
350
36
  3
COLORCHANGE
350
3A
  3
CONCEPTUAL
350
34
  3
DIM
350
35
  3
FACEPATTERN
350
39
  3
FLAT
350
2B
  3
FLATWITHEDGES
350
2C
  3
GOURAUD
350
2D
  3
GOURAUDWITHEDGES
350
2E
  3
LINEPATTERN
350
38
  3
REALISTIC
350
33
  3
THICKEN
350
37
1001
ACAD
1000
TREAT_AS_HARD
1070
     0
  0
DICTIONARY
  5
15E
102
{ACAD_REACTORS
330
C
102
}
330
C
100
AcDbDictionary
  3
DIMASSOC
350
161
  3
HIDETEXT
350
162
1001
ACAD
1000
TREAT_AS_HARD
1070
     0
  0
MATERIAL
  5
3D
102
{ACAD_REACTORS
330
3B
102
}
102
{ACAD_XDICTIONARY
360
165
102
}
330
3B
100
AcDbMaterial
  1
ByBlock
  0
MATERIAL
  5
3C
102
{ACAD_REACTORS
330
3B
102
}
102
{ACAD_XDICTIONARY
360
163
102
}
330
3B
100
AcDbMaterial
  1
ByLayer
  0
MATERIAL
  5
3E
102
{ACAD_REACTORS
330
3B
102
}
102
{ACAD_XDICTIONARY
360
167
102
}
330
3B
100
AcDbMaterial
  1
Global
  0
MLINESTYLE
  5
18
102
{ACAD_REACTORS
330
17
102
}
330
17
100
AcDbMlineStyle
  2
Standard
 70
     0
  3

 62
   256
 51
90.0
 52
90.0
 71
     2
 49
0.5
 62
   256
  6
BYLAYER
 49
-0.5
 62
   256
  6
BYLAYER
  0
ACAD_PROXY_OBJECT
  5
2F
102
{ACAD_REACTORS
330
2A
102
}
330
2A
100
AcDbZombieObject
 90
      499
 91
      501
 93
      436
310
42CC9915DA5C99599C985B595049028333333333333E3BF0000000000000FB0107901411070040501600405405064090741402480A0340
1001
ACAD
1000
AcDbSavedByObjectVersion
1070
     0
  0
ACAD_PROXY_OBJECT
  5
30
102
{ACAD_REACTORS
330
2A
102
}
330
2A
100
AcDbZombieObject
 90
      499
 91
      501
 93
      436
310
42CCD915DA5C99599C985B595059028333333333333E3BF0000000000000FB0107901411070040501600405405064090741402480A0340
1001
ACAD
1000
AcDbSavedByObjectVersion
1070
     0
  0
ACAD_PROXY_OBJECT
  5
31
102
{ACAD_REACTORS
330
2A
102
}
330
2A
100
AcDbZombieObject
 90
      499
 91
      501
 93
      500
310
424CD108121A5919195B90640502408333333333333E3BF0000000000000FB01079024090700405020000000000001110200405405064090740C02480A0340
1001
ACAD
1000
AcDbSavedByObjectVersion
1070
     0
  0
ACAD_PROXY_OBJECT
  5
32
102
{ACAD_REACTORS
330
2A
102
}
330
2A
100
AcDbZombieObject
 90
      499
 91
      501
 93
      388
310
4150985CDA58D07406404333333333333E3BF0000000000000FB0107A41107004050150841D405064090741402480A0350
1001
ACAD
1000
AcDbSavedByObjectVersion
1070
     0
  0
ACAD_PROXY_OBJECT
  5
36
102
{ACAD_REACTORS
330
2A
102
}
330
2A
100
AcDbZombieObject
 90
      499
 91
      501
 93
      428
310
42109C9A59DA1D195B90C409028333333333333E3BF0000000000000FB010790141107004050150841D405064090741402480A029950
1001
ACAD
1000
AcDbSavedByObjectVersion
1070
     0
  0
ACAD_PROXY_OBJECT
  5
3A
102
{ACAD_REACTORS
330
2A
102
}
330
2A
100
AcDbZombieObject
 90
      499
 91
      501
 93
      452
310
42D0DBDB1BDC90DA185B99D95104090240C333333333333E3BF0000000000000FB0108901411070040501508421405064090741402480A0350
1001
ACAD
1000
AcDbSavedByObjectVersion
1070
     0
  0
ACAD_PROXY_OBJECT
  5
34
102
{ACAD_REACTORS
330
2A
102
}
330
2A
100
AcDbZombieObject
 90
      499
 91
      501
 93
      500
310
4290DBDB98D95C1D1D585B10940D028333333333333E3BF0000000000000FB0107902409070040501000000000000111010841D405064090740C02480A0340
1001
ACAD
1000
AcDbSavedByObjectVersion
1070
     0
  0
ACAD_PROXY_OBJECT
  5
35
102
{ACAD_REACTORS
330
2A
102
}
330
2A
100
AcDbZombieObject
 90
      499
 91
      501
 93
      412
310
40D11A5B50B409028333333333333E3BF0000000000000FB010790141107004050150841D405064090741402480A02677FFFFFD0
1001
ACAD
1000
AcDbSavedByObjectVersion
1070
     0
  0
ACAD_PROXY_OBJECT
  5
39
102
{ACAD_REACTORS
330
2A
102
}
330
2A
100
AcDbZombieObject
 90
      499
 91
      501
 93
      444
310
42D19858D95C185D1D195C9B90F409028333333333333E3BF0000000000000FB010790141107004050150841D405064090741402480A0350
1001
ACAD
1000
AcDbSavedByObjectVersion
1070
     0
  0
ACAD_PROXY_OBJECT
  5
2B
102
{ACAD_REACTORS
330
2A
102
}
330
2A
100
AcDbZombieObject
 90
      499
 91
      501
 93
      388
310
41119B185D240901404333333333333E3BF0000000000000F9010740A41107004050150841D405064090741402480A1B50
1001
ACAD
1000
AcDbSavedByObjectVersion
1070
     0
  0
ACAD_PROXY_OBJECT
  5
2C
102
{ACAD_REACTORS
330
2A
102
}
330
2A
100
AcDbZombieObject
 90
      499
 91
      501
 93
      476
310
43519B185D15DA5D1A115919D95CD0140901404333333333333E3BF0000000000000F9010740901411070040501600405405064090741402480A1B50
1001
ACAD
1000
AcDbSavedByObjectVersion
1070
     0
  0
ACAD_PROXY_OBJECT
  5
2D
102
{ACAD_REACTORS
330
2A
102
}
330
2A
100
AcDbZombieObject
 90
      499
 91
      501
 93
      412
310
41D1DBDD5C985D5910240902404333333333333E3BF0000000000000F9010740A411070040501641D405064090741402480A1B50
1001
ACAD
1000
AcDbSavedByObjectVersion
1070
     0
  0
ACAD_PROXY_OBJECT
  5
2E
102
{ACAD_REACTORS
330
2A
102
}
330
2A
100
AcDbZombieObject
 90
      499
 91
      501
 93
      500
310
4411DBDD5C985D5915DA5D1A115919D95CD0340902404333333333333E3BF0000000000000F9010740901411070040501600405405064090741402480A1B50
1001
ACAD
1000
AcDbSavedByObjectVersion
1070
     0
  0
ACAD_PROXY_OBJECT
  5
38
102
{ACAD_REACTORS
330
2A
102
}
330
2A
100
AcDbZombieObject
 90
      499
 91
      501
 93
      444
310
42D31A5B995C185D1D195C9B90E409028333333333333E3BF0000000000000FB010790141107004050750841D405064090741402483A0350
1001
ACAD
1000
AcDbSavedByObjectVersion
1070
     0
  0
ACAD_PROXY_OBJECT
  5
33
102
{ACAD_REACTORS
330
2A
102
}
330
2A
100
AcDbZombieObject
 90
      499
 91
      501
 93
      420
310
425499585B1A5CDD1A58D08409028333333333333E3BF0000000000000FB01079019070040501508421405064090741402480A1B40
1001
ACAD
1000
AcDbSavedByObjectVersion
1070
     0
  0
ACAD_PROXY_OBJECT
  5
37
102
{ACAD_REACTORS
330
2A
102
}
330
2A
100
AcDbZombieObject
 90
      499
 91
      501
 93
      412
310
41D51A1A58DAD95B90D409028333333333333E3BF0000000000000FB010790141107004050150C41D405064090741402480A0350
1001
ACAD
1000
AcDbSavedByObjectVersion
1070
     0
  0
DICTIONARYVAR
  5
161
102
{ACAD_REACTORS
330
15E
102
}
330
15E
100
DictionaryVariables
280
     0
  1
2
  0
DICTIONARYVAR
  5
162
102
{ACAD_REACTORS
330
15E
102
}
330
15E
100
DictionaryVariables
280
     0
  1
1
  0
DICTIONARY
  5
165
330
3D
100
AcDbDictionary
  3
ACAD_XREC_ROUNDTRIP
360
166
1001
ACAD
1000
TREAT_AS_HARD
1070
     1
  0
DICTIONARY
  5
163
330
3C
100
AcDbDictionary
  3
ACAD_XREC_ROUNDTRIP
360
164
1001
ACAD
1000
TREAT_AS_HARD
1070
     1
  0
DICTIONARY
  5
167
330
3E
100
AcDbDictionary
  3
ACAD_XREC_ROUNDTRIP
360
168
1001
ACAD
1000
TREAT_AS_HARD
1070
     1
  0
XRECORD
  5
166
102
{ACAD_REACTORS
330
165
102
}
330
165
100
AcDbXrecord
102
MATERIAL
148
0.0
149
0.0
149
0.0
 93
        0
 94
      127
282
     0
 72
     1
 77
     1
171
     1
175
     1
179
     1
273
     0
  0
XRECORD
  5
164
102
{ACAD_REACTORS
330
163
102
}
330
163
100
AcDbXrecord
102
MATERIAL
148
0.0
149
0.0
149
0.0
 93
        0
 94
      127
282
     0
 72
     1
 77
     1
171
     1
175
     1
179
     1
273
     0
  0
XRECORD
  5
168
102
{ACAD_REACTORS
330
167
102
}
330
167
100
AcDbXrecord
102
MATERIAL
148
0.0
149
0.0
149
0.0
 93
        0
 94
      127
282
     0
 72
     1
 77
     1
171
     1
175
     1
179
     1
273
     0
  0
ENDSEC
  0
EOF
