<?xml version="1.0" standalone="no"?>
 <!DOCTYPE svg PUBLIC "-//W3C//DTD SVG 1.1//EN" 
 "http://www.w3.org/Graphics/SVG/1.1/DTD/svg11.dtd"> 
<svg xmlns="http://www.w3.org/2000/svg" version="1.1" 
    width="29.7002cm" height="21.0007cm" viewBox="0 0 116930 82680 ">
<title>SVG Picture created as power-power.svg date 2018/08/09 11:50:41 </title>
  <desc>Picture generated by Eeschema-SVG </desc>
<g style="fill:#000000; fill-opacity:1;stroke:#000000; stroke-opacity:1;
stroke-linecap:round; stroke-linejoin:round; "
 transform="translate(0 0) scale(1 1)">
</g>
<g style="fill:#000000; fill-opacity:0.0; 
stroke:#000000; stroke-width:-10; stroke-opacity:1; 
stroke-linecap:round; stroke-linejoin:round;">
</g>
<g style="fill:#840000; fill-opacity:0.0; 
stroke:#840000; stroke-width:-10; stroke-opacity:1; 
stroke-linecap:round; stroke-linejoin:round;">
</g>
<g style="fill:#840000; fill-opacity:0.0; 
stroke:#840000; stroke-width:100; stroke-opacity:1; 
stroke-linecap:round; stroke-linejoin:round;">
</g>
<g style="fill:#840000; fill-opacity:0.0; 
stroke:#840000; stroke-width:60; stroke-opacity:1; 
stroke-linecap:round; stroke-linejoin:round;">
<rect x="69690" y="65360" width="42520" height="12600" rx="0" />
</g>
<g style="fill:#840000; fill-opacity:0.0; 
stroke:#840000; stroke-width:100; stroke-opacity:1; 
stroke-linecap:round; stroke-linejoin:round;">
</g>
<g style="fill:#840000; fill-opacity:0.0; 
stroke:#840000; stroke-width:60; stroke-opacity:1; 
stroke-linecap:round; stroke-linejoin:round;">
<rect x="3940" y="3940" width="109050" height="74800" rx="0" />
</g>
<g style="fill:#840000; fill-opacity:0.0; 
stroke:#840000; stroke-width:100; stroke-opacity:1; 
stroke-linecap:round; stroke-linejoin:round;">
</g>
<g style="fill:#840000; fill-opacity:0.0; 
stroke:#840000; stroke-width:60; stroke-opacity:1; 
stroke-linecap:round; stroke-linejoin:round;">
<rect x="4720" y="4720" width="107490" height="73240" rx="0" />
</g>
<g style="fill:#840000; fill-opacity:0.0; 
stroke:#840000; stroke-width:100; stroke-opacity:1; 
stroke-linecap:round; stroke-linejoin:round;">
</g>
<g style="fill:#840000; fill-opacity:0.0; 
stroke:#840000; stroke-width:60; stroke-opacity:1; 
stroke-linecap:round; stroke-linejoin:round;">
<path d="M23620 4720
L23620 3940
" />
</g>
<g style="fill:#840000; fill-opacity:0.0; 
stroke:#840000; stroke-width:100; stroke-opacity:1; 
stroke-linecap:round; stroke-linejoin:round;">
</g>
<g style="fill:#840000; fill-opacity:0.0; 
stroke:#840000; stroke-width:60; stroke-opacity:1; 
stroke-linecap:round; stroke-linejoin:round;">
<path d="M43310 4720
L43310 3940
" />
</g>
<g style="fill:#840000; fill-opacity:0.0; 
stroke:#840000; stroke-width:100; stroke-opacity:1; 
stroke-linecap:round; stroke-linejoin:round;">
</g>
<g style="fill:#840000; fill-opacity:0.0; 
stroke:#840000; stroke-width:60; stroke-opacity:1; 
stroke-linecap:round; stroke-linejoin:round;">
<path d="M62990 4720
L62990 3940
" />
</g>
<g style="fill:#840000; fill-opacity:0.0; 
stroke:#840000; stroke-width:100; stroke-opacity:1; 
stroke-linecap:round; stroke-linejoin:round;">
</g>
<g style="fill:#840000; fill-opacity:0.0; 
stroke:#840000; stroke-width:60; stroke-opacity:1; 
stroke-linecap:round; stroke-linejoin:round;">
<path d="M82680 4720
L82680 3940
" />
</g>
<g style="fill:#840000; fill-opacity:0.0; 
stroke:#840000; stroke-width:100; stroke-opacity:1; 
stroke-linecap:round; stroke-linejoin:round;">
</g>
<g style="fill:#840000; fill-opacity:0.0; 
stroke:#840000; stroke-width:60; stroke-opacity:1; 
stroke-linecap:round; stroke-linejoin:round;">
<path d="M102360 4720
L102360 3940
" />
</g>
<g style="fill:#840000; fill-opacity:0.0; 
stroke:#840000; stroke-width:100; stroke-opacity:1; 
stroke-linecap:round; stroke-linejoin:round;">
</g>
<g style="fill:#840000; fill-opacity:0.0; 
stroke:#840000; stroke-width:60; stroke-opacity:1; 
stroke-linecap:round; stroke-linejoin:round;">
<path d="M14170 4560
L13880 4560
" />
<path d="M14020 4560
L14020 4050
L13970 4120
L13930 4170
L13880 4190
" />
</g>
<g style="fill:#840000; fill-opacity:0.0; 
stroke:#840000; stroke-width:100; stroke-opacity:1; 
stroke-linecap:round; stroke-linejoin:round;">
</g>
<g style="fill:#840000; fill-opacity:0.0; 
stroke:#840000; stroke-width:60; stroke-opacity:1; 
stroke-linecap:round; stroke-linejoin:round;">
<path d="M33560 4090
L33580 4070
L33630 4050
L33750 4050
L33800 4070
L33820 4090
L33850 4140
L33850 4190
L33820 4260
L33530 4560
L33850 4560
" />
</g>
<g style="fill:#840000; fill-opacity:0.0; 
stroke:#840000; stroke-width:100; stroke-opacity:1; 
stroke-linecap:round; stroke-linejoin:round;">
</g>
<g style="fill:#840000; fill-opacity:0.0; 
stroke:#840000; stroke-width:60; stroke-opacity:1; 
stroke-linecap:round; stroke-linejoin:round;">
<path d="M53220 4050
L53540 4050
L53370 4240
L53440 4240
L53490 4260
L53510 4290
L53540 4340
L53540 4460
L53510 4510
L53490 4530
L53440 4560
L53300 4560
L53250 4530
L53220 4510
" />
</g>
<g style="fill:#840000; fill-opacity:0.0; 
stroke:#840000; stroke-width:100; stroke-opacity:1; 
stroke-linecap:round; stroke-linejoin:round;">
</g>
<g style="fill:#840000; fill-opacity:0.0; 
stroke:#840000; stroke-width:60; stroke-opacity:1; 
stroke-linecap:round; stroke-linejoin:round;">
<path d="M73170 4220
L73170 4560
" />
<path d="M73050 4020
L72930 4390
L73240 4390
" />
</g>
<g style="fill:#840000; fill-opacity:0.0; 
stroke:#840000; stroke-width:100; stroke-opacity:1; 
stroke-linecap:round; stroke-linejoin:round;">
</g>
<g style="fill:#840000; fill-opacity:0.0; 
stroke:#840000; stroke-width:60; stroke-opacity:1; 
stroke-linecap:round; stroke-linejoin:round;">
<path d="M92880 4050
L92640 4050
L92620 4290
L92640 4260
L92690 4240
L92810 4240
L92860 4260
L92880 4290
L92910 4340
L92910 4460
L92880 4510
L92860 4530
L92810 4560
L92690 4560
L92640 4530
L92620 4510
" />
</g>
<g style="fill:#840000; fill-opacity:0.0; 
stroke:#840000; stroke-width:100; stroke-opacity:1; 
stroke-linecap:round; stroke-linejoin:round;">
</g>
<g style="fill:#840000; fill-opacity:0.0; 
stroke:#840000; stroke-width:60; stroke-opacity:1; 
stroke-linecap:round; stroke-linejoin:round;">
<path d="M112540 4050
L112440 4050
L112390 4070
L112370 4090
L112320 4170
L112300 4260
L112300 4460
L112320 4510
L112350 4530
L112390 4560
L112490 4560
L112540 4530
L112560 4510
L112590 4460
L112590 4340
L112560 4290
L112540 4260
L112490 4240
L112390 4240
L112350 4260
L112320 4290
L112300 4340
" />
</g>
<g style="fill:#840000; fill-opacity:0.0; 
stroke:#840000; stroke-width:100; stroke-opacity:1; 
stroke-linecap:round; stroke-linejoin:round;">
</g>
<g style="fill:#840000; fill-opacity:0.0; 
stroke:#840000; stroke-width:60; stroke-opacity:1; 
stroke-linecap:round; stroke-linejoin:round;">
<path d="M23620 77960
L23620 78740
" />
</g>
<g style="fill:#840000; fill-opacity:0.0; 
stroke:#840000; stroke-width:100; stroke-opacity:1; 
stroke-linecap:round; stroke-linejoin:round;">
</g>
<g style="fill:#840000; fill-opacity:0.0; 
stroke:#840000; stroke-width:60; stroke-opacity:1; 
stroke-linecap:round; stroke-linejoin:round;">
<path d="M43310 77960
L43310 78740
" />
</g>
<g style="fill:#840000; fill-opacity:0.0; 
stroke:#840000; stroke-width:100; stroke-opacity:1; 
stroke-linecap:round; stroke-linejoin:round;">
</g>
<g style="fill:#840000; fill-opacity:0.0; 
stroke:#840000; stroke-width:60; stroke-opacity:1; 
stroke-linecap:round; stroke-linejoin:round;">
<path d="M62990 77960
L62990 78740
" />
</g>
<g style="fill:#840000; fill-opacity:0.0; 
stroke:#840000; stroke-width:100; stroke-opacity:1; 
stroke-linecap:round; stroke-linejoin:round;">
</g>
<g style="fill:#840000; fill-opacity:0.0; 
stroke:#840000; stroke-width:60; stroke-opacity:1; 
stroke-linecap:round; stroke-linejoin:round;">
<path d="M82680 77960
L82680 78740
" />
</g>
<g style="fill:#840000; fill-opacity:0.0; 
stroke:#840000; stroke-width:100; stroke-opacity:1; 
stroke-linecap:round; stroke-linejoin:round;">
</g>
<g style="fill:#840000; fill-opacity:0.0; 
stroke:#840000; stroke-width:60; stroke-opacity:1; 
stroke-linecap:round; stroke-linejoin:round;">
<path d="M102360 77960
L102360 78740
" />
</g>
<g style="fill:#840000; fill-opacity:0.0; 
stroke:#840000; stroke-width:100; stroke-opacity:1; 
stroke-linecap:round; stroke-linejoin:round;">
</g>
<g style="fill:#840000; fill-opacity:0.0; 
stroke:#840000; stroke-width:60; stroke-opacity:1; 
stroke-linecap:round; stroke-linejoin:round;">
<path d="M14170 78580
L13880 78580
" />
<path d="M14020 78580
L14020 78070
L13970 78140
L13930 78190
L13880 78210
" />
</g>
<g style="fill:#840000; fill-opacity:0.0; 
stroke:#840000; stroke-width:100; stroke-opacity:1; 
stroke-linecap:round; stroke-linejoin:round;">
</g>
<g style="fill:#840000; fill-opacity:0.0; 
stroke:#840000; stroke-width:60; stroke-opacity:1; 
stroke-linecap:round; stroke-linejoin:round;">
<path d="M33560 78110
L33580 78090
L33630 78070
L33750 78070
L33800 78090
L33820 78110
L33850 78160
L33850 78210
L33820 78280
L33530 78580
L33850 78580
" />
</g>
<g style="fill:#840000; fill-opacity:0.0; 
stroke:#840000; stroke-width:100; stroke-opacity:1; 
stroke-linecap:round; stroke-linejoin:round;">
</g>
<g style="fill:#840000; fill-opacity:0.0; 
stroke:#840000; stroke-width:60; stroke-opacity:1; 
stroke-linecap:round; stroke-linejoin:round;">
<path d="M53220 78070
L53540 78070
L53370 78260
L53440 78260
L53490 78280
L53510 78310
L53540 78360
L53540 78480
L53510 78530
L53490 78550
L53440 78580
L53300 78580
L53250 78550
L53220 78530
" />
</g>
<g style="fill:#840000; fill-opacity:0.0; 
stroke:#840000; stroke-width:100; stroke-opacity:1; 
stroke-linecap:round; stroke-linejoin:round;">
</g>
<g style="fill:#840000; fill-opacity:0.0; 
stroke:#840000; stroke-width:60; stroke-opacity:1; 
stroke-linecap:round; stroke-linejoin:round;">
<path d="M73170 78240
L73170 78580
" />
<path d="M73050 78040
L72930 78410
L73240 78410
" />
</g>
<g style="fill:#840000; fill-opacity:0.0; 
stroke:#840000; stroke-width:100; stroke-opacity:1; 
stroke-linecap:round; stroke-linejoin:round;">
</g>
<g style="fill:#840000; fill-opacity:0.0; 
stroke:#840000; stroke-width:60; stroke-opacity:1; 
stroke-linecap:round; stroke-linejoin:round;">
<path d="M92880 78070
L92640 78070
L92620 78310
L92640 78280
L92690 78260
L92810 78260
L92860 78280
L92880 78310
L92910 78360
L92910 78480
L92880 78530
L92860 78550
L92810 78580
L92690 78580
L92640 78550
L92620 78530
" />
</g>
<g style="fill:#840000; fill-opacity:0.0; 
stroke:#840000; stroke-width:100; stroke-opacity:1; 
stroke-linecap:round; stroke-linejoin:round;">
</g>
<g style="fill:#840000; fill-opacity:0.0; 
stroke:#840000; stroke-width:60; stroke-opacity:1; 
stroke-linecap:round; stroke-linejoin:round;">
<path d="M112540 78070
L112440 78070
L112390 78090
L112370 78110
L112320 78190
L112300 78280
L112300 78480
L112320 78530
L112350 78550
L112390 78580
L112490 78580
L112540 78550
L112560 78530
L112590 78480
L112590 78360
L112560 78310
L112540 78280
L112490 78260
L112390 78260
L112350 78280
L112320 78310
L112300 78360
" />
</g>
<g style="fill:#840000; fill-opacity:0.0; 
stroke:#840000; stroke-width:100; stroke-opacity:1; 
stroke-linecap:round; stroke-linejoin:round;">
</g>
<g style="fill:#840000; fill-opacity:0.0; 
stroke:#840000; stroke-width:60; stroke-opacity:1; 
stroke-linecap:round; stroke-linejoin:round;">
<path d="M3940 23620
L4720 23620
" />
</g>
<g style="fill:#840000; fill-opacity:0.0; 
stroke:#840000; stroke-width:100; stroke-opacity:1; 
stroke-linecap:round; stroke-linejoin:round;">
</g>
<g style="fill:#840000; fill-opacity:0.0; 
stroke:#840000; stroke-width:60; stroke-opacity:1; 
stroke-linecap:round; stroke-linejoin:round;">
<path d="M3940 43310
L4720 43310
" />
</g>
<g style="fill:#840000; fill-opacity:0.0; 
stroke:#840000; stroke-width:100; stroke-opacity:1; 
stroke-linecap:round; stroke-linejoin:round;">
</g>
<g style="fill:#840000; fill-opacity:0.0; 
stroke:#840000; stroke-width:60; stroke-opacity:1; 
stroke-linecap:round; stroke-linejoin:round;">
<path d="M3940 62990
L4720 62990
" />
</g>
<g style="fill:#840000; fill-opacity:0.0; 
stroke:#840000; stroke-width:100; stroke-opacity:1; 
stroke-linecap:round; stroke-linejoin:round;">
</g>
<g style="fill:#840000; fill-opacity:0.0; 
stroke:#840000; stroke-width:60; stroke-opacity:1; 
stroke-linecap:round; stroke-linejoin:round;">
<path d="M4210 13860
L4450 13860
" />
<path d="M4160 14010
L4330 13500
L4500 14010
" />
</g>
<g style="fill:#840000; fill-opacity:0.0; 
stroke:#840000; stroke-width:100; stroke-opacity:1; 
stroke-linecap:round; stroke-linejoin:round;">
</g>
<g style="fill:#840000; fill-opacity:0.0; 
stroke:#840000; stroke-width:60; stroke-opacity:1; 
stroke-linecap:round; stroke-linejoin:round;">
<path d="M4370 33420
L4440 33440
L4470 33470
L4490 33520
L4490 33590
L4470 33640
L4440 33660
L4400 33690
L4200 33690
L4200 33180
L4370 33180
L4420 33200
L4440 33220
L4470 33270
L4470 33320
L4440 33370
L4420 33390
L4370 33420
L4200 33420
" />
</g>
<g style="fill:#840000; fill-opacity:0.0; 
stroke:#840000; stroke-width:100; stroke-opacity:1; 
stroke-linecap:round; stroke-linejoin:round;">
</g>
<g style="fill:#840000; fill-opacity:0.0; 
stroke:#840000; stroke-width:60; stroke-opacity:1; 
stroke-linecap:round; stroke-linejoin:round;">
<path d="M4490 53330
L4470 53350
L4400 53380
L4350 53380
L4270 53350
L4230 53300
L4200 53250
L4180 53160
L4180 53080
L4200 52990
L4230 52940
L4270 52890
L4350 52870
L4400 52870
L4470 52890
L4490 52910
" />
</g>
<g style="fill:#840000; fill-opacity:0.0; 
stroke:#840000; stroke-width:100; stroke-opacity:1; 
stroke-linecap:round; stroke-linejoin:round;">
</g>
<g style="fill:#840000; fill-opacity:0.0; 
stroke:#840000; stroke-width:60; stroke-opacity:1; 
stroke-linecap:round; stroke-linejoin:round;">
<path d="M4200 73060
L4200 72550
L4320 72550
L4400 72570
L4440 72620
L4470 72670
L4490 72760
L4490 72840
L4470 72930
L4440 72980
L4400 73030
L4320 73060
L4200 73060
" />
</g>
<g style="fill:#840000; fill-opacity:0.0; 
stroke:#840000; stroke-width:100; stroke-opacity:1; 
stroke-linecap:round; stroke-linejoin:round;">
</g>
<g style="fill:#840000; fill-opacity:0.0; 
stroke:#840000; stroke-width:60; stroke-opacity:1; 
stroke-linecap:round; stroke-linejoin:round;">
<path d="M112990 23620
L112210 23620
" />
</g>
<g style="fill:#840000; fill-opacity:0.0; 
stroke:#840000; stroke-width:100; stroke-opacity:1; 
stroke-linecap:round; stroke-linejoin:round;">
</g>
<g style="fill:#840000; fill-opacity:0.0; 
stroke:#840000; stroke-width:60; stroke-opacity:1; 
stroke-linecap:round; stroke-linejoin:round;">
<path d="M112990 43310
L112210 43310
" />
</g>
<g style="fill:#840000; fill-opacity:0.0; 
stroke:#840000; stroke-width:100; stroke-opacity:1; 
stroke-linecap:round; stroke-linejoin:round;">
</g>
<g style="fill:#840000; fill-opacity:0.0; 
stroke:#840000; stroke-width:60; stroke-opacity:1; 
stroke-linecap:round; stroke-linejoin:round;">
<path d="M112990 62990
L112210 62990
" />
</g>
<g style="fill:#840000; fill-opacity:0.0; 
stroke:#840000; stroke-width:100; stroke-opacity:1; 
stroke-linecap:round; stroke-linejoin:round;">
</g>
<g style="fill:#840000; fill-opacity:0.0; 
stroke:#840000; stroke-width:60; stroke-opacity:1; 
stroke-linecap:round; stroke-linejoin:round;">
<path d="M112480 13860
L112720 13860
" />
<path d="M112430 14010
L112600 13500
L112770 14010
" />
</g>
<g style="fill:#840000; fill-opacity:0.0; 
stroke:#840000; stroke-width:100; stroke-opacity:1; 
stroke-linecap:round; stroke-linejoin:round;">
</g>
<g style="fill:#840000; fill-opacity:0.0; 
stroke:#840000; stroke-width:60; stroke-opacity:1; 
stroke-linecap:round; stroke-linejoin:round;">
<path d="M112640 33420
L112710 33440
L112740 33470
L112760 33520
L112760 33590
L112740 33640
L112710 33660
L112670 33690
L112470 33690
L112470 33180
L112640 33180
L112690 33200
L112710 33220
L112740 33270
L112740 33320
L112710 33370
L112690 33390
L112640 33420
L112470 33420
" />
</g>
<g style="fill:#840000; fill-opacity:0.0; 
stroke:#840000; stroke-width:100; stroke-opacity:1; 
stroke-linecap:round; stroke-linejoin:round;">
</g>
<g style="fill:#840000; fill-opacity:0.0; 
stroke:#840000; stroke-width:60; stroke-opacity:1; 
stroke-linecap:round; stroke-linejoin:round;">
<path d="M112760 53330
L112740 53350
L112670 53380
L112620 53380
L112540 53350
L112500 53300
L112470 53250
L112450 53160
L112450 53080
L112470 52990
L112500 52940
L112540 52890
L112620 52870
L112670 52870
L112740 52890
L112760 52910
" />
</g>
<g style="fill:#840000; fill-opacity:0.0; 
stroke:#840000; stroke-width:100; stroke-opacity:1; 
stroke-linecap:round; stroke-linejoin:round;">
</g>
<g style="fill:#840000; fill-opacity:0.0; 
stroke:#840000; stroke-width:60; stroke-opacity:1; 
stroke-linecap:round; stroke-linejoin:round;">
<path d="M112470 73060
L112470 72550
L112590 72550
L112670 72570
L112710 72620
L112740 72670
L112760 72760
L112760 72840
L112740 72930
L112710 72980
L112670 73030
L112590 73060
L112470 73060
" />
</g>
<g style="fill:#840000; fill-opacity:0.0; 
stroke:#840000; stroke-width:100; stroke-opacity:1; 
stroke-linecap:round; stroke-linejoin:round;">
</g>
<g style="fill:#840000; fill-opacity:0.0; 
stroke:#840000; stroke-width:60; stroke-opacity:1; 
stroke-linecap:round; stroke-linejoin:round;">
<path d="M78880 76290
L78880 75700
L79020 75700
L79110 75730
L79160 75790
L79190 75840
L79220 75950
L79220 76040
L79190 76150
L79160 76210
L79110 76260
L79020 76290
L78880 76290
" />
<path d="M79720 76290
L79720 75980
L79700 75930
L79640 75900
L79530 75900
L79470 75930
" />
<path d="M79720 76260
L79670 76290
L79530 76290
L79470 76260
L79440 76210
L79440 76150
L79470 76100
L79530 76070
L79670 76070
L79720 76040
" />
<path d="M79920 75900
L80140 75900
" />
<path d="M80000 75700
L80000 76210
L80030 76260
L80080 76290
L80140 76290
" />
<path d="M80570 76260
L80510 76290
L80400 76290
L80340 76260
L80310 76210
L80310 75980
L80340 75930
L80400 75900
L80510 75900
L80570 75930
L80590 75980
L80590 76040
L80310 76100
" />
<path d="M80850 76240
L80880 76260
L80850 76290
L80820 76260
L80850 76240
L80850 76290
" />
<path d="M80850 75930
L80880 75950
L80850 75980
L80820 75950
L80850 75930
L80850 75980
" />
</g>
<g style="fill:#840000; fill-opacity:0.0; 
stroke:#840000; stroke-width:100; stroke-opacity:1; 
stroke-linecap:round; stroke-linejoin:round;">
</g>
<g style="fill:#840000; fill-opacity:0.0; 
stroke:#840000; stroke-width:60; stroke-opacity:1; 
stroke-linecap:round; stroke-linejoin:round;">
<path d="M69690 76580
L112210 76580
" />
</g>
<g style="fill:#840000; fill-opacity:0.0; 
stroke:#840000; stroke-width:100; stroke-opacity:1; 
stroke-linecap:round; stroke-linejoin:round;">
</g>
<g style="fill:#840000; fill-opacity:0.0; 
stroke:#840000; stroke-width:60; stroke-opacity:1; 
stroke-linecap:round; stroke-linejoin:round;">
<path d="M70220 77390
L70220 76800
" />
<path d="M70560 77390
L70300 77050
" />
<path d="M70560 76800
L70220 77140
" />
<path d="M70810 77390
L70810 77000
" />
<path d="M70810 76800
L70780 76830
L70810 76860
L70840 76830
L70810 76800
L70810 76860
" />
<path d="M71430 77340
L71400 77360
L71320 77390
L71260 77390
L71170 77360
L71120 77310
L71090 77250
L71060 77140
L71060 77050
L71090 76940
L71120 76890
L71170 76830
L71260 76800
L71320 76800
L71400 76830
L71430 76860
" />
<path d="M71930 77390
L71930 77080
L71910 77030
L71850 77000
L71740 77000
L71680 77030
" />
<path d="M71930 77360
L71880 77390
L71740 77390
L71680 77360
L71650 77310
L71650 77250
L71680 77200
L71740 77170
L71880 77170
L71930 77140
" />
<path d="M72460 77390
L72460 76800
" />
<path d="M72460 77360
L72410 77390
L72290 77390
L72240 77360
L72210 77340
L72180 77280
L72180 77110
L72210 77050
L72240 77030
L72290 77000
L72410 77000
L72460 77030
" />
<path d="M73190 77080
L73390 77080
" />
<path d="M73470 77390
L73190 77390
L73190 76800
L73470 76800
" />
<path d="M73720 77340
L73750 77360
L73720 77390
L73690 77360
L73720 77340
L73720 77390
" />
<path d="M74000 77390
L74000 76800
L74140 76800
L74230 76830
L74280 76890
L74310 76940
L74340 77050
L74340 77140
L74310 77250
L74280 77310
L74230 77360
L74140 77390
L74000 77390
" />
<path d="M74590 77340
L74620 77360
L74590 77390
L74560 77360
L74590 77340
L74590 77390
" />
<path d="M74840 77220
L75120 77220
" />
<path d="M74790 77390
L74980 76800
L75180 77390
" />
<path d="M75380 77340
L75410 77360
L75380 77390
L75350 77360
L75380 77340
L75380 77390
" />
<path d="M76560 77390
L76560 76800
" />
<path d="M76620 77170
L76790 77390
" />
<path d="M76790 77000
L76560 77220
" />
<path d="M77040 77390
L77040 77000
" />
<path d="M77040 76800
L77010 76830
L77040 76860
L77070 76830
L77040 76800
L77040 76860
" />
<path d="M77570 77360
L77520 77390
L77400 77390
L77350 77360
L77320 77340
L77290 77280
L77290 77110
L77320 77050
L77350 77030
L77400 77000
L77520 77000
L77570 77030
" />
<path d="M78080 77390
L78080 77080
L78060 77030
L78000 77000
L77890 77000
L77830 77030
" />
<path d="M78080 77360
L78030 77390
L77890 77390
L77830 77360
L77800 77310
L77800 77250
L77830 77200
L77890 77170
L78030 77170
L78080 77140
" />
<path d="M78610 77390
L78610 76800
" />
<path d="M78610 77360
L78560 77390
L78440 77390
L78390 77360
L78360 77340
L78330 77280
L78330 77110
L78360 77050
L78390 77030
L78440 77000
L78560 77000
L78610 77030
" />
<path d="M79590 77000
L79590 77390
" />
<path d="M79450 76770
L79310 77200
L79680 77200
" />
<path d="M79900 77340
L79930 77360
L79900 77390
L79870 77360
L79900 77340
L79900 77390
" />
<path d="M80290 76800
L80350 76800
L80410 76830
L80430 76860
L80460 76910
L80490 77030
L80490 77170
L80460 77280
L80430 77340
L80410 77360
L80350 77390
L80290 77390
L80240 77360
L80210 77340
L80180 77280
L80150 77170
L80150 77030
L80180 76910
L80210 76860
L80240 76830
L80290 76800
" />
<path d="M80740 77340
L80770 77360
L80740 77390
L80710 77360
L80740 77340
L80740 77390
" />
<path d="M81270 76800
L81160 76800
L81100 76830
L81080 76860
L81020 76940
L80990 77050
L80990 77280
L81020 77340
L81050 77360
L81100 77390
L81220 77390
L81270 77360
L81300 77340
L81330 77280
L81330 77140
L81300 77080
L81270 77050
L81220 77030
L81100 77030
L81050 77050
L81020 77080
L80990 77140
" />
</g>
<g style="fill:#840000; fill-opacity:0.0; 
stroke:#840000; stroke-width:100; stroke-opacity:1; 
stroke-linecap:round; stroke-linejoin:round;">
</g>
<g style="fill:#840000; fill-opacity:0.0; 
stroke:#840000; stroke-width:60; stroke-opacity:1; 
stroke-linecap:round; stroke-linejoin:round;">
<path d="M69690 75400
L112210 75400
" />
</g>
<g style="fill:#840000; fill-opacity:0.0; 
stroke:#840000; stroke-width:100; stroke-opacity:1; 
stroke-linecap:round; stroke-linejoin:round;">
</g>
<g style="fill:#840000; fill-opacity:0.0; 
stroke:#840000; stroke-width:120; stroke-opacity:1; 
stroke-linecap:round; stroke-linejoin:round;">
<path d="M104020 76290
L103820 76010
" />
<path d="M103680 76290
L103680 75700
L103910 75700
L103960 75730
L103990 75760
L104020 75810
L104020 75900
L103990 75950
L103960 75980
L103910 76010
L103680 76010
" />
<path d="M104500 76260
L104440 76290
L104330 76290
L104270 76260
L104240 76210
L104240 75980
L104270 75930
L104330 75900
L104440 75900
L104500 75930
L104520 75980
L104520 76040
L104240 76100
" />
<path d="M104720 75900
L104860 76290
L105010 75900
" />
<path d="M105230 76240
L105260 76260
L105230 76290
L105200 76260
L105230 76240
L105230 76290
" />
<path d="M105230 75930
L105260 75950
L105230 75980
L105200 75950
L105230 75930
L105230 75980
" />
</g>
<g style="fill:#840000; fill-opacity:0.0; 
stroke:#840000; stroke-width:100; stroke-opacity:1; 
stroke-linecap:round; stroke-linejoin:round;">
</g>
<g style="fill:#840000; fill-opacity:0.0; 
stroke:#840000; stroke-width:60; stroke-opacity:1; 
stroke-linecap:round; stroke-linejoin:round;">
<path d="M70190 76260
L70280 76290
L70420 76290
L70470 76260
L70500 76240
L70530 76180
L70530 76120
L70500 76070
L70470 76040
L70420 76010
L70300 75980
L70250 75950
L70220 75930
L70190 75870
L70190 75810
L70220 75760
L70250 75730
L70300 75700
L70450 75700
L70530 75730
" />
<path d="M70780 76290
L70780 75900
" />
<path d="M70780 75700
L70750 75730
L70780 75760
L70810 75730
L70780 75700
L70780 75760
" />
<path d="M71000 75900
L71310 75900
L71000 76290
L71310 76290
" />
<path d="M71770 76260
L71710 76290
L71600 76290
L71540 76260
L71510 76210
L71510 75980
L71540 75930
L71600 75900
L71710 75900
L71770 75930
L71790 75980
L71790 76040
L71510 76100
" />
<path d="M72050 76240
L72080 76260
L72050 76290
L72020 76260
L72050 76240
L72050 76290
" />
<path d="M72050 75930
L72080 75950
L72050 75980
L72020 75950
L72050 75930
L72050 75980
" />
<path d="M72750 76120
L73030 76120
" />
<path d="M72700 76290
L72890 75700
L73090 76290
" />
<path d="M73540 75900
L73540 76290
" />
<path d="M73400 75670
L73260 76100
L73630 76100
" />
</g>
<g style="fill:#840000; fill-opacity:0.0; 
stroke:#840000; stroke-width:100; stroke-opacity:1; 
stroke-linecap:round; stroke-linejoin:round;">
</g>
<g style="fill:#840000; fill-opacity:0.0; 
stroke:#840000; stroke-width:60; stroke-opacity:1; 
stroke-linecap:round; stroke-linejoin:round;">
<path d="M103680 77390
L103680 76800
" />
<path d="M104210 77390
L104210 76800
" />
<path d="M104210 77360
L104160 77390
L104040 77390
L103990 77360
L103960 77340
L103930 77280
L103930 77110
L103960 77050
L103990 77030
L104040 77000
L104160 77000
L104210 77030
" />
<path d="M104490 77340
L104520 77360
L104490 77390
L104460 77360
L104490 77340
L104490 77390
" />
<path d="M104490 77030
L104520 77050
L104490 77080
L104460 77050
L104490 77030
L104490 77080
" />
<path d="M105190 76860
L105220 76830
L105280 76800
L105420 76800
L105470 76830
L105500 76860
L105530 76910
L105530 76970
L105500 77050
L105160 77390
L105530 77390
" />
<path d="M106200 76770
L105700 77530
" />
<path d="M106650 76800
L106540 76800
L106480 76830
L106460 76860
L106400 76940
L106370 77050
L106370 77280
L106400 77340
L106430 77360
L106480 77390
L106600 77390
L106650 77360
L106680 77340
L106710 77280
L106710 77140
L106680 77080
L106650 77050
L106600 77030
L106480 77030
L106430 77050
L106400 77080
L106370 77140
" />
</g>
<g style="fill:#840000; fill-opacity:0.0; 
stroke:#840000; stroke-width:100; stroke-opacity:1; 
stroke-linecap:round; stroke-linejoin:round;">
</g>
<g style="fill:#840000; fill-opacity:0.0; 
stroke:#840000; stroke-width:60; stroke-opacity:1; 
stroke-linecap:round; stroke-linejoin:round;">
<path d="M69690 73820
L112210 73820
" />
</g>
<g style="fill:#840000; fill-opacity:0.0; 
stroke:#840000; stroke-width:100; stroke-opacity:1; 
stroke-linecap:round; stroke-linejoin:round;">
</g>
<g style="fill:#840000; fill-opacity:0.0; 
stroke:#840000; stroke-width:160; stroke-opacity:1; 
stroke-linecap:round; stroke-linejoin:round;">
<path d="M70260 74090
L70710 74090
" />
<path d="M70390 74880
L70480 74090
" />
<path d="M70880 74880
L70940 74360
" />
<path d="M70970 74090
L70930 74130
L70960 74170
L71010 74130
L70970 74090
L70960 74170
" />
<path d="M71210 74360
L71510 74360
" />
<path d="M71350 74090
L71270 74770
L71300 74840
L71370 74880
L71450 74880
" />
<path d="M71820 74880
L71750 74840
L71720 74770
L71800 74090
" />
<path d="M72420 74840
L72340 74880
L72190 74880
L72120 74840
L72090 74770
L72130 74470
L72180 74390
L72250 74360
L72400 74360
L72480 74390
L72510 74470
L72500 74540
L72110 74620
" />
<path d="M72800 74810
L72840 74840
L72800 74880
L72760 74840
L72800 74810
L72800 74880
" />
<path d="M72860 74390
L72890 74430
L72850 74470
L72810 74430
L72860 74390
L72850 74470
" />
</g>
<g style="fill:#840000; fill-opacity:0.0; 
stroke:#840000; stroke-width:100; stroke-opacity:1; 
stroke-linecap:round; stroke-linejoin:round;">
</g>
<g style="fill:#840000; fill-opacity:0.0; 
stroke:#840000; stroke-width:60; stroke-opacity:1; 
stroke-linecap:round; stroke-linejoin:round;">
<path d="M70420 73060
L70220 73060
" />
<path d="M70220 73370
L70220 72780
L70500 72780
" />
<path d="M70730 73370
L70730 72980
" />
<path d="M70730 72780
L70700 72810
L70730 72840
L70760 72810
L70730 72780
L70730 72840
" />
<path d="M71090 73370
L71040 73340
L71010 73290
L71010 72780
" />
<path d="M71550 73340
L71490 73370
L71380 73370
L71320 73340
L71290 73290
L71290 73060
L71320 73010
L71380 72980
L71490 72980
L71550 73010
L71570 73060
L71570 73120
L71290 73180
" />
<path d="M71830 73320
L71860 73340
L71830 73370
L71800 73340
L71830 73320
L71830 73370
" />
<path d="M71830 73010
L71860 73030
L71830 73060
L71800 73030
L71830 73010
L71830 73060
" />
<path d="M72560 72980
L72560 73570
" />
<path d="M72560 73010
L72620 72980
L72730 72980
L72790 73010
L72810 73030
L72840 73090
L72840 73260
L72810 73320
L72790 73340
L72730 73370
L72620 73370
L72560 73340
" />
<path d="M73170 73370
L73120 73340
L73090 73320
L73060 73260
L73060 73090
L73090 73030
L73120 73010
L73170 72980
L73260 72980
L73320 73010
L73340 73030
L73370 73090
L73370 73260
L73340 73320
L73320 73340
L73260 73370
L73170 73370
" />
<path d="M73560 72980
L73680 73370
L73790 73090
L73900 73370
L74010 72980
" />
<path d="M74470 73340
L74410 73370
L74300 73370
L74240 73340
L74210 73290
L74210 73060
L74240 73010
L74300 72980
L74410 72980
L74470 73010
L74490 73060
L74490 73120
L74210 73180
" />
<path d="M74750 73370
L74750 72980
" />
<path d="M74750 73090
L74780 73030
L74810 73010
L74860 72980
L74920 72980
" />
<path d="M75120 73320
L75150 73340
L75120 73370
L75090 73340
L75120 73320
L75120 73370
" />
<path d="M75370 73340
L75430 73370
L75540 73370
L75600 73340
L75630 73290
L75630 73260
L75600 73200
L75540 73180
L75460 73180
L75400 73150
L75370 73090
L75370 73060
L75400 73010
L75460 72980
L75540 72980
L75600 73010
" />
<path d="M76130 73340
L76080 73370
L75960 73370
L75910 73340
L75880 73320
L75850 73260
L75850 73090
L75880 73030
L75910 73010
L75960 72980
L76080 72980
L76130 73010
" />
<path d="M76390 73370
L76390 72780
" />
<path d="M76640 73370
L76640 73060
L76620 73010
L76560 72980
L76470 72980
L76420 73010
L76390 73030
" />
</g>
<g style="fill:#840000; fill-opacity:0.0; 
stroke:#840000; stroke-width:100; stroke-opacity:1; 
stroke-linecap:round; stroke-linejoin:round;">
</g>
<g style="fill:#840000; fill-opacity:0.0; 
stroke:#840000; stroke-width:60; stroke-opacity:1; 
stroke-linecap:round; stroke-linejoin:round;">
<path d="M69690 71460
L112210 71460
" />
</g>
<g style="fill:#840000; fill-opacity:0.0; 
stroke:#840000; stroke-width:100; stroke-opacity:1; 
stroke-linecap:round; stroke-linejoin:round;">
</g>
<g style="fill:#840000; fill-opacity:0.0; 
stroke:#840000; stroke-width:60; stroke-opacity:1; 
stroke-linecap:round; stroke-linejoin:round;">
<path d="M70190 72280
L70280 72310
L70420 72310
L70470 72280
L70500 72260
L70530 72200
L70530 72140
L70500 72090
L70470 72060
L70420 72030
L70300 72000
L70250 71970
L70220 71950
L70190 71890
L70190 71830
L70220 71780
L70250 71750
L70300 71720
L70450 71720
L70530 71750
" />
<path d="M70780 72310
L70780 71720
" />
<path d="M71030 72310
L71030 72000
L71010 71950
L70950 71920
L70860 71920
L70810 71950
L70780 71970
" />
<path d="M71540 72280
L71480 72310
L71370 72310
L71310 72280
L71280 72230
L71280 72000
L71310 71950
L71370 71920
L71480 71920
L71540 71950
L71560 72000
L71560 72060
L71280 72120
" />
<path d="M72050 72280
L71990 72310
L71880 72310
L71820 72280
L71790 72230
L71790 72000
L71820 71950
L71880 71920
L71990 71920
L72050 71950
L72070 72000
L72070 72060
L71790 72120
" />
<path d="M72250 71920
L72470 71920
" />
<path d="M72330 71720
L72330 72230
L72360 72280
L72410 72310
L72470 72310
" />
<path d="M72670 72260
L72700 72280
L72670 72310
L72640 72280
L72670 72260
L72670 72310
" />
<path d="M72670 71950
L72700 71970
L72670 72000
L72640 71970
L72670 71950
L72670 72000
" />
<path d="M73820 71690
L73320 72450
" />
<path d="M74020 71920
L74020 72510
" />
<path d="M74020 71950
L74080 71920
L74190 71920
L74250 71950
L74270 71970
L74300 72030
L74300 72200
L74270 72260
L74250 72280
L74190 72310
L74080 72310
L74020 72280
" />
<path d="M74630 72310
L74580 72280
L74550 72260
L74520 72200
L74520 72030
L74550 71970
L74580 71950
L74630 71920
L74720 71920
L74780 71950
L74800 71970
L74830 72030
L74830 72200
L74800 72260
L74780 72280
L74720 72310
L74630 72310
" />
<path d="M75020 71920
L75140 72310
L75250 72030
L75360 72310
L75470 71920
" />
<path d="M75930 72280
L75870 72310
L75760 72310
L75700 72280
L75670 72230
L75670 72000
L75700 71950
L75760 71920
L75870 71920
L75930 71950
L75950 72000
L75950 72060
L75670 72120
" />
<path d="M76210 72310
L76210 71920
" />
<path d="M76210 72030
L76240 71970
L76270 71950
L76320 71920
L76380 71920
" />
<path d="M77000 71690
L76500 72450
" />
</g>
<g style="fill:#840000; fill-opacity:0.0; 
stroke:#840000; stroke-width:100; stroke-opacity:1; 
stroke-linecap:round; stroke-linejoin:round;">
</g>
<g style="fill:#840000; fill-opacity:0.0; 
stroke:#840000; stroke-width:60; stroke-opacity:1; 
stroke-linecap:round; stroke-linejoin:round;">
<path d="M77560 75400
L77560 76580
" />
</g>
<g style="fill:#840000; fill-opacity:0.0; 
stroke:#840000; stroke-width:100; stroke-opacity:1; 
stroke-linecap:round; stroke-linejoin:round;">
</g>
<g style="fill:#840000; fill-opacity:0.0; 
stroke:#840000; stroke-width:60; stroke-opacity:1; 
stroke-linecap:round; stroke-linejoin:round;">
<path d="M102760 75400
L102760 77960
" />
</g>
<g style="fill:#840000; fill-opacity:0.0; 
stroke:#840000; stroke-width:0; stroke-opacity:1; 
stroke-linecap:round; stroke-linejoin:round;">
</g>
<g style="fill:#FFFFC2; fill-opacity:0.0; 
stroke:#FFFFC2; stroke-width:0; stroke-opacity:1; 
stroke-linecap:round; stroke-linejoin:round;">
</g>
<g style="fill:#FFFFC2; fill-opacity:0.6; 
stroke:#FFFFC2; stroke-width:0; stroke-opacity:1; 
stroke-linecap:round; stroke-linejoin:round;">
<rect x="52000" y="23000" width="5000" height="3500" rx="0" />
</g>
<g style="fill:#840000; fill-opacity:0.6; 
stroke:#840000; stroke-width:0; stroke-opacity:1; 
stroke-linecap:round; stroke-linejoin:round;">
</g>
<g style="fill:#840000; fill-opacity:0.0; 
stroke:#840000; stroke-width:100; stroke-opacity:1; 
stroke-linecap:round; stroke-linejoin:round;">
<rect x="52000" y="23000" width="5000" height="3500" rx="0" />
</g>
<g style="fill:#840000; fill-opacity:0.0; 
stroke:#840000; stroke-width:60; stroke-opacity:1; 
stroke-linecap:round; stroke-linejoin:round;">
<path d="M52000 23500
L50500 23500
" />
</g>
<g style="fill:#008484; fill-opacity:0.0; 
stroke:#008484; stroke-width:60; stroke-opacity:1; 
stroke-linecap:round; stroke-linejoin:round;">
<path d="M52450 23230
L52610 23730
L52780 23230
" />
<path d="M52950 23730
L52950 23230
" />
<path d="M53190 23730
L53190 23230
L53470 23730
L53470 23230
" />
</g>
<g style="fill:#840000; fill-opacity:0.0; 
stroke:#840000; stroke-width:60; stroke-opacity:1; 
stroke-linecap:round; stroke-linejoin:round;">
<path d="M51390 23380
L51110 23380
" />
<path d="M51250 23380
L51250 22880
L51200 22950
L51150 23000
L51110 23020
" />
<path d="M54500 26500
L54500 27500
" />
</g>
<g style="fill:#008484; fill-opacity:0.0; 
stroke:#008484; stroke-width:60; stroke-opacity:1; 
stroke-linecap:round; stroke-linejoin:round;">
<path d="M54250 25720
L54230 25770
L54230 25840
L54250 25910
L54300 25960
L54350 25980
L54440 26000
L54510 26000
L54610 25980
L54650 25960
L54700 25910
L54730 25840
L54730 25790
L54700 25720
L54680 25700
L54510 25700
L54510 25790
" />
<path d="M54730 25480
L54230 25480
L54730 25200
L54230 25200
" />
<path d="M54730 24960
L54230 24960
L54230 24840
L54250 24770
L54300 24720
L54350 24700
L54440 24680
L54510 24680
L54610 24700
L54650 24720
L54700 24770
L54730 24840
L54730 24960
" />
</g>
<g style="fill:#840000; fill-opacity:0.0; 
stroke:#840000; stroke-width:60; stroke-opacity:1; 
stroke-linecap:round; stroke-linejoin:round;">
<path d="M53920 27140
L53900 27120
L53880 27070
L53880 26950
L53900 26910
L53920 26880
L53970 26860
L54020 26860
L54090 26880
L54380 27170
L54380 26860
" />
<path d="M52000 25500
L50500 25500
" />
</g>
<g style="fill:#008484; fill-opacity:0.0; 
stroke:#008484; stroke-width:60; stroke-opacity:1; 
stroke-linecap:round; stroke-linejoin:round;">
<path d="M52520 25460
L52690 25460
" />
<path d="M52760 25730
L52520 25730
L52520 25230
L52760 25230
" />
<path d="M52970 25730
L52970 25230
L53250 25730
L53250 25230
" />
</g>
<g style="fill:#840000; fill-opacity:0.0; 
stroke:#840000; stroke-width:60; stroke-opacity:1; 
stroke-linecap:round; stroke-linejoin:round;">
<path d="M51080 24880
L51390 24880
L51220 25070
L51300 25070
L51340 25090
L51370 25110
L51390 25160
L51390 25280
L51370 25330
L51340 25350
L51300 25380
L51150 25380
L51110 25350
L51080 25330
" />
<path d="M57000 25500
L58500 25500
" />
</g>
<g style="fill:#008484; fill-opacity:0.0; 
stroke:#008484; stroke-width:60; stroke-opacity:1; 
stroke-linecap:round; stroke-linejoin:round;">
<path d="M55960 25460
L55790 25460
" />
<path d="M55790 25730
L55790 25230
L56030 25230
" />
<path d="M56390 25460
L56460 25490
L56480 25510
L56500 25560
L56500 25630
L56480 25680
L56460 25700
L56410 25730
L56220 25730
L56220 25230
L56390 25230
L56430 25250
L56460 25270
L56480 25320
L56480 25370
L56460 25420
L56430 25440
L56390 25460
L56220 25460
" />
</g>
<g style="fill:#840000; fill-opacity:0.0; 
stroke:#840000; stroke-width:60; stroke-opacity:1; 
stroke-linecap:round; stroke-linejoin:round;">
<path d="M57840 25040
L57840 25380
" />
<path d="M57720 24850
L57610 25210
L57910 25210
" />
<path d="M57000 23500
L58500 23500
" />
</g>
<g style="fill:#008484; fill-opacity:0.0; 
stroke:#008484; stroke-width:60; stroke-opacity:1; 
stroke-linecap:round; stroke-linejoin:round;">
<path d="M54800 23230
L54960 23730
L55130 23230
" />
<path d="M55390 23230
L55490 23230
L55540 23250
L55580 23300
L55610 23390
L55610 23560
L55580 23650
L55540 23700
L55490 23730
L55390 23730
L55350 23700
L55300 23650
L55280 23560
L55280 23390
L55300 23300
L55350 23250
L55390 23230
" />
<path d="M55820 23230
L55820 23630
L55840 23680
L55870 23700
L55910 23730
L56010 23730
L56060 23700
L56080 23680
L56100 23630
L56100 23230
" />
<path d="M56270 23230
L56550 23230
" />
<path d="M56410 23730
L56410 23230
" />
</g>
<g style="fill:#840000; fill-opacity:0.0; 
stroke:#840000; stroke-width:60; stroke-opacity:1; 
stroke-linecap:round; stroke-linejoin:round;">
<path d="M57870 22880
L57630 22880
L57610 23110
L57630 23090
L57680 23070
L57800 23070
L57840 23090
L57870 23110
L57890 23160
L57890 23280
L57870 23330
L57840 23350
L57800 23380
L57680 23380
L57630 23350
L57610 23330
" />
</g>
<g style="fill:#008484; fill-opacity:0.0; 
stroke:#008484; stroke-width:60; stroke-opacity:1; 
stroke-linecap:round; stroke-linejoin:round;">
<path d="M52120 22260
L52120 22660
L52140 22710
L52170 22730
L52210 22760
L52310 22760
L52360 22730
L52380 22710
L52400 22660
L52400 22260
" />
<path d="M52850 22420
L52850 22760
" />
<path d="M52730 22230
L52620 22590
L52920 22590
" />
<path d="M53290 22260
L53570 22260
" />
<path d="M53430 22760
L53430 22260
" />
<path d="M53740 22760
L53740 22260
L53930 22260
L53980 22280
L54000 22300
L54020 22350
L54020 22420
L54000 22470
L53980 22490
L53930 22520
L53740 22520
" />
<path d="M54220 22730
L54290 22760
L54410 22760
L54450 22730
L54480 22710
L54500 22660
L54500 22610
L54480 22570
L54450 22540
L54410 22520
L54310 22490
L54260 22470
L54240 22450
L54220 22400
L54220 22350
L54240 22300
L54260 22280
L54310 22260
L54430 22260
L54500 22280
" />
<path d="M54670 22260
L55000 22260
L54790 22760
" />
<path d="M55150 22260
L55460 22260
L55290 22450
L55370 22450
L55410 22470
L55440 22490
L55460 22540
L55460 22660
L55440 22710
L55410 22730
L55370 22760
L55220 22760
L55180 22730
L55150 22710
" />
<path d="M55940 22760
L55660 22760
" />
<path d="M55800 22760
L55800 22260
L55750 22330
L55700 22380
L55660 22400
" />
<path d="M56110 22260
L56420 22260
L56250 22450
L56330 22450
L56370 22470
L56400 22490
L56420 22540
L56420 22660
L56400 22710
L56370 22730
L56330 22760
L56180 22760
L56140 22730
L56110 22710
" />
<path d="M56590 22260
L56900 22260
L56730 22450
L56810 22450
L56850 22470
L56880 22490
L56900 22540
L56900 22660
L56880 22710
L56850 22730
L56810 22760
L56660 22760
L56620 22730
L56590 22710
" />
</g>
<g style="fill:#008484; fill-opacity:0.0; 
stroke:#008484; stroke-width:0; stroke-opacity:1; 
stroke-linecap:round; stroke-linejoin:round;">
</g>
<g style="fill:#840000; fill-opacity:0.0; 
stroke:#840000; stroke-width:0; stroke-opacity:1; 
stroke-linecap:round; stroke-linejoin:round;">
</g>
<g style="fill:#840000; fill-opacity:0.0; 
stroke:#840000; stroke-width:200; stroke-opacity:1; 
stroke-linecap:round; stroke-linejoin:round;">
<polyline fill="none;"
points="44700,25300
46300,25300
" /> 
<polyline fill="none;"
points="44700,24700
46300,24700
" /> 
</g>
<g style="fill:#840000; fill-opacity:0.0; 
stroke:#840000; stroke-width:60; stroke-opacity:1; 
stroke-linecap:round; stroke-linejoin:round;">
<path d="M45500 24600
L45500 23500
" />
<path d="M45500 25400
L45500 26500
" />
</g>
<g style="fill:#008484; fill-opacity:0.0; 
stroke:#008484; stroke-width:60; stroke-opacity:1; 
stroke-linecap:round; stroke-linejoin:round;">
<path d="M46150 24210
L46130 24230
L46060 24260
L46010 24260
L45940 24230
L45890 24180
L45870 24140
L45850 24040
L45850 23970
L45870 23880
L45890 23830
L45940 23780
L46010 23760
L46060 23760
L46130 23780
L46150 23800
" />
<path d="M46630 24260
L46350 24260
" />
<path d="M46490 24260
L46490 23760
L46440 23830
L46390 23880
L46350 23900
" />
<path d="M47060 23920
L47060 24260
" />
<path d="M46940 23730
L46830 24090
L47130 24090
" />
<path d="M46130 26260
L45850 26260
" />
<path d="M45990 26260
L45990 25760
L45940 25830
L45890 25880
L45850 25900
" />
<path d="M46560 25920
L46560 26260
" />
<path d="M46350 25920
L46350 26180
L46370 26230
L46420 26260
L46490 26260
L46540 26230
L46560 26210
" />
<path d="M46970 25990
L46800 25990
" />
<path d="M46800 26260
L46800 25760
L47040 25760
" />
</g>
<g style="fill:#008484; fill-opacity:0.0; 
stroke:#008484; stroke-width:0; stroke-opacity:1; 
stroke-linecap:round; stroke-linejoin:round;">
</g>
<g style="fill:#840000; fill-opacity:0.0; 
stroke:#840000; stroke-width:0; stroke-opacity:1; 
stroke-linecap:round; stroke-linejoin:round;">
</g>
<g style="fill:#840000; fill-opacity:0.0; 
stroke:#840000; stroke-width:200; stroke-opacity:1; 
stroke-linecap:round; stroke-linejoin:round;">
<polyline fill="none;"
points="59200,27300
60800,27300
" /> 
<polyline fill="none;"
points="59200,26700
60800,26700
" /> 
</g>
<g style="fill:#840000; fill-opacity:0.0; 
stroke:#840000; stroke-width:60; stroke-opacity:1; 
stroke-linecap:round; stroke-linejoin:round;">
<path d="M60000 26600
L60000 25500
" />
<path d="M60000 27400
L60000 28500
" />
</g>
<g style="fill:#008484; fill-opacity:0.0; 
stroke:#008484; stroke-width:60; stroke-opacity:1; 
stroke-linecap:round; stroke-linejoin:round;">
<path d="M60650 26210
L60630 26230
L60560 26260
L60510 26260
L60440 26230
L60390 26180
L60370 26140
L60350 26040
L60350 25970
L60370 25880
L60390 25830
L60440 25780
L60510 25760
L60560 25760
L60630 25780
L60650 25800
" />
<path d="M61130 26260
L60850 26260
" />
<path d="M60990 26260
L60990 25760
L60940 25830
L60890 25880
L60850 25900
" />
<path d="M61590 25760
L61350 25760
L61330 25990
L61350 25970
L61400 25950
L61520 25950
L61560 25970
L61590 25990
L61610 26040
L61610 26160
L61590 26210
L61560 26230
L61520 26260
L61400 26260
L61350 26230
L61330 26210
" />
<path d="M60630 28260
L60350 28260
" />
<path d="M60490 28260
L60490 27760
L60440 27830
L60390 27880
L60350 27900
" />
<path d="M61060 27920
L61060 28260
" />
<path d="M60850 27920
L60850 28180
L60870 28230
L60920 28260
L60990 28260
L61040 28230
L61060 28210
" />
<path d="M61470 27990
L61300 27990
" />
<path d="M61300 28260
L61300 27760
L61540 27760
" />
</g>
<g style="fill:#008484; fill-opacity:0.0; 
stroke:#008484; stroke-width:0; stroke-opacity:1; 
stroke-linecap:round; stroke-linejoin:round;">
</g>
<g style="fill:#840000; fill-opacity:0.0; 
stroke:#840000; stroke-width:0; stroke-opacity:1; 
stroke-linecap:round; stroke-linejoin:round;">
</g>
<g style="fill:#840000; fill-opacity:0.0; 
stroke:#840000; stroke-width:200; stroke-opacity:1; 
stroke-linecap:round; stroke-linejoin:round;">
<polyline fill="none;"
points="61700,27300
63300,27300
" /> 
<polyline fill="none;"
points="61700,26700
63300,26700
" /> 
</g>
<g style="fill:#840000; fill-opacity:0.0; 
stroke:#840000; stroke-width:60; stroke-opacity:1; 
stroke-linecap:round; stroke-linejoin:round;">
<path d="M62500 26600
L62500 25500
" />
<path d="M62500 27400
L62500 28500
" />
</g>
<g style="fill:#008484; fill-opacity:0.0; 
stroke:#008484; stroke-width:60; stroke-opacity:1; 
stroke-linecap:round; stroke-linejoin:round;">
<path d="M63150 26210
L63130 26230
L63060 26260
L63010 26260
L62940 26230
L62890 26180
L62870 26140
L62850 26040
L62850 25970
L62870 25880
L62890 25830
L62940 25780
L63010 25760
L63060 25760
L63130 25780
L63150 25800
" />
<path d="M63630 26260
L63350 26260
" />
<path d="M63490 26260
L63490 25760
L63440 25830
L63390 25880
L63350 25900
" />
<path d="M64060 25760
L63970 25760
L63920 25780
L63900 25800
L63850 25880
L63830 25970
L63830 26160
L63850 26210
L63870 26230
L63920 26260
L64020 26260
L64060 26230
L64090 26210
L64110 26160
L64110 26040
L64090 25990
L64060 25970
L64020 25950
L63920 25950
L63870 25970
L63850 25990
L63830 26040
" />
<path d="M63130 28260
L62850 28260
" />
<path d="M62990 28260
L62990 27760
L62940 27830
L62890 27880
L62850 27900
" />
<path d="M63560 27920
L63560 28260
" />
<path d="M63350 27920
L63350 28180
L63370 28230
L63420 28260
L63490 28260
L63540 28230
L63560 28210
" />
<path d="M63970 27990
L63800 27990
" />
<path d="M63800 28260
L63800 27760
L64040 27760
" />
</g>
<g style="fill:#008400; fill-opacity:0.0; 
stroke:#008400; stroke-width:60; stroke-opacity:1; 
stroke-linecap:round; stroke-linejoin:round;">
<path d="M37500 23500
L50500 23500
" />
</g>
<g style="fill:#008400; fill-opacity:0.0; 
stroke:#008400; stroke-width:0; stroke-opacity:1; 
stroke-linecap:round; stroke-linejoin:round;">
</g>
<g style="fill:#008400; fill-opacity:1.0; 
stroke:#008400; stroke-width:100; stroke-opacity:1; 
stroke-linecap:round; stroke-linejoin:round;">
<circle cx="45500" cy="23500" r="200" /> 
</g>
<g style="fill:#008400; fill-opacity:1.0; 
stroke:#008400; stroke-width:60; stroke-opacity:1; 
stroke-linecap:round; stroke-linejoin:round;">
</g>
<g style="fill:#008400; fill-opacity:0.0; 
stroke:#008400; stroke-width:60; stroke-opacity:1; 
stroke-linecap:round; stroke-linejoin:round;">
<path d="M49000 23500
L49000 25500
" />
<path d="M49000 25500
L50500 25500
" />
</g>
<g style="fill:#008400; fill-opacity:0.0; 
stroke:#008400; stroke-width:0; stroke-opacity:1; 
stroke-linecap:round; stroke-linejoin:round;">
</g>
<g style="fill:#008400; fill-opacity:1.0; 
stroke:#008400; stroke-width:100; stroke-opacity:1; 
stroke-linecap:round; stroke-linejoin:round;">
<circle cx="49000" cy="23500" r="200" /> 
</g>
<g style="fill:#008400; fill-opacity:1.0; 
stroke:#008400; stroke-width:60; stroke-opacity:1; 
stroke-linecap:round; stroke-linejoin:round;">
</g>
<g style="fill:#008400; fill-opacity:0.0; 
stroke:#008400; stroke-width:60; stroke-opacity:1; 
stroke-linecap:round; stroke-linejoin:round;">
<path d="M58500 25500
L60000 25500
" />
<path d="M62500 25500
L62500 23500
" />
<path d="M42500 28500
L62500 28500
" />
<path d="M54500 28500
L54500 27500
" />
</g>
<g style="fill:#008400; fill-opacity:0.0; 
stroke:#008400; stroke-width:0; stroke-opacity:1; 
stroke-linecap:round; stroke-linejoin:round;">
</g>
<g style="fill:#008400; fill-opacity:1.0; 
stroke:#008400; stroke-width:100; stroke-opacity:1; 
stroke-linecap:round; stroke-linejoin:round;">
<circle cx="60000" cy="28500" r="200" /> 
</g>
<g style="fill:#008400; fill-opacity:1.0; 
stroke:#008400; stroke-width:60; stroke-opacity:1; 
stroke-linecap:round; stroke-linejoin:round;">
</g>
<g style="fill:#008400; fill-opacity:0.0; 
stroke:#008400; stroke-width:60; stroke-opacity:1; 
stroke-linecap:round; stroke-linejoin:round;">
<path d="M45500 28500
L45500 26500
" />
</g>
<g style="fill:#008400; fill-opacity:0.0; 
stroke:#008400; stroke-width:0; stroke-opacity:1; 
stroke-linecap:round; stroke-linejoin:round;">
</g>
<g style="fill:#008400; fill-opacity:1.0; 
stroke:#008400; stroke-width:100; stroke-opacity:1; 
stroke-linecap:round; stroke-linejoin:round;">
<circle cx="54500" cy="28500" r="200" /> 
</g>
<g style="fill:#008400; fill-opacity:1.0; 
stroke:#008400; stroke-width:0; stroke-opacity:1; 
stroke-linecap:round; stroke-linejoin:round;">
</g>
<g style="fill:#008400; fill-opacity:1.0; 
stroke:#008400; stroke-width:100; stroke-opacity:1; 
stroke-linecap:round; stroke-linejoin:round;">
<circle cx="45500" cy="28500" r="200" /> 
</g>
<g style="fill:#008400; fill-opacity:1.0; 
stroke:#008400; stroke-width:0; stroke-opacity:1; 
stroke-linecap:round; stroke-linejoin:round;">
</g>
<g style="fill:#840000; fill-opacity:1.0; 
stroke:#840000; stroke-width:0; stroke-opacity:1; 
stroke-linecap:round; stroke-linejoin:round;">
</g>
<g style="fill:#FFFFC2; fill-opacity:1.0; 
stroke:#FFFFC2; stroke-width:0; stroke-opacity:1; 
stroke-linecap:round; stroke-linejoin:round;">
</g>
<g style="fill:#FFFFC2; fill-opacity:0.6; 
stroke:#FFFFC2; stroke-width:0; stroke-opacity:1; 
stroke-linecap:round; stroke-linejoin:round;">
<rect x="52000" y="34000" width="5000" height="3500" rx="0" />
</g>
<g style="fill:#840000; fill-opacity:0.6; 
stroke:#840000; stroke-width:0; stroke-opacity:1; 
stroke-linecap:round; stroke-linejoin:round;">
</g>
<g style="fill:#840000; fill-opacity:0.0; 
stroke:#840000; stroke-width:100; stroke-opacity:1; 
stroke-linecap:round; stroke-linejoin:round;">
<rect x="52000" y="34000" width="5000" height="3500" rx="0" />
</g>
<g style="fill:#840000; fill-opacity:0.0; 
stroke:#840000; stroke-width:60; stroke-opacity:1; 
stroke-linecap:round; stroke-linejoin:round;">
<path d="M52000 34500
L50500 34500
" />
</g>
<g style="fill:#008484; fill-opacity:0.0; 
stroke:#008484; stroke-width:60; stroke-opacity:1; 
stroke-linecap:round; stroke-linejoin:round;">
<path d="M52450 34230
L52610 34730
L52780 34230
" />
<path d="M52950 34730
L52950 34230
" />
<path d="M53190 34730
L53190 34230
L53470 34730
L53470 34230
" />
</g>
<g style="fill:#840000; fill-opacity:0.0; 
stroke:#840000; stroke-width:60; stroke-opacity:1; 
stroke-linecap:round; stroke-linejoin:round;">
<path d="M51390 34380
L51110 34380
" />
<path d="M51250 34380
L51250 33880
L51200 33950
L51150 34000
L51110 34020
" />
<path d="M54500 37500
L54500 38500
" />
</g>
<g style="fill:#008484; fill-opacity:0.0; 
stroke:#008484; stroke-width:60; stroke-opacity:1; 
stroke-linecap:round; stroke-linejoin:round;">
<path d="M54250 36720
L54230 36770
L54230 36840
L54250 36910
L54300 36960
L54350 36980
L54440 37000
L54510 37000
L54610 36980
L54650 36960
L54700 36910
L54730 36840
L54730 36790
L54700 36720
L54680 36700
L54510 36700
L54510 36790
" />
<path d="M54730 36480
L54230 36480
L54730 36200
L54230 36200
" />
<path d="M54730 35960
L54230 35960
L54230 35840
L54250 35770
L54300 35720
L54350 35700
L54440 35680
L54510 35680
L54610 35700
L54650 35720
L54700 35770
L54730 35840
L54730 35960
" />
</g>
<g style="fill:#840000; fill-opacity:0.0; 
stroke:#840000; stroke-width:60; stroke-opacity:1; 
stroke-linecap:round; stroke-linejoin:round;">
<path d="M53920 38140
L53900 38120
L53880 38070
L53880 37950
L53900 37910
L53920 37880
L53970 37860
L54020 37860
L54090 37880
L54380 38170
L54380 37860
" />
<path d="M52000 36500
L50500 36500
" />
</g>
<g style="fill:#008484; fill-opacity:0.0; 
stroke:#008484; stroke-width:60; stroke-opacity:1; 
stroke-linecap:round; stroke-linejoin:round;">
<path d="M52520 36460
L52690 36460
" />
<path d="M52760 36730
L52520 36730
L52520 36230
L52760 36230
" />
<path d="M52970 36730
L52970 36230
L53250 36730
L53250 36230
" />
</g>
<g style="fill:#840000; fill-opacity:0.0; 
stroke:#840000; stroke-width:60; stroke-opacity:1; 
stroke-linecap:round; stroke-linejoin:round;">
<path d="M51080 35880
L51390 35880
L51220 36070
L51300 36070
L51340 36090
L51370 36110
L51390 36160
L51390 36280
L51370 36330
L51340 36350
L51300 36380
L51150 36380
L51110 36350
L51080 36330
" />
<path d="M57000 36500
L58500 36500
" />
</g>
<g style="fill:#008484; fill-opacity:0.0; 
stroke:#008484; stroke-width:60; stroke-opacity:1; 
stroke-linecap:round; stroke-linejoin:round;">
<path d="M55960 36460
L55790 36460
" />
<path d="M55790 36730
L55790 36230
L56030 36230
" />
<path d="M56390 36460
L56460 36490
L56480 36510
L56500 36560
L56500 36630
L56480 36680
L56460 36700
L56410 36730
L56220 36730
L56220 36230
L56390 36230
L56430 36250
L56460 36270
L56480 36320
L56480 36370
L56460 36420
L56430 36440
L56390 36460
L56220 36460
" />
</g>
<g style="fill:#840000; fill-opacity:0.0; 
stroke:#840000; stroke-width:60; stroke-opacity:1; 
stroke-linecap:round; stroke-linejoin:round;">
<path d="M57840 36040
L57840 36380
" />
<path d="M57720 35850
L57610 36210
L57910 36210
" />
<path d="M57000 34500
L58500 34500
" />
</g>
<g style="fill:#008484; fill-opacity:0.0; 
stroke:#008484; stroke-width:60; stroke-opacity:1; 
stroke-linecap:round; stroke-linejoin:round;">
<path d="M54800 34230
L54960 34730
L55130 34230
" />
<path d="M55390 34230
L55490 34230
L55540 34250
L55580 34300
L55610 34390
L55610 34560
L55580 34650
L55540 34700
L55490 34730
L55390 34730
L55350 34700
L55300 34650
L55280 34560
L55280 34390
L55300 34300
L55350 34250
L55390 34230
" />
<path d="M55820 34230
L55820 34630
L55840 34680
L55870 34700
L55910 34730
L56010 34730
L56060 34700
L56080 34680
L56100 34630
L56100 34230
" />
<path d="M56270 34230
L56550 34230
" />
<path d="M56410 34730
L56410 34230
" />
</g>
<g style="fill:#840000; fill-opacity:0.0; 
stroke:#840000; stroke-width:60; stroke-opacity:1; 
stroke-linecap:round; stroke-linejoin:round;">
<path d="M57870 33880
L57630 33880
L57610 34110
L57630 34090
L57680 34070
L57800 34070
L57840 34090
L57870 34110
L57890 34160
L57890 34280
L57870 34330
L57840 34350
L57800 34380
L57680 34380
L57630 34350
L57610 34330
" />
</g>
<g style="fill:#008484; fill-opacity:0.0; 
stroke:#008484; stroke-width:60; stroke-opacity:1; 
stroke-linecap:round; stroke-linejoin:round;">
<path d="M52120 33260
L52120 33660
L52140 33710
L52170 33730
L52210 33760
L52310 33760
L52360 33730
L52380 33710
L52400 33660
L52400 33260
" />
<path d="M52880 33260
L52640 33260
L52620 33490
L52640 33470
L52690 33450
L52810 33450
L52850 33470
L52880 33490
L52900 33540
L52900 33660
L52880 33710
L52850 33730
L52810 33760
L52690 33760
L52640 33730
L52620 33710
" />
<path d="M53290 33260
L53570 33260
" />
<path d="M53430 33760
L53430 33260
" />
<path d="M53740 33760
L53740 33260
L53930 33260
L53980 33280
L54000 33300
L54020 33350
L54020 33420
L54000 33470
L53980 33490
L53930 33520
L53740 33520
" />
<path d="M54220 33730
L54290 33760
L54410 33760
L54450 33730
L54480 33710
L54500 33660
L54500 33610
L54480 33570
L54450 33540
L54410 33520
L54310 33490
L54260 33470
L54240 33450
L54220 33400
L54220 33350
L54240 33300
L54260 33280
L54310 33260
L54430 33260
L54500 33280
" />
<path d="M54670 33260
L55000 33260
L54790 33760
" />
<path d="M55150 33260
L55460 33260
L55290 33450
L55370 33450
L55410 33470
L55440 33490
L55460 33540
L55460 33660
L55440 33710
L55410 33730
L55370 33760
L55220 33760
L55180 33730
L55150 33710
" />
<path d="M55940 33760
L55660 33760
" />
<path d="M55800 33760
L55800 33260
L55750 33330
L55700 33380
L55660 33400
" />
<path d="M56110 33260
L56420 33260
L56250 33450
L56330 33450
L56370 33470
L56400 33490
L56420 33540
L56420 33660
L56400 33710
L56370 33730
L56330 33760
L56180 33760
L56140 33730
L56110 33710
" />
<path d="M56590 33260
L56900 33260
L56730 33450
L56810 33450
L56850 33470
L56880 33490
L56900 33540
L56900 33660
L56880 33710
L56850 33730
L56810 33760
L56660 33760
L56620 33730
L56590 33710
" />
</g>
<g style="fill:#008484; fill-opacity:0.0; 
stroke:#008484; stroke-width:0; stroke-opacity:1; 
stroke-linecap:round; stroke-linejoin:round;">
</g>
<g style="fill:#840000; fill-opacity:0.0; 
stroke:#840000; stroke-width:0; stroke-opacity:1; 
stroke-linecap:round; stroke-linejoin:round;">
</g>
<g style="fill:#840000; fill-opacity:0.0; 
stroke:#840000; stroke-width:200; stroke-opacity:1; 
stroke-linecap:round; stroke-linejoin:round;">
<polyline fill="none;"
points="44700,36300
46300,36300
" /> 
<polyline fill="none;"
points="44700,35700
46300,35700
" /> 
</g>
<g style="fill:#840000; fill-opacity:0.0; 
stroke:#840000; stroke-width:60; stroke-opacity:1; 
stroke-linecap:round; stroke-linejoin:round;">
<path d="M45500 35600
L45500 34500
" />
<path d="M45500 36400
L45500 37500
" />
</g>
<g style="fill:#008484; fill-opacity:0.0; 
stroke:#008484; stroke-width:60; stroke-opacity:1; 
stroke-linecap:round; stroke-linejoin:round;">
<path d="M46150 35210
L46130 35230
L46060 35260
L46010 35260
L45940 35230
L45890 35180
L45870 35140
L45850 35040
L45850 34970
L45870 34880
L45890 34830
L45940 34780
L46010 34760
L46060 34760
L46130 34780
L46150 34800
" />
<path d="M46630 35260
L46350 35260
" />
<path d="M46490 35260
L46490 34760
L46440 34830
L46390 34880
L46350 34900
" />
<path d="M46800 34760
L47130 34760
L46920 35260
" />
<path d="M46130 37260
L45850 37260
" />
<path d="M45990 37260
L45990 36760
L45940 36830
L45890 36880
L45850 36900
" />
<path d="M46560 36920
L46560 37260
" />
<path d="M46350 36920
L46350 37180
L46370 37230
L46420 37260
L46490 37260
L46540 37230
L46560 37210
" />
<path d="M46970 36990
L46800 36990
" />
<path d="M46800 37260
L46800 36760
L47040 36760
" />
</g>
<g style="fill:#008484; fill-opacity:0.0; 
stroke:#008484; stroke-width:0; stroke-opacity:1; 
stroke-linecap:round; stroke-linejoin:round;">
</g>
<g style="fill:#840000; fill-opacity:0.0; 
stroke:#840000; stroke-width:0; stroke-opacity:1; 
stroke-linecap:round; stroke-linejoin:round;">
</g>
<g style="fill:#840000; fill-opacity:0.0; 
stroke:#840000; stroke-width:200; stroke-opacity:1; 
stroke-linecap:round; stroke-linejoin:round;">
<polyline fill="none;"
points="59200,38300
60800,38300
" /> 
<polyline fill="none;"
points="59200,37700
60800,37700
" /> 
</g>
<g style="fill:#840000; fill-opacity:0.0; 
stroke:#840000; stroke-width:60; stroke-opacity:1; 
stroke-linecap:round; stroke-linejoin:round;">
<path d="M60000 37600
L60000 36500
" />
<path d="M60000 38400
L60000 39500
" />
</g>
<g style="fill:#008484; fill-opacity:0.0; 
stroke:#008484; stroke-width:60; stroke-opacity:1; 
stroke-linecap:round; stroke-linejoin:round;">
<path d="M60650 37210
L60630 37230
L60560 37260
L60510 37260
L60440 37230
L60390 37180
L60370 37140
L60350 37040
L60350 36970
L60370 36880
L60390 36830
L60440 36780
L60510 36760
L60560 36760
L60630 36780
L60650 36800
" />
<path d="M61130 37260
L60850 37260
" />
<path d="M60990 37260
L60990 36760
L60940 36830
L60890 36880
L60850 36900
" />
<path d="M61420 36970
L61370 36950
L61350 36920
L61330 36880
L61330 36850
L61350 36800
L61370 36780
L61420 36760
L61520 36760
L61560 36780
L61590 36800
L61610 36850
L61610 36880
L61590 36920
L61560 36950
L61520 36970
L61420 36970
L61370 36990
L61350 37020
L61330 37070
L61330 37160
L61350 37210
L61370 37230
L61420 37260
L61520 37260
L61560 37230
L61590 37210
L61610 37160
L61610 37070
L61590 37020
L61560 36990
L61520 36970
" />
<path d="M60630 39260
L60350 39260
" />
<path d="M60490 39260
L60490 38760
L60440 38830
L60390 38880
L60350 38900
" />
<path d="M61060 38920
L61060 39260
" />
<path d="M60850 38920
L60850 39180
L60870 39230
L60920 39260
L60990 39260
L61040 39230
L61060 39210
" />
<path d="M61470 38990
L61300 38990
" />
<path d="M61300 39260
L61300 38760
L61540 38760
" />
</g>
<g style="fill:#008484; fill-opacity:0.0; 
stroke:#008484; stroke-width:0; stroke-opacity:1; 
stroke-linecap:round; stroke-linejoin:round;">
</g>
<g style="fill:#840000; fill-opacity:0.0; 
stroke:#840000; stroke-width:0; stroke-opacity:1; 
stroke-linecap:round; stroke-linejoin:round;">
</g>
<g style="fill:#840000; fill-opacity:0.0; 
stroke:#840000; stroke-width:200; stroke-opacity:1; 
stroke-linecap:round; stroke-linejoin:round;">
<polyline fill="none;"
points="61700,38300
63300,38300
" /> 
<polyline fill="none;"
points="61700,37700
63300,37700
" /> 
</g>
<g style="fill:#840000; fill-opacity:0.0; 
stroke:#840000; stroke-width:60; stroke-opacity:1; 
stroke-linecap:round; stroke-linejoin:round;">
<path d="M62500 37600
L62500 36500
" />
<path d="M62500 38400
L62500 39500
" />
</g>
<g style="fill:#008484; fill-opacity:0.0; 
stroke:#008484; stroke-width:60; stroke-opacity:1; 
stroke-linecap:round; stroke-linejoin:round;">
<path d="M63150 37210
L63130 37230
L63060 37260
L63010 37260
L62940 37230
L62890 37180
L62870 37140
L62850 37040
L62850 36970
L62870 36880
L62890 36830
L62940 36780
L63010 36760
L63060 36760
L63130 36780
L63150 36800
" />
<path d="M63630 37260
L63350 37260
" />
<path d="M63490 37260
L63490 36760
L63440 36830
L63390 36880
L63350 36900
" />
<path d="M63870 37260
L63970 37260
L64020 37230
L64040 37210
L64090 37140
L64110 37040
L64110 36850
L64090 36800
L64060 36780
L64020 36760
L63920 36760
L63870 36780
L63850 36800
L63830 36850
L63830 36970
L63850 37020
L63870 37040
L63920 37070
L64020 37070
L64060 37040
L64090 37020
L64110 36970
" />
<path d="M63130 39260
L62850 39260
" />
<path d="M62990 39260
L62990 38760
L62940 38830
L62890 38880
L62850 38900
" />
<path d="M63560 38920
L63560 39260
" />
<path d="M63350 38920
L63350 39180
L63370 39230
L63420 39260
L63490 39260
L63540 39230
L63560 39210
" />
<path d="M63970 38990
L63800 38990
" />
<path d="M63800 39260
L63800 38760
L64040 38760
" />
</g>
<g style="fill:#008484; fill-opacity:0.0; 
stroke:#008484; stroke-width:0; stroke-opacity:1; 
stroke-linecap:round; stroke-linejoin:round;">
</g>
<g style="fill:#008400; fill-opacity:0.0; 
stroke:#008400; stroke-width:0; stroke-opacity:1; 
stroke-linecap:round; stroke-linejoin:round;">
</g>
<g style="fill:#008400; fill-opacity:1.0; 
stroke:#008400; stroke-width:100; stroke-opacity:1; 
stroke-linecap:round; stroke-linejoin:round;">
<circle cx="45500" cy="34500" r="200" /> 
</g>
<g style="fill:#008400; fill-opacity:1.0; 
stroke:#008400; stroke-width:60; stroke-opacity:1; 
stroke-linecap:round; stroke-linejoin:round;">
</g>
<g style="fill:#008400; fill-opacity:0.0; 
stroke:#008400; stroke-width:60; stroke-opacity:1; 
stroke-linecap:round; stroke-linejoin:round;">
<path d="M49000 34500
L49000 36500
" />
<path d="M49000 36500
L50500 36500
" />
</g>
<g style="fill:#008400; fill-opacity:0.0; 
stroke:#008400; stroke-width:0; stroke-opacity:1; 
stroke-linecap:round; stroke-linejoin:round;">
</g>
<g style="fill:#008400; fill-opacity:1.0; 
stroke:#008400; stroke-width:100; stroke-opacity:1; 
stroke-linecap:round; stroke-linejoin:round;">
<circle cx="49000" cy="34500" r="200" /> 
</g>
<g style="fill:#008400; fill-opacity:1.0; 
stroke:#008400; stroke-width:60; stroke-opacity:1; 
stroke-linecap:round; stroke-linejoin:round;">
</g>
<g style="fill:#008400; fill-opacity:0.0; 
stroke:#008400; stroke-width:60; stroke-opacity:1; 
stroke-linecap:round; stroke-linejoin:round;">
<path d="M58500 36500
L60000 36500
" />
<path d="M62500 36500
L62500 34500
" />
<path d="M58500 34500
L63500 34500
" />
<path d="M42500 39500
L62500 39500
" />
<path d="M54500 39500
L54500 38500
" />
</g>
<g style="fill:#008400; fill-opacity:0.0; 
stroke:#008400; stroke-width:0; stroke-opacity:1; 
stroke-linecap:round; stroke-linejoin:round;">
</g>
<g style="fill:#008400; fill-opacity:1.0; 
stroke:#008400; stroke-width:100; stroke-opacity:1; 
stroke-linecap:round; stroke-linejoin:round;">
<circle cx="60000" cy="39500" r="200" /> 
</g>
<g style="fill:#008400; fill-opacity:1.0; 
stroke:#008400; stroke-width:60; stroke-opacity:1; 
stroke-linecap:round; stroke-linejoin:round;">
</g>
<g style="fill:#008400; fill-opacity:0.0; 
stroke:#008400; stroke-width:60; stroke-opacity:1; 
stroke-linecap:round; stroke-linejoin:round;">
<path d="M45500 39500
L45500 37500
" />
</g>
<g style="fill:#008400; fill-opacity:0.0; 
stroke:#008400; stroke-width:0; stroke-opacity:1; 
stroke-linecap:round; stroke-linejoin:round;">
</g>
<g style="fill:#008400; fill-opacity:1.0; 
stroke:#008400; stroke-width:100; stroke-opacity:1; 
stroke-linecap:round; stroke-linejoin:round;">
<circle cx="54500" cy="39500" r="200" /> 
</g>
<g style="fill:#008400; fill-opacity:1.0; 
stroke:#008400; stroke-width:0; stroke-opacity:1; 
stroke-linecap:round; stroke-linejoin:round;">
</g>
<g style="fill:#008400; fill-opacity:1.0; 
stroke:#008400; stroke-width:100; stroke-opacity:1; 
stroke-linecap:round; stroke-linejoin:round;">
<circle cx="45500" cy="39500" r="200" /> 
</g>
<g style="fill:#008400; fill-opacity:1.0; 
stroke:#008400; stroke-width:0; stroke-opacity:1; 
stroke-linecap:round; stroke-linejoin:round;">
</g>
<g style="fill:#840000; fill-opacity:1.0; 
stroke:#840000; stroke-width:0; stroke-opacity:1; 
stroke-linecap:round; stroke-linejoin:round;">
</g>
<g style="fill:#FFFFC2; fill-opacity:1.0; 
stroke:#FFFFC2; stroke-width:0; stroke-opacity:1; 
stroke-linecap:round; stroke-linejoin:round;">
</g>
<g style="fill:#FFFFC2; fill-opacity:0.6; 
stroke:#FFFFC2; stroke-width:0; stroke-opacity:1; 
stroke-linecap:round; stroke-linejoin:round;">
<rect x="52000" y="45000" width="5000" height="3500" rx="0" />
</g>
<g style="fill:#840000; fill-opacity:0.6; 
stroke:#840000; stroke-width:0; stroke-opacity:1; 
stroke-linecap:round; stroke-linejoin:round;">
</g>
<g style="fill:#840000; fill-opacity:0.0; 
stroke:#840000; stroke-width:100; stroke-opacity:1; 
stroke-linecap:round; stroke-linejoin:round;">
<rect x="52000" y="45000" width="5000" height="3500" rx="0" />
</g>
<g style="fill:#840000; fill-opacity:0.0; 
stroke:#840000; stroke-width:60; stroke-opacity:1; 
stroke-linecap:round; stroke-linejoin:round;">
<path d="M52000 45500
L50500 45500
" />
</g>
<g style="fill:#008484; fill-opacity:0.0; 
stroke:#008484; stroke-width:60; stroke-opacity:1; 
stroke-linecap:round; stroke-linejoin:round;">
<path d="M52450 45230
L52610 45730
L52780 45230
" />
<path d="M52950 45730
L52950 45230
" />
<path d="M53190 45730
L53190 45230
L53470 45730
L53470 45230
" />
</g>
<g style="fill:#840000; fill-opacity:0.0; 
stroke:#840000; stroke-width:60; stroke-opacity:1; 
stroke-linecap:round; stroke-linejoin:round;">
<path d="M51390 45380
L51110 45380
" />
<path d="M51250 45380
L51250 44880
L51200 44950
L51150 45000
L51110 45020
" />
<path d="M54500 48500
L54500 49500
" />
</g>
<g style="fill:#008484; fill-opacity:0.0; 
stroke:#008484; stroke-width:60; stroke-opacity:1; 
stroke-linecap:round; stroke-linejoin:round;">
<path d="M54250 47720
L54230 47770
L54230 47840
L54250 47910
L54300 47960
L54350 47980
L54440 48000
L54510 48000
L54610 47980
L54650 47960
L54700 47910
L54730 47840
L54730 47790
L54700 47720
L54680 47700
L54510 47700
L54510 47790
" />
<path d="M54730 47480
L54230 47480
L54730 47200
L54230 47200
" />
<path d="M54730 46960
L54230 46960
L54230 46840
L54250 46770
L54300 46720
L54350 46700
L54440 46680
L54510 46680
L54610 46700
L54650 46720
L54700 46770
L54730 46840
L54730 46960
" />
</g>
<g style="fill:#840000; fill-opacity:0.0; 
stroke:#840000; stroke-width:60; stroke-opacity:1; 
stroke-linecap:round; stroke-linejoin:round;">
<path d="M53920 49140
L53900 49120
L53880 49070
L53880 48950
L53900 48910
L53920 48880
L53970 48860
L54020 48860
L54090 48880
L54380 49170
L54380 48860
" />
<path d="M52000 47500
L50500 47500
" />
</g>
<g style="fill:#008484; fill-opacity:0.0; 
stroke:#008484; stroke-width:60; stroke-opacity:1; 
stroke-linecap:round; stroke-linejoin:round;">
<path d="M52520 47460
L52690 47460
" />
<path d="M52760 47730
L52520 47730
L52520 47230
L52760 47230
" />
<path d="M52970 47730
L52970 47230
L53250 47730
L53250 47230
" />
</g>
<g style="fill:#840000; fill-opacity:0.0; 
stroke:#840000; stroke-width:60; stroke-opacity:1; 
stroke-linecap:round; stroke-linejoin:round;">
<path d="M51080 46880
L51390 46880
L51220 47070
L51300 47070
L51340 47090
L51370 47110
L51390 47160
L51390 47280
L51370 47330
L51340 47350
L51300 47380
L51150 47380
L51110 47350
L51080 47330
" />
<path d="M57000 47500
L58500 47500
" />
</g>
<g style="fill:#008484; fill-opacity:0.0; 
stroke:#008484; stroke-width:60; stroke-opacity:1; 
stroke-linecap:round; stroke-linejoin:round;">
<path d="M55960 47460
L55790 47460
" />
<path d="M55790 47730
L55790 47230
L56030 47230
" />
<path d="M56390 47460
L56460 47490
L56480 47510
L56500 47560
L56500 47630
L56480 47680
L56460 47700
L56410 47730
L56220 47730
L56220 47230
L56390 47230
L56430 47250
L56460 47270
L56480 47320
L56480 47370
L56460 47420
L56430 47440
L56390 47460
L56220 47460
" />
</g>
<g style="fill:#840000; fill-opacity:0.0; 
stroke:#840000; stroke-width:60; stroke-opacity:1; 
stroke-linecap:round; stroke-linejoin:round;">
<path d="M57840 47040
L57840 47380
" />
<path d="M57720 46850
L57610 47210
L57910 47210
" />
<path d="M57000 45500
L58500 45500
" />
</g>
<g style="fill:#008484; fill-opacity:0.0; 
stroke:#008484; stroke-width:60; stroke-opacity:1; 
stroke-linecap:round; stroke-linejoin:round;">
<path d="M54800 45230
L54960 45730
L55130 45230
" />
<path d="M55390 45230
L55490 45230
L55540 45250
L55580 45300
L55610 45390
L55610 45560
L55580 45650
L55540 45700
L55490 45730
L55390 45730
L55350 45700
L55300 45650
L55280 45560
L55280 45390
L55300 45300
L55350 45250
L55390 45230
" />
<path d="M55820 45230
L55820 45630
L55840 45680
L55870 45700
L55910 45730
L56010 45730
L56060 45700
L56080 45680
L56100 45630
L56100 45230
" />
<path d="M56270 45230
L56550 45230
" />
<path d="M56410 45730
L56410 45230
" />
</g>
<g style="fill:#840000; fill-opacity:0.0; 
stroke:#840000; stroke-width:60; stroke-opacity:1; 
stroke-linecap:round; stroke-linejoin:round;">
<path d="M57870 44880
L57630 44880
L57610 45110
L57630 45090
L57680 45070
L57800 45070
L57840 45090
L57870 45110
L57890 45160
L57890 45280
L57870 45330
L57840 45350
L57800 45380
L57680 45380
L57630 45350
L57610 45330
" />
</g>
<g style="fill:#008484; fill-opacity:0.0; 
stroke:#008484; stroke-width:60; stroke-opacity:1; 
stroke-linecap:round; stroke-linejoin:round;">
<path d="M52120 44260
L52120 44660
L52140 44710
L52170 44730
L52210 44760
L52310 44760
L52360 44730
L52380 44710
L52400 44660
L52400 44260
" />
<path d="M52850 44260
L52760 44260
L52710 44280
L52690 44300
L52640 44380
L52620 44470
L52620 44660
L52640 44710
L52660 44730
L52710 44760
L52810 44760
L52850 44730
L52880 44710
L52900 44660
L52900 44540
L52880 44490
L52850 44470
L52810 44450
L52710 44450
L52660 44470
L52640 44490
L52620 44540
" />
<path d="M53290 44260
L53570 44260
" />
<path d="M53430 44760
L53430 44260
" />
<path d="M53740 44760
L53740 44260
L53930 44260
L53980 44280
L54000 44300
L54020 44350
L54020 44420
L54000 44470
L53980 44490
L53930 44520
L53740 44520
" />
<path d="M54220 44730
L54290 44760
L54410 44760
L54450 44730
L54480 44710
L54500 44660
L54500 44610
L54480 44570
L54450 44540
L54410 44520
L54310 44490
L54260 44470
L54240 44450
L54220 44400
L54220 44350
L54240 44300
L54260 44280
L54310 44260
L54430 44260
L54500 44280
" />
<path d="M54670 44260
L55000 44260
L54790 44760
" />
<path d="M55150 44260
L55460 44260
L55290 44450
L55370 44450
L55410 44470
L55440 44490
L55460 44540
L55460 44660
L55440 44710
L55410 44730
L55370 44760
L55220 44760
L55180 44730
L55150 44710
" />
<path d="M55940 44760
L55660 44760
" />
<path d="M55800 44760
L55800 44260
L55750 44330
L55700 44380
L55660 44400
" />
<path d="M56110 44260
L56420 44260
L56250 44450
L56330 44450
L56370 44470
L56400 44490
L56420 44540
L56420 44660
L56400 44710
L56370 44730
L56330 44760
L56180 44760
L56140 44730
L56110 44710
" />
<path d="M56590 44260
L56900 44260
L56730 44450
L56810 44450
L56850 44470
L56880 44490
L56900 44540
L56900 44660
L56880 44710
L56850 44730
L56810 44760
L56660 44760
L56620 44730
L56590 44710
" />
</g>
<g style="fill:#008484; fill-opacity:0.0; 
stroke:#008484; stroke-width:0; stroke-opacity:1; 
stroke-linecap:round; stroke-linejoin:round;">
</g>
<g style="fill:#840000; fill-opacity:0.0; 
stroke:#840000; stroke-width:0; stroke-opacity:1; 
stroke-linecap:round; stroke-linejoin:round;">
</g>
<g style="fill:#840000; fill-opacity:0.0; 
stroke:#840000; stroke-width:200; stroke-opacity:1; 
stroke-linecap:round; stroke-linejoin:round;">
<polyline fill="none;"
points="44700,47300
46300,47300
" /> 
<polyline fill="none;"
points="44700,46700
46300,46700
" /> 
</g>
<g style="fill:#840000; fill-opacity:0.0; 
stroke:#840000; stroke-width:60; stroke-opacity:1; 
stroke-linecap:round; stroke-linejoin:round;">
<path d="M45500 46600
L45500 45500
" />
<path d="M45500 47400
L45500 48500
" />
</g>
<g style="fill:#008484; fill-opacity:0.0; 
stroke:#008484; stroke-width:60; stroke-opacity:1; 
stroke-linecap:round; stroke-linejoin:round;">
<path d="M46150 46210
L46130 46230
L46060 46260
L46010 46260
L45940 46230
L45890 46180
L45870 46140
L45850 46040
L45850 45970
L45870 45880
L45890 45830
L45940 45780
L46010 45760
L46060 45760
L46130 45780
L46150 45800
" />
<path d="M46350 45800
L46370 45780
L46420 45760
L46540 45760
L46580 45780
L46610 45800
L46630 45850
L46630 45900
L46610 45970
L46320 46260
L46630 46260
" />
<path d="M46940 45760
L46990 45760
L47040 45780
L47060 45800
L47090 45850
L47110 45950
L47110 46070
L47090 46160
L47060 46210
L47040 46230
L46990 46260
L46940 46260
L46900 46230
L46870 46210
L46850 46160
L46830 46070
L46830 45950
L46850 45850
L46870 45800
L46900 45780
L46940 45760
" />
<path d="M46130 48260
L45850 48260
" />
<path d="M45990 48260
L45990 47760
L45940 47830
L45890 47880
L45850 47900
" />
<path d="M46560 47920
L46560 48260
" />
<path d="M46350 47920
L46350 48180
L46370 48230
L46420 48260
L46490 48260
L46540 48230
L46560 48210
" />
<path d="M46970 47990
L46800 47990
" />
<path d="M46800 48260
L46800 47760
L47040 47760
" />
</g>
<g style="fill:#008484; fill-opacity:0.0; 
stroke:#008484; stroke-width:0; stroke-opacity:1; 
stroke-linecap:round; stroke-linejoin:round;">
</g>
<g style="fill:#840000; fill-opacity:0.0; 
stroke:#840000; stroke-width:0; stroke-opacity:1; 
stroke-linecap:round; stroke-linejoin:round;">
</g>
<g style="fill:#840000; fill-opacity:0.0; 
stroke:#840000; stroke-width:200; stroke-opacity:1; 
stroke-linecap:round; stroke-linejoin:round;">
<polyline fill="none;"
points="59200,49300
60800,49300
" /> 
<polyline fill="none;"
points="59200,48700
60800,48700
" /> 
</g>
<g style="fill:#840000; fill-opacity:0.0; 
stroke:#840000; stroke-width:60; stroke-opacity:1; 
stroke-linecap:round; stroke-linejoin:round;">
<path d="M60000 48600
L60000 47500
" />
<path d="M60000 49400
L60000 50500
" />
</g>
<g style="fill:#008484; fill-opacity:0.0; 
stroke:#008484; stroke-width:60; stroke-opacity:1; 
stroke-linecap:round; stroke-linejoin:round;">
<path d="M60650 48210
L60630 48230
L60560 48260
L60510 48260
L60440 48230
L60390 48180
L60370 48140
L60350 48040
L60350 47970
L60370 47880
L60390 47830
L60440 47780
L60510 47760
L60560 47760
L60630 47780
L60650 47800
" />
<path d="M60850 47800
L60870 47780
L60920 47760
L61040 47760
L61080 47780
L61110 47800
L61130 47850
L61130 47900
L61110 47970
L60820 48260
L61130 48260
" />
<path d="M61610 48260
L61330 48260
" />
<path d="M61470 48260
L61470 47760
L61420 47830
L61370 47880
L61330 47900
" />
<path d="M60630 50260
L60350 50260
" />
<path d="M60490 50260
L60490 49760
L60440 49830
L60390 49880
L60350 49900
" />
<path d="M61060 49920
L61060 50260
" />
<path d="M60850 49920
L60850 50180
L60870 50230
L60920 50260
L60990 50260
L61040 50230
L61060 50210
" />
<path d="M61470 49990
L61300 49990
" />
<path d="M61300 50260
L61300 49760
L61540 49760
" />
</g>
<g style="fill:#008484; fill-opacity:0.0; 
stroke:#008484; stroke-width:0; stroke-opacity:1; 
stroke-linecap:round; stroke-linejoin:round;">
</g>
<g style="fill:#840000; fill-opacity:0.0; 
stroke:#840000; stroke-width:0; stroke-opacity:1; 
stroke-linecap:round; stroke-linejoin:round;">
</g>
<g style="fill:#840000; fill-opacity:0.0; 
stroke:#840000; stroke-width:200; stroke-opacity:1; 
stroke-linecap:round; stroke-linejoin:round;">
<polyline fill="none;"
points="61700,49300
63300,49300
" /> 
<polyline fill="none;"
points="61700,48700
63300,48700
" /> 
</g>
<g style="fill:#840000; fill-opacity:0.0; 
stroke:#840000; stroke-width:60; stroke-opacity:1; 
stroke-linecap:round; stroke-linejoin:round;">
<path d="M62500 48600
L62500 47500
" />
<path d="M62500 49400
L62500 50500
" />
</g>
<g style="fill:#008484; fill-opacity:0.0; 
stroke:#008484; stroke-width:60; stroke-opacity:1; 
stroke-linecap:round; stroke-linejoin:round;">
<path d="M63150 48210
L63130 48230
L63060 48260
L63010 48260
L62940 48230
L62890 48180
L62870 48140
L62850 48040
L62850 47970
L62870 47880
L62890 47830
L62940 47780
L63010 47760
L63060 47760
L63130 47780
L63150 47800
" />
<path d="M63350 47800
L63370 47780
L63420 47760
L63540 47760
L63580 47780
L63610 47800
L63630 47850
L63630 47900
L63610 47970
L63320 48260
L63630 48260
" />
<path d="M63830 47800
L63850 47780
L63900 47760
L64020 47760
L64060 47780
L64090 47800
L64110 47850
L64110 47900
L64090 47970
L63800 48260
L64110 48260
" />
<path d="M63130 50260
L62850 50260
" />
<path d="M62990 50260
L62990 49760
L62940 49830
L62890 49880
L62850 49900
" />
<path d="M63560 49920
L63560 50260
" />
<path d="M63350 49920
L63350 50180
L63370 50230
L63420 50260
L63490 50260
L63540 50230
L63560 50210
" />
<path d="M63970 49990
L63800 49990
" />
<path d="M63800 50260
L63800 49760
L64040 49760
" />
</g>
<g style="fill:#008484; fill-opacity:0.0; 
stroke:#008484; stroke-width:0; stroke-opacity:1; 
stroke-linecap:round; stroke-linejoin:round;">
</g>
<g style="fill:#008400; fill-opacity:0.0; 
stroke:#008400; stroke-width:0; stroke-opacity:1; 
stroke-linecap:round; stroke-linejoin:round;">
</g>
<g style="fill:#008400; fill-opacity:1.0; 
stroke:#008400; stroke-width:100; stroke-opacity:1; 
stroke-linecap:round; stroke-linejoin:round;">
<circle cx="45500" cy="45500" r="200" /> 
</g>
<g style="fill:#008400; fill-opacity:1.0; 
stroke:#008400; stroke-width:60; stroke-opacity:1; 
stroke-linecap:round; stroke-linejoin:round;">
</g>
<g style="fill:#008400; fill-opacity:0.0; 
stroke:#008400; stroke-width:60; stroke-opacity:1; 
stroke-linecap:round; stroke-linejoin:round;">
<path d="M49000 45500
L49000 47500
" />
<path d="M49000 47500
L50500 47500
" />
</g>
<g style="fill:#008400; fill-opacity:0.0; 
stroke:#008400; stroke-width:0; stroke-opacity:1; 
stroke-linecap:round; stroke-linejoin:round;">
</g>
<g style="fill:#008400; fill-opacity:1.0; 
stroke:#008400; stroke-width:100; stroke-opacity:1; 
stroke-linecap:round; stroke-linejoin:round;">
<circle cx="49000" cy="45500" r="200" /> 
</g>
<g style="fill:#008400; fill-opacity:1.0; 
stroke:#008400; stroke-width:60; stroke-opacity:1; 
stroke-linecap:round; stroke-linejoin:round;">
</g>
<g style="fill:#008400; fill-opacity:0.0; 
stroke:#008400; stroke-width:60; stroke-opacity:1; 
stroke-linecap:round; stroke-linejoin:round;">
<path d="M58500 47500
L60000 47500
" />
<path d="M62500 47500
L62500 45500
" />
<path d="M58500 45500
L63500 45500
" />
<path d="M42500 50500
L62500 50500
" />
<path d="M54500 50500
L54500 49500
" />
</g>
<g style="fill:#008400; fill-opacity:0.0; 
stroke:#008400; stroke-width:0; stroke-opacity:1; 
stroke-linecap:round; stroke-linejoin:round;">
</g>
<g style="fill:#008400; fill-opacity:1.0; 
stroke:#008400; stroke-width:100; stroke-opacity:1; 
stroke-linecap:round; stroke-linejoin:round;">
<circle cx="60000" cy="50500" r="200" /> 
</g>
<g style="fill:#008400; fill-opacity:1.0; 
stroke:#008400; stroke-width:60; stroke-opacity:1; 
stroke-linecap:round; stroke-linejoin:round;">
</g>
<g style="fill:#008400; fill-opacity:0.0; 
stroke:#008400; stroke-width:60; stroke-opacity:1; 
stroke-linecap:round; stroke-linejoin:round;">
<path d="M45500 50500
L45500 48500
" />
</g>
<g style="fill:#008400; fill-opacity:0.0; 
stroke:#008400; stroke-width:0; stroke-opacity:1; 
stroke-linecap:round; stroke-linejoin:round;">
</g>
<g style="fill:#008400; fill-opacity:1.0; 
stroke:#008400; stroke-width:100; stroke-opacity:1; 
stroke-linecap:round; stroke-linejoin:round;">
<circle cx="54500" cy="50500" r="200" /> 
</g>
<g style="fill:#008400; fill-opacity:1.0; 
stroke:#008400; stroke-width:0; stroke-opacity:1; 
stroke-linecap:round; stroke-linejoin:round;">
</g>
<g style="fill:#008400; fill-opacity:1.0; 
stroke:#008400; stroke-width:100; stroke-opacity:1; 
stroke-linecap:round; stroke-linejoin:round;">
<circle cx="45500" cy="50500" r="200" /> 
</g>
<g style="fill:#008400; fill-opacity:1.0; 
stroke:#008400; stroke-width:0; stroke-opacity:1; 
stroke-linecap:round; stroke-linejoin:round;">
</g>
<g style="fill:#008400; fill-opacity:1.0; 
stroke:#008400; stroke-width:100; stroke-opacity:1; 
stroke-linecap:round; stroke-linejoin:round;">
<circle cx="62500" cy="34500" r="200" /> 
</g>
<g style="fill:#008400; fill-opacity:1.0; 
stroke:#008400; stroke-width:0; stroke-opacity:1; 
stroke-linecap:round; stroke-linejoin:round;">
</g>
<g style="fill:#008400; fill-opacity:1.0; 
stroke:#008400; stroke-width:100; stroke-opacity:1; 
stroke-linecap:round; stroke-linejoin:round;">
<circle cx="62500" cy="45500" r="200" /> 
</g>
<g style="fill:#008400; fill-opacity:1.0; 
stroke:#008400; stroke-width:60; stroke-opacity:1; 
stroke-linecap:round; stroke-linejoin:round;">
</g>
<g style="fill:#008400; fill-opacity:0.0; 
stroke:#008400; stroke-width:60; stroke-opacity:1; 
stroke-linecap:round; stroke-linejoin:round;">
<path d="M58500 23500
L63500 23500
" />
</g>
<g style="fill:#008400; fill-opacity:0.0; 
stroke:#008400; stroke-width:0; stroke-opacity:1; 
stroke-linecap:round; stroke-linejoin:round;">
</g>
<g style="fill:#008400; fill-opacity:1.0; 
stroke:#008400; stroke-width:100; stroke-opacity:1; 
stroke-linecap:round; stroke-linejoin:round;">
<circle cx="62500" cy="23500" r="200" /> 
</g>
<g style="fill:#008400; fill-opacity:1.0; 
stroke:#008400; stroke-width:60; stroke-opacity:1; 
stroke-linecap:round; stroke-linejoin:round;">
</g>
<g style="fill:#848400; fill-opacity:0.0; 
stroke:#848400; stroke-width:60; stroke-opacity:1; 
stroke-linecap:round; stroke-linejoin:round;">
<path d="M35030 34280
L34840 34280
L34820 34470
L34840 34450
L34880 34430
L34970 34430
L35010 34450
L35030 34470
L35050 34500
L35050 34600
L35030 34630
L35010 34650
L34970 34670
L34880 34670
L34840 34650
L34820 34630
" />
<path d="M35160 34280
L35290 34670
L35420 34280
" />
</g>
<g style="fill:#848400; fill-opacity:0.0; 
stroke:#848400; stroke-width:100; stroke-opacity:1; 
stroke-linecap:round; stroke-linejoin:round;">
<polyline fill="none;"
points="36000,34500
35810,34310
35620,34310
35620,34690
35810,34690
36000,34500
" /> 
</g>
<g style="fill:#848400; fill-opacity:0.0; 
stroke:#848400; stroke-width:60; stroke-opacity:1; 
stroke-linecap:round; stroke-linejoin:round;">
</g>
<g style="fill:#008400; fill-opacity:0.0; 
stroke:#008400; stroke-width:60; stroke-opacity:1; 
stroke-linecap:round; stroke-linejoin:round;">
<path d="M37500 23500
L37500 45500
" />
<path d="M36000 34500
L50500 34500
" />
</g>
<g style="fill:#008400; fill-opacity:0.0; 
stroke:#008400; stroke-width:0; stroke-opacity:1; 
stroke-linecap:round; stroke-linejoin:round;">
</g>
<g style="fill:#008400; fill-opacity:1.0; 
stroke:#008400; stroke-width:100; stroke-opacity:1; 
stroke-linecap:round; stroke-linejoin:round;">
<circle cx="37500" cy="34500" r="200" /> 
</g>
<g style="fill:#008400; fill-opacity:1.0; 
stroke:#008400; stroke-width:60; stroke-opacity:1; 
stroke-linecap:round; stroke-linejoin:round;">
</g>
<g style="fill:#008400; fill-opacity:0.0; 
stroke:#008400; stroke-width:60; stroke-opacity:1; 
stroke-linecap:round; stroke-linejoin:round;">
<path d="M37500 45500
L50500 45500
" />
</g>
<g style="fill:#008400; fill-opacity:0.0; 
stroke:#008400; stroke-width:0; stroke-opacity:1; 
stroke-linecap:round; stroke-linejoin:round;">
</g>
<g style="fill:#840000; fill-opacity:0.0; 
stroke:#840000; stroke-width:0; stroke-opacity:1; 
stroke-linecap:round; stroke-linejoin:round;">
</g>
<g style="fill:#840000; fill-opacity:0.0; 
stroke:#840000; stroke-width:60; stroke-opacity:1; 
stroke-linecap:round; stroke-linejoin:round;">
<polyline fill="none;"
points="42500,28500
42500,29000
43000,29000
42500,29500
42000,29000
42500,29000
" /> 
</g>
<g style="fill:#008484; fill-opacity:0.0; 
stroke:#008484; stroke-width:60; stroke-opacity:1; 
stroke-linecap:round; stroke-linejoin:round;">
<path d="M42120 29780
L42070 29760
L42000 29760
L41930 29780
L41880 29830
L41860 29880
L41840 29970
L41840 30040
L41860 30140
L41880 30180
L41930 30230
L42000 30260
L42050 30260
L42120 30230
L42140 30210
L42140 30040
L42050 30040
" />
<path d="M42360 30260
L42360 29760
L42640 30260
L42640 29760
" />
<path d="M42880 30260
L42880 29760
L43000 29760
L43070 29780
L43120 29830
L43140 29880
L43160 29970
L43160 30040
L43140 30140
L43120 30180
L43070 30230
L43000 30260
L42880 30260
" />
</g>
<g style="fill:#008484; fill-opacity:0.0; 
stroke:#008484; stroke-width:0; stroke-opacity:1; 
stroke-linecap:round; stroke-linejoin:round;">
</g>
<g style="fill:#840000; fill-opacity:0.0; 
stroke:#840000; stroke-width:0; stroke-opacity:1; 
stroke-linecap:round; stroke-linejoin:round;">
</g>
<g style="fill:#840000; fill-opacity:0.0; 
stroke:#840000; stroke-width:60; stroke-opacity:1; 
stroke-linecap:round; stroke-linejoin:round;">
<polyline fill="none;"
points="42500,39500
42500,40000
43000,40000
42500,40500
42000,40000
42500,40000
" /> 
</g>
<g style="fill:#008484; fill-opacity:0.0; 
stroke:#008484; stroke-width:60; stroke-opacity:1; 
stroke-linecap:round; stroke-linejoin:round;">
<path d="M42120 40780
L42070 40760
L42000 40760
L41930 40780
L41880 40830
L41860 40880
L41840 40970
L41840 41040
L41860 41140
L41880 41180
L41930 41230
L42000 41260
L42050 41260
L42120 41230
L42140 41210
L42140 41040
L42050 41040
" />
<path d="M42360 41260
L42360 40760
L42640 41260
L42640 40760
" />
<path d="M42880 41260
L42880 40760
L43000 40760
L43070 40780
L43120 40830
L43140 40880
L43160 40970
L43160 41040
L43140 41140
L43120 41180
L43070 41230
L43000 41260
L42880 41260
" />
</g>
<g style="fill:#008484; fill-opacity:0.0; 
stroke:#008484; stroke-width:0; stroke-opacity:1; 
stroke-linecap:round; stroke-linejoin:round;">
</g>
<g style="fill:#840000; fill-opacity:0.0; 
stroke:#840000; stroke-width:0; stroke-opacity:1; 
stroke-linecap:round; stroke-linejoin:round;">
</g>
<g style="fill:#840000; fill-opacity:0.0; 
stroke:#840000; stroke-width:60; stroke-opacity:1; 
stroke-linecap:round; stroke-linejoin:round;">
<polyline fill="none;"
points="42500,50500
42500,51000
43000,51000
42500,51500
42000,51000
42500,51000
" /> 
</g>
<g style="fill:#008484; fill-opacity:0.0; 
stroke:#008484; stroke-width:60; stroke-opacity:1; 
stroke-linecap:round; stroke-linejoin:round;">
<path d="M42120 51780
L42070 51760
L42000 51760
L41930 51780
L41880 51830
L41860 51880
L41840 51970
L41840 52040
L41860 52140
L41880 52180
L41930 52230
L42000 52260
L42050 52260
L42120 52230
L42140 52210
L42140 52040
L42050 52040
" />
<path d="M42360 52260
L42360 51760
L42640 52260
L42640 51760
" />
<path d="M42880 52260
L42880 51760
L43000 51760
L43070 51780
L43120 51830
L43140 51880
L43160 51970
L43160 52040
L43140 52140
L43120 52180
L43070 52230
L43000 52260
L42880 52260
" />
</g>
<g style="fill:#848400; fill-opacity:0.0; 
stroke:#848400; stroke-width:60; stroke-opacity:1; 
stroke-linecap:round; stroke-linejoin:round;">
<path d="M64110 23280
L64350 23280
L64220 23430
L64270 23430
L64310 23450
L64330 23470
L64350 23500
L64350 23600
L64330 23630
L64310 23650
L64270 23670
L64160 23670
L64120 23650
L64110 23630
" />
<path d="M64510 23630
L64530 23650
L64510 23670
L64490 23650
L64510 23630
L64510 23670
" />
<path d="M64670 23280
L64910 23280
L64780 23430
L64830 23430
L64870 23450
L64890 23470
L64910 23500
L64910 23600
L64890 23630
L64870 23650
L64830 23670
L64720 23670
L64680 23650
L64670 23630
" />
<path d="M65020 23280
L65150 23670
L65280 23280
" />
<path d="M65310 23710
L65610 23710
" />
<path d="M65680 23560
L65870 23560
" />
<path d="M65650 23670
L65780 23280
L65910 23670
" />
</g>
<g style="fill:#848400; fill-opacity:0.0; 
stroke:#848400; stroke-width:100; stroke-opacity:1; 
stroke-linecap:round; stroke-linejoin:round;">
<polyline fill="none;"
points="63500,23500
63690,23690
63880,23690
63880,23310
63690,23310
63500,23500
" /> 
</g>
<g style="fill:#848400; fill-opacity:0.0; 
stroke:#848400; stroke-width:60; stroke-opacity:1; 
stroke-linecap:round; stroke-linejoin:round;">
<path d="M64110 34280
L64350 34280
L64220 34430
L64270 34430
L64310 34450
L64330 34470
L64350 34500
L64350 34600
L64330 34630
L64310 34650
L64270 34670
L64160 34670
L64120 34650
L64110 34630
" />
<path d="M64510 34630
L64530 34650
L64510 34670
L64490 34650
L64510 34630
L64510 34670
" />
<path d="M64670 34280
L64910 34280
L64780 34430
L64830 34430
L64870 34450
L64890 34470
L64910 34500
L64910 34600
L64890 34630
L64870 34650
L64830 34670
L64720 34670
L64680 34650
L64670 34630
" />
<path d="M65020 34280
L65150 34670
L65280 34280
" />
<path d="M65310 34710
L65610 34710
" />
<path d="M65930 34630
L65910 34650
L65850 34670
L65810 34670
L65760 34650
L65720 34620
L65700 34580
L65680 34500
L65680 34450
L65700 34370
L65720 34340
L65760 34300
L65810 34280
L65850 34280
L65910 34300
L65930 34320
" />
</g>
<g style="fill:#848400; fill-opacity:0.0; 
stroke:#848400; stroke-width:100; stroke-opacity:1; 
stroke-linecap:round; stroke-linejoin:round;">
<polyline fill="none;"
points="63500,34500
63690,34690
63880,34690
63880,34310
63690,34310
63500,34500
" /> 
</g>
<g style="fill:#848400; fill-opacity:0.0; 
stroke:#848400; stroke-width:60; stroke-opacity:1; 
stroke-linecap:round; stroke-linejoin:round;">
<path d="M64110 45280
L64350 45280
L64220 45430
L64270 45430
L64310 45450
L64330 45470
L64350 45500
L64350 45600
L64330 45630
L64310 45650
L64270 45670
L64160 45670
L64120 45650
L64110 45630
" />
<path d="M64510 45630
L64530 45650
L64510 45670
L64490 45650
L64510 45630
L64510 45670
" />
<path d="M64670 45280
L64910 45280
L64780 45430
L64830 45430
L64870 45450
L64890 45470
L64910 45500
L64910 45600
L64890 45630
L64870 45650
L64830 45670
L64720 45670
L64680 45650
L64670 45630
" />
<path d="M65020 45280
L65150 45670
L65280 45280
" />
<path d="M65310 45710
L65610 45710
" />
<path d="M65700 45670
L65700 45280
L65800 45280
L65850 45300
L65890 45340
L65910 45370
L65930 45450
L65930 45500
L65910 45580
L65890 45620
L65850 45650
L65800 45670
L65700 45670
" />
</g>
<g style="fill:#848400; fill-opacity:0.0; 
stroke:#848400; stroke-width:100; stroke-opacity:1; 
stroke-linecap:round; stroke-linejoin:round;">
<polyline fill="none;"
points="63500,45500
63690,45690
63880,45690
63880,45310
63690,45310
63500,45500
" /> 
</g> 
</svg>
